<svg width="306" height="306" viewBox="0 0 306 306" fill="none" xmlns="http://www.w3.org/2000/svg">
<path d="M146.619 67.8605L154.413 90.1544L146.822 111.894L151.255 113.446L159.345 90.2282L159.382 90.1544L151.587 67.8605L159.345 45.6405L159.382 45.5666L151.587 23.2913L159.179 1.55152L154.764 0L146.656 23.1989L146.619 23.2913L154.413 45.5666L146.656 67.7866L146.619 67.8605Z" fill="#AC7D2C"/>
<path d="M159.382 238.121L151.587 215.846L159.179 194.106L154.764 192.555L146.656 215.754L146.619 215.846L154.413 238.121L146.656 260.341L146.619 260.415L154.413 282.709L146.822 304.449L151.255 306L159.345 282.783L159.382 282.709L151.587 260.415L159.345 238.195L159.382 238.121Z" fill="#AC7D2C"/>
<path d="M282.801 146.656L282.727 146.619L260.433 154.413L238.213 146.656L238.139 146.619L215.846 154.413L194.327 146.896L194.106 146.822L192.554 151.255L215.772 159.345L215.846 159.382L238.139 151.587L260.359 159.345L260.433 159.382L282.727 151.587L304.245 159.105L304.448 159.179L306 154.746L282.801 146.656Z" fill="#AC7D2C"/>
<path d="M23.2913 159.382L45.5851 151.587L67.8051 159.345L67.879 159.382L90.1728 151.587L111.691 159.105L111.894 159.179L113.446 154.746L90.2467 146.656L90.1728 146.619L67.879 154.413L45.659 146.656L45.5851 146.619L23.2913 154.413L1.77316 146.896L1.55152 146.822L0 151.255L23.2174 159.345L23.2913 159.382Z" fill="#AC7D2C"/>
<path d="M240.227 56.7602L229.957 78.0382L208.771 88.2524L208.698 88.2893L198.428 109.567L177.907 119.467L177.686 119.56L179.736 123.79L201.882 113.114L201.937 113.077L212.207 91.7987L233.411 81.5845L233.485 81.5476L243.736 60.2696L264.257 50.3879L264.478 50.2771L262.428 46.0474L240.301 56.7233L240.227 56.7602Z" fill="#AC7D2C"/>
<path d="M65.7916 249.24L76.0427 227.962L97.2468 217.73L97.3207 217.711L107.572 196.433L128.111 186.533L128.314 186.441L126.282 182.211L104.136 192.887L104.062 192.924L93.8113 214.183L72.6072 224.416L72.5334 224.453L62.2823 245.712L41.7431 255.631L41.5399 255.723L43.5717 259.953L65.7178 249.259L65.7916 249.24Z" fill="#AC7D2C"/>
<path d="M227.981 229.957L217.749 208.772L217.712 208.698L196.434 198.428L186.441 177.686L182.211 179.736L192.887 201.882L192.924 201.938L214.202 212.207L224.416 233.411L224.453 233.485L245.731 243.736L255.724 264.46L259.954 262.429L249.241 240.227L227.981 229.957Z" fill="#AC7D2C"/>
<path d="M56.7783 65.7923L78.0379 76.0434L88.2705 97.2475L88.3074 97.3214L109.567 107.572L119.559 128.315L123.789 126.283L113.076 104.063L91.8168 93.812L81.5842 72.6079L81.5657 72.534L60.2877 62.2829L50.2767 41.5405L46.047 43.5723L56.7414 65.7184L56.7783 65.7923Z" fill="#AC7D2C"/>
<path d="M97.4687 35.5926L113.187 53.2134L114.517 76.7079L114.535 76.7817L130.254 94.4026L131.565 117.398L136.238 117.14L134.853 92.5925V92.5001L119.116 74.8793L117.786 51.3849V51.311L102.068 33.6901L100.756 10.7129L96.0649 10.9715L97.4687 35.5187V35.5926Z" fill="#AC7D2C"/>
<path d="M208.531 270.408L192.813 252.787L191.483 229.292L191.465 229.2L175.746 211.598L174.435 188.602L169.762 188.879L171.147 213.408L171.166 213.5L186.884 231.103L188.214 254.597V254.689L203.951 272.31L205.244 295.287L209.935 295.029L208.531 270.482V270.408Z" fill="#AC7D2C"/>
<path d="M270.408 97.4687L252.787 113.187L229.292 114.517L229.219 114.535L211.598 130.254L188.842 131.547L188.602 131.565L188.879 136.238L213.426 134.853H213.5L231.121 119.116L254.616 117.786H254.689L272.31 102.049L295.066 100.775L295.287 100.756L295.029 96.0649L270.482 97.4687H270.408Z" fill="#AC7D2C"/>
<path d="M35.5922 208.532L53.2131 192.813L76.7075 191.483L76.7999 191.465L94.4022 175.747L117.158 174.454L117.398 174.435L117.139 169.762L92.5921 171.147L92.4998 171.166L74.8974 186.884L51.403 188.214H51.3106L33.6898 203.951L10.9342 205.244H10.7125L10.9711 209.935L35.5184 208.532H35.5922Z" fill="#AC7D2C"/>
<path d="M179.699 71.9056L178.351 95.4924L163.168 112.485L163.02 112.67L166.511 115.791L182.894 97.4502L182.95 97.3764L184.28 73.808L199.943 56.2611L199.998 56.1872L201.347 32.6189L216.529 15.6076L216.677 15.4413L213.168 12.3198L196.803 30.661L196.747 30.7164L195.417 54.2847L179.736 71.8502L179.699 71.9056Z" fill="#AC7D2C"/>
<path d="M126.32 234.095L127.649 210.508L142.832 193.515L142.98 193.33L139.489 190.209L123.124 208.55L123.069 208.606L121.72 232.192L106.057 249.739L106.002 249.813L104.654 273.381L89.4895 290.393L89.3232 290.559L92.8326 293.681L109.197 275.339L109.253 275.284L110.601 251.697L126.264 234.15L126.32 234.095Z" fill="#AC7D2C"/>
<path d="M275.284 196.748L251.716 195.418L234.15 179.736L234.095 179.699L210.526 178.351L193.515 163.168L193.33 163.021L190.209 166.511L208.55 182.895L208.624 182.932L232.192 184.28L249.758 199.943L249.813 199.998L273.381 201.347L290.393 216.511L290.559 216.677L293.681 213.168L275.339 196.803L275.284 196.748Z" fill="#AC7D2C"/>
<path d="M30.7164 109.253L54.3032 110.601L71.8501 126.264L71.9056 126.32L95.4923 127.649L112.485 142.832L112.67 142.98L115.791 139.489L97.4502 123.124L97.3948 123.069L73.808 121.72L56.2611 106.057L56.2057 106.002L32.6189 104.672L15.6076 89.4895L15.4413 89.3232L12.3198 92.8326L30.661 109.197L30.7164 109.253Z" fill="#AC7D2C"/>
<path d="M154.875 111.285L154.746 111.469L158.809 113.834L171.185 92.5925L171.222 92.5186L167.823 69.1535L179.663 48.8175L179.699 48.7436L176.301 25.3785L187.771 5.68898L187.882 5.4858L183.837 3.12158L171.462 24.3626L171.425 24.4365L174.823 47.8016L162.984 68.1376L162.947 68.2115L166.345 91.5767L154.875 111.285Z" fill="#AC7D2C"/>
<path d="M151.144 194.734L151.255 194.531L147.191 192.167L134.834 213.408L134.779 213.481L138.196 236.847L126.338 257.183L126.301 257.238L129.7 280.622L118.229 300.311L118.119 300.514L122.182 302.878L134.539 281.637L134.576 281.564L131.177 258.198L143.035 237.862L143.072 237.789L139.674 214.423L151.144 194.734Z" fill="#AC7D2C"/>
<path d="M281.563 171.424L258.198 174.823L237.862 162.983L237.788 162.928L214.423 166.345L194.734 154.856L194.531 154.746L192.166 158.809L213.407 171.184L213.481 171.221L236.846 167.823L257.182 179.662L257.256 179.699L280.621 176.301L300.311 187.771L300.514 187.882L302.878 183.837L281.637 171.461L281.563 171.424Z" fill="#AC7D2C"/>
<path d="M24.4365 134.576L47.8201 131.177L68.1376 143.035L68.2115 143.072L91.5767 139.674L111.285 151.144L111.469 151.255L113.834 147.191L92.5925 134.834L92.5186 134.779L69.1535 138.196L48.836 126.338L48.7621 126.301L25.3785 129.7L5.68898 118.229L5.4858 118.119L3.12158 122.164L24.3811 134.539L24.4365 134.576Z" fill="#AC7D2C"/>
<path d="M256.942 75.1197L242.813 94.0335L220.075 100.055L219.983 100.073L205.872 119.006L183.818 124.824L183.596 124.879L184.797 129.404L208.568 123.143L208.642 123.124L222.772 104.192L245.528 98.1893L245.602 98.1524L259.713 79.2386L281.748 73.4204L281.97 73.365L280.769 68.8213L257.016 75.0828L256.942 75.1197Z" fill="#AC7D2C"/>
<path d="M49.076 230.881L63.1874 211.949L85.943 205.946L86.0354 205.927L100.147 186.995L122.182 181.195L122.404 181.121L121.203 176.596L97.4501 182.858L97.3578 182.876L83.2463 201.808L60.4907 207.811L60.4168 207.83L46.2869 226.762L24.2517 232.58L24.03 232.636L25.2306 237.179L49.0021 230.899L49.076 230.881Z" fill="#AC7D2C"/>
<path d="M230.899 256.943L211.967 242.813L205.964 220.057L205.927 219.983L187.013 205.872L181.195 183.818L181.121 183.597L176.596 184.797L182.876 208.569L182.894 208.643L201.827 222.773L207.83 245.528L207.848 245.602L226.78 259.713L232.58 281.749L232.635 281.97L237.179 280.77L230.918 257.017L230.899 256.943Z" fill="#AC7D2C"/>
<path d="M75.1196 49.0762L94.0518 63.1877L100.055 85.9433L100.073 86.0356L119.005 100.147L124.824 122.182L124.879 122.404L129.404 121.203L123.143 97.4319L123.124 97.358L104.192 83.2466L98.1892 60.491L98.1707 60.4171L79.2385 46.2872L73.4203 24.2519L73.3649 24.0303L68.8212 25.2309L75.1011 49.0023L75.1196 49.0762Z" fill="#AC7D2C"/>
<path d="M129.737 70.8525L141.816 91.1515L138.732 113.963L143.368 114.591L146.693 90.1541L134.594 69.8736L137.771 46.4715L125.692 26.1724L128.776 3.36139L124.122 2.7334L120.815 27.1698L132.895 47.4689L129.737 70.8525Z" fill="#AC7D2C"/>
<path d="M176.264 235.129L164.184 214.849L167.269 192.038L162.632 191.41L159.308 215.846L171.406 236.127L168.229 259.529L180.309 279.809L177.224 302.639L181.879 303.267L185.185 278.83L173.105 258.531L176.264 235.129Z" fill="#AC7D2C"/>
<path d="M258.549 132.895L235.147 129.737L214.848 141.816L192.259 138.75L192.037 138.732L191.409 143.368L215.846 146.693L236.145 134.594L259.528 137.771L279.827 125.692L302.398 128.758L302.638 128.776L303.266 124.122L278.83 120.815L258.549 132.895Z" fill="#AC7D2C"/>
<path d="M47.4692 173.105L70.8713 176.264L91.1519 164.184L113.741 167.25L113.963 167.268L114.591 162.632L90.1545 159.308L69.8739 171.406L46.4718 168.229L26.1913 180.309L3.60188 177.261L3.36176 177.224L2.73376 181.879L27.1887 185.185L47.4692 173.105Z" fill="#AC7D2C"/>
<path d="M194.642 78.463L188.823 101.348L170.685 115.164L170.501 115.312L173.345 119.043L192.979 104.1L198.779 81.1966L217.563 66.9005L223.363 44.0156L241.501 30.1997L241.686 30.0704L238.841 26.3394L219.226 41.2635L213.426 64.1484L194.642 78.463Z" fill="#AC7D2C"/>
<path d="M111.377 227.519L117.177 204.634L135.315 190.837L135.5 190.689L132.655 186.958L113.039 201.901L107.24 224.786L88.4552 239.1L82.637 261.985L64.499 275.801L64.3143 275.93L67.1588 279.661L86.7929 264.719L92.5926 241.834L111.377 227.519Z" fill="#AC7D2C"/>
<path d="M264.737 219.226L241.852 213.426L227.593 194.697L227.538 194.642L204.653 188.824L190.837 170.686L190.689 170.501L186.958 173.345L201.864 192.906L201.9 192.98L224.804 198.779L239.063 217.508L239.1 217.564L262.003 223.363L275.801 241.501L275.93 241.686L279.661 238.842L264.792 219.281L264.737 219.226Z" fill="#AC7D2C"/>
<path d="M41.2811 86.793L64.166 92.5927L78.4252 111.322L78.4806 111.377L101.366 117.177L115.163 135.315L115.311 135.5L119.042 132.655L104.155 113.095L104.099 113.04L81.2143 107.24L66.9551 88.5108L66.9181 88.4369L44.0147 82.6372L30.1988 64.4992L30.0695 64.3145L26.3385 67.1589L41.2257 86.7191L41.2811 86.793Z" fill="#AC7D2C"/>
</svg>
