<svg width="210" height="210" viewBox="0 0 210 210" fill="none" xmlns="http://www.w3.org/2000/svg">
<path d="M100.621 46.5709L105.97 61.8706L100.761 76.79L103.803 77.8548L109.355 61.9213L109.38 61.8706L104.031 46.5709L109.355 31.3219L109.38 31.2712L104.031 15.9842L109.241 1.06477L106.211 0L100.646 15.9208L100.621 15.9842L105.97 31.2712L100.646 46.5202L100.621 46.5709Z" fill="#AC7D2C"/>
<path d="M109.38 163.416L104.031 148.129L109.241 133.21L106.211 132.145L100.646 148.066L100.621 148.129L105.97 163.416L100.646 178.665L100.621 178.716L105.97 194.016L100.761 208.935L103.803 210L109.355 194.066L109.38 194.016L104.031 178.716L109.355 163.467L109.38 163.416Z" fill="#AC7D2C"/>
<path d="M194.078 100.646L194.028 100.621L178.728 105.97L163.479 100.646L163.428 100.621L148.129 105.97L133.361 100.811L133.209 100.76L132.145 103.802L148.078 109.354L148.129 109.38L163.428 104.03L178.677 109.354L178.728 109.38L194.028 104.03L208.795 109.189L208.935 109.24L209.999 106.198L194.078 100.646Z" fill="#AC7D2C"/>
<path d="M15.9842 109.38L31.2839 104.03L46.5329 109.354L46.5836 109.38L61.8832 104.03L76.6506 109.189L76.79 109.24L77.8548 106.198L61.9339 100.646L61.8832 100.621L46.5836 105.97L31.3346 100.646L31.2839 100.621L15.9842 105.97L1.21688 100.811L1.06477 100.76L0 103.802L15.9335 109.354L15.9842 109.38Z" fill="#AC7D2C"/>
<path d="M164.862 38.953L157.814 53.5556L143.275 60.5653L143.224 60.5906L136.176 75.1931L122.094 81.9874L121.941 82.0507L123.348 84.9535L138.547 77.6269L138.585 77.6015L145.632 62.999L160.184 55.9893L160.235 55.964L167.27 41.3614L181.353 34.5799L181.505 34.5038L180.098 31.6011L164.912 38.9277L164.862 38.953Z" fill="#AC7D2C"/>
<path d="M45.1511 171.047L52.1862 156.444L66.738 149.422L66.7887 149.409L73.8238 134.807L87.9193 128.013L88.0587 127.949L86.6644 125.046L71.4661 132.373L71.4154 132.398L64.3803 146.988L49.8285 154.011L49.7778 154.036L42.7427 168.626L28.6472 175.433L28.5078 175.496L29.9022 178.399L45.1004 171.06L45.1511 171.047Z" fill="#AC7D2C"/>
<path d="M156.457 157.813L149.435 143.274L149.41 143.224L134.807 136.176L127.95 121.941L125.047 123.348L132.373 138.546L132.399 138.584L147.001 145.632L154.011 160.184L154.036 160.235L168.639 167.27L175.497 181.492L178.399 180.097L171.047 164.861L156.457 157.813Z" fill="#AC7D2C"/>
<path d="M38.9662 45.1516L53.5561 52.1867L60.5784 66.7385L60.6038 66.7892L75.1936 73.8243L82.0513 88.0592L84.954 86.6649L77.602 71.4159L63.0122 64.3808L55.9898 49.829L55.9771 49.7783L41.3746 42.7432L34.5043 28.5083L31.6016 29.9026L38.9409 45.1009L38.9662 45.1516Z" fill="#AC7D2C"/>
<path d="M66.8891 24.4261L77.6762 36.5188L78.5889 52.6424L78.6016 52.6931L89.3887 64.7859L90.2887 80.5672L93.4957 80.3898L92.545 63.5436V63.4802L81.7452 51.3875L80.8325 35.2639V35.2132L70.0454 23.1205L69.1454 7.35181L65.9258 7.52927L66.8891 24.3754V24.4261Z" fill="#AC7D2C"/>
<path d="M143.11 185.574L132.323 173.481L131.411 157.357L131.398 157.294L120.611 145.214L119.711 129.433L116.504 129.623L117.455 146.456L117.467 146.52L128.254 158.6L129.167 174.723V174.787L139.967 186.879L140.854 202.648L144.074 202.471L143.11 185.624V185.574Z" fill="#AC7D2C"/>
<path d="M185.573 66.8901L173.48 77.6772L157.356 78.5899L157.306 78.6026L145.213 89.3896L129.596 90.277L129.432 90.2896L129.622 93.4966L146.468 92.5459H146.519L158.611 81.7461L174.735 80.8335H174.786L186.878 70.0337L202.495 69.1591L202.647 69.1464L202.47 65.9268L185.623 66.8901H185.573Z" fill="#AC7D2C"/>
<path d="M24.4259 143.11L36.5186 132.323L52.6422 131.41L52.7056 131.397L64.7856 120.61L80.4022 119.723L80.567 119.71L80.3895 116.503L63.5434 117.454L63.48 117.467L51.4 128.254L35.2763 129.167H35.213L23.1203 139.966L7.50367 140.854H7.35156L7.52902 144.073L24.3752 143.11H24.4259Z" fill="#AC7D2C"/>
<path d="M123.323 49.347L122.398 65.534L111.978 77.1957L111.877 77.3225L114.273 79.4647L125.516 66.8776L125.554 66.8269L126.467 50.6526L137.216 38.6106L137.254 38.5599L138.179 22.3855L148.599 10.7111L148.7 10.597L146.292 8.45483L135.061 21.0419L135.023 21.0799L134.11 37.2543L123.349 49.3089L123.323 49.347Z" fill="#AC7D2C"/>
<path d="M86.6904 160.653L87.6031 144.466L98.0226 132.805L98.124 132.678L95.7282 130.536L84.4975 143.123L84.4595 143.161L83.5341 159.348L72.7851 171.39L72.747 171.44L71.8217 187.615L61.4149 199.289L61.3008 199.403L63.7092 201.545L74.9399 188.958L74.978 188.92L75.9033 172.733L86.6524 160.691L86.6904 160.653Z" fill="#AC7D2C"/>
<path d="M188.92 135.022L172.746 134.11L160.691 123.348L160.653 123.323L144.479 122.397L132.804 111.978L132.677 111.876L130.535 114.272L143.122 125.516L143.173 125.541L159.347 126.466L171.402 137.215L171.44 137.253L187.614 138.179L199.289 148.586L199.403 148.7L201.545 146.291L188.958 135.06L188.92 135.022Z" fill="#AC7D2C"/>
<path d="M21.0802 74.9772L37.2672 75.9026L49.3092 86.6516L49.3472 86.6897L65.5342 87.6023L77.1959 98.0218L77.3227 98.1232L79.4649 95.7275L66.8778 84.4968L66.8398 84.4587L50.6528 83.5334L38.6108 72.7843L38.5728 72.7463L22.3858 71.8336L10.7114 61.4141L10.5973 61.3L8.45508 63.7084L21.0421 74.9392L21.0802 74.9772Z" fill="#AC7D2C"/>
<path d="M106.286 76.3718L106.197 76.4986L108.986 78.1211L117.479 63.5439L117.504 63.4932L115.172 47.4583L123.297 33.5023L123.322 33.4516L120.99 17.4167L128.862 3.90427L128.938 3.76484L126.162 2.14233L117.669 16.7195L117.644 16.7702L119.976 32.8051L111.851 46.7611L111.825 46.8118L114.158 62.8467L106.286 76.3718Z" fill="#AC7D2C"/>
<path d="M103.727 133.641L103.803 133.501L101.014 131.879L92.5341 146.456L92.4961 146.507L94.8411 162.542L86.7032 176.498L86.6779 176.536L89.0102 192.583L81.1386 206.096L81.0625 206.235L83.8512 207.858L92.3313 193.28L92.3566 193.23L90.0243 177.195L98.1622 163.239L98.1875 163.188L95.8552 147.153L103.727 133.641Z" fill="#AC7D2C"/>
<path d="M193.23 117.644L177.195 119.976L163.239 111.851L163.188 111.813L147.153 114.158L133.641 106.274L133.501 106.198L131.879 108.986L146.456 117.479L146.507 117.505L162.542 115.172L176.498 123.297L176.548 123.323L192.583 120.99L206.096 128.862L206.235 128.938L207.858 126.162L193.28 117.669L193.23 117.644Z" fill="#AC7D2C"/>
<path d="M16.7704 92.3559L32.818 90.0236L46.7614 98.1614L46.8121 98.1868L62.847 95.8544L76.3721 103.726L76.4988 103.802L78.1213 101.013L63.5441 92.5334L63.4934 92.4953L47.4586 94.8404L33.5152 86.7025L33.4645 86.6771L17.4169 89.0095L3.90451 81.1378L3.76508 81.0618L2.14258 83.8378L16.7324 92.3306L16.7704 92.3559Z" fill="#AC7D2C"/>
<path d="M176.334 51.5527L166.637 64.5327L151.033 68.665L150.969 68.6777L141.285 81.6704L126.15 85.6633L125.998 85.7013L126.822 88.8069L143.136 84.5098L143.186 84.4971L152.883 71.5044L168.5 67.3847L168.551 67.3594L178.235 54.3794L193.357 50.3865L193.509 50.3485L192.685 47.2302L176.384 51.5273L176.334 51.5527Z" fill="#AC7D2C"/>
<path d="M33.6786 158.448L43.3629 145.455L58.9795 141.335L59.0429 141.323L68.7272 128.33L83.8494 124.35L84.0015 124.299L83.1776 121.193L66.8765 125.49L66.8131 125.503L57.1288 138.496L41.5123 142.615L41.4616 142.628L31.7646 155.621L16.6423 159.614L16.4902 159.652L17.3142 162.77L33.6279 158.46L33.6786 158.448Z" fill="#AC7D2C"/>
<path d="M158.46 176.333L145.468 166.636L141.348 151.02L141.323 150.969L128.343 141.285L124.35 126.15L124.299 125.998L121.193 126.821L125.503 143.135L125.516 143.186L138.508 152.883L142.628 168.499L142.641 168.55L155.634 178.235L159.614 193.357L159.652 193.509L162.77 192.685L158.473 176.384L158.46 176.333Z" fill="#AC7D2C"/>
<path d="M51.5529 33.6796L64.5456 43.3639L68.6652 58.9805L68.6779 59.0439L81.6706 68.7282L85.6635 83.8504L85.7015 84.0025L88.8071 83.1786L84.51 66.8648L84.4973 66.8141L71.5046 57.1298L67.385 41.5132L67.3723 41.4625L54.3796 31.7655L50.3867 16.6433L50.3487 16.4912L47.2305 17.3151L51.5402 33.6289L51.5529 33.6796Z" fill="#AC7D2C"/>
<path d="M89.0365 48.6241L97.3264 62.5548L95.2096 78.2094L98.3912 78.6404L100.673 61.8703L92.3702 47.9523L94.5504 31.892L86.2605 17.9613L88.3773 2.30671L85.183 1.87573L82.9141 18.6458L91.204 32.5765L89.0365 48.6241Z" fill="#AC7D2C"/>
<path d="M120.966 161.363L112.676 147.445L114.793 131.79L111.612 131.359L109.33 148.129L117.633 162.047L115.452 178.108L123.742 192.026L121.626 207.693L124.82 208.124L127.089 191.354L118.799 177.423L120.966 161.363Z" fill="#AC7D2C"/>
<path d="M177.436 91.2026L161.376 89.035L147.445 97.325L131.942 95.2208L131.79 95.2081L131.359 98.3897L148.129 100.671L162.06 92.3687L178.108 94.549L192.038 86.259L207.528 88.3632L207.693 88.3759L208.124 85.1816L191.354 82.9126L177.436 91.2026Z" fill="#AC7D2C"/>
<path d="M32.5777 118.797L48.638 120.965L62.556 112.675L78.0585 114.779L78.2106 114.792L78.6416 111.61L61.8715 109.329L47.9535 117.631L31.8932 115.451L17.9752 123.741L2.47272 121.649L2.30793 121.624L1.87695 124.818L18.6597 127.087L32.5777 118.797Z" fill="#AC7D2C"/>
<path d="M133.577 53.847L129.584 69.5523L117.137 79.0338L117.01 79.1352L118.962 81.6957L132.436 71.441L136.416 55.723L149.308 45.912L153.288 30.2067L165.736 20.7252L165.862 20.6364L163.91 18.0759L150.449 28.318L146.468 44.0233L133.577 53.847Z" fill="#AC7D2C"/>
<path d="M76.4347 156.141L80.4149 140.435L92.8625 130.967L92.9893 130.865L91.0372 128.305L77.5755 138.559L73.5953 154.265L60.704 164.088L56.7111 179.794L44.2635 189.275L44.1367 189.364L46.0888 191.925L59.5632 181.67L63.5434 165.964L76.4347 156.141Z" fill="#AC7D2C"/>
<path d="M181.682 150.449L165.977 146.469L156.191 133.616L156.153 133.578L140.448 129.585L130.967 117.137L130.865 117.01L128.305 118.962L138.534 132.386L138.559 132.437L154.277 136.417L164.063 149.27L164.088 149.308L179.806 153.288L189.275 165.736L189.364 165.863L191.925 163.911L181.721 150.487L181.682 150.449Z" fill="#AC7D2C"/>
<path d="M28.3309 59.5636L44.0362 63.5438L53.8219 76.3971L53.8599 76.4351L69.5653 80.4153L79.0341 92.863L79.1355 92.9897L81.696 91.0376L71.4793 77.614L71.4413 77.5759L55.736 73.5957L45.9502 60.7425L45.9249 60.6918L30.2069 56.7116L20.7254 44.264L20.6367 44.1372L18.0762 46.0893L28.2929 59.5129L28.3309 59.5636Z" fill="#AC7D2C"/>
</svg>