<?xml version="1.0" standalone="no"?>
<!DOCTYPE svg PUBLIC "-//W3C//DTD SVG 20010904//EN"
 "http://www.w3.org/TR/2001/REC-SVG-20010904/DTD/svg10.dtd">
<svg version="1.0" xmlns="http://www.w3.org/2000/svg"
 width="531.000000pt" height="531.000000pt" viewBox="0 0 531.000000 531.000000"
 preserveAspectRatio="xMidYMid meet">
<metadata>
Created by potrace 1.14, written by Peter Selinger 2001-2017
</metadata>
<g transform="translate(0.000000,531.000000) scale(0.100000,-0.100000)"
fill="#000000" stroke="none">
<path d="M2489 5258 c-5 -242 -51 -500 -129 -732 -97 -290 -240 -549 -435
-788 -64 -79 -229 -248 -305 -313 -186 -159 -416 -302 -640 -398 -113 -48
-301 -113 -360 -123 -14 -3 -41 -9 -60 -14 -128 -33 -370 -63 -512 -63 l-48 0
0 -167 0 -168 33 1 c44 1 270 -14 277 -18 3 -1 28 -5 55 -9 272 -33 615 -152
875 -303 298 -174 558 -406 760 -677 308 -414 482 -930 490 -1448 l0 -28 165
0 165 0 1 33 c3 157 18 300 50 457 61 302 194 625 361 875 246 368 592 674
978 862 135 66 360 152 436 167 10 2 47 11 81 20 69 18 140 32 205 41 24 3 52
8 63 9 37 7 219 19 268 19 l47 0 0 166 0 167 -57 0 c-91 1 -230 14 -328 30
-49 9 -99 17 -110 19 -242 39 -604 187 -860 353 -195 125 -443 349 -585 527
-343 430 -541 975 -549 1508 l-1 47 -165 0 -165 0 -1 -52z m208 -1005 c13 -28
23 -55 23 -58 0 -13 128 -261 170 -330 219 -359 509 -663 856 -896 57 -38 108
-69 114 -69 5 0 10 -3 10 -7 0 -5 10 -13 23 -19 12 -6 69 -35 127 -65 111 -58
195 -96 273 -124 48 -18 70 -35 44 -35 -8 0 -36 -9 -63 -21 -306 -130 -504
-247 -734 -429 -137 -109 -333 -305 -425 -424 -16 -21 -36 -45 -43 -52 -18
-19 -196 -285 -217 -325 -54 -102 -126 -252 -149 -309 -15 -36 -31 -73 -36
-82 -6 -10 -10 -26 -10 -35 -1 -10 -21 32 -46 92 -83 205 -197 410 -331 597
-30 42 -63 85 -72 95 -9 10 -40 48 -70 83 -186 222 -491 473 -756 623 -77 43
-262 131 -340 162 -75 29 -100 45 -72 45 39 0 347 146 467 222 25 15 53 31 63
34 9 4 17 10 17 15 0 5 5 9 10 9 13 0 171 113 270 194 159 129 390 378 501
541 19 28 36 52 39 55 9 9 50 69 50 73 0 3 24 44 53 93 70 119 150 283 193
398 17 47 18 48 28 25 5 -13 20 -47 33 -76z"/>
</g>
</svg>
