<svg xmlns="http://www.w3.org/2000/svg" fill="none" viewBox="0 0 80 80">
  <defs/>
  <path fill="#AC7D2C" d="M39.5323 23.7277l-1.9135 5.4855 2.6364.9071 2.2395-6.3926-2.0269-5.7831 2.0269-5.7831-2.0269-5.7689L42.3813.921328 39.7591 0l-2.2396 6.3926 2.0128 5.7689-2.0128 5.7831 2.0128 5.7831zM40.4678 56.2862l1.9135-5.4855-2.6222-.9213-2.2396 6.4068 2.0128 5.7689-2.0128 5.7689 2.0128 5.7831-1.9135 5.4855 2.6364.9071 2.2395-6.3926-2.0269-5.7831 2.0269-5.7689-2.0269-5.7689zM73.6634 37.5337l-.0567-.0142-5.769 2.0128-5.7122-1.9986-.0567-.0142-5.7831 2.0128-5.4855-1.9135-.9213 2.6364 6.3501 2.2112.0567.0283 5.7831-2.0269 5.7122 1.9986.0567.0283 5.769-2.0269 5.4854 1.9135.9072-2.6222-6.3359-2.2254zM6.40678 42.4947l5.78312-2.0269 5.7122 1.9986.0567.0283 5.7689-2.0269 5.4855 1.9135.9213-2.6222-6.3501-2.2254-.0567-.0142-5.7689 2.0128-5.7122-1.9986-.0567-.0142-5.78312 2.0128-5.485452-1.9135L0 40.2552l6.35008 2.2112.0567.0283zM53.8482 22.6502l-2.6648 5.5138-5.0744 2.438-.1559.085 1.2048 2.5089 6.0525-2.9199.0567-.0284 2.6647-5.5137 5.4571-2.6365.0567-.0141 2.6506-5.5138 5.0744-2.438.1559-.0851-1.219-2.5088-6.0382 2.9199-.0567.0283-2.6648 5.4997-5.4429 2.6364-.0567.0283zM26.1658 57.3494l2.6648-5.4996 5.0602-2.4522.1701-.0709-1.219-2.523-6.0524 2.9199-.0567.0284-2.6506 5.5138-5.4571 2.6222-.0567.0284-2.6506 5.5137-5.0744 2.4522-.1559.0709 1.2048 2.5088 6.0524-2.9199.0567-.0283L20.6662 60l5.4571-2.6223.0425-.0283zM60.0112 59.3478l-2.6222-5.4429-.0284-.0567-5.5138-2.6648-2.523-5.2303-2.523 1.2048 2.9341 6.0525.0141.0567 5.5138 2.6647 2.6364 5.4571.0284.0567 5.4996 2.6506 2.523 5.2303 2.5089-1.219-2.9341-6.0949-5.5138-2.6648zM14.4873 18.0014l5.5138 2.6648 2.6364 5.4571.0284.0425 5.4996 2.6648 2.523 5.2303 2.5089-1.219-2.9199-6.0524-.0284-.0567-5.4996-2.6506-2.6364-5.4571-.0284-.0567-5.4996-2.6506-2.5372-5.2303-2.5088 1.2048 2.9199 6.0524.0283.0567zM28.9156 14.4719l.3543 6.095 4.068 4.5782.3261 5.7973 2.7923-.1559-.3827-6.7753-4.0822-4.5641-.3402-6.1091-4.068-4.56415-.3402-5.79729-2.7782.15592.3828 6.77531 4.068 4.56411zM51.0851 65.5276l-.3543-6.1091-4.068-4.5641-.326-5.7831-2.7782.1559.3827 6.7611 4.068 4.5642.3402 6.1091 4.0822 4.5641.326 5.7973 2.7923-.1559-.3968-6.7754-4.0681-4.5641zM59.4909 29.2558l-.0567.0141-4.5642 4.068-5.8114.3261.1701 2.7923 6.7044-.3827h.0709l4.5641-4.0822 6.0383-.3402h.0708l4.55-4.068 5.7972-.3402-.1559-2.7782-6.7044.3828h-.0709l-4.5499 4.068-6.0524.3402zM20.5243 50.744l.0567-.0142 4.5641-4.068 5.7973-.326-.1559-2.7782-6.7044.3685-.0709.0142-4.5499 4.068-6.0525.3402h-.0567l-4.56408 4.0822-5.62719.3118-.18427.0142.17009 2.7924 6.70444-.3828.0567-.0141 4.57831-4.068 6.0382-.3402zM44.0094 30.9703l4.4791-5.0177.0425-.0425.3402-6.1091 4.0397-4.5216.0425-.0425.3402-6.09498 3.8695-4.33733-2.0836-1.85684-4.4791 5.0177-.0425.04252-.3402 6.09493-4.0255 4.5216-.0425.0425-.3543 6.1091-3.8696 4.3374 2.0836 1.8568zM35.9872 49.0288l-4.4649 5.0177-.0425.0425-.3544 6.095-4.0255 4.5216-.0425.0425-.3402 6.1091-3.8695 4.3373 2.0694 1.8569 4.4791-5.0036.0425-.0566.3544-6.1092 4.0255-4.5216.0425-.0425.3402-6.0949 3.8695-4.3374-2.0836-1.8568zM72.0039 50.5741l-6.1091-.3544-4.5217-4.0255-.0425-.0425-6.1091-.3544-4.3373-3.8696-1.8569 2.0837 5.0177 4.479.0426.0426 6.1091.3401 4.5216 4.0397.0425.0425 6.1091.3402 4.1956 3.742.1276.1276 1.8568-2.0836-5.0035-4.4649-.0425-.0425zM8.00944 29.4397l6.10916.3543 4.5641 4.068 6.1091.3402 4.1956 3.7562.1275.1134 1.8569-2.0836-5.0602-4.5074-6.095-.3402-4.5216-4.0397-.0425-.0425-6.10912-.3402-4.33733-3.8696-1.85683 2.0695 5.01769 4.479.04253.0426z"/>
</svg>