<svg width="130" height="130" viewBox="0 0 130 130" fill="none" xmlns="http://www.w3.org/2000/svg">
<path d="M64.2395 38.5577L61.13 47.4716L65.4142 48.9457L69.0534 38.5577L65.7597 29.1601L69.0534 19.7626L65.7597 10.388L68.8692 1.49716L64.608 0L60.9688 10.388L64.2395 19.7626L60.9688 29.1601L64.2395 38.5577Z" fill="#AC7D2C"/>
<path d="M65.7597 91.4652L68.8692 82.5514L64.608 81.0542L60.9688 91.4652L64.2395 100.84L60.9688 110.214L64.2395 119.612L61.13 128.526L65.4142 130L69.0534 119.612L65.7597 110.214L69.0534 100.84L65.7597 91.4652Z" fill="#AC7D2C"/>
<path d="M119.705 60.9923L119.612 60.9692L110.238 64.24L100.955 60.9923L100.863 60.9692L91.4657 64.24L82.5519 61.1305L81.0547 65.4147L91.3736 69.0079L91.4657 69.0539L100.863 65.7602L110.146 69.0079L110.238 69.0539L119.612 65.7602L128.526 68.8697L130 64.6085L119.705 60.9923Z" fill="#AC7D2C"/>
<path d="M10.411 69.0539L19.8086 65.7602L29.091 69.0079L29.1832 69.0539L38.5577 65.7602L47.4716 68.8697L48.9688 64.6085L38.6499 60.9923L38.5577 60.9692L29.1832 64.24L19.9008 60.9923L19.8086 60.9692L10.411 64.24L1.49716 61.1305L0 65.4147L10.3189 69.0079L10.411 69.0539Z" fill="#AC7D2C"/>
<path d="M87.5034 36.8071L83.1731 45.7671L74.9272 49.7288L74.6738 49.867L76.6317 53.9439L86.4669 49.199L86.559 49.153L90.8893 40.193L99.7571 35.9088L99.8492 35.8858L104.156 26.9258L112.402 22.9641L112.656 22.8259L110.675 18.749L100.863 23.4939L100.771 23.5399L96.4403 32.4769L87.5955 36.7611L87.5034 36.8071Z" fill="#AC7D2C"/>
<path d="M42.5195 93.1929L46.8498 84.256L55.0727 80.2712L55.3491 80.1561L53.3682 76.0562L43.533 80.801L43.4409 80.8471L39.1336 89.807L30.2658 94.0682L30.1737 94.1143L25.8665 103.074L17.6206 107.059L17.3672 107.174L19.325 111.251L29.1602 106.506L29.2524 106.46L33.5826 97.5002L42.4504 93.239L42.5195 93.1929Z" fill="#AC7D2C"/>
<path d="M97.5237 96.4403L93.2625 87.5955L93.2164 87.5034L84.2565 83.1731L80.1566 74.6738L76.0566 76.6317L80.8245 86.4669L80.8476 86.559L89.8075 90.8893L94.0917 99.7571L94.1378 99.8492L103.075 104.156L107.175 112.656L111.251 110.675L106.484 100.771L97.5237 96.4403Z" fill="#AC7D2C"/>
<path d="M23.539 29.2524L32.4989 33.5826L36.7831 42.4504L36.8292 42.5195L45.7661 46.8498L49.866 55.3491L53.9429 53.3682L49.198 43.533L49.152 43.4409L40.2151 39.1336L35.9309 30.2658L35.8848 30.1737L26.9479 25.8665L22.8249 17.3672L18.748 19.325L23.4929 29.1602L23.539 29.2524Z" fill="#AC7D2C"/>
<path d="M46.9883 23.5169L47.5641 33.4212L54.1747 40.861L54.7045 50.2816L59.242 50.0282L58.6201 39.0183L51.9865 31.6016L51.4337 21.6742L44.8232 14.2575L44.2704 4.83691L39.7559 5.09028L40.3778 16.1002L46.9883 23.5169Z" fill="#AC7D2C"/>
<path d="M83.0119 106.483L82.4361 96.5555L75.8255 89.1388L75.2958 79.7412L70.7812 79.9946L71.4032 90.9815L78.0137 98.3982L78.5665 108.326L85.2001 115.742L85.7299 125.163L90.2674 124.909L89.6225 113.9L83.0119 106.483Z" fill="#AC7D2C"/>
<path d="M96.6712 47.5406L96.5791 47.5637L89.1624 54.1742L79.7188 54.704L79.9951 59.2415L90.8899 58.6196H91.0051L98.4218 51.986L108.234 51.4332H108.349L115.743 44.8227L125.163 44.2699L124.91 39.7554L114.015 40.3773H113.9L106.506 46.9878L96.6712 47.5406Z" fill="#AC7D2C"/>
<path d="M33.3531 82.4591L33.4452 82.4361L40.862 75.8255L50.2826 75.2958L50.0292 70.7812L39.1345 71.3801L39.0193 71.4031L31.6256 78.0137L21.7904 78.5665H21.6983L14.2815 85.2001L5.13732 85.7068L4.83789 85.7298L5.11429 90.2674L16.009 89.6455L16.1012 89.6225L23.5409 83.0119L33.3531 82.4591Z" fill="#AC7D2C"/>
<path d="M71.5187 50.3273L78.7972 42.1735L78.8663 42.1045L79.4191 32.1771L85.9836 24.8295L86.0527 24.7604L86.6055 14.8561L92.8936 7.80789L89.5077 4.79053L82.2292 12.9443L82.1601 13.0134L81.6073 22.9177L75.0658 30.2653L74.9967 30.3344L74.4209 40.2618L68.1328 47.31L71.5187 50.3273Z" fill="#AC7D2C"/>
<path d="M58.4808 79.6719L51.2253 87.8257L51.1562 87.8948L50.5803 97.7991L44.0389 105.147L43.9698 105.216L43.417 115.143L37.1289 122.191L40.4918 125.209L47.7703 117.078L47.8394 116.986L48.4152 107.058L54.9567 99.7108L55.0258 99.6417L55.5786 89.7374L61.8667 82.6892L58.4808 79.6719Z" fill="#AC7D2C"/>
<path d="M117.009 82.1826L107.082 81.6068L99.7339 75.0654L99.6648 74.9963L89.7374 74.4204L82.6892 68.1323L79.6719 71.5182L87.8257 78.7967L87.8948 78.8659L97.8221 79.4186L105.17 85.9831L105.239 86.0522L115.166 86.605L121.984 92.6858L122.191 92.8931L125.209 89.5072L117.078 82.2517L117.009 82.1826Z" fill="#AC7D2C"/>
<path d="M13.0139 47.8399L22.9412 48.4157L30.358 55.0263L40.2853 55.579L47.1032 61.6829L47.3105 61.8671L50.3278 58.4812L42.1049 51.1567L32.2006 50.6039L24.853 44.0394L24.7839 43.9703L14.8566 43.4175L7.80838 37.1294L4.79102 40.4923L12.9448 47.7708L13.0139 47.8399Z" fill="#AC7D2C"/>
</svg>
