<svg xmlns="http://www.w3.org/2000/svg" width="658" height="44" fill="none">
  <g fill="#ADC7CF" clip-path="url(#clip0)">
    <path d="M41.9944 22.3052L0 5.49306 1.81457.332913 41.9944 16.4237 83.1593 0l41.1127 16.4237L165.385 0l41.113 16.4237L247.663 0l41.113 16.4237L329.008.332913l1.815 5.160147-42.047 16.81214-41.113-16.47922-41.165 16.47922-41.113-16.47922-41.113 16.47922L83.1593 5.82598 41.9944 22.3052z"/>
    <path d="M41.9944 43.9997L0 27.2431l1.81457-5.1602L41.9944 38.1737 83.1593 21.75l41.1127 16.4237L165.385 21.75l41.113 16.4237L247.663 21.75l41.113 16.4237 40.232-16.0908 1.815 5.1602-42.047 16.7566-41.113-16.4237-41.165 16.4237-41.113-16.4237-41.113 16.4237L83.1593 27.576 41.9944 43.9997z"/>
  </g>
  <g fill="#ADC7CF" clip-path="url(#clip1)">
    <path d="M369.172 22.3052L327.178 5.49306l1.814-5.160147 40.18 16.090787L410.337 0l41.113 16.4237L492.563 0l41.113 16.4237L574.841 0l41.113 16.4237L656.186.332913 658 5.49306 615.954 22.3052 574.841 5.82598 533.676 22.3052 492.563 5.82598 451.45 22.3052 410.337 5.82598 369.172 22.3052z"/>
    <path d="M369.172 43.9997l-41.994-16.7566 1.814-5.1602 40.18 16.0908L410.337 21.75l41.113 16.4237L492.563 21.75l41.113 16.4237L574.841 21.75l41.113 16.4237 40.232-16.0908L658 27.2431l-42.046 16.7566-41.113-16.4237-41.165 16.4237-41.113-16.4237-41.113 16.4237-41.113-16.4237-41.165 16.4237z"/>
  </g>
  <defs>
    <clipPath id="clip0">
      <path fill="#fff" d="M0 0h330.823v44H0z"/>
    </clipPath>
    <clipPath id="clip1">
      <path fill="#fff" d="M0 0h330.823v44H0z" transform="translate(327.178)"/>
    </clipPath>
  </defs>
</svg>