<svg xmlns="http://www.w3.org/2000/svg" width="445" height="446" fill="none"
                    >
                    <path fill="#AC7D2C"
                        d="M299.288-42.1743l15.908 45.60773-15.493 44.47407 9.047 3.174 16.512-47.49695.075-.15112-15.908-45.60773 15.833-45.4565.075-.1512-15.908-45.57 15.493-44.474-9.009-3.174-16.55 47.459-.075.189 15.908 45.57-15.833 45.4566-.075.1511zM325.337 306.138l-15.908-45.57 15.493-44.474-9.009-3.174-16.55 47.459-.075.189 15.908 45.57-15.833 45.457-.075.151 15.908 45.607-15.493 44.475 9.047 3.174 16.512-47.497.075-.152-15.908-45.607 15.833-45.457.075-.151zM577.23 119.021l-.151-.076-45.501 15.946-45.35-15.87-.15-.076-45.501 15.946-43.917-15.379-.453-.151-3.166 9.069 47.385 16.55.151.075 45.501-15.945 45.35 15.87.15.075 45.501-15.945 43.917 15.379.415.151 3.167-9.069-47.348-16.55zM47.5832 145.055l45.5006-15.945 45.3502 15.87.15.075 45.501-15.945 43.917 15.379.415.151 3.167-9.069-47.348-16.55-.151-.076-45.501 15.946-45.3494-15.87-.1508-.076-45.5006 15.946-43.91739-15.379-.45236-.151-3.166575 9.069L47.4324 144.98l.1508.075zM490.337-64.883l-20.959 43.5295L426.139-.45787l-.151.075569-20.96 43.529501-41.881 20.2532-.453.189 4.185 8.6529 45.199-21.8402.113-.0756 20.96-43.52946 43.276-20.89564.151-.0756L497.5-57.7036l41.882-20.2155.452-.2267-4.184-8.653-45.162 21.8403-.151.0755zM134.324 328.884l20.922-43.529 43.277-20.934.151-.038 20.922-43.529 41.919-20.253.415-.189-4.147-8.653-45.199 21.84-.151.076-20.922 43.491-43.276 20.934-.151.075-20.922 43.492-41.9194 20.291-.4147.189 4.1467 8.653 45.1994-21.878.15-.038zM465.345 289.435l-20.884-43.34-.076-.151-43.427-21.009-20.394-42.434-8.633 4.194 21.789 45.306.076.113 43.427 21.009 20.846 43.378.076.151 43.427 20.972 20.394 42.396 8.633-4.157-21.864-45.419-43.39-21.009zM115.928-46.4055l43.39 20.9712 20.884 43.3783.076.1512 43.389 20.9712 20.395 42.4337 8.632-4.1565L230.83 31.887l-43.39-20.9712-20.884-43.3783-.038-.1511-43.427-20.9713-20.432-42.4337-8.6326 4.1565 21.8266 45.3054.075.1512zM198.976-108.186l32.08 36.0476 2.714 48.0637.038.1512 32.08 36.0478 2.677 47.0436 9.537-.529-2.827-50.2176v-.18892L243.157-27.8155l-2.714-48.0637v-.1512l-32.081-36.0476-2.676-47.006-9.575.529 2.865 50.218v.151zM425.649 372.187l-32.081-36.048-2.714-48.063-.037-.189-32.081-36.01-2.676-47.044-9.538.567 2.828 50.18.037.189 32.081 36.01 2.714 48.063v.189l32.118 36.048 2.639 47.006 9.575-.529-2.865-50.218v-.151zM551.936 18.3971L515.972 50.553l-47.951 2.7206-.15.0378-35.964 32.1558-46.443 2.6451-.49.0377.566 9.5599 50.1-2.834h.15l35.964-32.1936 47.95-2.7206h.151l35.963-32.1936 46.444-2.6073.452-.0378-.528-9.5976-50.1 2.8717h-.15zM72.6889 245.605l35.9631-32.156 47.951-2.721.189-.038 35.925-32.155 46.443-2.645.49-.038-.528-9.56-50.099 2.834-.189.038-35.925 32.156-47.951 2.72h-.189l-35.9629 32.194-46.4431 2.645h-.4524l.5278 9.597 50.0997-2.871h.1508zM366.804-33.8992l-2.752 48.2527-30.987 34.7631-.302.3779 7.125 6.3858 33.438-37.5215.113-.1511 2.714-48.215L408.12-65.904l.113-.1511 2.752-48.2149 30.988-34.801.301-.34-7.162-6.386-33.4 37.522-.113.113-2.714 48.2149-32.006 35.9345-.075.1134zM257.858 297.9l2.715-48.253 30.987-34.763.301-.378-7.124-6.386-33.4 37.522-.113.113-2.752 48.253-31.967 35.896-.114.151-2.751 48.215-30.95 34.801-.339.34 7.162 6.386 33.4-37.521.113-.114 2.752-48.252 31.967-35.897.113-.113zM561.888 221.496l-48.102-2.72-35.85-32.081-.113-.075-48.102-2.759-34.719-31.06-.377-.302-6.371 7.142 37.433 33.516.151.075 48.102 2.759 35.85 32.042.113.114 48.102 2.758 34.719 31.022.339.34 6.371-7.179-37.433-33.478-.113-.114zM62.7379 42.5045l48.1391 2.7584 35.813 32.0425.113.1133 48.139 2.7206 34.682 31.0597.377.303 6.371-7.142-37.434-33.4782-.113-.1134-48.139-2.7584-35.813-32.0425-.113-.1134-48.1393-2.7206L31.9015 2.07347l-.3393-.34007-6.3708 7.17933L62.6248 42.3911l.1131.1134z" />
                    <path fill="#AC7D2C"
                        d="M316.139 46.6605l-.264.3778 8.294 4.8367 25.257-43.45392.075-.15115-6.936-47.79933 24.164-41.6023.075-.1512-6.936-47.7991 23.41-40.28.226-.416-8.256-4.836-25.257 43.454-.075.151 6.936 47.799-24.164 41.6024-.075.1512 6.936 47.79925-23.41 40.31765zM308.524 217.377l.226-.415-8.293-4.837-25.22 43.454-.113.151 6.974 47.799-24.202 41.603-.075.113 6.936 47.837-23.41 40.28-.226.416 8.294 4.836 25.219-43.454.075-.151-6.936-47.799 24.202-41.602.075-.152-6.936-47.799 23.41-40.28zM574.704 169.692l-47.687 6.953-41.505-24.221-.151-.114-47.687 6.991-40.185-23.503-.415-.227-4.825 8.313 43.352 25.317.15.075 47.688-6.952 41.504 24.221.151.075 47.687-6.952 40.185 23.465.415.226 4.825-8.275-43.352-25.316-.15-.076zM49.9209 94.308l47.7247-6.9527 41.4674 24.2587.15.076 47.688-6.953 40.223 23.465.377.227 4.825-8.313-43.352-25.279-.151-.1134-47.687 6.9904-41.467-24.2586-.1508-.0756-47.7248 6.9527-40.1853-23.4652-.4146-.2267-4.82529 8.2752L49.8078 94.2324l.1131.0756zM524.453-27.324l-28.838 38.6929-46.406 12.3182-.188.0378-28.801 38.7307-45.01 11.9026-.453.1133 2.451 9.2576 48.516-12.8095.151-.0377 28.838-38.7307 46.443-12.2804.151-.0756 28.801-38.6929 44.973-11.9026.452-.1133-2.45-9.2954-48.479 12.8095-.151.0755zM100.209 291.324l28.801-38.73 46.443-12.281.188-.037 28.801-38.731 44.973-11.865.452-.151-2.45-9.258-48.479 12.81-.188.038-28.801 38.73-46.443 12.281-.151.038-28.8385 38.73-44.9728 11.903-.4524.113 2.4503 9.296 48.5164-12.848.151-.038zM471.301 344.641l-38.64-28.906-12.251-46.553-.076-.151-38.602-28.868-11.874-45.117-.151-.453-9.236 2.456 12.817 48.63.038.152 38.639 28.906 12.252 46.552.038.151 38.639 28.869 11.837 45.078.114.454 9.273-2.456-12.779-48.593-.038-.151zM153.362-80.603l38.64 28.8685 12.252 46.55228.037.18894 38.64 28.86848 11.875 45.0787.113.4534 9.236-2.4561-12.78-48.6305-.037-.1512-38.64-28.8685-12.252-46.5523-.037-.1511-38.64-28.9063-11.875-45.0783-.113-.454-9.273 2.456 12.817 48.6308.037.1512zM264.833-36.0535l24.654 41.52684-6.296 46.66576 9.462 1.2847 6.786-49.99089-24.692-41.48901 6.484-47.8749-24.654-41.527 6.296-46.665-9.5-1.285-6.748 49.991 24.654 41.5265-6.446 47.837zM359.792 300.016l-24.654-41.489 6.296-46.666-9.462-1.285-6.786 49.991 24.692 41.489-6.484 47.875 24.654 41.489-6.296 46.703 9.5 1.285L378 389.417l-24.654-41.527 6.446-47.874zM527.733 90.8702l-47.762-6.4614-41.43 24.7122-46.104-6.273-.452-.037-1.282 9.484 49.874 6.801 41.429-24.7495 47.725 6.4995 41.429-24.7123 46.066 6.2725.49.0378 1.282-9.5221-49.873-6.7637-41.392 24.712zM96.9288 173.13l47.7622 6.462 41.392-24.712 46.104 6.272.452.038 1.282-9.484-49.874-6.802-41.391 24.75-47.7628-6.499-41.3917 24.712-46.10375-6.235-.49007-.075-1.2817 9.522 49.91122 6.763 41.3916-24.712zM397.301-20.4851l-11.875 46.8168-37.019 28.2639-.377.3023 5.806 7.6328 40.072-30.5689 11.837-46.8546 38.338-29.2464L455.92-90.956l37.019-28.264.377-.264-5.806-7.633-40.034 30.5309-11.837 46.8168-38.338 29.2842zM227.362 284.449l11.837-46.817 37.019-28.226.377-.303-5.806-7.632-40.034 30.569-11.837 46.816-38.338 29.284-11.875 46.817-37.019 28.264-.377.265 5.806 7.633 40.072-30.569 11.837-46.817 38.338-29.284zM540.362 267.482l-46.707-11.865-29.103-38.315-.113-.113-46.707-11.903-28.197-37.105-.302-.378-7.615 5.819 30.422 40.015.076.151 46.744 11.865 29.102 38.315.076.113 46.745 11.865 28.159 37.106.264.378 7.615-5.819-30.346-40.016-.113-.113zM84.2998-3.44317L131.007 8.42162l29.102 38.31498.113.1134 46.707 11.8647 28.16 37.1059.302.3778 7.614-5.819-30.384-40.0153-.113-.1134-46.707-11.8648L136.699.0709114l-.075-.1511345L89.879-11.945 61.6815-49.0509l-.2639-.3778-7.6149 5.819 30.384 40.01538.1131.15115z" />
                </svg>