<svg xmlns="http://www.w3.org/2000/svg" fill="none" viewBox="0 0 24 177">
  <defs/>
  <g fill="#ADC7CF" clip-path="url(#clip0)">
    <path d="M12.1665 154.532L2.99622 177l-2.814631-.971 8.776801-21.497-8.95839194-22.025L8.95839 110.511-.00000387 88.5139 8.95838 66.5172-.0000058 44.4927 8.95838 22.496.181581.970871 2.99621-1.3e-7 12.1665 22.496 3.1778 44.4927l8.9887 22.0245-8.9887 21.9967 8.9887 21.9971-8.9887 21.996 8.9887 22.025z"/>
    <path d="M23.9995 154.532L14.8595 177l-2.8146-.971 8.7768-21.497-8.9584-22.025 8.9584-21.996-8.9584-21.9971 8.9584-21.9967-8.9584-22.0245 8.9584-21.9967L12.0449.970871 14.8595-1.3e-7 23.9995 22.496l-8.9584 21.9967 8.9584 22.0245-8.9584 21.9967 8.9584 21.9971-8.9584 21.996 8.9584 22.025z"/>
  </g>
  <defs>
    <clipPath id="clip0">
      <path fill="#fff" d="M0 0h177v24H0z" transform="rotate(-90 88.5 88.5)"/>
    </clipPath>
  </defs>
</svg>