<svg width="314" height="314" viewBox="0 0 314 314" fill="none" xmlns="http://www.w3.org/2000/svg">
<path d="M0 0V108.939V108.944L0.0639618 108.939H108.88L108.944 108.944V108.939V0H0ZM16.3277 41.5228C23.0495 48.2505 31.3006 52.1812 38.4003 54.478C31.3064 56.7748 23.0553 60.7114 16.3277 67.4332C11.9434 71.8233 8.74532 76.8588 6.41362 81.8013V27.1489C8.74532 32.0972 11.9434 37.1327 16.3277 41.5228ZM7.00672 7.01835C13.5948 8.03012 27.3466 11.2166 36.9932 20.8632C46.6398 30.5098 49.8262 44.2616 50.8322 50.8496C44.2441 49.8379 30.4923 46.6514 20.8457 37.0048C11.2049 27.3524 8.01848 13.6064 7.00672 7.01835ZM50.8438 58.1122C49.8437 64.6887 46.6747 78.4172 36.9932 88.0987C27.3466 97.7453 13.589 100.932 7.00091 101.938C8.00104 95.3612 11.1701 81.6327 20.8457 71.9512C30.4981 62.3046 44.2557 59.1182 50.8438 58.1122ZM41.5112 92.6167C48.2388 85.8891 52.1696 77.638 54.4664 70.5441C56.769 77.6438 60.6997 85.8949 67.4274 92.6167C71.8116 97.001 76.8472 100.193 81.7897 102.525H27.1547C32.0914 100.193 37.1269 97.001 41.5112 92.6167ZM58.1006 50.8438C59.1007 44.2674 62.2697 30.5389 71.9512 20.8574C81.5978 11.2108 95.3554 8.0243 101.943 7.01254C100.943 13.589 97.7743 27.3175 88.0928 36.999C78.4404 46.6514 64.6828 49.8379 58.1006 50.8438ZM58.1064 58.1064C64.6828 59.1065 78.4113 62.2755 88.0928 71.9512C97.7394 81.5978 100.926 95.3496 101.938 101.938C95.3496 100.926 81.5978 97.7395 71.9512 88.0987C62.2988 78.4463 59.1123 64.6887 58.1064 58.1064ZM92.6109 67.4332C85.8891 60.7114 77.638 56.7748 70.544 54.478C77.638 52.1754 85.8891 48.2447 92.6109 41.5228C97.001 37.1327 100.193 32.0972 102.525 27.1547V81.8072C100.193 76.8588 97.001 71.8175 92.6109 67.4332ZM67.4274 16.3393C60.6997 23.067 56.769 31.318 54.4664 38.4178C52.1696 31.318 48.233 23.067 41.5112 16.3393C37.1153 11.9434 32.0739 8.75114 27.1256 6.41363H81.8188C76.8646 8.75114 71.8233 11.9434 67.4274 16.3393Z" fill="#154754"/>
<path d="M102.525 0V108.939V108.944L102.589 108.939H211.406L211.47 108.944V108.939V0H102.525ZM118.859 41.5228C125.581 48.2505 133.832 52.1812 140.931 54.478C133.837 56.7748 125.586 60.7114 118.859 67.4332C114.474 71.8233 111.276 76.8588 108.945 81.8013V27.1489C111.276 32.0972 114.469 37.1327 118.859 41.5228ZM109.538 7.01835C116.126 8.03012 129.878 11.2166 139.524 20.8632C149.171 30.5098 152.357 44.2616 153.363 50.8496C146.775 49.8379 133.023 46.6514 123.377 37.0048C113.73 27.3524 110.544 13.6064 109.538 7.01835ZM153.369 58.1122C152.369 64.6887 149.2 78.4172 139.518 88.0987C129.872 97.7453 116.114 100.932 109.526 101.938C110.526 95.3612 113.695 81.6327 123.371 71.9512C133.023 62.3046 146.781 59.1182 153.369 58.1122ZM144.042 92.6167C150.77 85.8891 154.701 77.638 156.997 70.5441C159.3 77.6438 163.231 85.8949 169.958 92.6167C174.343 97.001 179.378 100.193 184.321 102.525H129.686C134.622 100.193 139.652 97.001 144.042 92.6167ZM160.626 50.8438C161.626 44.2674 164.795 30.5389 174.476 20.8574C184.123 11.2108 197.881 8.0243 204.469 7.01254C203.469 13.589 200.3 27.3175 190.618 36.999C180.971 46.6514 167.214 49.8379 160.626 50.8438ZM160.632 58.1064C167.208 59.1065 180.937 62.2755 190.618 71.9512C200.265 81.5978 203.451 95.3496 204.463 101.938C197.875 100.926 184.123 97.7395 174.476 88.0987C164.824 78.4463 161.643 64.6887 160.632 58.1064ZM195.136 67.4332C188.414 60.7114 180.163 56.7748 173.069 54.478C180.163 52.1754 188.414 48.2447 195.136 41.5228C199.526 37.1327 202.718 32.0972 205.05 27.1547V81.8072C202.718 76.8588 199.526 71.8175 195.136 67.4332ZM169.953 16.3393C163.231 23.067 159.294 31.318 156.997 38.412C154.701 31.3122 150.764 23.0611 144.042 16.3335C139.646 11.9376 134.605 8.74532 129.657 6.40781H184.35C179.396 8.75114 174.349 11.9434 169.953 16.3393Z" fill="#154754"/>
<path d="M205.056 0V108.939V108.944L205.12 108.939H313.936L314 108.944V108.939V0H205.056ZM221.383 41.5228C228.105 48.2505 236.356 52.1812 243.456 54.478C236.362 56.7748 228.111 60.7114 221.383 67.4332C216.999 71.8233 213.801 76.8588 211.469 81.8013V27.1489C213.801 32.0972 216.993 37.1327 221.383 41.5228ZM212.062 7.01835C218.65 8.03012 232.402 11.2166 242.049 20.8632C251.695 30.5098 254.882 44.2616 255.888 50.8496C249.3 49.8379 235.548 46.6514 225.901 37.0048C216.255 27.3524 213.074 13.6064 212.062 7.01835ZM255.894 58.1122C254.893 64.6887 251.724 78.4172 242.043 88.0987C232.396 97.7453 218.639 100.932 212.051 101.938C213.051 95.3612 216.22 81.6327 225.896 71.9512C235.554 62.3046 249.311 59.1182 255.894 58.1122ZM246.567 92.6167C253.294 85.8891 257.225 77.638 259.522 70.5441C261.825 77.6438 265.755 85.8949 272.483 92.6167C276.867 97.001 281.903 100.193 286.845 102.525H232.21C237.147 100.193 242.183 97.001 246.567 92.6167ZM263.15 50.8438C264.151 44.2674 267.32 30.5389 277.001 20.8574C286.648 11.2108 300.405 8.0243 306.993 7.01254C305.993 13.589 302.824 27.3175 293.143 36.999C283.496 46.6514 269.738 49.8379 263.15 50.8438ZM263.156 58.1064C269.733 59.1065 283.461 62.2755 293.143 71.9512C302.789 81.5978 305.976 95.3496 306.987 101.938C300.399 100.926 286.648 97.7395 277.001 88.0987C267.354 78.4463 264.168 64.6887 263.156 58.1064ZM297.666 67.4332C290.945 60.7114 282.694 56.7748 275.6 54.478C282.694 52.1754 290.945 48.2447 297.666 41.5228C302.057 37.1327 305.249 32.0972 307.581 27.1547V81.8072C305.249 76.8588 302.051 71.8175 297.666 67.4332ZM272.483 16.3393C265.755 23.067 261.825 31.318 259.522 38.4178C257.225 31.318 253.289 23.067 246.567 16.3393C242.171 11.9434 237.13 8.75114 232.181 6.41363H286.874C281.92 8.75114 276.873 11.9434 272.483 16.3393Z" fill="#154754"/>
<path d="M0 102.525V211.464V211.47L0.0639618 211.464H108.88L108.944 211.47V211.464V102.525H0ZM16.3277 144.048C23.0495 150.776 31.3006 154.707 38.4003 157.003C31.3064 159.3 23.0553 163.237 16.3277 169.959C11.9434 174.349 8.74532 179.384 6.41362 184.327V129.674C8.74532 134.623 11.9434 139.658 16.3277 144.048ZM7.00672 109.544C13.5948 110.556 27.3466 113.742 36.9932 123.389C46.6398 133.035 49.8262 146.787 50.8322 153.375C44.2441 152.363 30.4923 149.177 20.8457 139.53C11.2049 129.884 8.01848 116.132 7.00672 109.544ZM50.8438 160.638C49.8437 167.214 46.6747 180.943 36.9932 190.624C27.3466 200.271 13.589 203.457 7.00091 204.463C8.00104 197.887 11.1701 184.158 20.8457 174.477C30.4981 164.83 44.2557 161.644 50.8438 160.638ZM41.5112 195.142C48.2388 188.414 52.1696 180.163 54.4664 173.069C56.769 180.169 60.6997 188.42 67.4274 195.142C71.8116 199.526 76.8472 202.719 81.7897 205.056H27.1547C32.0914 202.719 37.1269 199.526 41.5112 195.142ZM58.1006 153.369C59.1007 146.793 62.2697 133.064 71.9512 123.383C81.5978 113.736 95.3554 110.55 101.943 109.538C100.943 116.114 97.7743 129.843 88.0928 139.524C78.4404 149.177 64.6828 152.363 58.1006 153.369ZM58.1064 160.632C64.6828 161.632 78.4113 164.801 88.0928 174.477C97.7394 184.123 100.926 197.875 101.938 204.463C95.3496 203.451 81.5978 200.265 71.9512 190.624C62.2988 180.972 59.1123 167.214 58.1064 160.632ZM92.6109 169.959C85.8891 163.237 77.638 159.3 70.544 157.003C77.638 154.701 85.8891 150.77 92.6109 144.048C97.001 139.658 100.193 134.623 102.525 129.68V184.327C100.193 179.384 97.001 174.349 92.6109 169.959ZM67.4274 118.865C60.6997 125.592 56.769 133.843 54.4664 140.943C52.1696 133.843 48.233 125.592 41.5112 118.865C37.1153 114.469 32.0739 111.277 27.1256 108.939H81.8188C76.8646 111.277 71.8233 114.475 67.4274 118.865Z" fill="#154754"/>
<path d="M205.056 102.525V211.464V211.47L205.12 211.464H313.936L314 211.47V211.464V102.525H205.056ZM221.383 144.048C228.105 150.776 236.356 154.707 243.456 157.003C236.362 159.3 228.111 163.237 221.383 169.959C216.999 174.349 213.801 179.384 211.469 184.327V129.674C213.801 134.623 216.993 139.658 221.383 144.048ZM212.062 109.544C218.65 110.556 232.402 113.742 242.049 123.389C251.695 133.035 254.882 146.787 255.888 153.375C249.3 152.363 235.548 149.177 225.901 139.53C216.255 129.884 213.074 116.132 212.062 109.544ZM255.894 160.638C254.893 167.214 251.724 180.943 242.043 190.624C232.396 200.271 218.639 203.457 212.051 204.463C213.051 197.887 216.22 184.158 225.896 174.477C235.554 164.83 249.311 161.644 255.894 160.638ZM246.567 195.142C253.294 188.414 257.225 180.163 259.522 173.069C261.825 180.169 265.755 188.42 272.483 195.142C276.867 199.526 281.903 202.719 286.845 205.056H232.21C237.147 202.719 242.183 199.526 246.567 195.142ZM263.15 153.369C264.151 146.793 267.32 133.064 277.001 123.383C286.648 113.736 300.405 110.55 306.993 109.538C305.993 116.114 302.824 129.843 293.143 139.524C283.496 149.177 269.738 152.363 263.15 153.369ZM263.156 160.632C269.733 161.632 283.461 164.801 293.143 174.477C302.789 184.123 305.976 197.875 306.987 204.463C300.399 203.451 286.648 200.265 277.001 190.624C267.354 180.972 264.168 167.214 263.156 160.632ZM297.666 169.959C290.945 163.237 282.694 159.3 275.6 157.003C282.694 154.701 290.945 150.77 297.666 144.048C302.057 139.658 305.249 134.623 307.581 129.68V184.327C305.249 179.384 302.051 174.349 297.666 169.959ZM272.483 118.865C265.755 125.592 261.825 133.843 259.522 140.943C257.225 133.843 253.289 125.592 246.567 118.865C242.171 114.469 237.13 111.277 232.181 108.939H286.874C281.92 111.277 276.873 114.475 272.483 118.865Z" fill="#154754"/>
<path d="M0 205.056V313.994V314L0.0639618 313.994H108.88L108.944 314V313.994V205.056H0ZM16.3277 246.573C23.0495 253.3 31.3006 257.231 38.4003 259.528C31.3064 261.825 23.0553 265.761 16.3277 272.483C11.9434 276.873 8.74532 281.909 6.41362 286.851V232.199C8.74532 237.147 11.9434 242.188 16.3277 246.573ZM7.00672 212.068C13.5948 213.08 27.3466 216.266 36.9932 225.913C46.6398 235.56 49.8262 249.311 50.8322 255.9C44.2441 254.888 30.4923 251.701 20.8457 242.055C11.2049 232.408 8.01848 218.656 7.00672 212.068ZM50.8438 263.162C49.8437 269.739 46.6747 283.467 36.9932 293.149C27.3466 302.795 13.589 305.982 7.00091 306.988C8.00104 300.411 11.1701 286.683 20.8457 277.001C30.4981 267.36 44.2557 264.174 50.8438 263.162ZM41.5112 297.667C48.2388 290.939 52.1696 282.688 54.4664 275.594C56.769 282.694 60.6997 290.945 67.4274 297.667C71.8116 302.051 76.8472 305.243 81.7897 307.575H27.1547C32.0914 305.249 37.1269 302.057 41.5112 297.667ZM58.1006 255.9C59.1007 249.323 62.2697 235.595 71.9512 225.913C81.5978 216.266 95.3554 213.08 101.943 212.068C100.943 218.645 97.7743 232.373 88.0928 242.055C78.4404 251.701 64.6828 254.888 58.1006 255.9ZM58.1064 263.156C64.6828 264.156 78.4113 267.325 88.0928 277.001C97.7394 286.648 100.926 300.399 101.938 306.988C95.3496 305.976 81.5978 302.789 71.9512 293.149C62.2988 283.502 59.1123 269.744 58.1064 263.156ZM92.6109 272.483C85.8891 265.761 77.638 261.825 70.544 259.528C77.638 257.225 85.8891 253.295 92.6109 246.573C97.001 242.183 100.193 237.147 102.525 232.205V286.857C100.193 281.909 97.001 276.873 92.6109 272.483ZM67.4274 221.389C60.6997 228.117 56.769 236.368 54.4664 243.468C52.1696 236.368 48.233 228.117 41.5112 221.389C37.1153 216.993 32.0739 213.801 27.1256 211.463H81.8188C76.8646 213.801 71.8233 216.999 67.4274 221.389Z" fill="#154754"/>
<path d="M102.525 205.056V313.994V314L102.589 313.994H211.406L211.47 314V313.994V205.056H102.525ZM118.859 246.573C125.581 253.3 133.832 257.231 140.932 259.528C133.838 261.825 125.587 265.761 118.859 272.483C114.475 276.873 111.277 281.909 108.945 286.851V232.199C111.277 237.147 114.469 242.188 118.859 246.573ZM109.538 212.068C116.126 213.08 129.878 216.266 139.524 225.913C149.171 235.56 152.357 249.311 153.363 255.9C146.775 254.888 133.024 251.701 123.377 242.055C113.73 232.408 110.544 218.656 109.538 212.068ZM153.369 263.162C152.369 269.739 149.2 283.467 139.519 293.149C129.872 302.795 116.114 305.982 109.526 306.988C110.526 300.411 113.695 286.683 123.371 277.001C133.024 267.36 146.781 264.174 153.369 263.162ZM144.042 297.667C150.77 290.939 154.701 282.688 156.998 275.594C159.3 282.694 163.231 290.945 169.959 297.667C174.343 302.051 179.378 305.243 184.321 307.575H129.686C134.623 305.249 139.652 302.057 144.042 297.667ZM160.626 255.9C161.626 249.323 164.795 235.595 174.477 225.913C184.123 216.266 197.881 213.08 204.469 212.068C203.469 218.645 200.3 232.373 190.618 242.055C180.972 251.701 167.214 254.888 160.626 255.9ZM160.632 263.156C167.208 264.156 180.937 267.325 190.618 277.001C200.265 286.648 203.451 300.399 204.463 306.988C197.875 305.976 184.123 302.789 174.477 293.149C164.824 283.502 161.644 269.744 160.632 263.156ZM195.136 272.483C188.414 265.761 180.163 261.825 173.069 259.528C180.163 257.225 188.414 253.295 195.136 246.573C199.526 242.183 202.719 237.147 205.05 232.205V286.857C202.719 281.909 199.526 276.873 195.136 272.483ZM169.953 221.389C163.225 228.117 159.294 236.368 156.992 243.468C154.695 236.368 150.758 228.117 144.037 221.389C139.641 216.993 134.599 213.801 129.651 211.463H184.344C179.396 213.801 174.349 216.999 169.953 221.389Z" fill="#154754"/>
<path d="M205.056 205.056V313.994V314L205.12 313.994H313.936L314 314V313.994V205.056H205.056ZM221.383 246.573C228.105 253.3 236.356 257.231 243.456 259.528C236.362 261.825 228.111 265.761 221.383 272.483C216.999 276.873 213.801 281.909 211.469 286.851V232.199C213.801 237.147 216.993 242.188 221.383 246.573ZM212.062 212.068C218.65 213.08 232.402 216.266 242.049 225.913C251.695 235.56 254.882 249.311 255.888 255.9C249.3 254.888 235.548 251.701 225.901 242.055C216.255 232.408 213.074 218.656 212.062 212.068ZM255.894 263.162C254.893 269.739 251.724 283.467 242.043 293.149C232.396 302.795 218.639 305.982 212.051 306.988C213.051 300.411 216.22 286.683 225.896 277.001C235.554 267.36 249.311 264.174 255.894 263.162ZM246.567 297.667C253.294 290.939 257.225 282.688 259.522 275.594C261.825 282.694 265.755 290.945 272.483 297.667C276.867 302.051 281.903 305.243 286.845 307.575H232.21C237.147 305.249 242.183 302.057 246.567 297.667ZM263.15 255.9C264.151 249.323 267.32 235.595 277.001 225.913C286.648 216.266 300.405 213.08 306.993 212.068C305.993 218.645 302.824 232.373 293.143 242.055C283.496 251.701 269.738 254.888 263.15 255.9ZM263.156 263.156C269.733 264.156 283.461 267.325 293.143 277.001C302.789 286.648 305.976 300.399 306.987 306.988C300.399 305.976 286.648 302.789 277.001 293.149C267.354 283.502 264.168 269.744 263.156 263.156ZM297.666 272.483C290.945 265.761 282.694 261.825 275.6 259.528C282.694 257.225 290.945 253.295 297.666 246.573C302.057 242.183 305.249 237.147 307.581 232.205V286.857C305.249 281.909 302.051 276.873 297.666 272.483ZM272.483 221.389C265.755 228.117 261.825 236.368 259.522 243.468C257.225 236.368 253.289 228.117 246.567 221.389C242.171 216.993 237.13 213.801 232.181 211.463H286.874C281.92 213.801 276.873 216.999 272.483 221.389Z" fill="#154754"/>
</svg>
