<svg width="48" height="138" viewBox="0 0 48 138" fill="none" xmlns="http://www.w3.org/2000/svg">
<path d="M0 0V47.8775V47.88L0.028181 47.8775H47.9718L48 47.88V47.8775V0H0ZM7.19385 18.2489C10.1554 21.2056 13.7908 22.9331 16.9189 23.9426C13.7933 24.952 10.158 26.6821 7.19385 29.6362C5.26217 31.5657 3.85312 33.7787 2.82579 35.9509V11.9317C3.85312 14.1064 5.26217 16.3195 7.19385 18.2489ZM3.08711 3.0845C5.98975 3.52916 12.0487 4.92958 16.2989 9.16917C20.5491 13.4088 21.953 19.4525 22.3962 22.3479C19.4936 21.9033 13.4347 20.5029 9.18446 16.2633C4.93681 12.0211 3.53288 5.97989 3.08711 3.0845ZM22.4014 25.5398C21.9607 28.43 20.5645 34.4636 16.2989 38.7185C12.0487 42.9581 5.98719 44.3585 3.08454 44.8006C3.52519 41.9104 4.92143 35.8768 9.18446 31.6219C13.4372 27.3823 19.4987 25.9819 22.4014 25.5398ZM18.2895 40.7042C21.2536 37.7474 22.9855 34.1212 23.9974 31.0034C25.012 34.1237 26.7438 37.75 29.7079 40.7042C31.6396 42.631 33.8582 44.034 36.0359 45.0587H11.9641C14.1392 44.034 16.3578 42.631 18.2895 40.7042ZM25.5986 22.3454C26.0393 19.4551 27.4355 13.4215 31.7011 9.16661C35.9513 4.92702 42.0128 3.5266 44.9155 3.08194C44.4748 5.97223 43.0786 12.0058 38.813 16.2607C34.5602 20.5029 28.4987 21.9033 25.5986 22.3454ZM25.6012 25.5372C28.4987 25.9768 34.5474 27.3695 38.813 31.6219C43.0632 35.8615 44.4671 41.9052 44.9129 44.8006C42.0102 44.356 35.9513 42.9556 31.7011 38.7185C27.4483 34.4764 26.0444 28.43 25.6012 25.5372ZM40.8036 29.6362C37.842 26.6821 34.2067 24.952 31.0811 23.9426C34.2067 22.9306 37.842 21.2031 40.8036 18.2489C42.7378 16.3195 44.1443 14.1064 45.1716 11.9342V35.9535C44.1443 33.7787 42.7378 31.5631 40.8036 29.6362ZM29.7079 7.18098C26.7438 10.1377 25.012 13.764 23.9974 16.8843C22.9855 13.764 21.2511 10.1377 18.2895 7.18098C16.3527 5.24902 14.1315 3.84604 11.9513 2.81873H36.0487C33.8659 3.84604 31.6447 5.24902 29.7079 7.18098Z" fill="#154754"/>
<path d="M0 45.0591V92.9366V92.9391L0.028181 92.9366H47.9718L48 92.9391V92.9366V45.0591H0ZM7.19385 63.308C10.1554 66.2647 13.7908 67.9922 16.9189 69.0017C13.7933 70.0111 10.158 71.7412 7.19385 74.6953C5.26217 76.6247 3.85312 78.8378 2.82579 81.01V56.9908C3.85312 59.1655 5.26217 61.3786 7.19385 63.308ZM3.08711 48.1436C5.98975 48.5882 12.0487 49.9887 16.2989 54.2282C20.5491 58.4678 21.953 64.5116 22.3962 67.407C19.4936 66.9623 13.4347 65.5619 9.18446 61.3223C4.93681 57.0828 3.53288 51.039 3.08711 48.1436ZM22.4014 70.5988C21.9607 73.4891 20.5645 79.5227 16.2989 83.7776C12.0487 88.0172 5.98719 89.4176 3.08454 89.8597C3.52519 86.9694 4.92143 80.9359 9.18446 76.681C13.4372 72.4414 19.4987 71.0409 22.4014 70.5988ZM18.2895 85.7632C21.2536 82.8065 22.9855 79.1802 23.9974 76.0625C25.012 79.1828 26.7438 82.8091 29.7079 85.7632C31.6396 87.6901 33.8582 89.0931 36.0359 90.1204H11.9641C14.1392 89.0931 16.3578 87.6901 18.2895 85.7632ZM25.5986 67.4045C26.0393 64.5142 27.4355 58.4806 31.7011 54.2257C35.9513 49.9861 42.0128 48.5857 44.9155 48.141C44.4748 51.0313 43.0786 57.0649 38.813 61.3198C34.5602 65.5619 28.4987 66.9624 25.5986 67.4045ZM25.6012 70.5963C28.4987 71.0358 34.5474 72.4286 38.813 76.681C43.0632 80.9205 44.4671 86.9643 44.9129 89.8597C42.0102 89.4151 35.9513 88.0146 31.7011 83.7776C27.4483 79.5355 26.0444 73.4891 25.6012 70.5963ZM40.8036 74.6953C37.842 71.7412 34.2067 70.0111 31.0811 69.0017C34.2067 67.9897 37.842 66.2621 40.8036 63.308C42.7378 61.3786 44.1443 59.1655 45.1716 56.9933V81.01C44.1443 78.8378 42.7378 76.6247 40.8036 74.6953ZM29.7079 52.2401C26.7438 55.1968 25.012 58.8231 23.9974 61.9433C22.9855 58.8231 21.2511 55.1968 18.2895 52.2401C16.3527 50.3081 14.1315 48.9051 11.9513 47.8778H36.0487C33.8659 48.9051 31.6447 50.3107 29.7079 52.2401Z" fill="#154754"/>
<path d="M0 90.1201V137.998V138L0.028181 137.998H47.9718L48 138V137.998V90.1201H0ZM7.19385 108.366C10.1554 111.323 13.7908 113.051 16.9189 114.06C13.7933 115.07 10.158 116.8 7.19385 119.754C5.26217 121.683 3.85312 123.896 2.82579 126.068V102.049C3.85312 104.224 5.26217 106.44 7.19385 108.366ZM3.08711 93.2021C5.98975 93.6467 12.0487 95.0471 16.2989 99.2867C20.5491 103.526 21.953 109.57 22.3962 112.465C19.4936 112.021 13.4347 110.62 9.18446 106.381C4.93681 102.141 3.53288 96.0975 3.08711 93.2021ZM22.4014 115.657C21.9607 118.548 20.5645 124.581 16.2989 128.836C12.0487 133.076 5.98719 134.476 3.08454 134.918C3.52519 132.028 4.92143 125.994 9.18446 121.739C13.4372 117.502 19.4987 116.102 22.4014 115.657ZM18.2895 130.822C21.2536 127.865 22.9855 124.239 23.9974 121.121C25.012 124.241 26.7438 127.868 29.7079 130.822C31.6396 132.749 33.8582 134.152 36.0359 135.176H11.9641C14.1392 134.154 16.3578 132.751 18.2895 130.822ZM25.5986 112.465C26.0393 109.575 27.4355 103.542 31.7011 99.2867C35.9513 95.0471 42.0128 93.6467 44.9155 93.2021C44.4748 96.0923 43.0786 102.126 38.813 106.381C34.5602 110.62 28.4987 112.021 25.5986 112.465ZM25.6012 115.655C28.4987 116.094 34.5474 117.487 38.813 121.739C43.0632 125.979 44.4671 132.023 44.9129 134.918C42.0102 134.474 35.9513 133.073 31.7011 128.836C27.4483 124.597 26.0444 118.55 25.6012 115.655ZM40.8036 119.754C37.842 116.8 34.2067 115.07 31.0811 114.06C34.2067 113.048 37.842 111.321 40.8036 108.366C42.7378 106.437 44.1443 104.224 45.1716 102.052V126.071C44.1443 123.896 42.7378 121.683 40.8036 119.754ZM29.7079 97.2985C26.7438 100.255 25.012 103.882 23.9974 107.002C22.9855 103.882 21.2511 100.255 18.2895 97.2985C16.3527 95.3666 14.1315 93.9636 11.9513 92.9363H36.0487C33.8659 93.9636 31.6447 95.3691 29.7079 97.2985Z" fill="#154754"/>
</svg>
