
<svg width="65" height="65" viewBox="0 0 65 65" fill="none" xmlns="http://www.w3.org/2000/svg">
<path d="M30.9375 14.3187L32.5822 19.0227L30.9804 23.6099L31.9157 23.9372L33.6227 19.0383L33.6305 19.0227L31.9859 14.3187L33.6227 9.63023L33.6305 9.61465L31.9859 4.9145L33.5877 0.327373L32.6562 0L30.9453 4.89501L30.9375 4.9145L32.5822 9.61465L30.9453 14.3031L30.9375 14.3187Z" fill="#AC7D2C"/>
<path d="M33.6305 50.2436L31.9859 45.5434L33.5877 40.9563L32.6562 40.6289L30.9453 45.5239L30.9375 45.5434L32.5822 50.2436L30.9453 54.932L30.9375 54.9476L32.5822 59.6516L30.9804 64.2388L31.9157 64.5661L33.6227 59.6672L33.6305 59.6516L31.9859 54.9476L33.6227 50.2591L33.6305 50.2436Z" fill="#AC7D2C"/>
<path d="M59.6711 30.9443L59.6555 30.9365L54.9515 32.5812L50.263 30.9443L50.2474 30.9365L45.5434 32.5812L41.003 30.995L40.9563 30.9794L40.6289 31.9147L45.5278 33.6218L45.5434 33.6296L50.2474 31.9849L54.9359 33.6218L54.9515 33.6296L59.6555 31.9849L64.1959 33.5711L64.2388 33.5867L64.5661 32.6513L59.6711 30.9443Z" fill="#AC7D2C"/>
<path d="M4.9145 33.6296L9.61854 31.9849L14.307 33.6218L14.3226 33.6296L19.0266 31.9849L23.567 33.5711L23.6099 33.5867L23.9372 32.6513L19.0422 30.9443L19.0266 30.9365L14.3226 32.5812L9.63413 30.9443L9.61854 30.9365L4.9145 32.5812L0.374141 30.995L0.327373 30.9794L0 31.9147L4.89891 33.6218L4.9145 33.6296Z" fill="#AC7D2C"/>
<path d="M50.6885 11.9763L48.5216 16.4659L44.0514 18.6212L44.0358 18.6289L41.8689 23.1186L37.539 25.2076L37.4922 25.2271L37.9248 26.1196L42.5977 23.8669L42.6094 23.8591L44.7763 19.3694L49.2504 17.2142L49.266 17.2064L51.429 12.7167L55.7589 10.6317L55.8056 10.6083L55.373 9.71582L50.7041 11.9685L50.6885 11.9763Z" fill="#AC7D2C"/>
<path d="M13.8828 52.5901L16.0458 48.1004L20.5199 45.9413L20.5355 45.9374L22.6985 41.4477L27.0323 39.3587L27.0752 39.3393L26.6465 38.4468L21.9736 40.6994L21.958 40.7072L19.795 45.193L15.3209 47.3521L15.3053 47.3599L13.1423 51.8457L8.8085 53.9385L8.76562 53.958L9.19433 54.8505L13.8672 52.594L13.8828 52.5901Z" fill="#AC7D2C"/>
<path d="M48.1067 48.5216L45.9476 44.0513L45.9398 44.0358L41.4501 41.8689L39.3417 37.4922L38.4492 37.9248L40.7019 42.5977L40.7097 42.6093L45.1993 44.7762L47.3545 49.2503L47.3623 49.2659L51.852 51.4289L53.9605 55.8017L54.853 55.373L52.5925 50.6885L48.1067 48.5216Z" fill="#AC7D2C"/>
<path d="M11.9831 13.8823L16.4689 16.0453L18.628 20.5194L18.6358 20.535L23.1216 22.698L25.23 27.0747L26.1225 26.646L23.8621 21.9575L19.3763 19.7945L17.2172 15.3204L17.2133 15.3048L12.7236 13.1418L10.6112 8.76514L9.71875 9.19384L11.9753 13.8667L11.9831 13.8823Z" fill="#AC7D2C"/>
<path d="M20.5657 7.50992L23.8823 11.2279L24.1629 16.1853L24.1668 16.2009L27.4834 19.9189L27.7601 24.7711L28.7462 24.7165L28.4539 19.537V19.5175L25.1334 15.7995L24.8528 10.8421V10.8265L21.5362 7.1085L21.2594 2.26025L20.2695 2.31482L20.5657 7.49433V7.50992Z" fill="#AC7D2C"/>
<path d="M44.0008 57.0566L40.6841 53.3385L40.4035 48.3812L40.3996 48.3617L37.083 44.6476L36.8063 39.7954L35.8203 39.8539L36.1126 45.0295L36.1165 45.049L39.4331 48.7631L39.7137 53.7205V53.74L43.0342 57.458L43.307 62.3062L44.2969 62.2517L44.0008 57.0722V57.0566Z" fill="#AC7D2C"/>
<path d="M57.058 20.5662L53.34 23.8828L48.3826 24.1634L48.367 24.1673L44.649 27.4839L39.8475 27.7567L39.7969 27.7606L39.8553 28.7466L45.0349 28.4544H45.0504L48.7685 25.1339L53.7258 24.8532H53.7414L57.4594 21.5327L62.2609 21.2638L62.3077 21.2599L62.2531 20.27L57.0736 20.5662H57.058Z" fill="#AC7D2C"/>
<path d="M7.51139 44.0007L11.2294 40.6841L16.1868 40.4035L16.2063 40.3996L19.9204 37.083L24.7219 36.8102L24.7725 36.8063L24.718 35.8203L19.5385 36.1126L19.519 36.1165L15.8048 39.4331L10.8475 39.7137H10.828L7.10996 43.0342L2.30849 43.307H2.26172L2.31628 44.2969L7.4958 44.0007H7.51139Z" fill="#AC7D2C"/>
<path d="M37.9138 15.1723L37.6293 20.1492L34.4257 23.7347L34.3945 23.7737L35.1311 24.4323L38.588 20.5623L38.5997 20.5467L38.8803 15.5737L42.1852 11.8713L42.1969 11.8557L42.4814 6.88274L45.685 3.29333L45.7162 3.25825L44.9757 2.59961L41.5227 6.46963L41.511 6.48132L41.2304 11.4543L37.9216 15.1606L37.9138 15.1723Z" fill="#AC7D2C"/>
<path d="M26.654 49.3948L26.9346 44.4179L30.1381 40.8324L30.1693 40.7934L29.4327 40.1348L25.9797 44.0048L25.968 44.0165L25.6835 48.9933L22.3786 52.6958L22.3669 52.7114L22.0824 57.6843L18.8827 61.2737L18.8477 61.3088L19.5881 61.9675L23.0412 58.0974L23.0528 58.0857L23.3373 53.1089L26.6423 49.4064L26.654 49.3948Z" fill="#AC7D2C"/>
<path d="M58.0838 41.5139L53.1108 41.2333L49.4045 37.9245L49.3928 37.9167L44.4198 37.6322L40.8304 34.4286L40.7915 34.3975L40.1328 35.1341L44.0028 38.591L44.0184 38.5988L48.9914 38.8833L52.6977 42.1882L52.7094 42.1999L57.6824 42.4844L61.2718 45.684L61.3068 45.7191L61.9655 44.9786L58.0955 41.5256L58.0838 41.5139Z" fill="#AC7D2C"/>
<path d="M6.48328 23.0524L11.4601 23.3369L15.1626 26.6418L15.1743 26.6535L20.1511 26.9341L23.7366 30.1377L23.7756 30.1688L24.4342 29.4322L20.5642 25.9792L20.5525 25.9675L15.5757 25.683L11.8732 22.3781L11.8616 22.3664L6.8847 22.0858L3.29528 18.8822L3.26021 18.8472L2.60156 19.5877L6.47158 23.0407L6.48328 23.0524Z" fill="#AC7D2C"/>
<path d="M32.6796 23.4813L32.6523 23.5203L33.5098 24.0191L36.1209 19.5372L36.1287 19.5216L35.4116 14.5915L37.9098 10.3006L37.9176 10.285L37.2005 5.35494L39.6207 1.20042L39.6441 1.15755L38.7906 0.658691L36.1794 5.14059L36.1716 5.15618L36.8887 10.0863L34.3905 14.3772L34.3827 14.3928L35.0998 19.3229L32.6796 23.4813Z" fill="#AC7D2C"/>
<path d="M31.8942 41.0896L31.9175 41.0467L31.0601 40.5479L28.4528 45.0297L28.4411 45.0453L29.1622 49.9754L26.6601 54.2664L26.6523 54.278L27.3694 59.212L24.9492 63.3666L24.9258 63.4094L25.7832 63.9083L28.3905 59.4264L28.3983 59.4108L27.6812 54.4807L30.1832 50.1898L30.191 50.1742L29.4739 45.2441L31.8942 41.0896Z" fill="#AC7D2C"/>
<path d="M59.4098 36.1706L54.4797 36.8877L50.1888 34.3896L50.1732 34.3779L45.2431 35.0989L41.0886 32.6748L41.0457 32.6514L40.5469 33.5088L45.0288 36.12L45.0444 36.1278L49.9745 35.4107L54.2654 37.9088L54.281 37.9166L59.2111 37.1995L63.3656 39.6197L63.4085 39.6431L63.9073 38.7896L59.4254 36.1784L59.4098 36.1706Z" fill="#AC7D2C"/>
<path d="M5.15374 28.3953L10.0877 27.6782L14.3748 30.1803L14.3903 30.1881L19.3204 29.471L23.4789 31.8912L23.5178 31.9146L24.0167 31.0572L19.5348 28.4499L19.5192 28.4382L14.5891 29.1592L10.3021 26.6572L10.2865 26.6494L5.3525 27.3665L1.19797 24.9462L1.1551 24.9229L0.65625 25.7764L5.14205 28.3876L5.15374 28.3953Z" fill="#AC7D2C"/>
<path d="M54.2145 15.8505L51.233 19.8413L46.4355 21.1118L46.416 21.1157L43.4384 25.1105L38.785 26.3381L38.7383 26.3498L38.9916 27.3046L44.0074 25.9835L44.023 25.9796L47.0045 21.9848L51.8059 20.7182L51.8215 20.7104L54.7991 16.7196L59.4485 15.4919L59.4953 15.4802L59.242 14.5215L54.2301 15.8427L54.2145 15.8505Z" fill="#AC7D2C"/>
<path d="M10.3551 48.7159L13.3326 44.7212L18.1341 43.4545L18.1536 43.4506L21.1311 39.4559L25.7806 38.2321L25.8273 38.2166L25.574 37.2617L20.5621 38.5829L20.5426 38.5868L17.5651 42.5815L12.7636 43.8482L12.748 43.8521L9.76656 47.8468L5.11708 49.0744L5.07031 49.0861L5.32364 50.0449L10.3395 48.7198L10.3551 48.7159Z" fill="#AC7D2C"/>
<path d="M48.7198 54.2154L44.7251 51.234L43.4584 46.4325L43.4506 46.4169L39.4598 43.4394L38.2321 38.786L38.2166 38.7393L37.2617 38.9926L38.5868 44.0084L38.5907 44.024L42.5854 47.0054L43.8521 51.8069L43.856 51.8225L47.8507 54.8L49.0744 59.4495L49.0861 59.4963L50.0449 59.243L48.7237 54.231L48.7198 54.2154Z" fill="#AC7D2C"/>
<path d="M15.8485 10.3551L19.8432 13.3326L21.1099 18.1341L21.1138 18.1536L25.1085 21.1311L26.3362 25.7806L26.3478 25.8273L27.3027 25.574L25.9815 20.5582L25.9776 20.5426L21.9829 17.5651L20.7162 12.7636L20.7123 12.748L16.7176 9.76656L15.49 5.11708L15.4783 5.07031L14.5195 5.32364L15.8446 10.3395L15.8485 10.3551Z" fill="#AC7D2C"/>
<path d="M27.3746 14.9504L29.9234 19.2335L29.2726 24.0467L30.2508 24.1792L30.9523 19.0231L28.3996 14.7438L29.0699 9.80596L26.5211 5.52283L27.1719 0.709657L26.1898 0.577148L25.4922 5.73328L28.041 10.0164L27.3746 14.9504Z" fill="#AC7D2C"/>
<path d="M37.191 49.6126L34.6422 45.3334L35.293 40.5202L34.3148 40.3877L33.6133 45.5438L36.166 49.8231L35.4957 54.7609L38.0445 59.0402L37.3937 63.8573L38.3758 63.9898L39.0734 58.8336L36.5246 54.5505L37.191 49.6126Z" fill="#AC7D2C"/>
<path d="M54.5534 28.041L49.6155 27.3746L45.3324 29.9234L40.566 29.2765L40.5192 29.2726L40.3867 30.2508L45.5428 30.9523L49.826 28.3996L54.76 29.0699L59.0431 26.5211L63.8056 27.168L63.8563 27.1719L63.9888 26.1898L58.8326 25.4922L54.5534 28.041Z" fill="#AC7D2C"/>
<path d="M10.0135 36.5255L14.9514 37.192L19.2306 34.6431L23.997 35.2901L24.0438 35.294L24.1763 34.3158L19.0202 33.6143L14.7409 36.167L9.80303 35.4967L5.52379 38.0455L0.757392 37.4024L0.706727 37.3946L0.574219 38.3768L5.73425 39.0744L10.0135 36.5255Z" fill="#AC7D2C"/>
<path d="M41.0703 16.5558L39.8427 21.3846L36.0155 24.2997L35.9766 24.3309L36.5767 25.1182L40.7196 21.9653L41.9433 17.1326L45.9069 14.1161L47.1306 9.28733L50.9578 6.37215L50.9968 6.34487L50.3966 5.55762L46.2576 8.70664L45.0339 13.5354L41.0703 16.5558Z" fill="#AC7D2C"/>
<path d="M23.5006 48.0072L24.7244 43.1784L28.5515 40.2672L28.5905 40.236L27.9903 39.4487L23.8514 42.6016L22.6276 47.4304L18.6641 50.4508L17.4364 55.2796L13.6093 58.1947L13.5703 58.222L14.1705 59.0093L18.3133 55.8564L19.5371 51.0276L23.5006 48.0072Z" fill="#AC7D2C"/>
<path d="M55.8608 46.2571L51.032 45.0334L48.0233 41.0815L48.0116 41.0698L43.1828 39.8422L40.2677 36.015L40.2365 35.9761L39.4492 36.5763L42.5943 40.7035L42.6021 40.7191L47.4348 41.9428L50.4435 45.8947L50.4513 45.9064L55.284 47.1301L58.1952 50.9573L58.2225 50.9963L59.0098 50.3961L55.8725 46.2688L55.8608 46.2571Z" fill="#AC7D2C"/>
<path d="M8.71151 18.3133L13.5403 19.5371L16.549 23.4889L16.5607 23.5006L21.3894 24.7244L24.3007 28.5515L24.3319 28.5905L25.1192 27.9903L21.9779 23.8631L21.9662 23.8514L17.1375 22.6276L14.1288 18.6758L14.121 18.6602L9.28831 17.4364L6.37313 13.6093L6.34585 13.5703L5.55859 14.1705L8.69982 18.2977L8.71151 18.3133Z" fill="#AC7D2C"/>
</svg>
