<svg width="24" height="177" viewBox="0 0 24 177" fill="none" xmlns="http://www.w3.org/2000/svg">
<g clip-path="url(#clip0)">
<path d="M12.1665 154.532L2.99622 177L0.181589 176.029L8.95839 154.532L-1.94484e-06 132.507L8.95839 110.511L-3.86785e-06 88.5139L8.95838 66.5172L-5.79208e-06 44.4927L8.95838 22.496L0.181581 0.970871L2.99621 -1.30969e-07L12.1665 22.496L3.1778 44.4927L12.1665 66.5172L3.1778 88.5139L12.1665 110.511L3.1778 132.507L12.1665 154.532Z" fill="#ADC7CF"/>
<path d="M23.9995 154.532L14.8595 177L12.0449 176.029L20.8217 154.532L11.8633 132.507L20.8217 110.511L11.8633 88.5139L20.8217 66.5172L11.8633 44.4927L20.8217 22.496L12.0449 0.970871L14.8595 -1.30969e-07L23.9995 22.496L15.0411 44.4927L23.9995 66.5172L15.0411 88.5139L23.9995 110.511L15.0411 132.507L23.9995 154.532Z" fill="#ADC7CF"/>
</g>
<defs>
<clipPath id="clip0">
<rect width="177" height="24" fill="white" transform="translate(0 177) rotate(-90)"/>
</clipPath>
</defs>
</svg>
