<svg width="116" height="172" viewBox="0 0 116 172" fill="none" xmlns="http://www.w3.org/2000/svg">
<path d="M0 0V59.6734V59.6766L0.0350751 59.6734H59.7074L59.7425 59.6766V59.6734V0H0ZM8.95372 22.745C12.6398 26.4302 17.1645 28.5834 21.0578 29.8415C17.1677 31.0996 12.643 33.2559 8.95372 36.938C6.54948 39.3427 4.79573 42.101 3.51708 44.8084V14.8714C4.79573 17.5819 6.54948 20.3402 8.95372 22.745ZM3.84232 3.84445C7.45506 4.39866 14.9962 6.14412 20.2862 11.4282C25.5761 16.7124 27.3235 24.2452 27.8752 27.854C24.2624 27.2997 16.7213 25.5543 11.4313 20.2702C6.14452 14.9829 4.39714 7.4532 3.84232 3.84445ZM27.8815 31.8322C27.3331 35.4346 25.5953 42.9547 20.2862 48.2579C14.9962 53.542 7.45187 55.2875 3.83913 55.8385C4.38758 52.2361 6.12539 44.716 11.4313 39.4128C16.7245 34.1287 24.2688 32.3832 27.8815 31.8322ZM22.7638 50.7327C26.453 47.0476 28.6085 42.5279 29.8681 38.642C31.1308 42.531 33.2863 47.0507 36.9756 50.7327C39.3798 53.1343 42.1412 54.883 44.8515 56.1602H14.891C17.5981 54.883 20.3595 53.1343 22.7638 50.7327ZM31.861 27.8508C32.4094 24.2484 34.1472 16.7283 39.4563 11.4251C44.7463 6.14093 52.2906 4.39548 55.9034 3.84127C55.3549 7.44365 53.6171 14.9637 48.308 20.267C43.0148 25.5543 35.4705 27.2997 31.861 27.8508ZM31.8641 31.829C35.4705 32.3768 42.9989 34.1127 48.308 39.4128C53.598 44.6969 55.3453 52.2298 55.9002 55.8385C52.2874 55.2843 44.7463 53.5388 39.4563 48.2579C34.1632 42.9706 32.4158 35.4346 31.8641 31.829ZM50.7856 36.938C47.0995 33.2559 42.5748 31.0996 38.6847 29.8415C42.5748 28.5802 47.0995 26.427 50.7856 22.745C53.193 20.3402 54.9436 17.5819 56.2222 14.8746V44.8116C54.9436 42.101 53.193 39.3395 50.7856 36.938ZM36.9756 8.95021C33.2863 12.6354 31.1308 17.1551 29.8681 21.0442C28.6085 17.1551 26.4498 12.6354 22.7638 8.95021C20.3531 6.54226 17.5886 4.79362 14.875 3.5132H44.8675C42.1507 4.79362 39.3862 6.54226 36.9756 8.95021Z" fill="#154754"/>
<path d="M0 56.1606V115.834V115.837L0.0350751 115.834H59.7074L59.7425 115.837V115.834V56.1606H0ZM8.95372 78.9056C12.6398 82.5908 17.1645 84.7439 21.0578 86.002C17.1677 87.2602 12.643 89.4165 8.95372 93.0985C6.54948 95.5033 4.79573 98.2616 3.51708 100.969V71.0319C4.79573 73.7425 6.54948 76.5008 8.95372 78.9056ZM3.84232 60.005C7.45506 60.5592 14.9962 62.3047 20.2862 67.5888C25.5761 72.8729 27.3235 80.4058 27.8752 84.0145C24.2624 83.4603 16.7213 81.7149 11.4313 76.4307C6.14452 71.1466 4.39714 63.6138 3.84232 60.005ZM27.8815 87.9927C27.3331 91.5951 25.5953 99.1152 20.2862 104.418C14.9962 109.703 7.45187 111.448 3.83913 111.999C4.38758 108.397 6.12539 100.877 11.4313 95.5733C16.7245 90.2892 24.2688 88.5438 27.8815 87.9927ZM22.7638 106.893C26.453 103.208 28.6085 98.6884 29.8681 94.8026C31.1308 98.6916 33.2863 103.211 36.9756 106.893C39.3798 109.295 42.1412 111.044 44.8515 112.324H14.891C17.5981 111.044 20.3595 109.295 22.7638 106.893ZM31.861 84.0113C32.4094 80.4089 34.1472 72.8889 39.4563 67.5856C44.7463 62.3015 52.2906 60.556 55.9034 60.0018C55.3549 63.6042 53.6171 71.1243 48.308 76.4275C43.0148 81.7148 35.4705 83.4603 31.861 84.0113ZM31.8641 87.9896C35.4705 88.5374 42.9989 90.2733 48.308 95.5733C53.598 100.857 55.3453 108.39 55.9002 111.999C52.2874 111.445 44.7463 109.699 39.4563 104.418C34.1632 99.1311 32.4158 91.5951 31.8641 87.9896ZM50.7856 93.0985C47.0995 89.4165 42.5748 87.2602 38.6847 86.002C42.5748 84.7407 47.0995 82.5876 50.7856 78.9056C53.193 76.5008 54.9436 73.7425 56.2222 71.0351V100.969C54.9436 98.2616 53.193 95.5033 50.7856 93.0985ZM36.9756 65.1108C33.2863 68.796 31.1308 73.3157 29.8681 77.2047C28.6085 73.3157 26.4498 68.796 22.7638 65.1108C20.3531 62.7028 17.5886 60.9542 14.875 59.6738H44.8675C42.1507 60.9542 39.3862 62.706 36.9756 65.1108Z" fill="#154754"/>
<path d="M0 112.324V171.997V172L0.0350751 171.997H59.7074L59.7425 172V171.997V112.324H0ZM8.95372 135.065C12.6398 138.751 17.1645 140.904 21.0578 142.162C17.1677 143.42 12.643 145.576 8.95372 149.258C6.54948 151.663 4.79573 154.421 3.51708 157.129V127.192C4.79573 129.902 6.54948 132.664 8.95372 135.065ZM3.84232 116.165C7.45506 116.719 14.9962 118.464 20.2862 123.749C25.5761 129.033 27.3235 136.566 27.8752 140.174C24.2624 139.62 16.7213 137.875 11.4313 132.591C6.14452 127.306 4.39714 119.774 3.84232 116.165ZM27.8815 144.153C27.3331 147.755 25.5953 155.275 20.2862 160.578C14.9962 165.862 7.45187 167.608 3.83913 168.159C4.38758 164.557 6.12539 157.036 11.4313 151.733C16.7245 146.452 24.2688 144.707 27.8815 144.153ZM22.7638 163.053C26.453 159.368 28.6085 154.848 29.8681 150.962C31.1308 154.851 33.2863 159.371 36.9756 163.053C39.3798 165.455 42.1412 167.203 44.8515 168.481H14.891C17.5981 167.207 20.3595 165.458 22.7638 163.053ZM31.861 140.174C32.4094 136.572 34.1472 129.052 39.4563 123.749C44.7463 118.464 52.2906 116.719 55.9034 116.165C55.3549 119.767 53.6171 127.287 48.308 132.591C43.0148 137.875 35.4705 139.62 31.861 140.174ZM31.8641 144.149C35.4705 144.697 42.9989 146.433 48.308 151.733C53.598 157.017 55.3453 164.55 55.9002 168.159C52.2874 167.605 44.7463 165.859 39.4563 160.578C34.1632 155.294 32.4158 147.758 31.8641 144.149ZM50.7856 149.258C47.0995 145.576 42.5748 143.42 38.6847 142.162C42.5748 140.901 47.0995 138.747 50.7856 135.065C53.193 132.661 54.9436 129.902 56.2222 127.195V157.132C54.9436 154.421 53.193 151.663 50.7856 149.258ZM36.9756 121.271C33.2863 124.956 31.1308 129.475 29.8681 133.365C28.6085 129.475 26.4498 124.956 22.7638 121.271C20.3531 118.863 17.5886 117.114 14.875 115.834H44.8675C42.1507 117.114 39.3862 118.866 36.9756 121.271Z" fill="#154754"/>
<path d="M56.2578 0V59.6734V59.6766L56.2929 59.6734H115.965L116 59.6766V59.6734V0H56.2578ZM65.2115 22.745C68.8976 26.4302 73.4223 28.5834 77.3156 29.8415C73.4255 31.0996 68.9008 33.2559 65.2115 36.938C62.8073 39.3427 61.0535 42.101 59.7749 44.8084V14.8714C61.0535 17.5819 62.8073 20.3402 65.2115 22.745ZM60.1001 3.84445C63.7129 4.39866 71.254 6.14412 76.544 11.4282C81.834 16.7124 83.5813 24.2452 84.133 27.854C80.5202 27.2997 72.9791 25.5543 67.6891 20.2702C62.4023 14.9829 60.655 7.4532 60.1001 3.84445ZM84.1393 31.8322C83.5909 35.4346 81.8531 42.9547 76.544 48.2579C71.254 53.542 63.7097 55.2875 60.0969 55.8385C60.6454 52.2361 62.3832 44.716 67.6891 39.4128C72.9823 34.1287 80.5266 32.3832 84.1393 31.8322ZM79.0216 50.7327C82.7108 47.0476 84.8664 42.5279 86.1259 38.642C87.3886 42.531 89.5441 47.0507 93.2334 50.7327C95.6376 53.1343 98.399 54.883 101.109 56.1602H71.1488C73.856 54.883 76.6173 53.1343 79.0216 50.7327ZM88.1188 27.8508C88.6672 24.2484 90.405 16.7283 95.7141 11.4251C101.004 6.14093 108.548 4.39548 112.161 3.84127C111.613 7.44365 109.875 14.9637 104.566 20.267C99.2727 25.5543 91.7283 27.2997 88.1188 27.8508ZM88.122 31.829C91.7283 32.3768 99.2567 34.1127 104.566 39.4128C109.856 44.6969 111.603 52.2298 112.158 55.8385C108.545 55.2843 101.004 53.5388 95.7141 48.2579C90.421 42.9706 88.6736 35.4346 88.122 31.829ZM107.043 36.938C103.357 33.2559 98.8326 31.0996 94.9425 29.8415C98.8326 28.5802 103.357 26.427 107.043 22.745C109.451 20.3402 111.201 17.5819 112.48 14.8746V44.8116C111.201 42.101 109.451 39.3395 107.043 36.938ZM93.2334 8.95021C89.5441 12.6354 87.3886 17.1551 86.1259 21.0442C84.8664 17.1551 82.7076 12.6354 79.0216 8.95021C76.6109 6.54226 73.8464 4.79362 71.1329 3.5132H101.125C98.4085 4.79362 95.644 6.54226 93.2334 8.95021Z" fill="#154754"/>
<path d="M56.2578 56.1606V115.834V115.837L56.2929 115.834H115.965L116 115.837V115.834V56.1606H56.2578ZM65.2115 78.9056C68.8976 82.5908 73.4223 84.7439 77.3156 86.002C73.4255 87.2602 68.9008 89.4165 65.2115 93.0985C62.8073 95.5033 61.0535 98.2616 59.7749 100.969V71.0319C61.0535 73.7425 62.8073 76.5008 65.2115 78.9056ZM60.1001 60.005C63.7129 60.5592 71.254 62.3047 76.544 67.5888C81.834 72.8729 83.5813 80.4058 84.133 84.0145C80.5202 83.4603 72.9791 81.7149 67.6891 76.4307C62.4023 71.1466 60.655 63.6138 60.1001 60.005ZM84.1393 87.9927C83.5909 91.5951 81.8531 99.1152 76.544 104.418C71.254 109.703 63.7097 111.448 60.0969 111.999C60.6454 108.397 62.3832 100.877 67.6891 95.5733C72.9823 90.2892 80.5266 88.5438 84.1393 87.9927ZM79.0216 106.893C82.7108 103.208 84.8664 98.6884 86.1259 94.8026C87.3886 98.6916 89.5441 103.211 93.2334 106.893C95.6376 109.295 98.399 111.044 101.109 112.324H71.1488C73.856 111.044 76.6173 109.295 79.0216 106.893ZM88.1188 84.0113C88.6672 80.4089 90.405 72.8889 95.7141 67.5856C101.004 62.3015 108.548 60.556 112.161 60.0018C111.613 63.6042 109.875 71.1243 104.566 76.4275C99.2727 81.7148 91.7283 83.4603 88.1188 84.0113ZM88.122 87.9896C91.7283 88.5374 99.2567 90.2733 104.566 95.5733C109.856 100.857 111.603 108.39 112.158 111.999C108.545 111.445 101.004 109.699 95.7141 104.418C90.421 99.1311 88.6736 91.5951 88.122 87.9896ZM107.043 93.0985C103.357 89.4165 98.8326 87.2602 94.9425 86.002C98.8326 84.7407 103.357 82.5876 107.043 78.9056C109.451 76.5008 111.201 73.7425 112.48 71.0351V100.969C111.201 98.2616 109.451 95.5033 107.043 93.0985ZM93.2334 65.1108C89.5441 68.796 87.3886 73.3157 86.1259 77.2047C84.8664 73.3157 82.7076 68.796 79.0216 65.1108C76.6109 62.7028 73.8464 60.9542 71.1329 59.6738H101.125C98.4085 60.9542 95.644 62.706 93.2334 65.1108Z" fill="#154754"/>
<path d="M56.2578 112.324V171.997V172L56.2929 171.997H115.965L116 172V171.997V112.324H56.2578ZM65.2115 135.065C68.8976 138.751 73.4223 140.904 77.3156 142.162C73.4255 143.42 68.9008 145.576 65.2115 149.258C62.8073 151.663 61.0535 154.421 59.7749 157.129V127.192C61.0535 129.902 62.8073 132.664 65.2115 135.065ZM60.1001 116.165C63.7129 116.719 71.254 118.464 76.544 123.749C81.834 129.033 83.5813 136.566 84.133 140.174C80.5202 139.62 72.9791 137.875 67.6891 132.591C62.4023 127.306 60.655 119.774 60.1001 116.165ZM84.1393 144.153C83.5909 147.755 81.8531 155.275 76.544 160.578C71.254 165.862 63.7097 167.608 60.0969 168.159C60.6454 164.557 62.3832 157.036 67.6891 151.733C72.9823 146.452 80.5266 144.707 84.1393 144.153ZM79.0216 163.053C82.7108 159.368 84.8664 154.848 86.1259 150.962C87.3886 154.851 89.5441 159.371 93.2334 163.053C95.6376 165.455 98.399 167.203 101.109 168.481H71.1488C73.856 167.207 76.6173 165.458 79.0216 163.053ZM88.1188 140.174C88.6672 136.572 90.405 129.052 95.7141 123.749C101.004 118.464 108.548 116.719 112.161 116.165C111.613 119.767 109.875 127.287 104.566 132.591C99.2727 137.875 91.7283 139.62 88.1188 140.174ZM88.122 144.149C91.7283 144.697 99.2567 146.433 104.566 151.733C109.856 157.017 111.603 164.55 112.158 168.159C108.545 167.605 101.004 165.859 95.7141 160.578C90.421 155.294 88.6736 147.758 88.122 144.149ZM107.043 149.258C103.357 145.576 98.8326 143.42 94.9425 142.162C98.8326 140.901 103.357 138.747 107.043 135.065C109.451 132.661 111.201 129.902 112.48 127.195V157.132C111.201 154.421 109.451 151.663 107.043 149.258ZM93.2334 121.271C89.5441 124.956 87.3886 129.475 86.1259 133.365C84.8664 129.475 82.7076 124.956 79.0216 121.271C76.6109 118.863 73.8464 117.114 71.1329 115.834H101.125C98.4085 117.114 95.644 118.866 93.2334 121.271Z" fill="#154754"/>
</svg>
