<svg xmlns="http://www.w3.org/2000/svg" fill="none" viewBox="0 0 184 7">
  <defs/>
  <path fill="#ADC7CF" d="M11.7431 6.99973L0 2.42975l.50742-1.40732 11.23568 4.3884L23.2543.931641 34.751 5.41083 46.2477.931641 57.7443 5.41083 69.2555.931641 80.7522 5.41083l11.2502-4.3884.5074 1.40732-11.7576 4.56998-11.4967-4.47919-11.5112 4.47919-11.4966-4.47919L34.751 6.99973 23.2543 2.52054 11.7431 6.99973z"/>
  <path fill="#ADC7CF" d="M103.231 6.99973L91.4883 2.42975l.5074-1.40732 11.2353 4.3884L114.743.931641l11.496 4.479189L137.736.931641l11.497 4.479189L160.744.931641 172.24 5.41083l11.251-4.3884.507 1.40732-11.758 4.56998-11.496-4.47919-11.511 4.47919-11.497-4.47919-11.497 4.47919-11.496-4.47919-11.512 4.47919z"/>
</svg>