<svg width="513" height="18" viewBox="0 0 513 18" fill="none" xmlns="http://www.w3.org/2000/svg">
<path d="M32.7403 18.0001L0 5.05177L1.41471 1.06438L32.7403 13.4982L64.8339 0.807129L96.8871 13.4982L128.94 0.807129L160.993 13.4982L193.087 0.807129L225.14 13.4982L256.506 1.06438L257.921 5.05177L225.14 18.0001L193.087 5.30902L160.993 18.0001L128.94 5.30902L96.8871 18.0001L64.8339 5.30902L32.7403 18.0001Z" fill="#ADC7CF"/>
<path d="M287.818 18.0001L255.078 5.05177L256.493 1.06438L287.818 13.4982L319.912 0.807129L351.965 13.4982L384.018 0.807129L416.072 13.4982L448.165 0.807129L480.218 13.4982L511.584 1.06438L512.999 5.05177L480.218 18.0001L448.165 5.30902L416.072 18.0001L384.018 5.30902L351.965 18.0001L319.912 5.30902L287.818 18.0001Z" fill="#ADC7CF"/>
</svg>