<svg width="742" height="79" viewBox="0 0 742 79" fill="none" xmlns="http://www.w3.org/2000/svg">
<path d="M0 0.970703V78.9707H78.7115V0.970703H0ZM74.0814 37.5236C56.7958 36.4531 42.9055 22.6884 41.6708 5.55894H74.0814V37.5236ZM62.9692 39.9707C52.0113 43.7942 43.2142 52.5119 39.3558 63.3707C35.343 52.5119 26.7002 43.7942 15.588 39.8178C26.5458 35.8413 35.343 27.2766 39.3558 16.2648C43.2142 27.2766 52.0113 35.9942 62.9692 39.9707ZM36.8864 5.55894C35.806 22.6884 21.9158 36.4531 4.63009 37.5236V5.55894H36.8864ZM4.63009 42.2648C21.9158 43.3354 35.806 57.1001 36.8864 74.2295H4.63009V42.2648ZM41.6708 74.3825C42.9055 57.2531 56.7958 43.4883 74.0814 42.2648V74.3825H41.6708Z" fill="#AC7D2C"/>
<path d="M73.9121 0.970703V78.9707H151.664V0.970703H73.9121ZM147.09 37.5236C130.015 36.4531 116.294 22.6884 115.075 5.55894H147.09V37.5236ZM136.113 39.9707C125.289 43.7942 116.599 52.5119 112.788 63.3707C108.824 52.5119 100.287 43.7942 89.31 39.8178C100.134 35.8413 108.824 27.2766 112.788 16.2648C116.599 27.2766 125.289 35.9942 136.113 39.9707ZM110.349 5.55894C109.281 22.6884 95.5606 36.4531 78.4857 37.5236V5.55894H110.349ZM78.4857 42.2648C95.5606 43.3354 109.281 57.1001 110.349 74.2295H78.4857V42.2648ZM115.075 74.3825C116.294 57.2531 130.015 43.4883 147.09 42.2648V74.3825H115.075Z" fill="#AC7D2C"/>
<path d="M147.824 0.970703V78.9707H225.576V0.970703H147.824ZM221.002 37.5236C203.927 36.4531 190.206 22.6884 188.987 5.55894H221.002V37.5236ZM210.025 39.9707C199.201 43.7942 190.511 52.5119 186.7 63.3707C182.736 52.5119 174.199 43.7942 163.222 39.8178C174.046 35.8413 182.736 27.2766 186.7 16.2648C190.511 27.2766 199.201 35.9942 210.025 39.9707ZM184.261 5.55894C183.193 22.6884 169.472 36.4531 152.398 37.5236V5.55894H184.261ZM152.398 42.2648C169.472 43.3354 183.193 57.1001 184.261 74.2295H152.398V42.2648ZM188.987 74.3825C190.206 57.2531 203.927 43.4883 221.002 42.2648V74.3825H188.987Z" fill="#AC7D2C"/>
<path d="M220.776 0.970703V78.9707H299.488V0.970703H220.776ZM294.858 37.5236C277.572 36.4531 263.682 22.6884 262.447 5.55894H294.858V37.5236ZM283.745 39.9707C272.787 43.7942 263.99 52.5119 260.132 63.3707C256.119 52.5119 247.476 43.7942 236.364 39.8178C247.322 35.8413 256.119 27.2766 260.132 16.2648C263.99 27.2766 272.787 35.9942 283.745 39.9707ZM257.663 5.55894C256.582 22.6884 242.692 36.4531 225.406 37.5236V5.55894H257.663ZM225.406 42.2648C242.692 43.3354 256.582 57.1001 257.663 74.2295H225.406V42.2648ZM262.447 74.3825C263.682 57.2531 277.572 43.4883 294.858 42.2648V74.3825H262.447Z" fill="#AC7D2C"/>
<path d="M294.688 0.970703V78.9707H373.4V0.970703H294.688ZM368.77 37.5236C351.484 36.4531 337.594 22.6884 336.359 5.55894H368.77V37.5236ZM357.657 39.9707C346.7 43.7942 337.902 52.5119 334.044 63.3707C330.031 52.5119 321.388 43.7942 310.276 39.8178C321.234 35.8413 330.031 27.2766 334.044 16.2648C337.902 27.2766 346.7 35.9942 357.657 39.9707ZM331.575 5.55894C330.494 22.6884 316.604 36.4531 299.318 37.5236V5.55894H331.575ZM299.318 42.2648C316.604 43.3354 330.494 57.1001 331.575 74.2295H299.318V42.2648ZM336.359 74.3825C337.594 57.2531 351.484 43.4883 368.77 42.2648V74.3825H336.359Z" fill="#AC7D2C"/>
<path d="M368.6 0.970703V78.9707H447.312V0.970703H368.6ZM442.682 37.5236C425.396 36.4531 411.506 22.6884 410.271 5.55894H442.682V37.5236ZM431.57 39.9707C420.612 43.7942 411.815 52.5119 407.956 63.3707C403.943 52.5119 395.301 43.7942 384.188 39.8178C395.146 35.8413 403.943 27.2766 407.956 16.2648C411.815 27.2766 420.612 35.9942 431.57 39.9707ZM405.487 5.55894C404.406 22.6884 390.516 36.4531 373.23 37.5236V5.55894H405.487ZM373.23 42.2648C390.516 43.3354 404.406 57.1001 405.487 74.2295H373.23V42.2648ZM410.271 74.3825C411.506 57.2531 425.396 43.4883 442.682 42.2648V74.3825H410.271Z" fill="#AC7D2C"/>
<path d="M442.512 0.970703V78.9707H521.224V0.970703H442.512ZM516.594 37.5236C499.308 36.4531 485.418 22.6884 484.183 5.55894H516.594V37.5236ZM505.481 39.9707C494.524 43.7942 485.726 52.5119 481.868 63.3707C477.855 52.5119 469.212 43.7942 458.1 39.8178C469.058 35.8413 477.855 27.2766 481.868 16.2648C485.726 27.2766 494.524 35.9942 505.481 39.9707ZM479.399 5.55894C478.318 22.6884 464.428 36.4531 447.142 37.5236V5.55894H479.399ZM447.142 42.2648C464.428 43.3354 478.318 57.1001 479.399 74.2295H447.142V42.2648ZM484.183 74.3825C485.418 57.2531 499.308 43.4883 516.594 42.2648V74.3825H484.183Z" fill="#AC7D2C"/>
<path d="M516.424 0.970703V78.9707H594.176V0.970703H516.424ZM589.602 37.5236C572.527 36.4531 558.807 22.6884 557.587 5.55894H589.602V37.5236ZM578.626 39.9707C567.801 43.7942 559.111 52.5119 555.3 63.3707C551.336 52.5119 542.799 43.7942 531.822 39.8178C542.646 35.8413 551.336 27.2766 555.3 16.2648C559.111 27.2766 567.801 35.9942 578.626 39.9707ZM552.861 5.55894C551.794 22.6884 538.073 36.4531 520.998 37.5236V5.55894H552.861ZM520.998 42.2648C538.073 43.3354 551.794 57.1001 552.861 74.2295H520.998V42.2648ZM557.587 74.3825C558.807 57.2531 572.527 43.4883 589.602 42.2648V74.3825H557.587Z" fill="#AC7D2C"/>
<path d="M590.336 0.970703V78.9707H668.088V0.970703H590.336ZM663.514 37.5236C646.44 36.4531 632.719 22.6884 631.499 5.55894H663.514V37.5236ZM652.538 39.9707C641.713 43.7942 633.024 52.5119 629.212 63.3707C625.248 52.5119 616.711 43.7942 605.734 39.8178C616.559 35.8413 625.248 27.2766 629.212 16.2648C633.024 27.2766 641.713 35.9942 652.538 39.9707ZM626.773 5.55894C625.706 22.6884 611.985 36.4531 594.91 37.5236V5.55894H626.773ZM594.91 42.2648C611.985 43.3354 625.706 57.1001 626.773 74.2295H594.91V42.2648ZM631.499 74.3825C632.719 57.2531 646.44 43.4883 663.514 42.2648V74.3825H631.499Z" fill="#AC7D2C"/>
<path d="M663.289 0.970703V78.9707H742V0.970703H663.289ZM737.37 37.5236C720.084 36.4531 706.194 22.6884 704.959 5.55894H737.37V37.5236ZM726.258 39.9707C715.3 43.7942 706.503 52.5119 702.644 63.3707C698.632 52.5119 689.989 43.7942 678.877 39.8178C689.834 35.8413 698.632 27.2766 702.644 16.2648C706.503 27.2766 715.3 35.9942 726.258 39.9707ZM700.175 5.55894C699.095 22.6884 685.204 36.4531 667.919 37.5236V5.55894H700.175ZM667.919 42.2648C685.204 43.3354 699.095 57.1001 700.175 74.2295H667.919V42.2648ZM704.959 74.3825C706.194 57.2531 720.084 43.4883 737.37 42.2648V74.3825H704.959Z" fill="#AC7D2C"/>
</svg>
