<svg xmlns="http://www.w3.org/2000/svg" fill="none" viewBox="0 0 134 133">
  <defs/>
  <mask id="a" width="225" height="175" x="-91" y="0" maskUnits="userSpaceOnUse">
    <path fill="#ADC7CF" d="M-91 0h225v175H-91z"/>
  </mask>
  <g fill="#AC7D2C" mask="url(#a)">
    <path d="M90.125-12.5862l4.7897 13.61066-4.6649 13.27234 2.724.9472 4.9713-14.17444.0227-.0451-4.7897-13.61066 4.767-13.5655.0227-.0451-4.7897-13.5993 4.6648-13.2723-2.7126-.9472-4.9826 14.1631-.0227.0564 4.7897 13.5993-4.767 13.5655-.0227.0451zM97.9678 91.3599l-4.7897-13.5993 4.6648-13.2724-2.7126-.9472-4.9826 14.1632-.0227.0564 4.7897 13.5993-4.767 13.5651-.0227.046 4.7897 13.61-4.6649 13.272 2.724.948 4.9713-14.175.0227-.045-4.7897-13.61 4.767-13.566.0227-.0451zM173.807 35.5189l-.045-.0226-13.7 4.7587-13.653-4.7361-.046-.0226-13.699 4.7587-13.223-4.5895-.136-.0451-.953 2.7063 14.266 4.9391.046.0225 13.699-4.7586 13.654 4.7361.045.0225 13.7-4.7586 13.222 4.5895.125.0451.954-2.7064-14.256-4.939zM14.3435 43.2883l13.6993-4.7586 13.6539 4.7361.0454.0225 13.6994-4.7586 13.2226 4.5895.1248.0451.9534-2.7064-14.2554-4.939-.0454-.0226-13.6994 4.7587-13.6539-4.7361-.0454-.0226-13.6993 4.7587-13.22266-4.5895-.136198-.0451-.953392 2.7063 14.26685 4.9391.0454.0225zM147.65-19.363l-6.311 12.99039-13.018 6.235844-.046.022552-6.31 12.990414-12.61 6.0441-.136.0564 1.26 2.5823 13.608-6.5177.034-.0226 6.311-12.9904 13.029-6.23584.046-.02255 6.299-12.99041 12.61-6.0329.136-.0676-1.26-2.5823-13.597 6.5177-.045.0226zM40.4571 98.1481l6.2992-12.9904 13.0297-6.2471.0454-.0113 6.2992-12.9904 12.6211-6.0442.1248-.0563-1.2485-2.5823-13.6085 6.5177-.0454.0226-6.2992 12.9791-13.0297 6.2471-.0454.0226-6.2992 12.9791-12.6211 6.0557-.1248.056 1.2485 2.582 13.6085-6.5286.0454-.0113zM140.125 86.3756l-6.288-12.934-.023-.0452-13.075-6.2696-6.14-12.6634L112 55.7151l6.56 13.5204.023.0338 13.075 6.2697 6.277 12.9453.022.0451 13.075 6.2584 6.141 12.6522 2.599-1.241-6.583-13.5537-13.064-6.2697zM34.9224-13.8489l13.0638 6.25842L54.274 5.35483l.0227.0451 13.0637 6.25837 6.1403 12.6634 2.5992-1.2404-6.583-13.56548-13.0637-6.2584-6.2879-12.94531-.0113-.0451-13.0751-6.25841-6.1516-12.6634-2.5992 1.2404 6.5716 13.5204.0227.0451zM59.9251-32.2858l9.6588 10.7577.8172 14.34355.0113.04511 9.6588 10.75768.8058 14.03906 2.8715-.1578-.8512-14.98635v-.05638L73.2272-8.30091 72.41-22.6445v-.0451l-9.6588-10.7577-.8058-14.0278-2.8829.1579.8626 14.9863v.0451zM128.171 111.071l-9.659-10.758-.817-14.3434-.011-.0564-9.659-10.7464-.806-14.0391-2.871.1691.851 14.9751.011.0564 9.659 10.7464.817 14.3433v.057l9.67 10.757.795 14.028 2.883-.158-.863-14.986v-.045zM166.194 5.49006l-10.827 9.59624-14.437.8119-.046.0112-10.828 9.5963-13.983.7893-.147.0113.17 2.8529 15.084-.8457h.045l10.828-9.6075 14.437-.8119h.046l10.828-9.60749 13.983-.77807.136-.01128-.159-2.8642-15.084.857h-.046zM21.9016 73.2951l10.8278-9.5962 14.4371-.8119.0567-.0113 10.8165-9.5962 13.9831-.7893.1475-.0113-.1589-2.8529-15.084.8457-.0568.0113-10.8164 9.5962-14.4371.8119h-.0567l-10.8278 9.6075-13.98312.7893h-.1362l.1589 2.8642 15.08402-.857h.0454zM110.452-10.1165l-.828 14.39997-9.33 10.37433-.091.1127 2.145 1.9057 10.068-11.19743.034-.0451.817-14.38869 9.625-10.71258.034-.0451.828-14.3887 9.33-10.3855.091-.1015-2.157-1.9057-10.056 11.1974-.034.0338-.817 14.3887-9.636 10.7239-.023.0338zM77.6557 88.9016l.8172-14.4 9.3296-10.3742.0908-.1128-2.1451-1.9057-10.056 11.1974-.0341.0339-.8285 14.3999-9.6247 10.7126-.0341.0451-.8285 14.3882-9.3183 10.386-.1021.102 2.1565 1.905 10.056-11.197.034-.034.8286-14.4 9.6247-10.7126.034-.0338zM169.192 66.1007l-14.483-.8119-10.794-9.5737-.034-.0225-14.482-.8232-10.453-9.2692-.114-.0902-1.918 2.1312 11.271 10.0022.045.0226 14.482.8231 10.794 9.5624.034.0338 14.483.8232 10.453 9.2579.102.1015 1.918-2.1425-11.27-9.9909-.034-.0338zM18.9061 12.6846l14.4938.8231 10.7824 9.5624.034.0338 14.4939.8119 10.4419 9.2692.1135.0903 1.9181-2.1313-11.2705-9.9909-.034-.0338-14.4938-.8232-10.7824-9.5624-.0341-.0338-14.4938-.81189L9.62184.618822 9.5197.517334 7.60156 2.65985 18.872 12.6507l.0341.0339z"/>
    <path d="M95.2005 13.9247l-.0794.1128 2.497 1.4434L105.223 2.513l.022-.04511-2.088-14.26459 7.275-12.4154.023-.0451-2.089-14.2646 7.049-12.0206.068-.1241-2.486-1.4434-7.604 12.9679-.023.0451 2.088 14.2646-7.275 12.4153-.023.0452 2.089 14.2646-7.0485 12.0319zM92.9108 64.8714l.0681-.1241-2.497-1.4433-7.593 12.9678-.0341.0451 2.0997 14.2646-7.2866 12.4155-.0227.034 2.0884 14.276-7.0483 12.02-.0681.124 2.497 1.444 7.593-12.968.0228-.045-2.0884-14.265 7.2866-12.4152.0227-.0451-2.0884-14.2647 7.0483-12.0206zM173.051 50.6408l-14.358 2.0749-12.496-7.2282-.046-.0338-14.357 2.0861-12.099-7.0139-.125-.0676-1.453 2.4808 13.053 7.5551.045.0226 14.358-2.0749 12.496 7.2282.045.0226 14.358-2.0749 12.099 7.0027.125.0676 1.453-2.4695-13.053-7.5552-.045-.0226zM15.047 28.1442l14.369-2.0749 12.4849 7.2395.0454.0225 14.3576-2.0748 12.1103 7.0026.1135.0677 1.4528-2.4808-13.0524-7.5439-.0454-.0339-14.3576 2.0862-12.4849-7.2395-.0454-.0225-14.369 2.0748-12.09895-7.0026-.12484-.0677-1.45279 2.4696L15.013 28.1216l.034.0226zM157.922-8.15426l-8.683 11.54703-13.971 3.6761-.057.01128-8.671 11.55835-13.552 3.552-.136.0339.737 2.7627 14.608-3.8227.045-.0113 8.683-11.55831 13.983-3.66483.045-.02255 8.672-11.54703 13.54-3.55207.136-.03382-.738-2.77399-14.596 3.82269-.045.02255zM30.1873 86.9394l8.6714-11.5583 13.983-3.6648.0568-.0113 8.6713-11.5583 13.5404-3.5408.1362-.0451-.7377-2.7627-14.596 3.8227-.0567.0113-8.6714 11.5583-13.983 3.6648-.0454.0113-8.6827 11.5583-13.5404 3.552-.1362.0339.7377 2.774 14.6073-3.834.0454-.0113zM141.916 102.851l-11.634-8.6269-3.689-13.8925-.022-.0451-11.623-8.6152-3.575-13.464-.045-.1353-2.781.733 3.859 14.5127.011.0451 11.634 8.6264 3.689 13.8925.011.0452 11.634 8.6151 3.563 13.453.034.135 2.793-.733-3.848-14.501-.011-.045zM46.1906-24.0542l11.6337 8.6152L61.513-1.54651l.0113.05639L73.158 7.12504l3.5752 13.45276.0341.1353 2.7807-.733-3.8476-14.51269-.0114-.04511-11.6336-8.61516-3.6887-13.89254-.0114-.0451-11.6336-8.6264-3.5753-13.4528-.034-.1353-2.7921.733 3.859 14.5127.0113.0451zM79.7554-10.7593l7.4229 12.39272-1.8955 13.92638 2.8489.3834 2.0429-14.9187-7.4341-12.3815 1.9521-14.2872-7.4228-12.3927 1.8954-13.9264-2.8601-.3834-2.0317 14.9187 7.4229 12.3928-1.9409 14.2759zM108.341 89.533l-7.423-12.3815 1.896-13.9263-2.8491-.3834-2.043 14.9187 7.4341 12.3814-1.952 14.2871 7.423 12.382-1.896 13.937 2.86.384 2.032-14.919-7.423-12.393 1.941-14.287zM158.905 27.1179l-14.38-1.9282-12.474 7.3747-13.88-1.8719-.137-.0112-.386 2.8303 15.016 2.0298 12.474-7.386 14.369 1.9395 12.473-7.3748 13.87 1.8719.148.0113.385-2.8417-15.015-2.0184-12.463 7.3747zM29.2004 51.6669l14.3803 1.9282 12.4622-7.3747 13.8809 1.8719.1362.0112.3859-2.8303L55.43 43.2434l-12.4622 7.3861-14.3803-1.9396-12.4622 7.3748-13.88092-1.8606-.14755-.0226-.38589 2.8417 15.02726 2.0184 12.4622-7.3747zM119.639-6.11332l-3.575 13.97145-11.146 8.43477-.113.0902 1.748 2.2778 12.065-9.12259 3.563-13.98273 11.543-8.72788 3.564-13.9715 11.146-8.4347.113-.079-1.748-2.2778-12.053 9.1113-3.564 13.9715-11.543 8.73918zM68.4703 84.8872l3.5639-13.9714 11.1456-8.4235.1135-.0902-1.7479-2.2778-12.0536 9.1226-3.5638 13.9714-11.5429 8.7392-3.5752 13.9715-11.1456 8.435-.1135.079 1.7479 2.277 12.0649-9.122 3.5639-13.9716 11.5428-8.7392zM162.708 79.824l-14.062-3.5408-8.762-11.4342-.034-.0339-14.063-3.552-8.489-11.0734-.091-.1128-2.293 1.7366 9.159 11.9417.023.0451 14.074 3.5408 8.762 11.4342.023.0338 14.074 3.5408 8.478 11.0734.08.1128 2.292-1.7366-9.136-11.9417-.035-.0338zM25.4008-1.02761l14.0625 3.54079 8.7622 11.43422.034.0339L62.322 17.522l8.4784 11.0735.0908.1127 2.2927-1.7365-9.148-11.9417-.0341-.0339-14.0625-3.5407L41.1772.0210915l-.0227-.0451022L27.0806-3.5648l-8.4897-11.0734-.0795-.1128-2.2926 1.7366 9.148 11.94169.034.0451z"/>
  </g>
</svg>