<svg width="317" height="316" viewBox="0 0 317 316" fill="none" xmlns="http://www.w3.org/2000/svg">
<path d="M213.383 -29.9186L224.695 2.43581L213.678 33.986L220.111 36.2377L231.853 2.54301L231.906 2.43581L220.594 -29.9186L231.853 -62.1657L231.906 -62.2729L220.594 -94.6005L231.612 -126.151L225.205 -128.402L213.436 -94.7345L213.383 -94.6005L224.695 -62.2729L213.436 -30.0258L213.383 -29.9186Z" fill="#AC7D2C"/>
<path d="M231.906 217.176L220.594 184.848L231.612 153.298L225.205 151.046L213.436 184.714L213.383 184.848L224.695 217.176L213.436 249.423L213.383 249.53L224.695 281.885L213.678 313.435L220.111 315.686L231.853 281.992L231.906 281.885L220.594 249.53L231.853 217.283L231.906 217.176Z" fill="#AC7D2C"/>
<path d="M411.031 84.434L410.923 84.3804L378.567 95.6923L346.319 84.434L346.211 84.3804L313.855 95.6923L282.625 84.7825L282.304 84.6752L280.052 91.1086L313.748 102.849L313.855 102.903L346.211 91.5911L378.46 102.849L378.567 102.903L410.923 91.5911L442.153 102.501L442.448 102.608L444.7 96.1748L411.031 84.434Z" fill="#AC7D2C"/>
<path d="M34.3924 102.903L66.7484 91.5911L98.9972 102.849L99.1044 102.903L131.46 91.5911L162.691 102.501L162.985 102.608L165.237 96.1748L131.568 84.434L131.46 84.3804L99.1044 95.6923L66.8557 84.434L66.7484 84.3804L34.3924 95.6923L3.16234 84.7825L2.84065 84.6752L0.588867 91.1086L34.2852 102.849L34.3924 102.903Z" fill="#AC7D2C"/>
<path d="M349.24 -46.0284L334.335 -15.1484L303.588 -0.324905L303.481 -0.271294L288.576 30.6087L258.793 44.9766L258.472 45.1106L261.447 51.2491L293.589 35.7554L293.669 35.7018L308.574 4.82178L339.348 -10.0017L339.456 -10.0553L354.333 -40.9354L384.116 -55.2764L384.438 -55.4372L381.462 -61.5757L349.347 -46.0821L349.24 -46.0284Z" fill="#AC7D2C"/>
<path d="M96.0755 233.312L110.953 202.432L141.728 187.582L141.835 187.555L156.713 156.675L186.522 142.307L186.817 142.173L183.868 136.035L151.727 151.528L151.619 151.582L136.742 182.435L105.967 197.285L105.86 197.339L90.9821 228.192L61.1728 242.587L60.8779 242.721L63.8267 248.859L95.9682 233.339L96.0755 233.312Z" fill="#AC7D2C"/>
<path d="M331.469 205.327L316.618 174.581L316.564 174.474L285.682 159.57L271.18 129.467L265.041 132.443L280.535 164.583L280.589 164.663L311.471 179.567L326.295 210.34L326.348 210.447L357.23 225.324L371.733 255.4L377.871 252.451L362.323 220.231L331.469 205.327Z" fill="#AC7D2C"/>
<path d="M82.9938 -32.9205L113.849 -18.0433L128.7 12.7295L128.753 12.8367L159.608 27.7138L174.111 57.8165L180.249 54.8679L164.701 22.6208L133.847 7.74365L118.996 -23.0292L118.969 -23.1364L88.0871 -38.0135L73.5577 -68.1162L67.4189 -65.1676L82.9402 -33.0277L82.9938 -32.9205Z" fill="#AC7D2C"/>
<path d="M142.049 -76.7478L164.862 -51.1753L166.792 -17.0786L166.819 -16.9714L189.631 8.60118L191.535 41.9742L198.317 41.5989L196.306 5.97424V5.84021L173.467 -19.7323L171.537 -53.8291V-53.9363L148.724 -79.5088L146.821 -112.855L140.012 -112.48L142.049 -76.8551V-76.7478Z" fill="#AC7D2C"/>
<path d="M303.239 264.032L280.426 238.459L278.496 204.362L278.469 204.228L255.656 178.683L253.753 145.31L246.971 145.712L248.981 181.31L249.008 181.444L271.821 206.989L273.751 241.086V241.22L296.59 266.793L298.467 300.139L305.276 299.763L303.239 264.139V264.032Z" fill="#AC7D2C"/>
<path d="M393.042 13.0509L367.469 35.8625L333.37 37.7925L333.263 37.8193L307.689 60.6308L274.663 62.5072L274.314 62.534L274.717 69.3158L310.343 67.3054H310.45L336.024 44.467L370.123 42.5371H370.23L395.804 19.6987L428.83 17.8491L429.151 17.8223L428.776 11.0137L393.15 13.0509H393.042Z" fill="#AC7D2C"/>
<path d="M52.2447 174.233L77.8186 151.422L111.917 149.492L112.051 149.465L137.598 126.653L170.624 124.777L170.973 124.75L170.597 117.968L134.971 119.979L134.837 120.005L109.29 142.817L75.1915 144.747H75.0574L49.4836 167.585L16.4574 169.462H16.1357L16.511 176.27L52.1375 174.233H52.2447Z" fill="#AC7D2C"/>
<path d="M261.394 -24.0481L259.437 10.1827L237.402 34.8439L237.188 35.1119L242.254 39.642L266.032 13.0241L266.112 12.9169L268.042 -21.2871L290.775 -46.7524L290.855 -46.8596L292.812 -81.0636L314.847 -105.752L315.062 -105.993L309.968 -110.523L286.217 -83.905L286.137 -83.8246L284.207 -49.6206L261.448 -24.1285L261.394 -24.0481Z" fill="#AC7D2C"/>
<path d="M183.922 211.332L185.852 177.101L207.887 152.44L208.102 152.172L203.035 147.642L179.284 174.26L179.204 174.34L177.247 208.571L154.515 234.036L154.434 234.143L152.477 268.347L130.469 293.035L130.228 293.276L135.321 297.807L159.072 271.189L159.152 271.108L161.109 236.877L183.841 211.412L183.922 211.332Z" fill="#AC7D2C"/>
<path d="M400.12 157.131L365.915 155.201L340.421 132.443L340.341 132.39L306.135 130.433L281.446 108.399L281.178 108.184L276.647 113.25L303.267 137.027L303.374 137.081L337.58 139.037L363.073 161.768L363.154 161.849L397.359 163.806L422.048 185.813L422.29 186.054L426.82 180.961L400.201 157.212L400.12 157.131Z" fill="#AC7D2C"/>
<path d="M45.1695 30.1532L79.402 32.11L104.869 54.8412L104.949 54.9216L139.181 56.8516L163.844 78.8858L164.112 79.1003L168.642 74.034L142.023 50.2842L141.943 50.2038L107.71 48.247L82.2435 25.5158L82.1631 25.4354L47.9306 23.5054L23.2414 1.47123L23.0001 1.22998L18.4697 6.32304L45.089 30.0728L45.1695 30.1532Z" fill="#AC7D2C"/>
<path d="M225.365 33.1015L225.178 33.3696L231.075 36.8007L249.036 5.97427L249.09 5.86705L244.157 -28.042L261.34 -57.555L261.394 -57.6622L256.461 -91.5713L273.109 -120.146L273.269 -120.441L267.399 -123.872L249.438 -93.0456L249.384 -92.9384L254.317 -59.0293L237.134 -29.5163L237.08 -29.4091L242.013 4.49997L225.365 33.1015Z" fill="#AC7D2C"/>
<path d="M219.95 154.209L220.111 153.914L214.214 150.483L196.28 181.309L196.199 181.417L201.159 215.326L183.949 244.839L183.895 244.919L188.828 278.855L172.18 307.43L172.02 307.725L177.917 311.156L195.851 280.329L195.905 280.222L190.972 246.313L208.182 216.8L208.236 216.693L203.303 182.784L219.95 154.209Z" fill="#AC7D2C"/>
<path d="M409.234 120.381L375.323 125.313L345.809 108.131L345.702 108.05L311.791 113.009L283.214 96.3361L282.92 96.1753L279.488 102.073L310.316 120.032L310.424 120.086L344.334 115.154L373.849 132.336L373.956 132.39L407.867 127.457L436.443 144.104L436.738 144.265L440.169 138.394L409.341 120.434L409.234 120.381Z" fill="#AC7D2C"/>
<path d="M36.0544 66.9028L69.992 61.9706L99.4797 79.1798L99.5869 79.2334L133.498 74.3012L162.101 90.9475L162.369 91.1083L165.8 85.2111L134.972 67.2781L134.865 67.1977L100.954 72.1567L71.4664 54.9475L71.3591 54.8939L37.4215 59.8262L8.84531 43.1799L8.55043 43.019L5.11914 48.8895L35.974 66.8492L36.0544 66.9028Z" fill="#AC7D2C"/>
<path d="M373.5 -19.3837L352.993 8.06525L319.994 16.8039L319.86 16.8307L299.379 44.3064L267.371 52.7502L267.05 52.8306L268.792 59.398L303.293 50.3109L303.4 50.2841L323.907 22.8083L356.934 14.0965L357.041 14.0429L377.521 -13.406L409.502 -21.8498L409.824 -21.9302L408.081 -28.5244L373.607 -19.4373L373.5 -19.3837Z" fill="#AC7D2C"/>
<path d="M71.8151 206.668L92.2956 179.192L125.322 170.48L125.456 170.454L145.936 142.978L177.917 134.561L178.239 134.454L176.496 127.886L142.022 136.973L141.888 137L121.408 164.476L88.3818 173.188L88.2745 173.214L67.7672 200.69L35.7865 209.134L35.4648 209.214L37.2073 215.809L71.7078 206.695L71.8151 206.668Z" fill="#AC7D2C"/>
<path d="M335.703 244.49L308.226 223.984L299.514 190.96L299.46 190.852L272.01 170.373L263.566 138.367L263.458 138.045L256.891 139.788L266.005 174.287L266.032 174.394L293.509 194.9L302.221 227.925L302.248 228.032L329.725 248.511L338.143 280.49L338.223 280.812L344.817 279.07L335.73 244.598L335.703 244.49Z" fill="#AC7D2C"/>
<path d="M109.614 -57.1799L137.091 -36.7005L145.803 -3.67597L145.83 -3.54193L173.307 16.9375L181.751 48.9166L181.832 49.2383L188.399 47.4959L179.312 12.9971L179.285 12.8899L151.808 -7.58958L143.096 -40.6141L143.069 -40.7213L115.592 -61.2276L107.148 -93.2067L107.067 -93.5283L100.473 -91.786L109.587 -57.2872L109.614 -57.1799Z" fill="#AC7D2C"/>
<path d="M188.881 -25.5765L206.413 3.88287L201.936 36.9878L208.665 37.8992L213.49 2.43538L195.932 -26.9972L200.542 -60.9599L183.011 -90.4192L187.487 -123.524L180.732 -124.436L175.934 -88.9717L193.465 -59.5124L188.881 -25.5765Z" fill="#AC7D2C"/>
<path d="M256.408 212.833L238.876 183.401L243.353 150.296L236.624 149.384L231.799 184.848L249.357 214.281L244.747 248.243L262.278 277.676L257.802 310.808L264.557 311.719L269.355 276.255L251.824 246.796L256.408 212.833Z" fill="#AC7D2C"/>
<path d="M375.833 64.4635L341.869 59.8797L312.408 77.4106L279.623 72.9609L279.301 72.934L278.39 79.6623L313.855 84.4873L343.316 66.9296L377.254 71.5401L406.715 54.0093L439.473 58.459L439.821 58.4858L440.733 51.7308L405.267 46.9326L375.833 64.4635Z" fill="#AC7D2C"/>
<path d="M69.4821 122.82L103.447 127.403L132.881 109.873L165.666 114.322L165.987 114.349L166.899 107.621L131.433 102.796L101.999 120.354L68.0346 115.743L38.6005 133.274L5.81559 128.851L5.4671 128.797L4.55566 135.552L40.0481 140.351L69.4821 122.82Z" fill="#AC7D2C"/>
<path d="M283.081 -14.5319L274.636 18.6803L248.312 38.7309L248.044 38.9453L252.172 44.36L280.668 22.6743L289.085 -10.5646L316.348 -31.3122L324.765 -64.5243L351.09 -84.5749L351.358 -84.7625L347.23 -90.1772L318.761 -68.5183L310.343 -35.3062L283.081 -14.5319Z" fill="#AC7D2C"/>
<path d="M162.236 201.789L170.653 168.577L196.978 148.553L197.246 148.339L193.117 142.924L164.648 164.61L156.231 197.822L128.968 218.596L120.524 251.808L94.1997 271.859L93.9316 272.046L98.0599 277.461L126.556 255.775L134.973 222.563L162.236 201.789Z" fill="#AC7D2C"/>
<path d="M384.813 189.754L351.599 181.337L330.904 154.156L330.824 154.075L297.61 145.632L277.558 119.309L277.344 119.041L271.929 123.169L293.562 151.556L293.616 151.663L326.856 160.08L347.551 187.261L347.605 187.341L380.845 195.758L400.87 222.081L401.058 222.349L406.473 218.221L384.893 189.834L384.813 189.754Z" fill="#AC7D2C"/>
<path d="M60.5023 -2.44254L93.7161 5.97442L114.411 33.1553L114.491 33.2357L147.705 41.6526L167.73 67.9758L167.945 68.2438L173.36 64.1157L151.753 35.7286L151.673 35.6482L118.459 27.2313L97.7639 0.0503769L97.7103 -0.056839L64.4697 -8.47379L44.4181 -34.7969L44.2304 -35.0649L38.8154 -30.9369L60.4218 -2.54976L60.5023 -2.44254Z" fill="#AC7D2C"/>
</svg>