<svg width="400" height="400" viewBox="0 0 400 400" fill="none" xmlns="http://www.w3.org/2000/svg">
<path d="M191.658 88.7064L201.847 117.849L191.924 146.267L197.718 148.295L208.294 117.945L208.342 117.849L198.153 88.7064L208.294 59.6607L208.342 59.5641L198.153 30.446L208.076 2.02813L202.306 0L191.707 30.3253L191.658 30.446L201.847 59.5641L191.707 88.6098L191.658 88.7064Z" fill="#154754"/>
<path d="M208.342 311.27L198.153 282.152L208.076 253.734L202.306 251.706L191.707 282.031L191.658 282.152L201.847 311.27L191.707 340.315L191.658 340.412L201.847 369.554L191.924 397.972L197.718 400L208.294 369.651L208.342 369.554L198.153 340.412L208.294 311.366L208.342 311.27Z" fill="#154754"/>
<path d="M369.674 191.706L369.578 191.658L340.436 201.847L311.39 191.706L311.293 191.658L282.151 201.847L254.023 192.02L253.733 191.923L251.705 197.718L282.055 208.293L282.151 208.341L311.293 198.153L340.339 208.293L340.436 208.341L369.578 198.153L397.706 207.979L397.972 208.076L400 202.281L369.674 191.706Z" fill="#154754"/>
<path d="M30.446 208.341L59.5883 198.153L88.6339 208.293L88.7305 208.341L117.873 198.153L146.001 207.979L146.267 208.076L148.295 202.281L117.969 191.706L117.873 191.658L88.7305 201.847L59.6849 191.706L59.5883 191.658L30.446 201.847L2.31786 192.02L2.02813 191.923L0 197.718L30.3495 208.293L30.446 208.341Z" fill="#154754"/>
<path d="M314.02 74.1961L300.596 102.01L272.903 115.362L272.806 115.411L259.382 143.225L232.557 156.166L232.268 156.287L234.948 161.816L263.897 147.861L263.969 147.812L277.393 119.998L305.111 106.646L305.208 106.598L318.608 78.7835L345.432 65.8663L345.722 65.7214L343.042 60.1924L314.117 74.1478L314.02 74.1961Z" fill="#154754"/>
<path d="M86.0023 325.804L99.4024 297.99L127.12 284.614L127.217 284.59L140.617 256.775L167.465 243.834L167.731 243.713L165.075 238.184L136.126 252.14L136.029 252.188L122.629 279.978L94.9116 293.354L94.815 293.402L81.4149 321.192L54.5664 334.158L54.3008 334.279L56.9567 339.808L85.9058 325.828L86.0023 325.804Z" fill="#154754"/>
<path d="M298.013 300.597L284.637 272.904L284.589 272.807L256.775 259.383L243.713 232.269L238.184 234.949L252.139 263.898L252.187 263.97L280.002 277.394L293.353 305.112L293.402 305.209L321.216 318.609L334.278 345.699L339.807 343.043L325.803 314.021L298.013 300.597Z" fill="#154754"/>
<path d="M74.2212 86.0028L102.011 99.4029L115.387 127.121L115.436 127.217L143.226 140.617L156.288 167.731L161.817 165.076L147.813 136.03L120.023 122.63L106.647 94.9121L106.623 94.8155L78.8087 81.4154L65.7224 54.3013L60.1934 56.9572L74.1729 85.9062L74.2212 86.0028Z" fill="#154754"/>
<path d="M127.411 46.5268L147.958 69.5606L149.696 100.272L149.721 100.369L170.267 123.402L171.982 153.462L178.09 153.124L176.279 121.036V120.916L155.708 97.8819L153.97 67.1703V67.0737L133.423 44.04L131.709 14.0044L125.576 14.3424L127.411 46.4303V46.5268Z" fill="#154754"/>
<path d="M272.589 353.473L252.042 330.44L250.304 299.728L250.28 299.607L229.733 276.598L228.019 246.538L221.91 246.9L223.721 278.964L223.745 279.085L244.292 302.094L246.03 332.806V332.927L266.601 355.96L268.291 385.996L274.424 385.658L272.589 353.57V353.473Z" fill="#154754"/>
<path d="M353.472 127.41L330.439 147.957L299.727 149.695L299.631 149.719L276.597 170.266L246.851 171.956L246.537 171.98L246.899 178.089L278.987 176.278H279.084L302.117 155.707L332.829 153.968H332.926L355.959 133.397L385.705 131.732L385.995 131.707L385.657 125.575L353.569 127.41H353.472Z" fill="#154754"/>
<path d="M46.5264 272.59L69.5601 252.043L100.272 250.305L100.392 250.281L123.402 229.734L153.148 228.044L153.462 228.02L153.124 221.911L121.036 223.722L120.915 223.746L97.9056 244.293L67.1939 246.031H67.0732L44.0395 266.602L14.2936 268.292H14.0039L14.3419 274.425L46.4298 272.59H46.5264Z" fill="#154754"/>
<path d="M234.902 93.9942L233.139 124.827L213.293 147.039L213.1 147.281L217.663 151.361L239.079 127.386L239.151 127.289L240.89 96.4811L261.364 73.5439L261.437 73.4474L263.199 42.6391L283.046 20.4022L283.239 20.1849L278.652 16.1045L257.26 40.0798L257.187 40.1523L255.449 70.9605L234.95 93.9218L234.902 93.9942Z" fill="#154754"/>
<path d="M165.123 306.006L166.861 275.173L186.708 252.96L186.901 252.719L182.338 248.639L160.946 272.614L160.873 272.686L159.111 303.519L138.637 326.456L138.564 326.553L136.802 357.361L116.979 379.598L116.762 379.815L121.349 383.895L142.741 359.92L142.813 359.848L144.576 329.015L165.05 306.078L165.123 306.006Z" fill="#154754"/>
<path d="M359.848 257.185L329.039 255.447L306.078 234.948L306.006 234.9L275.197 233.137L252.96 213.291L252.719 213.098L248.639 217.661L272.614 239.077L272.711 239.125L303.519 240.888L326.48 261.362L326.552 261.435L357.361 263.197L379.598 283.02L379.815 283.237L383.895 278.65L359.92 257.258L359.848 257.185Z" fill="#154754"/>
<path d="M40.1532 142.814L70.9856 144.577L93.9227 165.051L93.9952 165.124L124.828 166.862L147.04 186.709L147.282 186.902L151.362 182.339L127.387 160.947L127.314 160.874L96.482 159.112L73.5449 138.637L73.4725 138.565L42.6401 136.827L20.4032 116.98L20.1859 116.763L16.1055 121.35L40.0808 142.742L40.1532 142.814Z" fill="#154754"/>
<path d="M202.45 145.47L202.281 145.711L207.593 148.802L223.77 121.036L223.818 120.939L219.375 90.3966L234.852 63.8137L234.9 63.7171L230.458 33.1745L245.451 7.43663L245.596 7.17104L240.309 4.08057L224.132 31.8466L224.084 31.9432L228.526 62.4858L213.05 89.0687L213.001 89.1653L217.444 119.708L202.45 145.47Z" fill="#154754"/>
<path d="M197.574 254.554L197.719 254.288L192.408 251.198L176.255 278.964L176.183 279.06L180.649 309.603L165.149 336.186L165.1 336.258L169.543 366.825L154.549 392.563L154.404 392.829L159.716 395.919L175.869 368.153L175.917 368.056L171.474 337.514L186.975 310.931L187.023 310.834L182.581 280.292L197.574 254.554Z" fill="#154754"/>
<path d="M368.056 224.084L337.513 228.527L310.93 213.05L310.834 212.978L280.291 217.444L254.553 202.427L254.288 202.282L251.197 207.594L278.963 223.77L279.06 223.819L309.602 219.376L336.185 234.852L336.282 234.901L366.825 230.458L392.563 245.452L392.828 245.597L395.919 240.309L368.153 224.132L368.056 224.084Z" fill="#154754"/>
<path d="M31.9427 175.915L62.5094 171.473L89.0682 186.974L89.1648 187.022L119.707 182.579L145.469 197.573L145.711 197.718L148.801 192.406L121.035 176.253L120.939 176.181L90.3961 180.648L63.8374 165.147L63.7408 165.099L33.174 169.541L7.43614 154.548L7.17056 154.403L4.08008 159.69L31.8702 175.867L31.9427 175.915Z" fill="#154754"/>
<path d="M335.871 98.1951L317.401 122.919L287.679 130.79L287.559 130.814L269.112 155.562L240.284 163.168L239.994 163.24L241.564 169.155L272.637 160.97L272.734 160.946L291.204 136.198L320.95 128.351L321.047 128.303L339.493 103.579L368.297 95.9739L368.587 95.9014L367.018 89.9619L335.968 98.1469L335.871 98.1951Z" fill="#154754"/>
<path d="M64.1519 301.804L82.5981 277.057L112.344 269.21L112.465 269.185L130.911 244.438L159.715 236.856L160.005 236.76L158.436 230.844L127.386 239.029L127.265 239.053L108.819 263.801L79.0731 271.648L78.9765 271.672L60.5061 296.42L31.7018 304.026L31.4121 304.098L32.9815 310.038L64.0553 301.829L64.1519 301.804Z" fill="#154754"/>
<path d="M301.83 335.872L277.082 317.401L269.235 287.656L269.187 287.559L244.463 269.113L236.858 240.284L236.761 239.995L230.846 241.564L239.055 272.638L239.079 272.734L263.827 291.205L271.674 320.951L271.698 321.047L296.446 339.494L304.027 368.298L304.1 368.587L310.039 367.018L301.854 335.968L301.83 335.872Z" fill="#154754"/>
<path d="M98.1961 64.1519L122.944 82.5981L130.791 112.344L130.815 112.465L155.563 130.911L163.169 159.715L163.241 160.005L169.156 158.436L160.971 127.362L160.947 127.265L136.199 108.819L128.352 79.0731L128.328 78.9765L103.58 60.5061L95.9748 31.7018L95.9024 31.4121L89.9629 32.9815L98.172 64.0553L98.1961 64.1519Z" fill="#154754"/>
<path d="M169.589 92.6177L185.38 119.152L181.348 148.971L187.408 149.792L191.754 117.849L175.939 91.338L180.092 60.7471L164.302 34.2124L168.334 4.39415L162.25 3.57324L157.928 35.5162L173.718 62.0509L169.589 92.6177Z" fill="#154754"/>
<path d="M230.409 307.358L214.618 280.848L218.65 251.029L212.59 250.208L208.244 282.151L224.059 308.662L219.906 339.253L235.696 365.763L231.664 395.606L237.749 396.427L242.07 364.484L226.28 337.949L230.409 307.358Z" fill="#154754"/>
<path d="M337.974 173.719L307.383 169.59L280.848 185.38L251.32 181.372L251.03 181.348L250.209 187.408L282.152 191.754L308.687 175.94L339.253 180.093L365.788 164.302L395.292 168.31L395.606 168.334L396.427 162.25L364.484 157.928L337.974 173.719Z" fill="#154754"/>
<path d="M62.0519 226.28L92.6428 230.409L119.153 214.619L148.682 218.627L148.972 218.651L149.792 212.591L117.85 208.245L91.339 224.059L60.7481 219.906L34.2376 235.697L4.709 231.713L4.39513 231.665L3.57422 237.749L35.5414 242.071L62.0519 226.28Z" fill="#154754"/>
<path d="M254.432 102.566L246.826 132.48L223.116 150.54L222.875 150.734L226.593 155.611L252.259 136.078L259.84 106.139L284.395 87.4512L291.976 57.5363L315.686 39.4763L315.927 39.3073L312.209 34.4302L286.568 53.9388L278.986 83.8537L254.432 102.566Z" fill="#154754"/>
<path d="M145.592 297.411L153.173 267.496L176.883 249.46L177.125 249.267L173.406 244.39L147.765 263.922L140.184 293.837L115.629 312.549L108.023 342.464L84.3137 360.524L84.0723 360.693L87.7905 365.57L113.456 346.037L121.037 316.122L145.592 297.411Z" fill="#154754"/>
<path d="M346.061 286.57L316.146 278.988L297.506 254.506L297.434 254.434L267.519 246.828L249.459 223.118L249.266 222.877L244.389 226.595L263.873 252.164L263.921 252.261L293.86 259.842L312.5 284.324L312.548 284.397L342.487 291.978L360.523 315.688L360.692 315.929L365.569 312.211L346.133 286.642L346.061 286.57Z" fill="#154754"/>
<path d="M53.9625 113.455L83.8773 121.036L102.517 145.519L102.589 145.591L132.504 153.172L150.54 176.882L150.733 177.124L155.61 173.405L136.15 147.837L136.077 147.764L106.163 140.183L87.5231 115.7L87.4748 115.604L57.5358 108.022L39.4759 84.3127L39.3068 84.0713L34.4297 87.7895L53.89 113.358L53.9625 113.455Z" fill="#154754"/>
</svg>