<svg xmlns="http://www.w3.org/2000/svg" width="668" height="64" fill="none">
  <path fill="#E6E6DF" d="M36.1975 41.4578l-3.8764-6.4711c-.5793-.9955-.8288-1.2978-2.0229-1.2978h-.9713v7.7689h-3.9656V22.1689h7.0934c3.7695 0 6.7013 1.7956 6.7013 5.8578 0 2.4-1.3545 4.3645-3.6269 5.2267l5.2666 8.2044h-4.5982zm-3.716-15.4755h-3.217v4.2311h3.217c1.5238 0 2.7179-.3911 2.7179-2.16 0-1.7422-1.2476-2.0711-2.7179-2.0711zM90.2979 41.4578V22.1689h3.9655v19.2889h-3.9655zM153.22 42.1156c-4.099 0-6.817-1.9378-7.815-5.8578l3.743-.7466c.553 1.9911 1.996 2.8444 4.072 2.8444 1.444 0 3.298-.7466 3.298-2.4355 0-3.4845-10.498-1.0756-10.498-8.0445 0-3.7333 3.351-5.5555 6.675-5.5555 3.52 0 5.712 1.3244 7.227 4.4177l-3.404 1.5734c-.883-1.6-1.881-2.32-3.823-2.32-1.079 0-2.718.4978-2.718 1.8755 0 2.9334 10.497.9956 10.497 8.0445.009 4-3.591 6.2044-7.254 6.2044zM206.688 41.8402V22.5513h13.269v3.8933h-9.312v3.6178h8.118v3.7333h-8.118v4.1422h9.312v3.8934h-13.269v.0089zM333.621 41.3956c-5.293 0-7.423-3.2355-7.423-8.1777V21.8845h3.965v11.1111c0 2.4889.499 4.56 3.431 4.56 3.075 0 3.467-1.9911 3.467-4.56V21.8845h3.965v11.3334c0 4.9422-2.139 8.1777-7.405 8.1777zM396.294 33.6534h-3.743v7.52h-3.965V21.8845h7.566c3.823 0 6.594 1.7689 6.594 5.8845 0 4.2577-2.433 5.8844-6.452 5.8844zm-.276-8.0089h-3.467v4.2845h3.467c1.551 0 2.771-.3023 2.771-2.16 0-1.7689-1.247-2.1245-2.771-2.1245zM456.597 26.1602v15.3955h-3.966V26.1602h-5.427v-3.8934h14.82v3.8934h-5.427zM514.761 41.7778c-5.846 0-8.092-4.7289-8.092-9.8667 0-5.1378 2.246-9.8667 8.092-9.8667s8.091 4.7289 8.091 9.8667c0 5.1378-2.245 9.8667-8.091 9.8667zm0-15.84c-3.493 0-4.099 3.1822-4.099 5.9733s.606 5.9644 4.099 5.9644c3.493 0 4.099-3.1822 4.099-5.9644 0-2.7911-.579-5.9733-4.099-5.9733zM582.727 41.5557h-4.348l-2.995-11.6355-2.994 11.6355h-4.349l-4.518-19.2889h4.046l2.798 12.8 3.44-12.8h3.155l3.439 12.8 2.799-12.8h4.045l-4.518 19.2889zM639.448 41.5557l-7.067-10.9955v10.9955h-3.965V22.2668h3.217l7.04 11.0045V22.2668h3.965v19.2889h-3.19z"/>
  <path fill="#E6E6DF" d="M607.617 0H0v64H667.991V0h-60.374zM273.613 51.3067c-3.235-8.96-10.373-16.08-19.356-19.3067 8.983-3.2267 16.121-10.3467 19.356-19.3067 3.234 8.96 10.372 16.08 19.355 19.3067-8.983 3.2267-16.121 10.3467-19.355 19.3067zM275.582 3.84c14.044.96889 25.299 12.1867 26.262 26.1956-14.045-.96-25.3-12.1867-26.262-26.1956zM245.39 30.0444c.972-14.0088 12.218-25.22662 26.262-26.19551-.971 14.00001-12.226 25.22671-26.262 26.19551zM271.652 60.16c-14.044-.9689-25.29-12.1867-26.262-26.1956 14.045.96 25.291 12.1867 26.262 26.1956zm30.192-26.1956c-.972 14.0089-12.218 25.2267-26.262 26.1956.962-14.0089 12.217-25.2356 26.262-26.1956zM620.833 3.76889c-5.606 2.99555-10.222 7.59111-13.216 13.18221V3.76889h13.216zm15.086 0c15.604 0 28.303 12.66671 28.303 28.23111 0 15.5644-12.699 28.2311-28.303 28.2311-15.603 0-28.302-12.6667-28.302-28.2311 0-15.5644 12.69-28.23111 28.302-28.23111zm-32.08 0V16.9511c-3.003-5.5911-7.611-10.19554-13.216-13.18221h13.216zm0 28.23111c0 15.5644-12.699 28.2311-28.303 28.2311-15.603 0-28.302-12.6667-28.302-28.2311 0-15.5644 12.699-28.23111 28.302-28.23111 15.604 0 28.303 12.66671 28.303 28.23111zM560.45 3.76889c-5.606 2.99555-10.222 7.59111-13.216 13.18221V3.76889h13.216zm-16.994 0V16.9511c-3.003-5.5911-7.611-10.19554-13.216-13.18221h13.216zm0 28.23111c0 15.5644-12.699 28.2311-28.303 28.2311-15.603 0-28.311-12.6667-28.311-28.2311 0-15.5644 12.699-28.23111 28.302-28.23111 15.604 0 28.312 12.66671 28.312 28.23111zM500.067 3.76889c-5.606 2.99555-10.222 7.59111-13.216 13.18221V3.76889h13.216zm-16.994 0V16.9511c-3.003-5.5911-7.611-10.19554-13.216-13.18221h13.216zm0 28.23111c0 15.5644-12.699 28.2311-28.303 28.2311-15.603 0-28.302-12.6667-28.302-28.2311 0-15.5644 12.699-28.23111 28.302-28.23111 15.604 0 28.303 12.66671 28.303 28.23111zM439.684 3.76889c-5.606 2.99555-10.222 7.59111-13.216 13.18221V3.76889h13.216zm-17.003 0V16.9511c-3.003-5.5911-7.61-10.19554-13.216-13.18221h13.216zm0 28.23111c0 15.5644-12.699 28.2311-28.302 28.2311-15.604 0-28.303-12.6667-28.303-28.2311 0-15.5644 12.699-28.23111 28.303-28.23111 15.603 0 28.302 12.66671 28.302 28.23111zm-43.38-28.23111c-5.606 2.99555-10.222 7.59111-13.216 13.18221V3.76889h13.216zm-17.003 0V16.9511c-3.003-5.5911-7.61-10.19554-13.216-13.18221h13.216zm0 28.23111c0 15.5644-12.699 28.2311-28.302 28.2311-15.604 0-28.303-12.6667-28.303-28.2311 0-15.5644 12.699-28.23111 28.303-28.23111 15.612 0 28.302 12.66671 28.302 28.23111zm-43.38-28.23111c-5.606 2.99555-10.222 7.59111-13.216 13.18221V3.76889h13.216zm-17.003 0V16.9511c-3.003-5.5911-7.61-10.19554-13.216-13.18221h13.216zm-43.38 0c-5.606 2.99555-10.222 7.59111-13.216 13.18221V3.76889h13.216zm-17.003 0V16.9511c-3.003-5.5911-7.61-10.19554-13.216-13.18221h13.216zm0 28.23111c0 15.5644-12.699 28.2311-28.302 28.2311-15.604 0-28.303-12.6667-28.303-28.2311 0-15.5644 12.699-28.23111 28.303-28.23111 15.603 0 28.302 12.66671 28.302 28.23111zM198.143 3.76889c-5.605 2.99555-10.221 7.59111-13.216 13.18221V3.76889h13.216zm-16.994 0V16.9511c-3.003-5.5911-7.61-10.19554-13.216-13.18221h13.216zm0 28.23111c0 15.5644-12.699 28.2311-28.302 28.2311-15.604 0-28.303-12.6667-28.303-28.2311 0-15.5644 12.699-28.23111 28.303-28.23111 15.603 0 28.302 12.66671 28.302 28.23111zM137.76 3.76889c-5.605 2.99555-10.221 7.59111-13.216 13.18221V3.76889h13.216zm-16.994 0V16.9511c-3.003-5.5911-7.61-10.19554-13.216-13.18221h13.216zm0 28.23111c0 15.5644-12.699 28.2311-28.3023 28.2311C76.86 60.2311 64.1614 47.5644 64.1614 32c0-15.5644 12.6986-28.23111 28.3023-28.23111C108.067 3.76889 120.766 16.4356 120.766 32zM77.3768 3.76889C71.7716 6.76444 67.1645 11.36 64.1614 16.9511V3.76889h13.2154zm-16.9938 0V16.9511C57.3799 11.36 52.7727 6.75556 47.1675 3.76889H60.383zM60.383 32c0 15.5644-12.6986 28.2311-28.3023 28.2311C16.477 60.2311 3.77839 47.5644 3.77839 32c0-15.5644 12.69861-28.23111 28.30231-28.23111C47.6844 3.76889 60.383 16.4356 60.383 32zM3.77839 3.76889H16.9939C11.3886 6.76444 6.7815 11.36 3.77839 16.9511V3.76889zm0 56.46221V47.0489C6.7815 52.64 11.3886 57.2444 16.9939 60.2311H3.77839zm43.38911 0c5.6052-2.9955 10.2213-7.5911 13.2155-13.1822v13.1822H47.1675zm16.9939 0V47.0489c3.0031 5.5911 7.6102 10.1955 13.2154 13.1822H64.1614zm43.3886 0c5.606-2.9955 10.222-7.5911 13.216-13.1822v13.1822H107.55zm16.994 0V47.0489c3.003 5.5911 7.611 10.1955 13.216 13.1822h-13.216zm43.389 0c5.606-2.9955 10.222-7.5911 13.216-13.1822v13.1822h-13.216zm16.994 0V47.0489c3.003 5.5911 7.611 10.1955 13.216 13.1822h-13.216zm43.389 0c5.606-2.9955 10.222-7.5911 13.216-13.1822v13.1822h-13.216zm16.994 0V47.0489c3.003 5.5911 7.611 10.1955 13.216 13.1822H245.31zm43.389 0c5.606-2.9955 10.222-7.5911 13.216-13.1822v13.1822h-13.216zm16.994 0V47.0489c3.003 5.5911 7.611 10.1955 13.216 13.1822h-13.216zm43.389 0c5.606-2.9955 10.222-7.5911 13.216-13.1822v13.1822h-13.216zm16.994 0V47.0489c3.003 5.5911 7.61 10.1955 13.216 13.1822h-13.216zm43.389 0c5.606-2.9955 10.222-7.5911 13.216-13.1822v13.1822h-13.216zm16.994 0V47.0489c3.003 5.5911 7.61 10.1955 13.216 13.1822h-13.216zm43.389 0c5.606-2.9955 10.222-7.5911 13.216-13.1822v13.1822h-13.216zm16.994 0V47.0489c3.003 5.5911 7.61 10.1955 13.216 13.1822h-13.216zm43.389 0c5.606-2.9955 10.222-7.5911 13.216-13.1822v13.1822h-13.216zm17.003 0V47.0489c3.003 5.5911 7.61 10.1955 13.216 13.1822h-13.216zm43.38 0c5.606-2.9955 10.222-7.5911 13.216-13.1822v13.1822h-13.216zm17.003 0V47.0489c3.003 5.5911 7.61 10.1955 13.216 13.1822h-13.216zm56.605 0h-13.216c5.605-2.9955 10.221-7.5911 13.216-13.1822v13.1822zM650.997 3.76889h13.216V16.9511c-2.994-5.5911-7.611-10.18666-13.216-13.18221z"/>
  <path fill="#E6E6DF" d="M36.1975 41.4578l-3.8764-6.4711c-.5793-.9955-.8288-1.2978-2.0229-1.2978h-.9713v7.7689h-3.9656V22.1689h7.0934c3.7695 0 6.7013 1.7956 6.7013 5.8578 0 2.4-1.3545 4.3645-3.6269 5.2267l5.2666 8.2044h-4.5982zm-3.716-15.4755h-3.217v4.2311h3.217c1.5238 0 2.7179-.3911 2.7179-2.16 0-1.7422-1.2476-2.0711-2.7179-2.0711zM90.2979 41.4578V22.1689h3.9655v19.2889h-3.9655zM153.22 42.1156c-4.099 0-6.817-1.9378-7.815-5.8578l3.743-.7466c.553 1.9911 1.996 2.8444 4.072 2.8444 1.444 0 3.298-.7466 3.298-2.4355 0-3.4845-10.498-1.0756-10.498-8.0445 0-3.7333 3.351-5.5555 6.675-5.5555 3.52 0 5.712 1.3244 7.227 4.4177l-3.404 1.5734c-.883-1.6-1.881-2.32-3.823-2.32-1.079 0-2.718.4978-2.718 1.8755 0 2.9334 10.497.9956 10.497 8.0445.009 4-3.591 6.2044-7.254 6.2044zM206.688 41.8402V22.5513h13.269v3.8933h-9.312v3.6178h8.118v3.7333h-8.118v4.1422h9.312v3.8934h-13.269v.0089zM333.621 41.3956c-5.293 0-7.423-3.2355-7.423-8.1777V21.8845h3.965v11.1111c0 2.4889.499 4.56 3.431 4.56 3.075 0 3.467-1.9911 3.467-4.56V21.8845h3.965v11.3334c0 4.9422-2.139 8.1777-7.405 8.1777zM396.294 33.6534h-3.743v7.52h-3.965V21.8845h7.566c3.823 0 6.594 1.7689 6.594 5.8845 0 4.2577-2.433 5.8844-6.452 5.8844zm-.276-8.0089h-3.467v4.2845h3.467c1.551 0 2.771-.3023 2.771-2.16 0-1.7689-1.247-2.1245-2.771-2.1245zM456.597 26.1602v15.3955h-3.966V26.1602h-5.427v-3.8934h14.82v3.8934h-5.427zM514.761 41.7778c-5.846 0-8.092-4.7289-8.092-9.8667 0-5.1378 2.246-9.8667 8.092-9.8667s8.091 4.7289 8.091 9.8667c0 5.1378-2.245 9.8667-8.091 9.8667zm0-15.84c-3.493 0-4.099 3.1822-4.099 5.9733s.606 5.9644 4.099 5.9644c3.493 0 4.099-3.1822 4.099-5.9644 0-2.7911-.579-5.9733-4.099-5.9733zM582.727 41.5557h-4.348l-2.995-11.6355-2.994 11.6355h-4.349l-4.518-19.2889h4.046l2.798 12.8 3.44-12.8h3.155l3.439 12.8 2.799-12.8h4.045l-4.518 19.2889zM639.448 41.5557l-7.067-10.9955v10.9955h-3.965V22.2668h3.217l7.04 11.0045V22.2668h3.965v19.2889h-3.19z"/>
  <path fill="#E6E6DF" d="M64.1614 64H0V0h64.1614v64zM3.77839 60.2311H60.383V3.76889H3.77839V60.2311z"/>
  <path fill="#E6E6DF" d="M124.544 64H60.3828V0h64.1612v64zm-60.3828-3.7689h56.6048V3.76889H64.1612V60.2311z"/>
  <path fill="#E6E6DF" d="M32.0807 64C14.3918 64 0 49.6444 0 32 0 14.3556 14.3918 0 32.0807 0s32.0807 14.3556 32.0807 32c0 17.6444-14.3918 32-32.0807 32zm0-60.23111C16.477 3.76889 3.77839 16.4356 3.77839 32c0 15.5644 12.69861 28.2311 28.30231 28.2311C47.6844 60.2311 60.383 47.5644 60.383 32c0-15.5644-12.6986-28.23111-28.3023-28.23111z"/>
  <path fill="#E6E6DF" d="M92.4635 64c-17.6889 0-32.0807-14.3556-32.0807-32 0-17.6444 14.3918-32 32.0807-32 17.6885 0 32.0805 14.3556 32.0805 32 0 17.6444-14.392 32-32.0805 32zm0-60.23111C76.8598 3.76889 64.1612 16.4356 64.1612 32c0 15.5644 12.6986 28.2311 28.3023 28.2311 15.6035 0 28.3025-12.6667 28.3025-28.2311 0-15.5644-12.699-28.23111-28.3025-28.23111z"/>
  <path fill="#E6E6DF" d="M184.927 64h-64.161V0h64.161v64zm-60.383-3.7689h56.605V3.76889h-56.605V60.2311z"/>
  <path fill="#E6E6DF" d="M245.31 64h-64.161V0h64.161v64zm-60.383-3.7689h56.605V3.76889h-56.605V60.2311z"/>
  <path fill="#E6E6DF" d="M152.847 64c-17.689 0-32.081-14.3556-32.081-32 0-17.6444 14.392-32 32.081-32 17.689 0 32.08 14.3556 32.08 32 0 17.6444-14.391 32-32.08 32zm0-60.23111c-15.604 0-28.303 12.66671-28.303 28.23111 0 15.5644 12.699 28.2311 28.303 28.2311 15.603 0 28.302-12.6667 28.302-28.2311 0-15.5644-12.699-28.23111-28.302-28.23111z"/>
  <path fill="#E6E6DF" d="M213.23 64c-17.689 0-32.081-14.3556-32.081-32 0-17.6444 14.392-32 32.081-32 17.689 0 32.08 14.3556 32.08 32 0 17.6444-14.391 32-32.08 32zm0-60.23111c-15.604 0-28.303 12.66671-28.303 28.23111 0 15.5644 12.699 28.2311 28.303 28.2311 15.603 0 28.302-12.6667 28.302-28.2311 0-15.5644-12.69-28.23111-28.302-28.23111z"/>
  <path fill="#E6E6DF" d="M305.693 64h-64.161V0h64.161v64zm-60.383-3.7689h56.605V3.76889H245.31V60.2311z"/>
  <path fill="#E6E6DF" d="M366.076 64h-64.161V0h64.161v64zm-60.383-3.7689h56.605V3.76889h-56.605V60.2311z"/>
  <path fill="#E6E6DF" d="M273.612 64c-17.689 0-32.08-14.3556-32.08-32 0-17.6444 14.391-32 32.08-32s32.081 14.3556 32.081 32c0 17.6444-14.392 32-32.081 32zm0-60.23111C258.009 3.76889 245.31 16.4356 245.31 32c0 15.5644 12.699 28.2311 28.302 28.2311 15.604 0 28.303-12.6667 28.303-28.2311 0-15.5644-12.69-28.23111-28.303-28.23111z"/>
  <path fill="#E6E6DF" d="M333.996 64c-17.689 0-32.081-14.3556-32.081-32 0-17.6444 14.392-32 32.081-32 17.689 0 32.08 14.3556 32.08 32 0 17.6444-14.391 32-32.08 32zm0-60.23111c-15.604 0-28.303 12.66671-28.303 28.23111 0 15.5644 12.699 28.2311 28.303 28.2311 15.603 0 28.302-12.6667 28.302-28.2311 0-15.5644-12.69-28.23111-28.302-28.23111z"/>
  <path fill="#E6E6DF" d="M426.459 64h-64.161V0h64.161v64zm-60.383-3.7689h56.605V3.76889h-56.605V60.2311z"/>
  <path fill="#E6E6DF" d="M486.842 64h-64.161V0h64.161v64zm-60.383-3.7689h56.605V3.76889h-56.605V60.2311z"/>
  <path fill="#E6E6DF" d="M394.379 64c-17.689 0-32.081-14.3556-32.081-32 0-17.6444 14.392-32 32.081-32 17.688 0 32.08 14.3556 32.08 32 0 17.6444-14.392 32-32.08 32zm0-60.23111c-15.604 0-28.303 12.66671-28.303 28.23111 0 15.5644 12.699 28.2311 28.303 28.2311 15.603 0 28.302-12.6667 28.302-28.2311 0-15.5644-12.69-28.23111-28.302-28.23111z"/>
  <path fill="#E6E6DF" d="M454.761 64c-17.689 0-32.08-14.3556-32.08-32 0-17.6444 14.391-32 32.08-32s32.081 14.3556 32.081 32c0 17.6444-14.392 32-32.081 32zm0-60.23111c-15.603 0-28.302 12.66671-28.302 28.23111 0 15.5644 12.699 28.2311 28.302 28.2311 15.604 0 28.303-12.6667 28.303-28.2311 0-15.5644-12.69-28.23111-28.303-28.23111z"/>
  <path fill="#E6E6DF" d="M547.234 64h-64.161V0h64.161v64zm-60.392-3.7689h56.605V3.76889h-56.605V60.2311z"/>
  <path fill="#E6E6DF" d="M607.617 64h-64.161V0h64.161v64zm-60.383-3.7689h56.605V3.76889h-56.605V60.2311z"/>
  <path fill="#E6E6DF" d="M515.153 64c-17.689 0-32.08-14.3556-32.08-32 0-17.6444 14.391-32 32.08-32s32.081 14.3556 32.081 32c0 17.6444-14.392 32-32.081 32zm0-60.23111c-15.603 0-28.302 12.66671-28.302 28.23111 0 15.5644 12.699 28.2311 28.302 28.2311 15.604 0 28.303-12.6667 28.303-28.2311 0-15.5644-12.699-28.23111-28.303-28.23111z"/>
  <path fill="#E6E6DF" d="M575.536 64c-17.689 0-32.08-14.3556-32.08-32 0-17.6444 14.391-32 32.08-32s32.081 14.3556 32.081 32c0 17.6444-14.392 32-32.081 32zm0-60.23111c-15.603 0-28.302 12.66671-28.302 28.23111 0 15.5644 12.699 28.2311 28.302 28.2311 15.604 0 28.303-12.6667 28.303-28.2311 0-15.5644-12.699-28.23111-28.303-28.23111z"/>
  <path fill="#E6E6DF" d="M668 64h-64.161V0H668v64zm-60.383-3.7689h56.605V3.76889h-56.605V60.2311z"/>
  <path fill="#E6E6DF" d="M635.92 64c-17.689 0-32.081-14.3556-32.081-32 0-17.6444 14.392-32 32.081-32C653.608 0 668 14.3556 668 32c0 17.6444-14.392 32-32.08 32zm0-60.23111c-15.604 0-28.303 12.66671-28.303 28.23111 0 15.5644 12.699 28.2311 28.303 28.2311 15.603 0 28.302-12.6667 28.302-28.2311 0-15.5644-12.699-28.23111-28.302-28.23111zM275.502 1.88452h-3.779c0 15.56448-12.698 28.23108-28.302 28.23108v3.7689c15.604 0 28.302 12.6667 28.302 28.2311h3.779c0-15.5644 12.698-28.2311 28.302-28.2311v-3.7689c-15.604 0-28.302-12.6666-28.302-28.23108zm-1.89 49.42218c-3.234-8.96-10.372-16.08-19.355-19.3066 8.983-3.2267 16.121-10.3467 19.355-19.3067 3.235 8.96 10.373 16.08 19.356 19.3067-8.983 3.2266-16.121 10.3466-19.356 19.3066z"/>
</svg>