<svg xmlns="http://www.w3.org/2000/svg" fill="none" viewBox="0 0 246 64" width="246" height="64">
  <g fill="#E6E6DF" clip-path="url(#clip0)">
    <path d="M184.733 0H0v64h245.053V0h-60.32zm13.211 3.76889c-5.6 2.99555-10.211 7.59111-13.202 13.18221V3.76889h13.202zm15.062 0c15.587 0 28.272 12.66671 28.272 28.23111 0 15.5644-12.685 28.2311-28.272 28.2311-15.588 0-28.273-12.6667-28.273-28.2311 0-15.5644 12.685-28.23111 28.273-28.23111zm-32.047 0V16.9511c-3-5.5911-7.603-10.19554-13.202-13.18221h13.202zm0 28.23111c0 15.5644-12.686 28.2311-28.273 28.2311S124.414 47.5644 124.414 32c0-15.5644 12.685-28.23111 28.272-28.23111 15.587 0 28.273 12.66671 28.273 28.23111zM137.615 3.76889c-5.599 2.99555-10.21 7.59111-13.201 13.18221V3.76889h13.201zm-16.976 0V16.9511c-3-5.5911-7.602-10.19554-13.201-13.18221h13.201zm0 28.23111c0 15.5644-12.685 28.2311-28.2725 28.2311C76.7793 60.2311 64.094 47.5644 64.094 32c0-15.5644 12.6853-28.23111 28.2725-28.23111C107.954 3.76889 120.639 16.4356 120.639 32zM77.2956 3.76889C71.6962 6.76444 67.0939 11.36 64.094 16.9511V3.76889h13.2016zm-16.976 0V16.9511c-3-5.5911-7.6023-10.19554-13.2016-13.18221h13.2016zm0 28.23111c0 15.5644-12.6853 28.2311-28.2726 28.2311S3.77442 47.5644 3.77442 32c0-15.5644 12.68528-28.23111 28.27258-28.23111S60.3196 16.4356 60.3196 32zM3.77442 3.76889H16.976C11.3767 6.76444 6.77438 11.36 3.77442 16.9511V3.76889zm0 56.46221V47.0489C6.77438 52.64 11.3767 57.2444 16.976 60.2311H3.77442zm43.34358 0c5.5993-2.9955 10.2105-7.5911 13.2016-13.1822v13.1822H47.118zm16.976 0V47.0489c2.9999 5.5911 7.6022 10.1955 13.2016 13.1822H64.094zm43.344 0c5.599-2.9955 10.21-7.5911 13.201-13.1822v13.1822h-13.201zm16.976 0V47.0489c2.999 5.5911 7.602 10.1955 13.201 13.1822h-13.201zm43.343 0c5.599-2.9955 10.211-7.5911 13.202-13.1822v13.1822h-13.202zm16.976 0V47.0489c3 5.5911 7.602 10.1955 13.202 13.1822h-13.202zm56.545 0h-13.201c5.599-2.9955 10.21-7.5911 13.201-13.1822v13.1822zM228.077 3.76889h13.201V16.9511c-2.991-5.5911-7.602-10.18666-13.201-13.18221z"/>
    <path d="M36.3379 41.7156l-3.8723-6.4711c-.5786-.9955-.8279-1.2977-2.0207-1.2977h-.9704v7.7688h-3.9613V22.4268h7.0859c3.7655 0 6.6943 1.7955 6.6943 5.8577 0 2.4-1.3531 4.3645-3.6231 5.2267l5.261 8.2044h-4.5934zm-3.7032-15.4755h-3.2136v4.2311h3.2136c1.5223 0 2.7151-.3911 2.7151-2.16 0-1.7422-1.2462-2.0711-2.7151-2.0711zM90.3906 41.7156V22.4268h3.9614v19.2888h-3.9614zM153.247 42.3732c-4.094 0-6.81-1.9378-7.807-5.8578l3.739-.7466c.552 1.9911 1.994 2.8444 4.068 2.8444 1.443 0 3.294-.7467 3.294-2.4356 0-3.4844-10.486-1.0755-10.486-8.0444 0-3.7333 3.347-5.5556 6.667-5.5556 3.516 0 5.706 1.3245 7.22 4.4178l-3.401 1.5733c-.881-1.6-1.878-2.32-3.819-2.32-1.077 0-2.715.4978-2.715 1.8756 0 2.9333 10.487.9956 10.487 8.0444 0 3.9912-3.597 6.2045-7.247 6.2045zM206.659 42.098V22.8091h13.255v3.8933h-9.303v3.6178h8.11v3.7333h-8.11v4.1423h9.303v3.8933h-13.255v.0089z"/>
  </g>
  <defs>
    <clipPath id="clip0">
      <path fill="#fff" d="M0 0h245.053v64H0z"/>
    </clipPath>
  </defs>
</svg>