<svg xmlns="http://www.w3.org/2000/svg" width="64" height="64" fill="none">
  <path fill="#E6E6DF" d="M29.2534 33.6979h.9689c1.1911 0 1.44.3022 2.0178 1.2977l3.8666 6.4712h4.5867l-5.2533-8.2045c2.2666-.8533 3.6177-2.8178 3.6177-5.2267 0-4.0622-2.9333-5.8577-6.6844-5.8577h-7.0755v19.2889h3.9555v-7.7689zm-.0622-7.7156h3.2089c1.4666 0 2.7111.3289 2.7111 2.0711 0 1.7689-1.1911 2.16-2.7111 2.16h-3.2089v-4.2311z"/>
  <path fill="#E6E6DF" d="M0 0v64h64V0H0zm3.76889 3.76889H16.9511C11.36 6.76444 6.76444 11.36 3.76889 16.9511V3.76889zm28.23111 0C47.5644 3.76889 60.2311 16.4356 60.2311 32c0 15.5644-12.6667 28.2311-28.2311 28.2311C16.4356 60.2311 3.76889 47.5644 3.76889 32 3.76889 16.4356 16.4356 3.76889 32 3.76889zM3.76889 60.2311V47.0489C6.76444 52.64 11.36 57.2444 16.9511 60.2311H3.76889zm56.46221 0H47.0489C52.64 57.2356 57.2444 52.64 60.2311 47.0489v13.1822zM47.0489 3.76889h13.1822V16.9511C57.2356 11.36 52.64 6.76444 47.0489 3.76889z"/>
</svg>