<svg width="450" height="30" viewBox="0 0 450 30" fill="none" xmlns="http://www.w3.org/2000/svg">
<g clip-path="url(#clip0)">
<path d="M28.7195 15.2081L0 3.74527L1.24097 0.226986L28.7195 11.198L56.8718 0L84.9885 11.198L113.105 0L141.222 11.198L169.374 0L197.491 11.198L225.005 0.226986L226.246 3.74527L197.491 15.2081L169.374 3.97226L141.222 15.2081L113.105 3.97226L84.9885 15.2081L56.8718 3.97226L28.7195 15.2081Z" fill="#ADC7CF"/>
<path d="M28.7195 30.0003L0 18.5753L1.24097 15.0571L28.7195 26.0281L56.8718 14.8301L84.9885 26.0281L113.105 14.8301L141.222 26.0281L169.374 14.8301L197.491 26.0281L225.005 15.0571L226.246 18.5753L197.491 30.0003L169.374 18.8023L141.222 30.0003L113.105 18.8023L84.9885 30.0003L56.8718 18.8023L28.7195 30.0003Z" fill="#ADC7CF"/>
</g>
<g clip-path="url(#clip1)">
<path d="M252.473 15.2081L223.754 3.74527L224.995 0.226986L252.473 11.198L280.626 0L308.742 11.198L336.859 0L364.976 11.198L393.128 0L421.245 11.198L448.759 0.226986L450 3.74527L421.245 15.2081L393.128 3.97226L364.976 15.2081L336.859 3.97226L308.742 15.2081L280.626 3.97226L252.473 15.2081Z" fill="#ADC7CF"/>
<path d="M252.473 30.0003L223.754 18.5753L224.995 15.0571L252.473 26.0281L280.626 14.8301L308.742 26.0281L336.859 14.8301L364.976 26.0281L393.128 14.8301L421.245 26.0281L448.759 15.0571L450 18.5753L421.245 30.0003L393.128 18.8023L364.976 30.0003L336.859 18.8023L308.742 30.0003L280.626 18.8023L252.473 30.0003Z" fill="#ADC7CF"/>
</g>
<defs>
<clipPath id="clip0">
<rect width="226.246" height="30" fill="white"/>
</clipPath>
<clipPath id="clip1">
<rect width="226.246" height="30" fill="white" transform="translate(223.754)"/>
</clipPath>
</defs>
</svg>
