<svg width="400" height="27" viewBox="0 0 400 27" fill="none" xmlns="http://www.w3.org/2000/svg">
<g clip-path="url(#clip0)">
<path d="M25.5285 13.6873L0 3.37074L1.10308 0.204288L25.5285 10.0782L50.5527 0L75.5455 10.0782L100.538 0L125.531 10.0782L150.555 0L175.548 10.0782L200.005 0.204288L201.108 3.37074L175.548 13.6873L150.555 3.57503L125.531 13.6873L100.538 3.57503L75.5455 13.6873L50.5527 3.57503L25.5285 13.6873Z" fill="#ADC7CF"/>
<path d="M25.5285 26.9999L0 16.7174L1.10308 13.551L25.5285 23.4249L50.5527 13.3467L75.5455 23.4249L100.538 13.3467L125.531 23.4249L150.555 13.3467L175.548 23.4249L200.005 13.551L201.108 16.7174L175.548 26.9999L150.555 16.9217L125.531 26.9999L100.538 16.9217L75.5455 26.9999L50.5527 16.9217L25.5285 26.9999Z" fill="#ADC7CF"/>
</g>
<g clip-path="url(#clip1)">
<path d="M224.421 13.6873L198.893 3.37074L199.996 0.204288L224.421 10.0782L249.445 0L274.438 10.0782L299.431 0L324.423 10.0782L349.448 0L374.44 10.0782L398.897 0.204288L400 3.37074L374.44 13.6873L349.448 3.57503L324.423 13.6873L299.431 3.57503L274.438 13.6873L249.445 3.57503L224.421 13.6873Z" fill="#ADC7CF"/>
<path d="M224.421 26.9999L198.893 16.7174L199.996 13.551L224.421 23.4249L249.445 13.3467L274.438 23.4249L299.431 13.3467L324.423 23.4249L349.448 13.3467L374.44 23.4249L398.897 13.551L400 16.7174L374.44 26.9999L349.448 16.9217L324.423 26.9999L299.431 16.9217L274.438 26.9999L249.445 16.9217L224.421 26.9999Z" fill="#ADC7CF"/>
</g>
<defs>
<clipPath id="clip0">
<rect width="201.108" height="27" fill="white"/>
</clipPath>
<clipPath id="clip1">
<rect width="201.108" height="27" fill="white" transform="translate(198.893)"/>
</clipPath>
</defs>
</svg>
