<svg xmlns="http://www.w3.org/2000/svg" width="199" height="199" fill="none">
  <path fill="#AC7D2C" d="M98.3363 59.023l-4.7599 13.6451 6.5586 2.2566 5.57-15.9017-5.042-14.3855 5.042-14.3856-5.042-14.3502 4.76-13.60989L98.9005 0l-5.5709 15.9017 5.0067 14.3502-5.0067 14.3856 5.0067 14.3855zM100.663 140.012l4.76-13.645-6.5225-2.292-5.5709 15.937 5.0067 14.35-5.0067 14.351 5.0067 14.385-4.7599 13.645L100.135 199l5.57-15.902-5.042-14.385 5.042-14.351-5.042-14.35zM183.239 93.3653l-.141-.0352-14.35 5.0067-14.209-4.9715-.141-.0352-14.386 5.0067-13.645-4.7599-2.292 6.5581 15.796 5.5.141.071 14.386-5.042 14.209 4.971.141.071 14.35-5.042 13.645 4.76L199 98.9009l-15.761-5.5356zM15.9369 105.706l14.3856-5.042 14.2092 4.971.141.071 14.3503-5.042 13.6451 4.76 2.2918-6.5231-15.7959-5.5356-.141-.0352-14.3503 5.0067-14.2092-4.9715-.141-.0352-14.3856 5.0067-13.64509-4.7599L0 100.135l15.7959 5.5.141.071zM133.948 56.3435l-6.629 13.7156-12.623 6.0645-.387.2115 2.997 6.2408 15.055-7.2633.141-.0705 6.629-13.7156 13.574-6.5581.141-.0353 6.594-13.7156 12.622-6.0645.388-.2115-3.032-6.2408-15.02 7.2633-.141.0705-6.629 13.6803-13.539 6.5582-.141.0705zM65.0874 142.657l6.6286-13.681 12.5874-6.099.4231-.177-3.0322-6.276-15.0555 7.264-.141.07-6.5934 13.716-13.5746 6.523-.141.07-6.5934 13.716-12.6226 6.099-.3878.177 2.9969 6.241 15.0555-7.264.141-.07 6.6287-13.716 13.5745-6.523.1058-.07zM149.285 147.628l-6.522-13.539-.071-.141-13.716-6.629-6.276-13.01-6.276 2.997 7.299 15.055.035.141 13.716 6.629 6.558 13.574.07.141 13.681 6.594 6.276 13.01 6.241-3.032-7.299-15.161-13.716-6.629zM36.0345 44.7784l13.7156 6.6287 6.5581 13.5745.0705.1058 13.6804 6.6286 6.276 13.0105 6.2408-3.0323-7.2633-15.0554-.0705-.141-13.6803-6.5934-6.5582-13.5746-.0705-.141-13.6803-6.5934-6.3113-13.0104-6.2408 2.9969 7.2633 15.0555.0705.141zM71.9277 35.9991l.8814 15.1612 10.1193 11.3886.8109 14.4208 6.946-.3879-.952-16.8536-10.1545-11.3533-.8462-15.1965-10.1193-11.3533-.8462-14.4208-6.9107.38784.952 16.85366 10.1193 11.3533zM127.072 163.001l-.881-15.197-10.12-11.353-.811-14.386-6.91.388.952 16.819 10.119 11.353.846 15.196 10.155 11.354.811 14.421 6.945-.388-.987-16.854-10.119-11.353zM147.981 72.7739l-.141.0352-11.354 10.1193-14.456.8109.423 6.946 16.678-.952h.176l11.353-10.1545 15.02-.8462h.177l11.318-10.1193 14.421-.8462-.388-6.9107-16.678.952h-.176l-11.318 10.1193-15.055.8462zM51.0545 126.226l.1411-.035 11.3533-10.119 14.4208-.811-.3879-6.911-16.6773.917-.1763.035-11.3181 10.119-15.0554.847h-.1411l-11.3532 10.154-13.99774.776-.45836.035.4231 6.946 16.6774-.952.141-.035 11.3885-10.12 15.0202-.846zM109.478 77.0399l11.142-12.4816.105-.1058.847-15.1964 10.048-11.2476.106-.1057.846-15.1613 9.626-10.7891-5.183-4.6189-11.142 12.4816-.106.1057-.846 15.1613-10.013 11.2475-.106.1058-.881 15.1964-9.626 10.7892 5.183 4.6189zM89.5217 121.959l-11.1065 12.482-.1058.106-.8814 15.161-10.0135 11.248-.1058.105-.8462 15.197-9.6256 10.789 5.1478 4.619 11.1417-12.446.1058-.141.8815-15.197 10.0134-11.247.1058-.106.8462-15.161 9.6256-10.79-5.183-4.619zM179.114 125.803l-15.197-.882-11.247-10.013-.106-.106-15.196-.881-10.79-9.626-4.619 5.183 12.482 11.142.106.105 15.196.847 11.248 10.048.106.106 15.196.846 10.437 9.309.317.317 4.619-5.183-12.446-11.106-.106-.106zM19.9208 73.2322l15.1965.8815 11.3533 10.1192 15.1965.8462 10.4366 9.3435.3173.2821 4.6189-5.183-12.5874-11.2123-15.1612-.8462-11.2475-10.0487-.1058-.1058-15.1965-.8462-10.7891-9.6256-4.6189 5.1478 12.4816 11.1417.1057.1058z"/>
</svg>