<svg xmlns="http://www.w3.org/2000/svg" width="1440" height="84" fill="none">
  <path fill="#AC7D2C" d="M-73 0v84h84.31V0H-73zM6.34505 39.5267H-8.52629V19.7633H-28.3626V4.94667H6.34505V39.5267zM-48.1988 59.29V24.71h34.7076v34.58h-34.7076zm14.8713-54.34333V19.7633h-19.8362v19.7634h-14.8714V4.94667h34.7076zM-68.0351 44.4733h14.8714v19.7634h19.8362v14.8166h-34.7076v-34.58zm39.6725 34.58V64.2367h19.83631V44.4733H6.34505v34.58H-28.3626z"/>
  <path fill="#AC7D2C" d="M6.3335 0v84h84.31V0h-84.31zm79.345 39.5267H70.8072V19.7633H50.9709V4.94667h34.7076V39.5267zM31.1347 59.29V24.71h34.7076v34.58H31.1347zM46.006 4.94667V19.7633H26.1698v19.7634H11.2984V4.94667H46.006zM11.2984 44.4733h14.8714v19.7634H46.006v14.8166H11.2984v-34.58zm39.6725 34.58V64.2367h19.8363V44.4733h14.8713v34.58H50.9709z"/>
  <path fill="#AC7D2C" d="M85.6665 0v84h84.3095V0H85.6665zm79.3455 39.5267H150.14V19.7633h-19.836V4.94667h34.708V39.5267zM110.468 59.29V24.71h34.707v34.58h-34.707zm14.871-54.34333V19.7633h-19.836v19.7634H90.6314V4.94667h34.7076zM90.6314 44.4733h14.8716v19.7634h19.836v14.8166H90.6314v-34.58zm39.6726 34.58V64.2367h19.836V44.4733h14.872v34.58h-34.708z"/>
  <path fill="#AC7D2C" d="M165 0v84h84.31V0H165zm79.345 39.5267h-14.871V19.7633h-19.837V4.94667h34.708V39.5267zM189.801 59.29V24.71h34.708v34.58h-34.708zm14.872-54.34333V19.7633h-19.837v19.7634h-14.871V4.94667h34.708zM169.965 44.4733h14.871v19.7634h19.837v14.8166h-34.708v-34.58zm39.672 34.58V64.2367h19.837V44.4733h14.871v34.58h-34.708z"/>
  <path fill="#AC7D2C" d="M244.333 0v84h84.31V0h-84.31zm79.346 39.5267h-14.872V19.7633h-19.836V4.94667h34.708V39.5267zM269.135 59.29V24.71h34.707v34.58h-34.707zm14.871-54.34333V19.7633H264.17v19.7634h-14.872V4.94667h34.708zM249.298 44.4733h14.872v19.7634h19.836v14.8166h-34.708v-34.58zm39.673 34.58V64.2367h19.836V44.4733h14.872v34.58h-34.708z"/>
  <path fill="#AC7D2C" d="M323.667 0v84h84.309V0h-84.309zm79.345 39.5267H388.14V19.7633h-19.836V4.94667h34.708V39.5267zM348.468 59.29V24.71h34.707v34.58h-34.707zm14.871-54.34333V19.7633h-19.836v19.7634h-14.872V4.94667h34.708zM328.631 44.4733h14.872v19.7634h19.836v14.8166h-34.708v-34.58zm39.673 34.58V64.2367h19.836V44.4733h14.872v34.58h-34.708z"/>
  <path fill="#AC7D2C" d="M403 0v84h84.31V0H403zm79.345 39.5267h-14.871V19.7633h-19.837V4.94667h34.708V39.5267zM427.801 59.29V24.71h34.708v34.58h-34.708zm14.872-54.34333V19.7633h-19.837v19.7634h-14.871V4.94667h34.708zM407.965 44.4733h14.871v19.7634h19.837v14.8166h-34.708v-34.58zm39.672 34.58V64.2367h19.837V44.4733h14.871v34.58h-34.708z"/>
  <path fill="#AC7D2C" d="M482.333 0v84h84.31V0h-84.31zm79.346 39.5267h-14.872V19.7633h-19.836V4.94667h34.708V39.5267zM507.135 59.29V24.71h34.707v34.58h-34.707zm14.871-54.34333V19.7633H502.17v19.7634h-14.872V4.94667h34.708zM487.298 44.4733h14.872v19.7634h19.836v14.8166h-34.708v-34.58zm39.673 34.58V64.2367h19.836V44.4733h14.872v34.58h-34.708z"/>
  <path fill="#AC7D2C" d="M561.667 0v84h84.309V0h-84.309zm79.345 39.5267H626.14V19.7633h-19.836V4.94667h34.708V39.5267zM586.468 59.29V24.71h34.707v34.58h-34.707zm14.871-54.34333V19.7633h-19.836v19.7634h-14.872V4.94667h34.708zM566.631 44.4733h14.872v19.7634h19.836v14.8166h-34.708v-34.58zm39.673 34.58V64.2367h19.836V44.4733h14.872v34.58h-34.708z"/>
  <path fill="#AC7D2C" d="M641 0v84h84.31V0H641zm79.345 39.5267h-14.871V19.7633h-19.837V4.94667h34.708V39.5267zM665.801 59.29V24.71h34.708v34.58h-34.708zm14.872-54.34333V19.7633h-19.837v19.7634h-14.871V4.94667h34.708zM645.965 44.4733h14.871v19.7634h19.837v14.8166h-34.708v-34.58zm39.672 34.58V64.2367h19.837V44.4733h14.871v34.58h-34.708z"/>
  <path fill="#AC7D2C" d="M720.333 0v84h84.31V0h-84.31zm79.346 39.5267h-14.872V19.7633h-19.836V4.94667h34.708V39.5267zM745.135 59.29V24.71h34.707v34.58h-34.707zm14.871-54.34333V19.7633H740.17v19.7634h-14.872V4.94667h34.708zM725.298 44.4733h14.872v19.7634h19.836v14.8166h-34.708v-34.58zm39.673 34.58V64.2367h19.836V44.4733h14.872v34.58h-34.708z"/>
  <path fill="#AC7D2C" d="M799.667 0v84h84.309V0h-84.309zm79.345 39.5267H864.14V19.7633h-19.836V4.94667h34.708V39.5267zM824.468 59.29V24.71h34.707v34.58h-34.707zm14.871-54.34333V19.7633h-19.836v19.7634h-14.872V4.94667h34.708zM804.631 44.4733h14.872v19.7634h19.836v14.8166h-34.708v-34.58zm39.673 34.58V64.2367h19.836V44.4733h14.872v34.58h-34.708z"/>
  <path fill="#AC7D2C" d="M879 0v84h84.31V0H879zm79.345 39.5267h-14.871V19.7633h-19.837V4.94667h34.708V39.5267zM903.801 59.29V24.71h34.708v34.58h-34.708zm14.872-54.34333V19.7633h-19.837v19.7634h-14.871V4.94667h34.708zM883.965 44.4733h14.871v19.7634h19.837v14.8166h-34.708v-34.58zm39.672 34.58V64.2367h19.837V44.4733h14.871v34.58h-34.708z"/>
  <path fill="#AC7D2C" d="M958.333 0v84h84.307V0h-84.307zm79.347 39.5267h-14.87V19.7633h-19.84V4.94667h34.71V39.5267zM983.135 59.29V24.71h34.705v34.58h-34.705zm14.871-54.34333V19.7633H978.17v19.7634h-14.872V4.94667h34.708zM963.298 44.4733h14.872v19.7634h19.836v14.8166h-34.708v-34.58zm39.672 34.58V64.2367h19.84V44.4733h14.87v34.58h-34.71z"/>
  <path fill="#AC7D2C" d="M1037.67 0v84h84.31V0h-84.31zm79.34 39.5267h-14.87V19.7633h-19.84V4.94667h34.71V39.5267zM1062.47 59.29V24.71h34.71v34.58h-34.71zm14.87-54.34333V19.7633h-19.84v19.7634h-14.87V4.94667h34.71zm-34.71 39.52663h14.87v19.7634h19.84v14.8166h-34.71v-34.58zm39.67 34.58V64.2367h19.84V44.4733h14.87v34.58h-34.71z"/>
  <path fill="#AC7D2C" d="M1117 0v84h84.31V0H1117zm79.35 39.5267h-14.88V19.7633h-19.83V4.94667h34.71V39.5267zM1141.8 59.29V24.71h34.71v34.58h-34.71zm14.87-54.34333V19.7633h-19.83v19.7634h-14.88V4.94667h34.71zm-34.71 39.52663h14.88v19.7634h19.83v14.8166h-34.71v-34.58zm39.68 34.58V64.2367h19.83V44.4733h14.88v34.58h-34.71z"/>
  <path fill="#AC7D2C" d="M1196.33 0v84h84.31V0h-84.31zm79.35 39.5267h-14.87V19.7633h-19.84V4.94667h34.71V39.5267zM1221.13 59.29V24.71h34.71v34.58h-34.71zm14.88-54.34333V19.7633h-19.84v19.7634h-14.87V4.94667h34.71zM1201.3 44.4733h14.87v19.7634h19.84v14.8166h-34.71v-34.58zm39.67 34.58V64.2367h19.84V44.4733h14.87v34.58h-34.71z"/>
  <path fill="#AC7D2C" d="M1275.67 0v84h84.31V0h-84.31zm79.34 39.5267h-14.87V19.7633h-19.84V4.94667h34.71V39.5267zM1300.47 59.29V24.71h34.71v34.58h-34.71zm14.87-54.34333V19.7633h-19.84v19.7634h-14.87V4.94667h34.71zm-34.71 39.52663h14.87v19.7634h19.84v14.8166h-34.71v-34.58zm39.67 34.58V64.2367h19.84V44.4733h14.87v34.58h-34.71z"/>
  <path fill="#AC7D2C" d="M1355 0v84h84.31V0H1355zm79.35 39.5267h-14.88V19.7633h-19.83V4.94667h34.71V39.5267zM1379.8 59.29V24.71h34.71v34.58h-34.71zm14.87-54.34333V19.7633h-19.83v19.7634h-14.88V4.94667h34.71zm-34.71 39.52663h14.88v19.7634h19.83v14.8166h-34.71v-34.58zm39.68 34.58V64.2367h19.83V44.4733h14.88v34.58h-34.71z"/>
  <path fill="#AC7D2C" d="M1434.33 0v84h84.31V0h-84.31zm79.35 39.5267h-14.87V19.7633h-19.84V4.94667h34.71V39.5267zM1459.13 59.29V24.71h34.71v34.58h-34.71zm14.88-54.34333V19.7633h-19.84v19.7634h-14.87V4.94667h34.71zM1439.3 44.4733h14.87v19.7634h19.84v14.8166h-34.71v-34.58zm39.67 34.58V64.2367h19.84V44.4733h14.87v34.58h-34.71z"/>
</svg>