<svg xmlns="http://www.w3.org/2000/svg" viewBox="0 0 1440 809">
  <defs/>
  <defs>
    <style>
      .cls-2,.cls-3{fill:none;stroke-miterlimit:10;stroke-width:4.5px}.cls-2{stroke:#e6e6e0}.cls-3{stroke:#b95348}.cls-4{fill:#b95348}.cls-5{fill:#e6e6e0}.cls-6{fill:#ab7c34}.cls-7{fill:#184753}.cls-8{fill:#5d7567}
    </style>
  </defs>
  <path id="Background" fill="#adc7ce" d="M0 0h1440v809H0z"/>
  <g id="Artwork">
    <path d="M368.07 0c-.39 3.57-1.29 42.13 0 50.05 2.84 17.4 12.76 23.15 17.34 41.73 1.7 6.91 1.8 12.08 1.92 18.62.82 43-18.05 369.25 0 422.19a372 372 0 0111.79 41.5s2.46 10.94 4.05 20.68c7.38 45.17-9.51 124.06 0 154a21.34 21.34 0 005.85 9.61c7.79 7.08 19.62 5.5 28.9 4.39 1.77-.21 37-4.36 58.18-4.52 17.39-.14 18.26 2.47 40.08 3.87 18.59 1.2 29.27-2.86 55.6-1.94 7.26.26 12.58.69 13.69.78 24.65 2 38.41 6.58 51.18 9.12 34 6.76 34.68-6.09 72.19.79 24.36 4.48 36 12.08 43.24 18.65A70.44 70.44 0 01787.15 809" class="cls-2"/>
    <path d="M810.79 0c-6.24 5.37-13.8 9.34-20.16 12.62-17.23 8.88-20.06 5.38-29.42 12.92-11.46 9.23-8.55 15.55-19.38 26.55-15.38 15.62-27.72 9.45-36.6 21.53-8.61 11.72 1.36 19.78-.72 49.52-2.2 31.54-14.16 33.2-13.63 63.15.17 9.91 1.63 17.75-1.44 30.14-2.57 10.43-5.83 13.91-7.89 24.4-2.21 11.29-.84 19.48 0 27.27 4 37.09-6.4 45.65-2.23 92.11.9 10 1.35 9.32 2 18.48 2.3 32.35-3.46 39.36-1.61 57.16 2.91 27.91 18.7 26.17 24 57.68 2.63 15.51-1.61 13.51-1.07 47 .32 19.46 1.82 24.28 3.95 56.74 1.4 21.22 2.09 31.84 2.16 43.46.18 32.29-3.12 77.78-3.4 92.86-.11 6.05.19 11.23.44 14.49.13 1.64.37 4.75.63 6.13 1.63 8.83 16.26 14.48 25.57 17.27" class="cls-2"/>
    <path d="M0 573c62.62-.68 125.63 2.08 169.29 12.45 18.53 4.4 37.77 11.17 65.27 7.77 19.49-2.41 34.18-8.81 60.61-7.77a153.7 153.7 0 0130.31 4.27c71.15 16.3 417.24-17.14 465.18 0 .48.18 9.94 3.57 23 7.59 13.94 4.3 24 7.39 33.56 8.83 17.71 2.65 30.32-.88 40.63-2.65 33.78-5.82 90.69-1.07 105.09 25.61 6.4 11.86-.76 18.51 8.83 52.11 3.8 13.31 6.87 19.09 11.48 23.84 9.31 9.6 21.17 11.16 35.32 13.25 69.2 10.21 71.53 15.18 96.27 12.36 16.15-1.84 14.4-3.88 34.44-6.18 16.68-1.92 25-1.34 61.62-.73 52.12.86 51.16-.06 60.25 1.61 26 4.79 29 11.44 49.45 11.48 12.08 0 23.08-3 44.58-8.93 18.79-5.23 34.12-10.55 44.87-14.56M0 139.72C255.76 394 360.21 496.9 367.77 502.93a57.22 57.22 0 0110 10.17 59.13 59.13 0 018.13 14.48" class="cls-2"/>
    <path d="M0 348c427.33-3.13 936.8-5 959.76 3.34 5.64 2.06 8.26 3.27 8.26 3.27 25.4 11.75 29.9 29.95 50.64 33.58a45.44 45.44 0 006.26.57c26.52 1 225.37.57 415.08 0M550.59 0v809" class="cls-3"/>
  </g>
  <g id="Icons">
    <path d="M64.82 327c-2.9 0-4.26-2.38-4.26-5s1.33-5 4.24-5a4 4 0 013.45 1.69l-1.41 1.39a2.6 2.6 0 00-2-1.11c-1.68 0-2.19 1.64-2.19 3s.51 3 2.19 3a2.59 2.59 0 002.11-1.22l1.41 1.38c-1.12 1.32-1.83 1.87-3.54 1.87zM76.15 326.87l-.89-2.45h-3.18l-.88 2.45H69l3.76-9.78h1.74l3.78 9.78zm-2.48-6.82l-.94 2.62h1.89zM86.58 326.87v-4.59l-1.88 4.59h-1.25l-1.86-4.59v4.59h-2v-9.78h1.91l2.59 6.53 2.65-6.53h1.87v9.78zM90.83 326.87v-9.78h6.71v2h-4.71v1.83h4.11v1.9h-4.11v2.1h4.71v2zM99.63 326.87v-9.78h2v7.85h4.15v1.93zM113.78 326.38a4.15 4.15 0 01-2.2.49h-3.81v-9.78h3.58c1.88 0 3.38.82 3.38 2.89a2.47 2.47 0 01-.7 1.75 2.56 2.56 0 011 2.16 2.84 2.84 0 01-1.25 2.49zm-2.4-7.38h-1.61v2h1.61c.76 0 1.39-.14 1.39-1.05s-.65-.95-1.39-.95zm.2 3.81h-1.81V325h1.81c.8 0 1.48-.11 1.48-1.08s-.68-1.11-1.48-1.11zM123 326.87l-.88-2.45h-3.18l-.88 2.45h-2.16l3.76-9.78h1.73l3.78 9.78zm-2.48-6.82l-.93 2.62h1.89zM130.13 327c-2.9 0-4.26-2.38-4.26-5s1.33-5 4.24-5a4 4 0 013.45 1.69l-1.42 1.39a2.57 2.57 0 00-2-1.11c-1.68 0-2.2 1.64-2.2 3s.52 3 2.2 3a2.56 2.56 0 002.1-1.22l1.42 1.38c-1.11 1.32-1.82 1.87-3.53 1.87zM140.46 326.87l-3.12-3.87v3.92h-2v-9.78h2V321l2.77-3.93h2.44l-3.63 4.84 4.13 4.94zM154.54 326.87l-2-3.28c-.29-.5-.42-.66-1-.66h-.49v3.94h-2v-9.78h3.58c1.91 0 3.39.91 3.39 3a2.74 2.74 0 01-1.83 2.65l2.66 4.16zm-1.87-7.87H151v2.14h1.63c.77 0 1.37-.2 1.37-1.09s-.59-1.05-1.33-1.05zM161.05 326.87h-2.76v-9.78h2.76c3.78 0 4.67 1.19 4.67 4.89s-.89 4.89-4.67 4.89zm2.66-5.56c0-1.82-.37-2.24-2.21-2.24h-1.2v5.83h1.2c1.82 0 2.21-.42 2.21-2.24z" class="cls-4"/>
    <path d="M395.23 61H405v2h-9.77zM398.25 65.22h1.47v4.16h-1.47zM395.23 72.35h7.27l-.69-1.23 1.51-.9 1.68 2.62v1.43h-9.77zM395.23 80.13v-2.06a13.19 13.19 0 017.93 2.53v-2.43h-.8v-1.66H405v6.24h-1.65a12.14 12.14 0 00-8.12-2.62zM747.07 64.48a3.69 3.69 0 013-4l.38 1.89a1.9 1.9 0 00-1.45 2.11c0 .73.38 1.67 1.24 1.67 1.76 0 .54-5.31 4.07-5.31 1.89 0 2.82 1.7 2.82 3.38a3.63 3.63 0 01-2.24 3.65l-.8-1.72a1.94 1.94 0 001.18-1.93c0-.55-.26-1.38-1-1.38-1.48 0-.5 5.31-4.07 5.31-2.01 0-3.13-1.82-3.13-3.67zM747.21 75.51l3.28-2c.5-.29.66-.42.66-1V72h-3.94v-2H757v3.58c0 1.91-.91 3.39-3 3.39a2.74 2.74 0 01-2.65-1.83l-4.16 2.66zm7.84-1.87V72h-2.14v1.63c0 .77.2 1.37 1.09 1.37s1.05-.62 1.05-1.36zM747.17 86.71a3.2 3.2 0 012.56-3.18l.59 1.84c-.66.21-1.25.57-1.25 1.34a1.43 1.43 0 001.61 1.39 1.38 1.38 0 001.52-1.39 1.46 1.46 0 00-.61-1.24V83.8H757v5.58h-1.9v-3.77h-1.42a2.15 2.15 0 01.32 1.2 3.08 3.08 0 01-3.32 3.24c-2.07 0-3.51-1.15-3.51-3.34zM747.21 93.43h7.27l-.69-1.23 1.52-.9 1.69 2.62v1.43h-9.78zM697.05 378.56a3.69 3.69 0 013-3.95l.38 1.89a1.9 1.9 0 00-1.45 2.06c0 .73.38 1.67 1.24 1.67 1.76 0 .54-5.31 4.07-5.31 1.89 0 2.82 1.7 2.82 3.38a3.63 3.63 0 01-2.24 3.65l-.8-1.72a1.94 1.94 0 001.18-1.93c0-.55-.26-1.38-1-1.38-1.48 0-.5 5.31-4.07 5.31-2.01 0-3.13-1.82-3.13-3.67zM697.19 389.6l3.28-2c.5-.29.66-.42.66-1v-.49h-3.94v-2H707v3.59c0 1.9-.91 3.38-3 3.38a2.74 2.74 0 01-2.65-1.83l-4.16 2.66zm7.84-1.88v-1.63h-2.14v1.63c0 .77.2 1.37 1.09 1.37s1.02-.63 1.02-1.37zM697.15 400.79a3.2 3.2 0 012.56-3.18l.59 1.84c-.66.21-1.25.57-1.25 1.34a1.43 1.43 0 001.61 1.39 1.38 1.38 0 001.52-1.39 1.47 1.47 0 00-.61-1.24v-1.67H707v5.58h-1.89v-3.77h-1.42a2.15 2.15 0 01.32 1.2 3.08 3.08 0 01-3.32 3.24c-2.1 0-3.54-1.13-3.54-3.34zM697.19 407.51h7.27l-.69-1.23 1.52-.9L707 408v1.43h-9.78zM395.23 375.06H405v2h-9.77zM398.25 379.3h1.47v4.16h-1.47zM395.23 386.43h7.27l-.69-1.23 1.51-.9 1.68 2.62v1.43h-9.77zM395.23 394.21v-2a13.13 13.13 0 017.92 2.52v-2.43h-.79v-1.66H405v6.24h-1.65a12.14 12.14 0 00-8.12-2.67zM430.81 578.42v-9.78h2v9.78zM435.05 575.4v-1.47h4.16v1.47zM442.17 578.42v-7.27l-1.23.69-.89-1.51 2.61-1.69h1.43v9.78zM450.24 578.53c-2.7 0-3.63-2.74-3.63-5s.93-5 3.63-5 3.6 2.73 3.6 5-.91 5-3.6 5zm0-8.09c-1.43 0-1.63 2-1.63 3.09s.2 3.09 1.63 3.09 1.58-2 1.58-3.09-.18-3.09-1.58-3.09zM430.81 744.57v-9.78h2v9.78zM435.05 741.55v-1.47h4.16v1.47zM442.17 744.57v-7.27l-1.23.69-.89-1.52 2.61-1.68h1.43v9.78zM450 744.57h-2.1a13.18 13.18 0 012.52-7.93H448v.8h-1.67v-2.65h6.25v1.66a12.1 12.1 0 00-2.58 8.12zM61.54 560.91v-9.78h2v9.78zM65.78 557.89v-1.47h4.16v1.47zM72.91 560.91v-7.27l-1.23.69-.9-1.52 2.62-1.68h1.43v9.78zM81 561c-2.7 0-3.62-2.74-3.62-5s.92-5 3.62-5 3.6 2.74 3.6 5-.94 5-3.6 5zm0-8.09c-1.43 0-1.62 2-1.62 3.09s.19 3.08 1.62 3.08 1.59-2 1.59-3.08-.22-3.07-1.59-3.07zM65 175.82a3.69 3.69 0 01-4-3l1.89-.38a1.9 1.9 0 002.11 1.47c.73 0 1.67-.38 1.67-1.23 0-1.77-5.31-.55-5.31-4.08 0-1.89 1.7-2.81 3.38-2.81a3.63 3.63 0 013.69 2.21l-1.72.8a1.93 1.93 0 00-1.93-1.18c-.55 0-1.38.25-1.38.95 0 1.49 5.31.51 5.31 4.08 0 2.05-1.82 3.17-3.71 3.17zM76.08 175.68l-2-3.28c-.29-.51-.42-.66-1-.66h-.48v3.94h-2v-9.78h3.58c1.91 0 3.39.91 3.39 3a2.75 2.75 0 01-1.83 2.65l2.66 4.16zm-1.88-7.85h-1.63V170h1.63c.77 0 1.37-.19 1.37-1.09s-.63-1.08-1.37-1.08zM87.41 175.79c-2.08 0-3.25-1.77-3.25-3.7a7.62 7.62 0 012.92-6.19h2.38a8.62 8.62 0 00-3 3.63 1.79 1.79 0 011.14-.33 3 3 0 013 3.25 3 3 0 01-3.19 3.34zm0-4.75a1.37 1.37 0 000 2.73 1.37 1.37 0 000-2.73zM95.79 175.79c-2.71 0-3.63-2.75-3.63-5s.92-5 3.63-5 3.6 2.73 3.6 5-.91 5-3.6 5zm0-8.1c-1.43 0-1.63 2.05-1.63 3.1s.2 3.08 1.63 3.08 1.58-2.05 1.58-3.08-.18-3.1-1.58-3.1zM728 757.48a3.69 3.69 0 01-4-3l1.89-.37a1.91 1.91 0 002.06 1.44c.73 0 1.67-.38 1.67-1.23 0-1.77-5.31-.55-5.31-4.08 0-1.89 1.7-2.82 3.38-2.82a3.63 3.63 0 013.65 2.25l-1.72.79a1.94 1.94 0 00-1.93-1.17c-.55 0-1.38.25-1.38.95 0 1.49 5.31.5 5.31 4.08.06 2.04-1.76 3.16-3.62 3.16zM739 757.34l-2-3.27c-.29-.51-.42-.66-1-.66h-.49v3.93h-2v-9.77h3.58c1.91 0 3.39.91 3.39 3a2.73 2.73 0 01-1.83 2.64l2.66 4.16zm-1.87-7.84h-1.63v2.14h1.63c.77 0 1.37-.19 1.37-1.09s-.59-1.05-1.33-1.05zM750.38 757.46c-2.08 0-3.25-1.77-3.25-3.7a7.62 7.62 0 012.92-6.19h2.38a8.65 8.65 0 00-3 3.62 1.85 1.85 0 011.14-.32 3 3 0 013 3.25 3 3 0 01-3.19 3.34zm0-4.75a1.37 1.37 0 000 2.73 1.3 1.3 0 001.26-1.36 1.29 1.29 0 00-1.31-1.37zM758.76 757.46c-2.71 0-3.63-2.75-3.63-5s.92-5 3.63-5 3.6 2.73 3.6 5-.91 5-3.6 5zm0-8.1c-1.43 0-1.63 2-1.63 3.1s.2 3.08 1.63 3.08 1.58-2 1.58-3.08-.18-3.1-1.58-3.1zM718.49 569v-9.78h2V567h4.15v2zM729.87 569.07c-3 0-4.09-2.39-4.09-5s1.13-5 4.09-5 4.09 2.4 4.09 5-1.13 5-4.09 5zm0-8c-1.77 0-2.07 1.61-2.07 3s.3 3 2.07 3 2.07-1.61 2.07-3-.29-3.02-2.07-3.02zM739.3 569.07c-2.95 0-4.09-2.39-4.09-5s1.14-5 4.09-5 4.09 2.4 4.09 5-1.13 5-4.09 5zm0-8c-1.76 0-2.07 1.61-2.07 3s.31 3 2.07 3 2.08-1.61 2.08-3-.3-3.02-2.08-3.02zM749.1 565.15h-1.89V569h-2v-9.78H749c1.94 0 3.34.9 3.34 3s-1.21 2.93-3.24 2.93zm-.14-4.06h-1.75v2.17H749c.79 0 1.41-.16 1.41-1.09s-.68-1.08-1.41-1.08zM758.83 569v-1.25c0-3.36 4.08-4.42 4.08-5.74a1.07 1.07 0 00-1.16-1c-.68 0-1.15.63-1.41 1.16l-1.68-1a3.24 3.24 0 013.07-2.08 2.88 2.88 0 013.17 2.91c0 2.61-3.32 3.08-3.81 5.1H765v1.9zM770.19 569.07c-2.71 0-3.63-2.74-3.63-5s.92-5 3.63-5 3.6 2.73 3.6 5-.91 5-3.6 5zm0-8.09c-1.43 0-1.63 2-1.63 3.09s.2 3.08 1.63 3.08 1.58-2 1.58-3.08-.18-3.07-1.58-3.07zM775.63 569v-1.25c0-3.36 4.08-4.42 4.08-5.74a1.07 1.07 0 00-1.17-1c-.67 0-1.14.63-1.4 1.16l-1.68-1a3.24 3.24 0 013.07-2.08 2.88 2.88 0 013.17 2.91c0 2.61-3.32 3.08-3.81 5.1h3.93v1.9zM1118.43 708.55v-9.78h2v7.85h4.15v1.93zM1129.82 708.66c-3 0-4.09-2.4-4.09-5s1.13-5 4.09-5 4.09 2.39 4.09 5-1.14 5-4.09 5zm0-8c-1.77 0-2.08 1.61-2.08 3s.31 3 2.08 3 2.07-1.61 2.07-3-.3-3.03-2.07-3.03zM1139.25 708.66c-3 0-4.09-2.4-4.09-5s1.14-5 4.09-5 4.09 2.39 4.09 5-1.13 5-4.09 5zm0-8c-1.76 0-2.07 1.61-2.07 3s.31 3 2.07 3 2.07-1.61 2.07-3-.32-3.03-2.07-3.03zM1149.05 704.74h-1.89v3.81h-2v-9.78h3.84c1.93 0 3.33.9 3.33 3s-1.25 2.97-3.28 2.97zm-.14-4.06h-1.75v2.17h1.75c.78 0 1.4-.16 1.4-1.1s-.63-1.07-1.4-1.07zM1158.78 708.55v-1.25c0-3.36 4.07-4.42 4.07-5.74a1.06 1.06 0 00-1.16-1c-.67 0-1.15.63-1.4 1.17l-1.68-1a3.24 3.24 0 013.07-2.09 2.88 2.88 0 013.16 2.92c0 2.6-3.32 3.08-3.81 5.1h3.97v1.89zM1170.13 708.66c-2.7 0-3.63-2.75-3.63-5s.93-5 3.63-5 3.6 2.73 3.6 5-.91 5-3.6 5zm0-8.1c-1.43 0-1.62 2.05-1.62 3.1s.19 3.08 1.62 3.08 1.59-2 1.59-3.08-.19-3.1-1.59-3.1zM1175.58 708.55v-1.25c0-3.36 4.07-4.42 4.07-5.74a1.06 1.06 0 00-1.16-1c-.67 0-1.15.63-1.4 1.17l-1.68-1a3.24 3.24 0 013.07-2.09 2.88 2.88 0 013.16 2.92c0 2.6-3.32 3.08-3.81 5.1h3.94v1.89z" class="cls-5"/>
    <path d="M792 327c-2.9 0-4.26-2.38-4.26-5s1.33-5 4.25-5a4 4 0 013.44 1.69l-1.43 1.36a2.58 2.58 0 00-2-1.11c-1.68 0-2.2 1.64-2.2 3s.52 3 2.2 3a2.57 2.57 0 002.1-1.22l1.41 1.38A3.91 3.91 0 01792 327zM803.3 326.87l-.88-2.45h-3.18l-.88 2.45h-2.16l3.75-9.78h1.74l3.78 9.78zm-2.48-6.82l-.94 2.62h1.89zM813.73 326.87v-4.59l-1.88 4.59h-1.24l-1.87-4.59v4.59h-2v-9.78h1.9l2.59 6.53 2.65-6.53h1.88v9.78zM818 326.87v-9.78h6.71v2H820v1.83h4.1v1.9H820v2.1h4.7v2zM826.79 326.87v-9.78h2v7.85h4.14v1.93zM840.93 326.38a4.11 4.11 0 01-2.2.49h-3.81v-9.78h3.59c1.87 0 3.37.82 3.37 2.89a2.43 2.43 0 01-.7 1.75 2.53 2.53 0 011 2.16 2.84 2.84 0 01-1.25 2.49zm-2.39-7.38h-1.62v2h1.62c.75 0 1.38-.14 1.38-1.05s-.64-.95-1.38-.95zm.19 3.81h-1.81V325h1.81c.8 0 1.49-.11 1.49-1.08s-.69-1.11-1.49-1.11zM850.16 326.87l-.88-2.45h-3.18l-.89 2.45h-2.15l3.75-9.78h1.74l3.78 9.78zm-2.48-6.82l-.94 2.62h1.89zM857.28 327c-2.9 0-4.26-2.38-4.26-5s1.33-5 4.25-5a4 4 0 013.44 1.69l-1.41 1.39a2.6 2.6 0 00-2-1.11c-1.68 0-2.2 1.64-2.2 3s.52 3 2.2 3a2.58 2.58 0 002.1-1.22l1.41 1.38a3.91 3.91 0 01-3.53 1.87zM867.61 326.87l-3.12-3.87v3.92h-2v-9.78h2V321l2.77-3.93h2.44l-3.63 4.84 4.14 4.94zM881.7 326.87l-2-3.28c-.3-.5-.42-.66-1-.66h-.49v3.94h-2v-9.78h3.59c1.9 0 3.39.91 3.39 3a2.75 2.75 0 01-1.84 2.65l2.66 4.16zm-1.88-7.87h-1.62v2.14h1.62c.77 0 1.37-.2 1.37-1.09s-.63-1.05-1.37-1.05zM888.21 326.87h-2.76v-9.78h2.76c3.78 0 4.66 1.19 4.66 4.89s-.87 4.89-4.66 4.89zm2.66-5.56c0-1.82-.38-2.24-2.21-2.24h-1.21v5.83h1.21c1.82 0 2.21-.42 2.21-2.24zM568.88 378.34c0-2.9 2.38-4.26 5-4.26s5 1.33 5 4.25a4 4 0 01-1.7 3.44l-1.38-1.41a2.59 2.59 0 001.1-2c0-1.69-1.64-2.2-3-2.2s-3 .51-3 2.2a2.61 2.61 0 001.22 2.1l-1.37 1.41c-1.33-1.11-1.87-1.82-1.87-3.53zM569 383.55h9.78v6.71h-2v-4.71H575v4.1h-1.89v-4.1H571v4.71h-2zM569 397.93l5.58-3.58H569v-2h9.78V394l-5.57 3.55h5.57v2H569zM576.81 406.1H569v-2h7.81v-2.75h2v7.5h-2zM569 416.14l3.28-2c.51-.3.66-.42.66-1v-.49H569v-2h9.78v3.59c0 1.9-.91 3.39-3 3.39a2.76 2.76 0 01-2.65-1.84l-4.13 2.68zm7.85-1.88v-1.62h-2.14v1.62c0 .77.19 1.38 1.09 1.38s1.05-.64 1.05-1.38zM569 426l2.46-.88V422l-2.46-.88v-2.16l9.78 3.75v1.74l-9.78 3.73zm6.83-2.48l-2.62-.94v1.89zM569 429.58h9.78v2h-7.84v4.14H569zM569 448.45l2.46-.88v-3.18l-2.46-.88v-2.16l9.78 3.75v1.74l-9.78 3.78zm6.83-2.48l-2.62-.94v1.89zM569 455.24v-1.89l9.78-3.29v2.11l-6.72 2.13 6.72 2.13v2.1zM569 460.07h9.78v6.71h-2v-4.71H575v4.1h-1.89v-4.1H571v4.71h-2zM568.88 61.78c0-2.9 2.38-4.25 5-4.25s5 1.33 5 4.24a4 4 0 01-1.7 3.45l-1.38-1.42a2.56 2.56 0 001.1-2c0-1.68-1.64-2.2-3-2.2s-3 .52-3 2.2a2.59 2.59 0 001.22 2.1l-1.37 1.42a3.92 3.92 0 01-1.87-3.54zM569 67h9.78v6.7h-2V69H575v4.1h-1.89V69H571v4.7h-2zM569 81.37l5.58-3.57H569v-2h9.78v1.62L573.21 81h5.57v2H569zM576.81 89.55H569v-2h7.81V84.8h2v7.49h-2zM569 99.59l3.28-2c.51-.29.66-.42.66-1v-.49H569v-2h9.78v3.58c0 1.91-.91 3.39-3 3.39a2.75 2.75 0 01-2.65-1.83l-4.13 2.67zm7.85-1.88v-1.63h-2.14v1.63c0 .77.19 1.37 1.09 1.37s1.05-.63 1.05-1.37zM569 109.46l2.46-.89v-3.18l-2.46-.88v-2.16l9.78 3.76v1.73l-9.78 3.79zm6.83-2.48l-2.62-.94v1.89zM569 113h9.78v2h-7.84v4.15H569zM569 131.9l2.46-.89v-3.17L569 127v-2.2l9.78 3.75v1.74l-9.78 3.78zm6.83-2.48l-2.62-.94v1.89zM569 138.69v-1.9l9.78-3.29v2.12l-6.72 2.13 6.72 2.13V142zM569 143.51h9.78v6.71h-2v-4.7H575v4.1h-1.89v-4.1H571v4.7h-2z" class="cls-4"/>
    <path d="M1153.9 444.26c-.57-1.54-1.3-2.13-3.21-2.08-1.41 0-3.42.56-3.42 2.33 0 2.58 7.39 1.19 7.37 5.43 0 3.3-2.86 5.4-6.3 5.4-3 0-4.87-1.47-4.87-4.28l1.89-.42c0 2.1 1.19 2.87 3.36 2.87 1.78 0 4-1.05 4-3.1 0-3.15-7.39-1.37-7.39-5.71 0-3.45 3.08-4.35 5.54-4.35a4.49 4.49 0 014.77 3.17zM1167.2 444a3.46 3.46 0 00-3-1.91c-3.8 0-5.56 4.64-5.56 8 0 1.87.73 3.4 3.13 3.4 1.38 0 2.45-.94 3.69-2.12l1.3 1.3c-1.72 1.64-3.11 2.63-5.33 2.63a4.42 4.42 0 01-4.7-4.79c0-4.72 2.33-10.22 7.85-10.22 2.16 0 3.23 1.13 4.26 2.64zM1174.4 455.34c-3.34 0-4.6-2.48-4.6-5.29 0-4.62 2.52-9.74 7.79-9.74 3.36 0 4.6 2.45 4.6 5.27 0 4.59-2.52 9.76-7.79 9.76zm2.81-13.21c-4 0-5.58 4.64-5.58 7.94 0 1.85.69 3.44 3.15 3.44 4 0 5.56-4.57 5.58-7.91 0-1.85-.67-3.47-3.15-3.47zM1194.51 442.3H1190l-2.73 12.85h-1.85l2.73-12.85h-4.47l.38-1.8h10.79zM1206.9 442.3h-4.47l-2.73 12.85h-1.85l2.73-12.85h-4.47l.38-1.8h10.79zM1216.85 444.26c-.56-1.54-1.3-2.13-3.21-2.08-1.41 0-3.42.56-3.42 2.33 0 2.58 7.39 1.19 7.37 5.43 0 3.3-2.86 5.4-6.3 5.4-3 0-4.87-1.47-4.87-4.28l1.89-.42c0 2.1 1.19 2.87 3.36 2.87 1.78 0 4-1.05 4-3.1 0-3.15-7.39-1.37-7.39-5.71 0-3.45 3.08-4.35 5.54-4.35a4.49 4.49 0 014.77 3.17zM1230.75 451.08c-1.25 3.48-3.75 4.07-6.86 4.07h-4.51l3.1-14.65h4.52c3.1 0 5.37.58 5.14 4.07a30.22 30.22 0 01-1.39 6.51zm-4.13-8.78H1224l-2.35 11h2.67c2.1 0 3.84-.05 4.7-2.48a26.85 26.85 0 001.28-6.05c.12-2.41-1.6-2.47-3.68-2.47zM1242.87 455.15l-.73-4.24h-6l-2.58 4.24h-2.06l8.92-14.65h1.87l2.56 14.65zm-2.06-11.95l-3.63 5.95h4.66zM1256 455.15h-8.67l3.12-14.65h1.83l-2.73 12.85h6.85zM1271.05 442.3h-7.7l-.95 4.45h6.74l-.36 1.68H1262l-1 4.92h7.68l-.38 1.8h-9.53l3.11-14.65h9.53z" class="cls-6"/>
    <path d="M656.34 675.67h-3.65l-1.35 6.33h-1.85l3.13-14.66h5.5c2.5 0 4.77 1 4.1 4.18s-3 4.15-5.88 4.15zm1.38-6.57h-3.65l-1 4.76h3.66c1.8 0 3.21-.37 3.65-2.39s-.98-2.37-2.66-2.37zM673.26 682h-1.84l1.42-6.72h-7.09l-1.43 6.72h-1.85l3.11-14.66h1.85l-1.33 6.2h7.12l1.3-6.2h1.85zM681.92 682.14c-3.34 0-4.6-2.48-4.6-5.3 0-4.61 2.52-9.74 7.79-9.74 3.36 0 4.6 2.46 4.6 5.27 0 4.63-2.52 9.77-7.79 9.77zm2.81-13.21c-4 0-5.59 4.64-5.59 7.94 0 1.84.7 3.44 3.15 3.44 4 0 5.57-4.58 5.59-7.92 0-1.84-.67-3.46-3.15-3.46zM703.23 669.1h-7.71l-.94 4.45h6.74l-.36 1.68h-6.74l-1 4.91h7.69l-.41 1.86H691l3.11-14.66h9.53zM714.42 682h-1.74l-4.39-11-2.29 11h-1.83l3.11-14.66H709l4.37 11 2.35-11h1.83zM721 682h-2l3.13-14.66h1.91zM732.88 674.39l3.28 7.56h-2.06l-2.54-5.86-5 5.86h-2.2l6.5-7.56-3.1-7.1h2.07l2.36 5.42 4.66-5.42H739zM799.53 410.86l-.73-4.24h-6l-2.58 4.24h-2.06l8.93-14.66h1.87l2.56 14.66zm-2-11.95l-3.64 5.94h4.67zM812 404.41a1.73 1.73 0 01.29.53l1 2.66a1.8 1.8 0 002 1.45v1.81a3.54 3.54 0 01-3.78-2.6l-1-2.8a1.27 1.27 0 00-1.37-1h-1.91l-1.36 6.43h-1.81l3.13-14.66h5.1c2.1 0 4.1.89 4.1 3.09a5 5 0 01-4.39 5.09zm-.1-6.41h-3.31l-1 4.87h3.38c2 0 3.59-1.07 3.59-3.19-.03-1.34-1.21-1.68-2.66-1.68zM828.68 399.75a3.44 3.44 0 00-3-1.91c-3.8 0-5.57 4.64-5.57 8 0 1.87.74 3.4 3.13 3.4 1.39 0 2.46-.94 3.7-2.12l1.3 1.3c-1.72 1.64-3.11 2.63-5.33 2.63a4.43 4.43 0 01-4.71-4.79c0-4.72 2.33-10.23 7.86-10.23 2.16 0 3.23 1.14 4.26 2.65zM840.92 410.86l-.73-4.24h-6l-2.58 4.24h-2.06l8.93-14.66h1.87l2.56 14.66zm-2-11.95l-3.64 5.94h4.67zM856.88 406.79c-1.26 3.48-3.75 4.07-6.86 4.07h-4.52l3.11-14.66h4.52c3.1 0 5.37.59 5.14 4.08a30.22 30.22 0 01-1.39 6.51zm-4.13-8.79h-2.67l-2.35 11h2.67c2.1 0 3.84 0 4.7-2.48a26.76 26.76 0 001.28-6c.17-2.45-1.55-2.52-3.63-2.52zM861.9 410.86H860l3.13-14.66H865zM876.52 410.86l-.74-4.24h-6l-2.59 4.24h-2L874 396.2h1.87l2.56 14.66zm-2.06-11.95l-3.63 5.94h4.66z" class="cls-7"/>
    <path d="M131.8 66.72a3.43 3.43 0 00-3-1.91c-3.78 0-5.57 4.64-5.55 8 0 1.87.74 3.4 3.13 3.4 2.6 0 3.84-2.39 4.31-4.58H127l.38-1.76h5.48l-1.7 8h-1.66l.36-1.7a4.78 4.78 0 01-8.57-2.92c0-4.72 2.33-10.23 7.85-10.23 2.15 0 3.24 1.14 4.27 2.65zM143.77 77.83h-8.67l3.13-14.66h1.82L137.32 76h6.85zM158.78 65h-7.7l-1 4.45h6.74l-.35 1.68h-6.74l-1 4.91h7.68l-.38 1.81h-9.53l3.11-14.66h9.53zM170 77.83h-1.75l-4.38-11-2.33 11h-1.83l3.11-14.66h1.74l4.37 11 2.35-11h1.82zM185.79 73.76c-1.26 3.48-3.76 4.07-6.87 4.07h-4.51l3.11-14.66H182c3.11 0 5.38.59 5.14 4.08a29.61 29.61 0 01-1.35 6.51zM181.65 65H179l-2.35 11h2.66c2.1 0 3.84 0 4.7-2.47a27.43 27.43 0 001.29-6c.15-2.53-1.57-2.53-3.65-2.53zM197.91 77.83l-.74-4.24h-6l-2.58 4.24h-2.09l8.93-14.66h1.87l2.56 14.66zm-2.06-12l-3.64 5.94h4.67zM211.07 77.83h-8.67l3.13-14.66h1.83L204.63 76h6.84zM226.09 65h-7.71l-.94 4.45h6.73l-.35 1.68h-6.74l-1 4.91h7.68l-.37 1.81h-9.54l3.11-14.66h9.53z" class="cls-8"/>
    <path d="M498.68 300.41l-5.08-8.48c-.76-1.31-1.08-1.71-2.64-1.71h-1.27v10.19h-5.19v-25.32h9.29c4.93 0 8.77 2.36 8.77 7.7a7.1 7.1 0 01-4.75 6.85l6.89 10.77zm-4.86-20.31h-4.21v5.55h4.21c2 0 3.56-.51 3.56-2.83s-1.64-2.72-3.56-2.72z" class="cls-4"/>
    <path d="M535.3 330h-84v-84h84zm-79.06-4.95h74.11v-74.11h-74.11z" class="cls-4"/>
    <path d="M493.3 330a42 42 0 1142-42 42 42 0 01-42 42zm0-79.06A37.06 37.06 0 10530.35 288a37.1 37.1 0 00-37.05-37.06z" class="cls-4"/>
    <path d="M1025.81 337.86c-2.9 0-4.26-2.38-4.26-5s1.33-5 4.25-5a4 4 0 013.44 1.7l-1.41 1.38a2.6 2.6 0 00-2-1.11c-1.68 0-2.2 1.64-2.2 3s.52 3 2.2 3a2.6 2.6 0 002.1-1.21l1.41 1.37a3.91 3.91 0 01-3.53 1.87zM1037.14 337.73l-.88-2.45h-3.18l-.89 2.45H1030l3.75-9.77h1.74l3.78 9.77zm-2.48-6.82l-.94 2.62h1.89zM1047.57 337.73v-4.59l-1.88 4.59h-1.24l-1.87-4.59v4.59h-2V328h1.9l2.59 6.52 2.65-6.52h1.88v9.77zM1051.82 337.73V328h6.71v2h-4.71v1.84h4.11v1.89h-4.11v2.1h4.71v2zM1060.63 337.73V328h2v7.84h4.14v1.93zM1074.77 337.24a4.11 4.11 0 01-2.2.49h-3.81V328h3.59c1.87 0 3.37.81 3.37 2.88a2.46 2.46 0 01-.7 1.75 2.53 2.53 0 011 2.16 2.84 2.84 0 01-1.25 2.45zm-2.39-7.38h-1.62v2.05h1.62c.75 0 1.38-.14 1.38-1.05s-.64-1-1.38-1zm.19 3.81h-1.81v2.17h1.81c.8 0 1.49-.11 1.49-1.08s-.69-1.09-1.49-1.09zM1084 337.73l-.89-2.45h-3.18l-.88 2.45h-2.16l3.76-9.77h1.74l3.78 9.77zm-2.48-6.82l-.94 2.62h1.89zM1091.12 337.86c-2.9 0-4.26-2.38-4.26-5s1.33-5 4.25-5a4 4 0 013.44 1.7l-1.41 1.38a2.6 2.6 0 00-2-1.11c-1.68 0-2.2 1.64-2.2 3s.52 3 2.2 3a2.6 2.6 0 002.1-1.21l1.41 1.37c-1.11 1.32-1.82 1.87-3.53 1.87zM1101.45 337.73l-3.12-3.92v3.92h-2V328h2v3.92l2.77-3.92h2.44l-3.63 4.83 4.13 4.94zM1037.26 355.57V351l-1.88 4.59h-1.25l-1.86-4.59v4.59h-2v-9.79h1.91l2.59 6.52 2.65-6.52h1.88v9.77zM1045.18 355.69c-3 0-4.09-2.4-4.09-5s1.14-5 4.09-5 4.09 2.4 4.09 5-1.13 5-4.09 5zm0-8c-1.76 0-2.07 1.61-2.07 3s.31 3 2.07 3 2.07-1.61 2.07-3-.25-3.03-2.07-3.03zM1054.84 355.69c-2.67 0-3.75-1.64-3.75-4.15v-5.74h2v5.63c0 1.26.25 2.31 1.74 2.31s1.75-1 1.75-2.31v-5.63h2v5.74c0 2.51-1.08 4.15-3.74 4.15zM1066.39 355.57l-3.57-5.57v5.57h-2v-9.77h1.62l3.56 5.57v-5.57h2v9.77zM1074.57 347.77v7.8h-2v-7.8h-2.74v-2h7.49v2zM1084.13 355.57l-.88-2.45h-3.18l-.89 2.45H1077l3.75-9.77h1.74l3.78 9.77zm-2.48-6.82l-.94 2.62h1.89zM1087.69 355.57v-9.77h2v9.77zM1097.65 355.57l-3.57-5.57v5.57h-2v-9.77h1.62l3.56 5.57v-5.57h2v9.77zM1065 310.54a24 24 0 1124-24 24 24 0 01-24 24zm0-45.17a21.18 21.18 0 1021.17 21.17 21.2 21.2 0 00-21.17-21.17z" class="cls-6"/>
    <path d="M1065.79 293.83c-4.31 0-6.33-3.54-6.33-7.45s2-7.44 6.3-7.44a6 6 0 015.12 2.51l-2.1 2.06a3.82 3.82 0 00-3-1.64c-2.49 0-3.26 2.43-3.26 4.51s.77 4.51 3.26 4.51a3.82 3.82 0 003.12-1.8l2.1 2c-1.62 1.91-2.68 2.74-5.21 2.74z" class="cls-6"/>
    <path d="M789.31 738.77a3.68 3.68 0 01-3.95-3l1.89-.38a1.89 1.89 0 002.06 1.44c.72 0 1.66-.37 1.66-1.23 0-1.76-5.31-.54-5.31-4.08 0-1.89 1.7-2.81 3.38-2.81a3.65 3.65 0 013.66 2.29l-1.73.8a1.94 1.94 0 00-1.97-1.2c-.55 0-1.37.25-1.37.95 0 1.49 5.31.51 5.31 4.08.06 2.02-1.79 3.14-3.63 3.14zM800 738.63l-3.13-3.92v3.92h-2v-9.78h2v3.92l2.78-3.92h2.44l-3.63 4.83 4.13 5zM808.39 735.41v3.22h-2v-3.25l-3.25-6.53h2.25l2 4.29 2-4.29h2.22zM823.27 738.63v-4.08h-3.49v4.08h-2v-9.78h2v3.81h3.49v-3.81h2v9.78zM833.77 738.63l-.88-2.45h-3.18l-.88 2.45h-2.16l3.75-9.78h1.74l3.78 9.78zm-2.48-6.82l-.94 2.62h1.89zM842.81 738.63l-2-3.28c-.29-.5-.42-.66-1-.66h-.49v3.94h-2v-9.78h3.58c1.91 0 3.39.91 3.39 3a2.75 2.75 0 01-1.83 2.65l2.66 4.16zm-1.87-7.85h-1.63v2.15h1.63c.77 0 1.37-.2 1.37-1.09s-.63-1.06-1.37-1.06zM852.57 738.14a4.11 4.11 0 01-2.2.49h-3.81v-9.78h3.59c1.88 0 3.37.81 3.37 2.89a2.43 2.43 0 01-.7 1.75 2.51 2.51 0 011 2.16 2.84 2.84 0 01-1.25 2.49zm-2.39-7.38h-1.61v2h1.61c.75 0 1.38-.14 1.38-1s-.64-1-1.38-1zm.19 3.81h-1.8v2.17h1.8c.8 0 1.49-.11 1.49-1.08s-.69-1.09-1.49-1.09zM859.49 738.74c-3 0-4.09-2.39-4.09-5s1.13-5 4.09-5 4.09 2.39 4.09 5-1.14 5-4.09 5zm0-8c-1.77 0-2.08 1.62-2.08 3s.31 3 2.08 3 2.07-1.61 2.07-3-.29-3.03-2.07-3.03zM871 738.63l-2-3.28c-.3-.5-.42-.66-1-.66h-.49v3.94h-2v-9.78h3.59c1.9 0 3.39.91 3.39 3a2.76 2.76 0 01-1.84 2.65l2.66 4.16zm-1.88-7.85h-1.62v2.15h1.62c.77 0 1.37-.2 1.37-1.09s-.61-1.06-1.36-1.06zM808.87 756.47L808 754h-3.18l-.88 2.45h-2.16l3.75-9.78h1.74l3.78 9.78zm-2.48-6.82l-.94 2.62h1.9zM812.44 756.47v-9.78h2v9.78zM822.3 756.47l-2-3.28c-.3-.5-.42-.66-1-.66h-.49v3.94h-2v-9.78h3.59c1.9 0 3.39.91 3.39 3a2.76 2.76 0 01-1.84 2.65l2.66 4.16zm-1.88-7.85h-1.62v2.15h1.62c.77 0 1.37-.2 1.37-1.1s-.63-1.05-1.37-1.05zM829.94 752.66h-1.89v3.81h-2v-9.78h3.82c1.93 0 3.34.9 3.34 3s-1.21 2.97-3.27 2.97zm-.14-4.06h-1.75v2.17h1.75c.78 0 1.4-.16 1.4-1.1s-.63-1.07-1.4-1.07zM838.69 756.58c-3 0-4.09-2.39-4.09-5s1.14-5 4.09-5 4.09 2.39 4.09 5-1.13 5-4.09 5zm0-8c-1.76 0-2.07 1.62-2.07 3s.31 3 2.07 3 2.07-1.61 2.07-3-.29-3.03-2.07-3.03zM850.21 756.47l-2-3.28c-.29-.5-.42-.66-1-.66h-.49v3.94h-2v-9.78h3.58c1.91 0 3.39.91 3.39 3a2.75 2.75 0 01-1.83 2.65l2.66 4.16zm-1.87-7.85h-1.63v2.15h1.63c.77 0 1.37-.2 1.37-1.1s-.63-1.05-1.37-1.05zM857.87 748.67v7.8h-2v-7.8h-2.75v-2h7.5v2zM831.61 711.44a24 24 0 1124-24 24 24 0 01-24 24zm0-45.18a21.18 21.18 0 1021.17 21.18 21.19 21.19 0 00-21.17-21.18z" class="cls-7"/>
    <path d="M835.27 694.53l-1.27-3.64h-4.72l-1.31 3.64h-3.2L830.3 680h2.58l5.61 14.51zm-3.68-10.12l-1.39 3.89h2.8z" class="cls-7"/>
    <path d="M500.6 579.29V720.1a14.53 14.53 0 003.14.15 14.05 14.05 0 003.4-.63c1.81-.56 11.27-.88 36.68-.57a17.91 17.91 0 002.41.75 25.15 25.15 0 002.5.45c1.95.23 22.79.24 51.26 0 .07-17.22.08-28.24 0-31.15 0-.53-.08-2.42.08-5 .11-1.81.29-3.14.31-3.28.31-2.46.28-30-.39-101.27z" class="cls-5"/>
    <path d="M513.68 675.9h-2.77v-9.78h2.77c3.78 0 4.67 1.19 4.67 4.89s-.89 4.89-4.67 4.89zm2.66-5.56c0-1.83-.38-2.25-2.22-2.25h-1.2v5.84h1.2c1.83 0 2.22-.42 2.22-2.25zM524.12 676c-3 0-4.1-2.4-4.1-5s1.14-5 4.1-5 4.09 2.4 4.09 5-1.13 5-4.09 5zm0-8c-1.77 0-2.08 1.61-2.08 3s.31 3 2.08 3 2.07-1.61 2.07-3-.29-3-2.07-3zM538.77 675.9h-2.2l-1.52-5.9-1.51 5.9h-2.2l-2.29-9.78h2.05l1.41 6.49 1.74-6.49h1.6l1.74 6.49 1.42-6.49h2zM548.17 675.9l-3.57-5.58v5.58h-2v-9.78h1.63l3.56 5.58v-5.58h2v9.78zM556.36 668.09v7.81h-2v-7.81h-2.76v-2h7.51v2zM564.18 676c-3 0-4.1-2.4-4.1-5s1.14-5 4.1-5 4.09 2.4 4.09 5-1.13 5-4.09 5zm0-8c-1.77 0-2.08 1.61-2.08 3s.31 3 2.08 3 2.07-1.61 2.07-3-.25-3-2.07-3zM578.83 675.9h-2.2l-1.52-5.9-1.51 5.9h-2.2l-2.29-9.78h2l1.41 6.49 1.74-6.49h1.6l1.74 6.49 1.42-6.49h2zM588.23 675.9l-3.57-5.58v5.58h-2v-9.78h1.63l3.56 5.58v-5.58h2v9.78zM525 689.93h-1.9v3.81h-2V684h3.83c1.93 0 3.33.89 3.33 3s-1.26 2.93-3.26 2.93zm-.14-4.07h-1.76V688h1.76c.78 0 1.4-.16 1.4-1.1s-.68-1.04-1.45-1.04zM535.53 693.74v-4.08H532v4.08h-2V684h2v3.81h3.49V684h2v9.78zM543.59 693.86c-3 0-4.1-2.4-4.1-5s1.14-5 4.1-5 4.09 2.4 4.09 5-1.13 5-4.09 5zm0-8c-1.77 0-2.08 1.61-2.08 3s.31 3 2.08 3 2.07-1.61 2.07-3-.29-3.04-2.07-3.04zM549.64 693.74V684h6.72v2h-4.71v1.84h4.11v1.89h-4.11v2.11h4.71v2zM564 693.74l-3.58-5.58v5.58h-2V684h1.62l3.57 5.58V684h2v9.78zM568 693.74V684h2v9.78zM578.15 693.74l-2.09-3.33-2.1 3.33h-2.38l3.34-5-3.17-4.74h2.39l1.92 3.07L578 684h2.38l-3.16 4.75 3.34 5zM550.59 648.71a24 24 0 1124-24 24 24 0 01-24 24zm0-45.17a21.18 21.18 0 1021.17 21.17 21.2 21.2 0 00-21.17-21.17z" class="cls-7"/>
    <path d="M549.38 631.81h-4.1V617.3h4.1c5.61 0 6.92 1.76 6.92 7.25s-1.3 7.26-6.92 7.26zm4-8.25c0-2.71-.56-3.33-3.28-3.33h-1.79v8.65h1.79c2.7 0 3.28-.63 3.28-3.33z" class="cls-7"/>
  </g>
</svg>