<svg xmlns="http://www.w3.org/2000/svg" fill="none" viewBox="0 0 48 48">
  <defs/>
  <path fill="#BB5245" d="M0 0v48h48V0H0zm45.1765 22.4941c-10.5412-.6588-19.0118-9.1294-19.7647-19.67057h19.7647V22.4941zM38.4 24c-6.6824 2.3529-12.0471 7.7176-14.4 14.4-2.4471-6.6824-7.7176-12.0471-14.49412-14.4941C16.1882 21.4588 21.5529 16.1882 24 9.41177 26.3529 16.1882 31.7176 21.5529 38.4 24zM22.4941 2.82353C21.8353 13.3647 13.3647 21.8353 2.82353 22.4941V2.82353H22.4941zM2.82353 25.4118c10.54117.6588 19.01177 9.1294 19.67057 19.6706H2.82353V25.4118zM25.4118 45.1765c.7529-10.5412 9.2235-19.0118 19.7647-19.7647v19.7647H25.4118z"/>
</svg>