<svg xmlns="http://www.w3.org/2000/svg" width="64" height="64" fill="none">
  <path fill="#18A0FB" d="M0 0v64h64V0H0zm60.2353 29.9922c-14.0549-.8785-25.349-12.1726-26.3529-26.22749h26.3529V29.9922zM51.2 32C42.2902 35.1373 35.1373 42.2902 32 51.2c-3.2627-8.9098-10.2902-16.0627-19.3255-19.3255C21.5843 28.6118 28.7373 21.5843 32 12.549 35.1373 21.5843 42.2902 28.7373 51.2 32zM29.9922 3.76471C29.1137 17.8196 17.8196 29.1137 3.76471 29.9922V3.76471H29.9922zM3.76471 33.8824c14.05489.8784 25.34899 12.1725 26.22749 26.2274H3.76471V33.8824zM33.8824 60.2353c1.0039-14.0549 12.298-25.349 26.3529-26.3529v26.3529H33.8824z"/>
</svg>