<svg xmlns="http://www.w3.org/2000/svg" width="64" height="64" fill="none">
  <path fill="#18A0FB" d="M0 0v64h64V0H0zm52.08 60.2311c-4.4978 0-8.1511-3.6622-8.1511-8.1511 0-4.4889 3.6622-8.1511 8.1511-8.1511 4.4978 0 8.1511 3.6622 8.1511 8.1511 0 4.4889-3.6533 8.1511-8.1511 8.1511zM11.92 3.76889c4.4978 0 8.1511 3.66222 8.1511 8.15111 0 4.4978-3.6622 8.1511-8.1511 8.1511-4.49778 0-8.15111-3.6622-8.15111-8.1511 0-4.49778 3.65333-8.15111 8.15111-8.15111zM60.2311 11.92c0 4.4978-3.6622 8.1511-8.1511 8.1511-4.4978 0-8.1511-3.6622-8.1511-8.1511 0-4.49778 3.6622-8.15111 8.1511-8.15111 4.4978 0 8.1511 3.65333 8.1511 8.15111zM42.0356 25.5911c-.9334-1.4578-2.1689-2.6933-3.6356-3.6355 1.4578-.9334 2.6933-2.1689 3.6356-3.6356.9333 1.4578 2.1688 2.6933 3.6355 3.6356-1.4578.9422-2.7022 2.1777-3.6355 3.6355zm3.6355 16.4445c-1.4578.9333-2.7022 2.1777-3.6355 3.6355-.9334-1.4578-2.1778-2.6933-3.6356-3.6355 1.4578-.9334 2.7022-2.1778 3.6356-3.6356.9333 1.4667 2.1777 2.7022 3.6355 3.6356zM32 40.1511c-4.4978 0-8.1511-3.6622-8.1511-8.1511 0-4.4889 3.6622-8.1511 8.1511-8.1511 4.4889 0 8.1511 3.6622 8.1511 8.1511 0 4.4889-3.6533 8.1511-8.1511 8.1511zm-10.0356 5.52c-.9333-1.4578-2.1777-2.6933-3.6355-3.6355 1.4578-.9334 2.6933-2.1778 3.6355-3.6356.9334 1.4578 2.1778 2.6933 3.6356 3.6356-1.4667.9333-2.7022 2.1777-3.6356 3.6355zm-3.6355-23.7067c1.4578-.9333 2.6933-2.1688 3.6355-3.6355.9334 1.4578 2.1778 2.6933 3.6356 3.6355-1.4578.9334-2.6933 2.1778-3.6356 3.6356-.9333-1.4667-2.1777-2.7022-3.6355-3.6356zM42.0356 5.52c-.4-.62222-.8534-1.20889-1.36-1.75111h2.7288c-.5066.54222-.9688 1.12-1.3688 1.75111zm-1.8845 6.4c0 4.4978-3.6622 8.1511-8.1511 8.1511-4.4889 0-8.1511-3.6622-8.1511-8.1511 0-4.49778 3.6622-8.15111 8.1511-8.15111 4.4889 0 8.1511 3.65333 8.1511 8.15111zm-18.1867-6.4c-.4-.62222-.8533-1.20889-1.3688-1.75111h2.7288c-.5066.54222-.96 1.12-1.36 1.75111zM5.52 21.9644c-.62222.4-1.20889.8534-1.75111 1.36v-2.7288c.54222.5066 1.12.9688 1.75111 1.3688zm6.4 1.8845c4.4978 0 8.1511 3.6622 8.1511 8.1511 0 4.4889-3.6622 8.1511-8.1511 8.1511-4.49778 0-8.15111-3.6622-8.15111-8.1511 0-4.4889 3.65333-8.1511 8.15111-8.1511zm-6.4 18.1867c-.62222.4-1.20889.8533-1.75111 1.36v-2.7289c.54222.5155 1.12.9689 1.75111 1.3689zM3.76889 52.08c0-4.4978 3.66222-8.1511 8.15111-8.1511 4.4978 0 8.1511 3.6622 8.1511 8.1511 0 4.4889-3.6622 8.1511-8.1511 8.1511-4.49778 0-8.15111-3.6533-8.15111-8.1511zm18.19551 6.4c.4.6222.8623 1.2089 1.3689 1.7511h-2.7289c.4978-.5422.96-1.12 1.36-1.7511zm1.8845-6.4c0-4.4978 3.6622-8.1511 8.1511-8.1511 4.4889 0 8.1511 3.6622 8.1511 8.1511 0 4.4889-3.6622 8.1511-8.1511 8.1511-4.4889 0-8.1511-3.6533-8.1511-8.1511zm18.1867 6.4c.4.6222.8533 1.2089 1.36 1.7511h-2.7289c.5155-.5422.9689-1.12 1.3689-1.7511zM58.48 42.0356c.6222-.4 1.2089-.8534 1.7511-1.36v2.7288c-.5422-.5066-1.12-.9688-1.7511-1.3688zm-6.4-1.8845c-4.4978 0-8.1511-3.6622-8.1511-8.1511 0-4.4889 3.6622-8.1511 8.1511-8.1511 4.4978 0 8.1511 3.6622 8.1511 8.1511 0 4.4889-3.6533 8.1511-8.1511 8.1511zm6.4-18.1867c.6222-.4 1.2089-.8533 1.7511-1.36v2.7289c-.5422-.5155-1.12-.9689-1.7511-1.3689z"/>
</svg>