<svg xmlns="http://www.w3.org/2000/svg" fill="none" viewBox="0 0 34 34">
  <defs/>
  <path fill="#AC7D2C" d="M0 0v34h34V0H0zm27.6675 31.9978c-2.3894 0-4.3303-1.9456-4.3303-4.3303 0-2.3847 1.9456-4.3303 4.3303-4.3303 2.3894 0 4.3303 1.9456 4.3303 4.3303 0 2.3847-1.9409 4.3303-4.3303 4.3303zM6.3325 2.00222c2.38944 0 4.3303 1.94556 4.3303 4.33028 0 2.38944-1.94558 4.3303-4.3303 4.3303-2.38944 0-4.33028-1.94558-4.33028-4.3303 0-2.38944 1.94084-4.33028 4.33028-4.33028zM31.9978 6.3325c0 2.38944-1.9456 4.3303-4.3303 4.3303-2.3894 0-4.3303-1.94558-4.3303-4.3303 0-2.38944 1.9456-4.33028 4.3303-4.33028 2.3894 0 4.3303 1.94084 4.3303 4.33028zm-9.6664 7.2628c-.4958-.7745-1.1522-1.4309-1.9314-1.9314.7744-.4958 1.4308-1.1522 1.9314-1.9314.4958.7744 1.1522 1.4308 1.9314 1.9314-.7745.5005-1.4356 1.1569-1.9314 1.9314zm1.9314 8.7361c-.7745.4958-1.4356 1.1569-1.9314 1.9314-.4958-.7745-1.157-1.4309-1.9314-1.9314.7744-.4958 1.4356-1.157 1.9314-1.9314.4958.7792 1.1569 1.4356 1.9314 1.9314zM17 21.3303c-2.3894 0-4.3303-1.9456-4.3303-4.3303 0-2.3847 1.9456-4.3303 4.3303-4.3303 2.3847 0 4.3303 1.9456 4.3303 4.3303 0 2.3847-1.9409 4.3303-4.3303 4.3303zm-5.3314 2.9325c-.4958-.7745-1.1569-1.4309-1.93138-1.9314.77448-.4958 1.43088-1.157 1.93138-1.9314.4958.7744 1.157 1.4308 1.9314 1.9314-.7792.4958-1.4356 1.1569-1.9314 1.9314zM9.73722 11.6686c.77448-.4958 1.43088-1.1522 1.93138-1.93138.4958.77448 1.157 1.43088 1.9314 1.93138-.7744.4958-1.4308 1.157-1.9314 1.9314-.4958-.7792-1.1569-1.4356-1.93138-1.9314zM22.3314 2.9325c-.2125-.33056-.4533-.64222-.7225-.93028h1.4497c-.2692.28806-.5147.595-.7272.93028zm-1.0011 3.4c0 2.38944-1.9456 4.3303-4.3303 4.3303-2.3847 0-4.3303-1.94558-4.3303-4.3303 0-2.38944 1.9456-4.33028 4.3303-4.33028 2.3847 0 4.3303 1.94084 4.3303 4.33028zm-9.6617-3.4c-.2125-.33056-.4533-.64222-.7272-.93028h1.4497c-.2692.28806-.51.595-.7225.93028zm-8.7361 8.7361c-.33056.2125-.64222.4533-.93028.7225v-1.4497c.28806.2692.595.5147.93028.7272zm3.4 1.0011c2.38944 0 4.3303 1.9456 4.3303 4.3303 0 2.3847-1.94558 4.3303-4.3303 4.3303-2.38944 0-4.33028-1.9456-4.33028-4.3303 0-2.3847 1.94084-4.3303 4.33028-4.3303zm-3.4 9.6617c-.33056.2125-.64222.4533-.93028.7225v-1.4497c.28806.2739.595.5147.93028.7272zm-.93028 5.3361c0-2.3894 1.94556-4.3303 4.33028-4.3303 2.38944 0 4.3303 1.9456 4.3303 4.3303 0 2.3847-1.94558 4.3303-4.3303 4.3303-2.38944 0-4.33028-1.9409-4.33028-4.3303zm9.66638 3.4c.2125.3306.4581.6422.7272.9303h-1.4497c.2645-.2881.51-.595.7225-.9303zm1.0011-3.4c0-2.3894 1.9456-4.3303 4.3303-4.3303 2.3847 0 4.3303 1.9456 4.3303 4.3303 0 2.3847-1.9456 4.3303-4.3303 4.3303-2.3847 0-4.3303-1.9409-4.3303-4.3303zm9.6617 3.4c.2125.3306.4533.6422.7225.9303h-1.4497c.2739-.2881.5147-.595.7272-.9303zm8.7361-8.7361c.3306-.2125.6422-.4533.9303-.7225v1.4497c-.2881-.2692-.595-.5147-.9303-.7272zm-3.4-1.0011c-2.3894 0-4.3303-1.9456-4.3303-4.3303 0-2.3847 1.9456-4.3303 4.3303-4.3303 2.3894 0 4.3303 1.9456 4.3303 4.3303 0 2.3847-1.9409 4.3303-4.3303 4.3303zm3.4-9.6617c.3306-.2125.6422-.4533.9303-.7225v1.4497c-.2881-.2739-.595-.5147-.9303-.7272z"/>
</svg>