<svg xmlns="http://www.w3.org/2000/svg" fill="none" viewBox="0 0 48 48">
  <defs/>
  <path fill="#ADC7CF" d="M30.1133 0H0v48h48V0H30.1133zm15.06 2.82667V15.06H32.94V2.82667h12.2333zm-15.06 0V15.8867L24 22l-6.1133-6.1133V2.82667h12.2266zm-27.28663 0H15.06V15.06H2.82667V2.82667zm0 15.06003H15.8867L22 24l-6.1133 6.1133H2.82667V17.8867zm0 27.2866V32.94H15.06v12.2333H2.82667zm15.06003 0v-13.06L24 26l6.1133 6.1133v13.06H17.8867zm27.2866 0H32.94V32.94h12.2333v12.2333zm0-15.06h-13.06L26 24l6.1133-6.1133h13.06v12.2266z"/>
</svg>