<svg width="513" height="19" viewBox="0 0 513 19" fill="none" xmlns="http://www.w3.org/2000/svg">
<path d="M32.7403 18.0865L0 5.13819L1.41471 1.15081L32.7403 13.5846L64.8339 0.893555L96.8871 13.5846L128.94 0.893555L160.993 13.5846L193.087 0.893555L225.14 13.5846L256.506 1.15081L257.921 5.13819L225.14 18.0865L193.087 5.39545L160.993 18.0865L128.94 5.39545L96.8871 18.0865L64.8339 5.39545L32.7403 18.0865Z" fill="#ADC7CF"/>
<path d="M287.819 18.0865L255.079 5.13819L256.494 1.15081L287.819 13.5846L319.913 0.893555L351.966 13.5846L384.019 0.893555L416.073 13.5846L448.166 0.893555L480.219 13.5846L511.585 1.15081L513 5.13819L480.219 18.0865L448.166 5.39545L416.073 18.0865L384.019 5.39545L351.966 18.0865L319.913 5.39545L287.819 18.0865Z" fill="#ADC7CF"/>
</svg>