<svg width="514" height="54" viewBox="0 0 514 54" fill="none" xmlns="http://www.w3.org/2000/svg">
<path d="M0 0V54H54.5253V0H0ZM51.3179 25.3059C39.3437 24.5647 29.7216 15.0353 28.8663 3.17647H51.3179V25.3059ZM43.6202 27C36.0294 29.6471 29.9354 35.6824 27.2626 43.2C24.4829 35.6824 18.4958 29.6471 10.7981 26.8941C18.3889 24.1412 24.4829 18.2118 27.2626 10.5882C29.9354 18.2118 36.0294 24.2471 43.6202 27ZM25.552 3.17647C24.8036 15.0353 15.1815 24.5647 3.20737 25.3059V3.17647H25.552ZM3.20737 28.5882C15.1815 29.3294 24.8036 38.8588 25.552 50.7177H3.20737V28.5882ZM28.8663 50.8235C29.7216 38.9647 39.3437 29.4353 51.3179 28.5882V50.8235H28.8663Z" fill="#AC7D2C"/>
<path d="M51.2012 0V54H105.061V0H51.2012ZM101.893 25.3059C90.0651 24.5647 80.5603 15.0353 79.7155 3.17647H101.893V25.3059ZM94.2894 27C86.7912 29.6471 80.7715 35.6824 78.1313 43.2C75.3855 35.6824 69.4714 29.6471 61.8676 26.8941C69.3658 24.1412 75.3855 18.2118 78.1313 10.5882C80.7715 18.2118 86.7912 24.2471 94.2894 27ZM76.4416 3.17647C75.7023 15.0353 66.1976 24.5647 54.3694 25.3059V3.17647H76.4416ZM54.3694 28.5882C66.1976 29.3294 75.7023 38.8588 76.4416 50.7177H54.3694V28.5882ZM79.7155 50.8235C80.5603 38.9647 90.0651 29.4353 101.893 28.5882V50.8235H79.7155Z" fill="#AC7D2C"/>
<path d="M102.4 0V54H156.261V0H102.4ZM153.092 25.3059C141.264 24.5647 131.76 15.0353 130.915 3.17647H153.092V25.3059ZM145.489 27C137.99 29.6471 131.971 35.6824 129.331 43.2C126.585 35.6824 120.671 29.6471 113.067 26.8941C120.565 24.1412 126.585 18.2118 129.331 10.5882C131.971 18.2118 137.99 24.2471 145.489 27ZM127.641 3.17647C126.902 15.0353 117.397 24.5647 105.569 25.3059V3.17647H127.641ZM105.569 28.5882C117.397 29.3294 126.902 38.8588 127.641 50.7177H105.569V28.5882ZM130.915 50.8235C131.76 38.9647 141.264 29.4353 153.092 28.5882V50.8235H130.915Z" fill="#AC7D2C"/>
<path d="M152.936 0V54H207.461V0H152.936ZM204.253 25.3059C192.279 24.5647 182.657 15.0353 181.802 3.17647H204.253V25.3059ZM196.556 27C188.965 29.6471 182.871 35.6824 180.198 43.2C177.418 35.6824 171.431 29.6471 163.734 26.8941C171.324 24.1412 177.418 18.2118 180.198 10.5882C182.871 18.2118 188.965 24.2471 196.556 27ZM178.488 3.17647C177.739 15.0353 168.117 24.5647 156.143 25.3059V3.17647H178.488ZM156.143 28.5882C168.117 29.3294 177.739 38.8588 178.488 50.7177H156.143V28.5882ZM181.802 50.8235C182.657 38.9647 192.279 29.4353 204.253 28.5882V50.8235H181.802Z" fill="#AC7D2C"/>
<path d="M204.137 0V54H258.662V0H204.137ZM255.455 25.3059C243.48 24.5647 233.858 15.0353 233.003 3.17647H255.455V25.3059ZM247.757 27C240.166 29.6471 234.072 35.6824 231.399 43.2C228.62 35.6824 222.633 29.6471 214.935 26.8941C222.526 24.1412 228.62 18.2118 231.399 10.5882C234.072 18.2118 240.166 24.2471 247.757 27ZM229.689 3.17647C228.94 15.0353 219.318 24.5647 207.344 25.3059V3.17647H229.689ZM207.344 28.5882C219.318 29.3294 228.94 38.8588 229.689 50.7177H207.344V28.5882ZM233.003 50.8235C233.858 38.9647 243.48 29.4353 255.455 28.5882V50.8235H233.003Z" fill="#AC7D2C"/>
<path d="M255.338 0V54H309.863V0H255.338ZM306.656 25.3059C294.682 24.5647 285.06 15.0353 284.204 3.17647H306.656V25.3059ZM298.958 27C291.367 29.6471 285.273 35.6824 282.601 43.2C279.821 35.6824 273.834 29.6471 266.136 26.8941C273.727 24.1412 279.821 18.2118 282.601 10.5882C285.273 18.2118 291.367 24.2471 298.958 27ZM280.89 3.17647C280.142 15.0353 270.519 24.5647 258.545 25.3059V3.17647H280.89ZM258.545 28.5882C270.519 29.3294 280.142 38.8588 280.89 50.7177H258.545V28.5882ZM284.204 50.8235C285.06 38.9647 294.682 29.4353 306.656 28.5882V50.8235H284.204Z" fill="#AC7D2C"/>
<path d="M306.539 0V54H361.064V0H306.539ZM357.857 25.3059C345.883 24.5647 336.261 15.0353 335.405 3.17647H357.857V25.3059ZM350.159 27C342.568 29.6471 336.474 35.6824 333.802 43.2C331.022 35.6824 325.035 29.6471 317.337 26.8941C324.928 24.1412 331.022 18.2118 333.802 10.5882C336.474 18.2118 342.568 24.2471 350.159 27ZM332.091 3.17647C331.343 15.0353 321.721 24.5647 309.746 25.3059V3.17647H332.091ZM309.746 28.5882C321.721 29.3294 331.343 38.8588 332.091 50.7177H309.746V28.5882ZM335.405 50.8235C336.261 38.9647 345.883 29.4353 357.857 28.5882V50.8235H335.405Z" fill="#AC7D2C"/>
<path d="M357.738 0V54H411.599V0H357.738ZM408.43 25.3059C396.602 24.5647 387.097 15.0353 386.253 3.17647H408.43V25.3059ZM400.827 27C393.328 29.6471 387.309 35.6824 384.668 43.2C381.923 35.6824 376.009 29.6471 368.405 26.8941C375.903 24.1412 381.923 18.2118 384.668 10.5882C387.309 18.2118 393.328 24.2471 400.827 27ZM382.979 3.17647C382.239 15.0353 372.735 24.5647 360.907 25.3059V3.17647H382.979ZM360.907 28.5882C372.735 29.3294 382.239 38.8588 382.979 50.7177H360.907V28.5882ZM386.253 50.8235C387.097 38.9647 396.602 29.4353 408.43 28.5882V50.8235H386.253Z" fill="#AC7D2C"/>
<path d="M408.938 0V54H462.798V0H408.938ZM459.63 25.3059C447.801 24.5647 438.297 15.0353 437.452 3.17647H459.63V25.3059ZM452.026 27C444.528 29.6471 438.508 35.6824 435.868 43.2C433.122 35.6824 427.208 29.6471 419.604 26.8941C427.102 24.1412 433.122 18.2118 435.868 10.5882C438.508 18.2118 444.528 24.2471 452.026 27ZM434.178 3.17647C433.439 15.0353 423.934 24.5647 412.106 25.3059V3.17647H434.178ZM412.106 28.5882C423.934 29.3294 433.439 38.8588 434.178 50.7177H412.106V28.5882ZM437.452 50.8235C438.297 38.9647 447.801 29.4353 459.63 28.5882V50.8235H437.452Z" fill="#AC7D2C"/>
<path d="M459.475 0V54H514V0H459.475ZM510.792 25.3059C498.818 24.5647 489.196 15.0353 488.341 3.17647H510.792V25.3059ZM503.095 27C495.504 29.6471 489.41 35.6824 486.737 43.2C483.958 35.6824 477.97 29.6471 470.273 26.8941C477.864 24.1412 483.958 18.2118 486.737 10.5882C489.41 18.2118 495.504 24.2471 503.095 27ZM485.027 3.17647C484.278 15.0353 474.656 24.5647 462.682 25.3059V3.17647H485.027ZM462.682 28.5882C474.656 29.3294 484.278 38.8588 485.027 50.7177H462.682V28.5882ZM488.341 50.8235C489.196 38.9647 498.818 29.4353 510.792 28.5882V50.8235H488.341Z" fill="#AC7D2C"/>
</svg>
