<svg width="186" height="20" viewBox="0 0 186 20" fill="none" xmlns="http://www.w3.org/2000/svg">
<path d="M0 0V20H19.7309V0H0ZM18.5703 9.37255C14.2372 9.09804 10.7553 5.56863 10.4458 1.17647H18.5703V9.37255ZM15.7848 10C13.0379 10.9804 10.8327 13.2157 9.86547 16C8.85958 13.2157 6.69304 10.9804 3.9075 9.96078C6.65436 8.94118 8.85958 6.7451 9.86547 3.92157C10.8327 6.7451 13.0379 8.98039 15.7848 10ZM9.24646 1.17647C8.97564 5.56863 5.49371 9.09804 1.16064 9.37255V1.17647H9.24646ZM1.16064 10.5882C5.49371 10.8627 8.97564 14.3922 9.24646 18.7843H1.16064V10.5882ZM10.4458 18.8235C10.7553 14.4314 14.2372 10.902 18.5703 10.5882V18.8235H10.4458Z" fill="#AC7D2C"/>
<path d="M18.5273 0V20H38.0177V0H18.5273ZM36.8712 9.37255C32.5909 9.09804 29.1515 5.56863 28.8457 1.17647H36.8712V9.37255ZM34.1196 10C31.4062 10.9804 29.2279 13.2157 28.2725 16C27.2789 13.2157 25.1388 10.9804 22.3872 9.96078C25.1005 8.94118 27.2789 6.7451 28.2725 3.92157C29.2279 6.7451 31.4062 8.98039 34.1196 10ZM27.661 1.17647C27.3935 5.56863 23.9541 9.09804 19.6738 9.37255V1.17647H27.661ZM19.6738 10.5882C23.9541 10.8627 27.3935 14.3922 27.661 18.7843H19.6738V10.5882ZM28.8457 18.8235C29.1515 14.4314 32.5909 10.902 36.8712 10.5882V18.8235H28.8457Z" fill="#AC7D2C"/>
<path d="M37.0547 0V20H56.545V0H37.0547ZM55.3985 9.37255C51.1183 9.09804 47.6788 5.56863 47.3731 1.17647H55.3985V9.37255ZM52.6469 10C49.9336 10.9804 47.7553 13.2157 46.7998 16C45.8062 13.2157 43.6661 10.9804 40.9145 9.96078C43.6279 8.94118 45.8062 6.7451 46.7998 3.92157C47.7553 6.7451 49.9336 8.98039 52.6469 10ZM46.1884 1.17647C45.9209 5.56863 42.4814 9.09804 38.2012 9.37255V1.17647H46.1884ZM38.2012 10.5882C42.4814 10.8627 45.9209 14.3922 46.1884 18.7843H38.2012V10.5882ZM47.3731 18.8235C47.6788 14.4314 51.1183 10.902 55.3985 10.5882V18.8235H47.3731Z" fill="#AC7D2C"/>
<path d="M55.3438 0V20H75.0747V0H55.3438ZM73.914 9.37255C69.581 9.09804 66.099 5.56863 65.7895 1.17647H73.914V9.37255ZM71.1285 10C68.3816 10.9804 66.1764 13.2157 65.2092 16C64.2033 13.2157 62.0368 10.9804 59.2513 9.96078C61.9981 8.94118 64.2033 6.7451 65.2092 3.92157C66.1764 6.7451 68.3816 8.98039 71.1285 10ZM64.5902 1.17647C64.3194 5.56863 60.8375 9.09804 56.5044 9.37255V1.17647H64.5902ZM56.5044 10.5882C60.8375 10.8627 64.3194 14.3922 64.5902 18.7843H56.5044V10.5882ZM65.7895 18.8235C66.099 14.4314 69.581 10.902 73.914 10.5882V18.8235H65.7895Z" fill="#AC7D2C"/>
<path d="M73.8711 0V20H93.602V0H73.8711ZM92.4414 9.37255C88.1083 9.09804 84.6264 5.56863 84.3169 1.17647H92.4414V9.37255ZM89.6558 10C86.909 10.9804 84.7038 13.2157 83.7366 16C82.7307 13.2157 80.5641 10.9804 77.7786 9.96078C80.5255 8.94118 82.7307 6.7451 83.7366 3.92157C84.7038 6.7451 86.909 8.98039 89.6558 10ZM83.1176 1.17647C82.8467 5.56863 79.3648 9.09804 75.0317 9.37255V1.17647H83.1176ZM75.0317 10.5882C79.3648 10.8627 82.8467 14.3922 83.1176 18.7843H75.0317V10.5882ZM84.3169 18.8235C84.6264 14.4314 88.1083 10.902 92.4414 10.5882V18.8235H84.3169Z" fill="#AC7D2C"/>
<path d="M92.3984 0V20H112.129V0H92.3984ZM110.969 9.37255C106.636 9.09804 103.154 5.56863 102.844 1.17647H110.969V9.37255ZM108.183 10C105.436 10.9804 103.231 13.2157 102.264 16C101.258 13.2157 99.0915 10.9804 96.3059 9.96078C99.0528 8.94118 101.258 6.7451 102.264 3.92157C103.231 6.7451 105.436 8.98039 108.183 10ZM101.645 1.17647C101.374 5.56863 97.8921 9.09804 93.5591 9.37255V1.17647H101.645ZM93.5591 10.5882C97.8921 10.8627 101.374 14.3922 101.645 18.7843H93.5591V10.5882ZM102.844 18.8235C103.154 14.4314 106.636 10.902 110.969 10.5882V18.8235H102.844Z" fill="#AC7D2C"/>
<path d="M110.926 0V20H130.657V0H110.926ZM129.496 9.37255C125.163 9.09804 121.681 5.56863 121.372 1.17647H129.496V9.37255ZM126.711 10C123.964 10.9804 121.758 13.2157 120.791 16C119.785 13.2157 117.619 10.9804 114.833 9.96078C117.58 8.94118 119.785 6.7451 120.791 3.92157C121.758 6.7451 123.964 8.98039 126.711 10ZM120.172 1.17647C119.901 5.56863 116.419 9.09804 112.086 9.37255V1.17647H120.172ZM112.086 10.5882C116.419 10.8627 119.901 14.3922 120.172 18.7843H112.086V10.5882ZM121.372 18.8235C121.681 14.4314 125.163 10.902 129.496 10.5882V18.8235H121.372Z" fill="#AC7D2C"/>
<path d="M129.453 0V20H148.943V0H129.453ZM147.797 9.37255C143.517 9.09804 140.077 5.56863 139.772 1.17647H147.797V9.37255ZM145.045 10C142.332 10.9804 140.154 13.2157 139.198 16C138.205 13.2157 136.065 10.9804 133.313 9.96078C136.026 8.94118 138.205 6.7451 139.198 3.92157C140.154 6.7451 142.332 8.98039 145.045 10ZM138.587 1.17647C138.319 5.56863 134.88 9.09804 130.6 9.37255V1.17647H138.587ZM130.6 10.5882C134.88 10.8627 138.319 14.3922 138.587 18.7843H130.6V10.5882ZM139.772 18.8235C140.077 14.4314 143.517 10.902 147.797 10.5882V18.8235H139.772Z" fill="#AC7D2C"/>
<path d="M147.98 0V20H167.471V0H147.98ZM166.324 9.37255C162.044 9.09804 158.605 5.56863 158.299 1.17647H166.324V9.37255ZM163.573 10C160.859 10.9804 158.681 13.2157 157.726 16C156.732 13.2157 154.592 10.9804 151.84 9.96078C154.554 8.94118 156.732 6.7451 157.726 3.92157C158.681 6.7451 160.859 8.98039 163.573 10ZM157.114 1.17647C156.847 5.56863 153.407 9.09804 149.127 9.37255V1.17647H157.114ZM149.127 10.5882C153.407 10.8627 156.847 14.3922 157.114 18.7843H149.127V10.5882ZM158.299 18.8235C158.605 14.4314 162.044 10.902 166.324 10.5882V18.8235H158.299Z" fill="#AC7D2C"/>
<path d="M166.27 0V20H186V0H166.27ZM184.84 9.37255C180.507 9.09804 177.025 5.56863 176.715 1.17647H184.84V9.37255ZM182.054 10C179.307 10.9804 177.102 13.2157 176.135 16C175.129 13.2157 172.963 10.9804 170.177 9.96078C172.924 8.94118 175.129 6.7451 176.135 3.92157C177.102 6.7451 179.307 8.98039 182.054 10ZM175.516 1.17647C175.245 5.56863 171.763 9.09804 167.43 9.37255V1.17647H175.516ZM167.43 10.5882C171.763 10.8627 175.245 14.3922 175.516 18.7843H167.43V10.5882ZM176.715 18.8235C177.025 14.4314 180.507 10.902 184.84 10.5882V18.8235H176.715Z" fill="#AC7D2C"/>
</svg>
