<svg xmlns="http://www.w3.org/2000/svg" fill="none" viewBox="0 0 317 317">
  <defs/>
  <path fill="#AC7D2C" d="M213.381-29.9904l11.312 32.43213-11.017 31.62607 6.433 2.257 11.742-33.77561.053-.10746-11.312-32.43213 11.259-32.3247.053-.1075-11.312-32.4052 11.018-31.6262-6.407-2.257-11.769 33.7488-.053.1344 11.312 32.4052-11.259 32.3247-.053.1075zM231.904 217.698l-11.312-32.406 11.018-31.626-6.407-2.257-11.769 33.749-.053.134 11.312 32.406-11.259 32.324-.053.108 11.312 32.432-11.017 31.626 6.433 2.257 11.742-33.776.053-.107-11.312-32.432 11.259-32.325.053-.107zM411.03 84.6368l-.108-.0538-32.356 11.3391-32.248-11.2853-.108-.0538-32.356 11.3391-31.23-10.936-.321-.1075-2.252 6.4488 33.696 11.7686.107.054 32.356-11.339 32.249 11.285.107.054 32.356-11.339 31.23 10.936.295.108 2.252-6.4492-33.669-11.769zM34.3915 103.15l32.356-11.339 32.2487 11.285.1073.054 32.3555-11.339 31.231 10.936.294.108 2.252-6.4492-33.669-11.769-.108-.0538-32.3555 11.3391-32.2488-11.2853-.1072-.0538-32.356 11.3391-31.23014-10.936-.32168-.1075-2.251789 6.4488L34.2842 103.096l.1073.054zM349.239-46.139l-14.905 30.9543L303.587-.325615l-.107.053742L288.575 30.6824l-29.783 14.4023-.321.1344 2.975 6.1532 32.142-15.5308.08-.0538 14.905-30.95426 30.774-14.85914.108-.0537 14.877-30.9543 29.783-14.3755.322-.1612-2.976-6.1532-32.115 15.5308-.107.0538zM96.0745 233.873l14.8775-30.954 30.775-14.886.107-.027 14.878-30.954 29.809-14.403.295-.134-2.949-6.153-32.141 15.531-.107.053-14.878 30.928-30.775 14.886-.107.054-14.8778 30.927-29.8094 14.429-.2948.134 2.9487 6.154L95.9673 233.9l.1072-.027zM331.467 205.821l-14.851-30.82-.054-.108-30.882-14.94-14.502-30.175-6.139 2.983 15.494 32.217.054.081 30.882 14.939 14.824 30.847.054.108 30.881 14.913 14.503 30.148 6.138-2.956-15.548-32.298-30.854-14.939zM82.9928-32.9999L113.848-18.087l14.851 30.8468.053.1074 30.855 14.9129 14.503 30.1751 6.138-2.9557L164.7 22.6748 133.846 7.76195 118.995-23.0849l-.027-.1074-30.8819-14.9129-14.5293-30.1751-6.1388 2.9557 15.5212 32.2172.0536.1075zM142.049-76.932l22.813 25.634 1.93 34.1787.027.1074 22.812 25.63405 1.904 33.45315 6.782-.3761-2.011-35.71031v-.13435L173.467-19.7795l-1.93-34.1787v-.1074l-22.813-25.6341-1.903-33.4263-6.809.376 2.037 35.7105v.1075zM303.239 264.667l-22.813-25.634-1.93-34.179-.027-.134-22.813-25.608-1.903-33.453-6.782.403 2.01 35.684.027.134 22.813 25.607 1.93 34.179v.134l22.839 25.634 1.877 33.427 6.809-.377-2.037-35.71v-.107zM393.042 13.0822l-25.573 22.8664-34.099 1.9346-.107.0269-25.574 22.8664-33.026 1.8809-.349.0268.403 6.7982 35.626-2.0153h.107l25.574-22.8933 34.099-1.9346h.107l25.574-22.8933 33.026-1.854.321-.0269-.375-6.825-35.626 2.0422h-.108zM52.2437 174.652l25.5739-22.866 34.0984-1.935.134-.027 25.547-22.866 33.026-1.881.349-.027-.376-6.798-35.626 2.015-.134.027-25.547 22.866-34.0985 1.935h-.134l-25.5739 22.893-33.0262 1.881h-.3216l.3753 6.825 35.6264-2.042h.1072zM261.394-24.1063l-1.957 34.313-22.035 24.7205-.214.2687 5.066 4.541 23.778-26.6819.08-.1075 1.93-34.2862 22.733-25.5265.08-.1075 1.957-34.2862 22.035-24.7471.215-.242-5.094-4.541-23.751 26.6819-.08.0806-1.93 34.2862-22.759 25.5534-.054.0806zM183.921 211.84l1.93-34.313 22.035-24.721.215-.268-5.067-4.541-23.751 26.682-.08.08-1.957 34.313-22.732 25.527-.081.107-1.957 34.286-22.008 24.748-.241.241 5.093 4.542 23.751-26.682.08-.081 1.957-34.313 22.732-25.527.081-.08zM400.119 157.509l-34.205-1.935-25.494-22.813-.08-.054-34.206-1.961-24.689-22.087-.268-.215-4.531 5.078 26.62 23.834.107.054 34.206 1.961 25.493 22.786.081.081 34.205 1.961 24.689 22.06.242.242 4.53-5.105-26.619-23.807-.081-.08zM45.1685 30.2252l34.2325 1.9615 25.467 22.7858.08.0806 34.232 1.9346 24.663 22.0872.268.215 4.53-5.0785-26.619-23.8068-.08-.0806-34.233-1.9615-25.4665-22.7858-.0804-.0806-34.2325-1.9347L23.2404 1.47425l-.2413-.24183-4.5303 5.1053L45.0881 30.1446l.0804.0806z"/>
  <path fill="#AC7D2C" d="M225.363 33.181l-.187.2687 5.897 3.4394 17.961-30.90056.054-.10748-4.933-33.99056 17.183-29.584.054-.1074-4.933-33.9906 16.648-28.6435.16-.296-5.87-3.439-17.961 30.9006-.054.1075 4.933 33.9906-17.183 29.5839-.054.1075 4.933 33.9906-16.648 28.6703zM219.95 154.58l.161-.296-5.897-3.439-17.934 30.9-.081.108 4.96 33.99-17.21 29.584-.054.081 4.933 34.017-16.648 28.644-.16.295 5.897 3.44 17.934-30.901.054-.107-4.933-33.991 17.21-29.584.054-.107-4.933-33.991 16.647-28.643zM409.234 120.67l-33.911 4.944-29.514-17.224-.107-.08-33.911 4.971-28.577-16.7135-.294-.1613-3.432 5.9118 30.828 18.003.108.053 33.91-4.944 29.515 17.224.107.054 33.911-4.944 28.576 16.686.295.161 3.431-5.884-30.828-18.003-.107-.054zM36.0524 67.0638L69.99 62.1197l29.4877 17.2506.1072.0537 33.9111-4.9441 28.603 16.6863.268.1612 3.431-5.9114L134.97 67.44l-.107-.0807-33.911 4.971-29.4876-17.2506-.1072-.0537-33.9376 4.9441L8.84335 43.2838l-.29487-.1612-3.43129 5.8845L35.972 67.01l.0804.0538zM373.499-19.4301L352.992 8.08484l-32.999 8.75966-.134.0268-20.481 27.5418-32.008 8.4641-.321.0806 1.742 6.5832 34.501-9.109.107-.0268 20.507-27.5418 33.027-8.7328.107-.0537 20.48-27.515 31.981-8.464.322-.0806-1.743-6.6101-34.474 9.109-.107.0537zM71.8131 207.164l20.4805-27.541 33.0264-8.733.134-.027 20.48-27.542 31.981-8.437.322-.107-1.743-6.584-34.473 9.109-.135.027-20.48 27.542-33.0262 8.733-.1072.027-20.5073 27.541-31.9807 8.464-.3217.081 1.7424 6.61 34.5006-9.136.1072-.027zM335.703 245.078l-27.477-20.556-8.712-33.104-.054-.107-27.45-20.529-8.444-32.083-.108-.322-6.567 1.747 9.114 34.581.027.108 27.477 20.555 8.712 33.104.027.108 27.477 20.528 8.418 32.056.08.323 6.594-1.747-9.087-34.555-.027-.107zM109.614-57.3177l27.477 20.5287 8.712 33.10392.027.13436L173.307 16.978l8.444 32.0559.081.3225 6.567-1.7466-9.087-34.5817-.027-.1075-27.477-20.5287-8.712-33.1039-.027-.1075-27.477-20.5555-8.444-32.056-.081-.3224-6.594 1.7465 9.114 34.5818.027.1074zM188.879-25.6377l17.532 29.5302-4.477 33.1845 6.729.9136 4.825-35.54908L195.93-27.0618l4.61-34.0443-17.531-29.5302 4.476-33.1847-6.755-.913-4.798 35.5487 17.531 29.5302-4.584 34.0174zM256.406 213.345l-17.532-29.504 4.477-33.184-6.729-.914-4.825 35.549 17.558 29.504-4.61 34.044 17.531 29.503-4.476 33.212 6.755.913 4.798-35.549-17.531-29.53 4.584-34.044zM375.832 64.6184l-33.964-4.5948-29.461 17.573-32.785-4.4604-.322-.0269-.911 6.7444 35.465 4.8366 29.461-17.5998 33.938 4.6216 29.461-17.573 32.758 4.4604.348.0269.912-6.7713-35.466-4.8097-29.434 17.573zM69.4812 123.115l33.9648 4.595 29.434-17.573 32.785 4.46.321.027.912-6.744-35.466-4.837-29.434 17.6-33.9644-4.622-29.4341 17.573-32.78489-4.433-.34849-.054-.91143 6.771 35.49241 4.81 29.4341-17.573zM283.08-14.5668l-8.445 33.292-26.324 20.0987-.268.215 4.128 5.4277 28.496-21.7378 8.417-33.3188 27.263-20.7974 8.417-33.292 26.325-20.0988.268-.1881-4.128-5.4277-28.469 21.7109-8.418 33.292-27.262 20.8243zM162.234 202.274l8.417-33.292 26.325-20.072.268-.215-4.129-5.427-28.469 21.737-8.417 33.292-27.263 20.825-8.444 33.292-26.3242 20.098-.2681.188 4.1283 5.428 28.496-21.738 8.417-33.292 27.263-20.824zM384.812 190.209l-33.214-8.437-20.695-27.246-.08-.081-33.214-8.464-20.052-26.386-.214-.269-5.415 4.138 21.633 28.456.054.107 33.24 8.437 20.695 27.246.054.081 33.24 8.437 20.025 26.387.188.268 5.415-4.138-21.58-28.455-.08-.081zM60.5013-2.44859L93.7151 5.9886 114.41 33.2348l.081.0806 33.213 8.4372 20.025 26.3864.215.2687 5.415-4.138-21.607-28.4554-.08-.0806-33.214-8.4372L97.763.0503159l-.0537-.1074715L64.4687-8.49434 44.4171-34.8807l-.1876-.2687-5.415 4.138L60.4209-2.55607l.0804.10748z"/>
</svg>