<svg xmlns="http://www.w3.org/2000/svg" fill="none" viewBox="0 0 735 736">
  <defs/>
  <path fill="#154754" d="M352.172 162.998l18.723 53.549-18.235 52.218 10.648 3.727 19.432-55.767.089-.178-18.722-53.549 18.633-53.371.089-.178-18.722-53.5043 18.234-52.21801L371.738 0l-19.477 55.7229-.089.2218 18.723 53.5043-18.634 53.372-.089.177zM382.829 571.959l-18.722-53.505 18.234-52.218-10.603-3.727-19.477 55.723-.089.222 18.723 53.505-18.634 53.371-.089.178 18.723 53.549-18.235 52.218 10.648 3.726 19.432-55.767.089-.177-18.722-53.549 18.633-53.372.089-.177zM679.277 352.261l-.177-.089-53.549 18.722-53.372-18.633-.177-.089-53.549 18.722-51.686-18.057-.532-.177-3.727 10.648 55.767 19.432.178.088 53.549-18.722 53.371 18.634.178.088 53.549-18.722 51.685 18.057.488.177L735 371.693l-55.723-19.432zM55.9447 382.828l53.5493-18.722 53.371 18.634.178.088 53.549-18.722 51.685 18.057.488.177 3.727-10.647-55.723-19.432-.177-.089-53.549 18.722-53.372-18.633-.177-.089-53.5493 18.722-51.68563-18.057-.53238-.177L0 363.308l55.7672 19.432.1775.088zM577.015 136.335l-24.667 51.109-50.887 24.534-.178.089-24.667 51.109-49.29 23.78-.532.222 4.925 10.159 53.194-25.643.133-.089 24.667-51.109 50.931-24.534.178-.088 24.623-51.109 49.289-23.736.533-.266-4.925-10.159-53.149 25.643-.178.088zM158.029 598.666l24.623-51.109 50.931-24.578.178-.045 24.622-51.109 49.335-23.779.488-.222-4.88-10.16-53.195 25.643-.177.089-24.623 51.064-50.931 24.579-.178.089-24.622 51.064-49.335 23.824-.4877.222 4.8807 10.16 53.194-25.688.177-.044zM547.602 552.348l-24.579-50.887-.088-.177-51.109-24.667-24.002-49.823-10.159 4.925 25.643 53.194.088.133 51.109 24.667 24.534 50.932.089.177 51.109 24.623 24.001 49.778 10.16-4.88-25.732-53.328-51.064-24.667zM136.379 158.03l51.065 24.623 24.578 50.931.089.178 51.064 24.622 24.002 49.823 10.16-4.88-25.732-53.372-51.065-24.623-24.578-50.931-.045-.178-51.109-24.622-24.046-49.8227-10.159 4.8807 25.687 53.194.089.177zM234.116 85.4925l37.755 42.3245 3.194 56.433.044.177 37.755 42.325 3.15 55.235 11.225-.622-3.328-58.961v-.222l-37.799-42.324-3.194-56.433v-.178l-37.755-42.3241-3.15-55.1905-11.269.6211 3.372 58.9616v.1774zM500.884 649.509l-37.755-42.325-3.194-56.432-.044-.222-37.755-42.281-3.15-55.234-11.225.665 3.328 58.917.044.222 37.755 42.28 3.194 56.433v.222l37.799 42.324 3.106 55.191 11.269-.621-3.372-58.962v-.177zM649.509 234.116l-42.325 37.755-56.433 3.194-.177.044-42.325 37.755-54.658 3.106-.576.044.665 11.225 58.962-3.328h.177l42.325-37.799 56.432-3.194h.178l42.324-37.799 54.658-3.062.533-.044-.621-11.269-58.962 3.372h-.177zM85.4911 500.885l42.3249-37.754 56.432-3.195.222-.044 42.28-37.755 54.658-3.106.577-.044-.621-11.224-58.961 3.327-.222.044-42.28 37.755-56.433 3.195h-.222l-42.3246 37.799-54.6581 3.105h-.5323l.6211 11.269 58.9615-3.372h.1775zM431.631 172.714l-3.239 56.655-36.468 40.816-.355.444 8.385 7.497 39.352-44.054.133-.178 3.194-56.61 37.622-42.147.133-.177 3.239-56.6107 36.468-40.8605.355-.3993-8.429-7.4977-39.308 44.0548-.133.1331-3.195 56.6103-37.666 42.191-.088.133zM303.415 562.287l3.194-56.655 36.468-40.816.355-.444-8.385-7.497-39.308 44.054-.133.133-3.238 56.655-37.622 42.147-.133.177-3.239 56.611-36.424 40.86-.399.399 8.429 7.498 39.308-44.055.133-.133 3.239-56.654 37.621-42.147.134-.133zM661.221 472.579l-56.61-3.194-42.191-37.666-.134-.089-56.61-3.238-40.86-36.469-.444-.355-7.497 8.385 44.054 39.352.178.089 56.61 3.239 42.191 37.622.133.133 56.611 3.238 40.86 36.424.399.4 7.498-8.43-44.055-39.307-.133-.134zM73.7799 262.421l56.6541 3.239 42.148 37.622.133.133 56.654 3.194 40.816 36.469.444.355 7.498-8.386-44.055-39.307-.133-.133-56.655-3.239-42.147-37.622-.133-.133-56.6545-3.194-40.8604-36.468-.3993-.4-7.4978 8.43 44.0548 39.307.1331.133z"/>
  <path fill="#154754" d="M372.004 267.301l-.311.444 9.761 5.679 29.724-51.02.089-.178-8.163-56.122 28.438-48.846.089-.178-8.164-56.1217 27.551-47.2935.267-.488-9.716-5.67875-29.725 51.02015-.089.1774 8.163 56.1224-28.438 48.846-.089.178 8.164 56.122-27.551 47.337zM363.042 467.743l.266-.488-9.761-5.678-29.68 51.02-.133.177 8.207 56.122-28.482 48.847-.089.133 8.163 56.166-27.55 47.294-.267.488 9.761 5.678 29.68-51.02.089-.177-8.163-56.122 28.482-48.846.089-.178-8.163-56.122 27.551-47.294zM676.304 411.755l-56.122 8.163-48.846-28.438-.177-.133-56.123 8.207-47.293-27.595-.488-.266-5.679 9.76 51.02 29.725.178.089 56.122-8.163 48.846 28.438.178.088 56.122-8.163 47.293 27.551.488.266 5.679-9.716-51.02-29.724-.178-.089zM58.6956 323.245l56.1664-8.163 48.802 28.483.178.088 56.122-8.163 47.337 27.551.444.266 5.679-9.76-51.02-29.681-.178-.133-56.122 8.208-48.802-28.483-.177-.088-56.1667 8.163-47.2935-27.551-.488-.266-5.67875 9.716 51.06455 29.725.133.088zM617.166 180.434l-33.94 45.43-54.614 14.463-.222.045-33.895 45.474-52.972 13.975-.532.134 2.883 10.869 57.099-15.04.177-.044 33.94-45.475 54.658-14.418.177-.089 33.895-45.43 52.928-13.975.533-.133-2.884-10.914-57.054 15.04-.177.088zM117.879 554.567l33.895-45.475 54.658-14.418.222-.045 33.895-45.474 52.928-13.931.532-.177-2.884-10.87-57.054 15.04-.221.044-33.896 45.475-54.658 14.419-.177.044-33.94 45.474-52.9274 13.976-.5324.133 2.8838 10.914 57.098-15.085.178-.044zM554.611 617.166l-45.474-33.939-14.419-54.658-.089-.178-45.43-33.895-13.975-52.972-.178-.532-10.869 2.883 15.084 57.099.045.177 45.474 33.94 14.419 54.658.044.177 45.475 33.895 13.93 52.928.133.532 10.914-2.883-15.04-57.054-.044-.178zM180.434 117.879l45.475 33.895 14.418 54.658.045.222 45.474 33.895 13.975 52.928.133.532 10.87-2.884-15.04-57.098-.044-.177-45.475-33.896-14.418-54.658-.045-.177-45.474-33.94-13.975-52.9274-.133-.5324-10.914 2.8838 15.084 57.098.044.178zM311.622 170.185l29.015 48.758-7.409 54.791 11.136 1.508 7.986-58.695-29.06-48.713 7.631-56.211-29.015-48.7575 7.409-54.79116-11.18-1.50842-7.941 58.69538 29.015 48.7577-7.587 56.166zM423.378 564.771l-29.015-48.713 7.409-54.791-11.135-1.509-7.986 58.696 29.059 48.713-7.631 56.211 29.015 48.713-7.409 54.835 11.18 1.509 7.942-58.695-29.015-48.758 7.586-56.211zM621.025 319.208l-56.211-7.586-48.757 29.015-54.259-7.365-.532-.044-1.509 11.135 58.696 7.986 48.757-29.059 56.167 7.631 48.757-29.015 54.215 7.364.576.045 1.509-11.18-58.696-7.942-48.713 29.015zM114.019 415.792l56.211 7.586 48.713-29.015 54.259 7.365.532.044 1.509-11.135-58.696-7.986-48.713 29.059-56.211-7.631-48.7128 29.015-54.25887-7.32-.57675-.089-1.50842 11.18 58.73974 7.942 48.7131-29.015zM467.521 188.465l-13.975 54.968-43.566 33.185-.444.355 6.832 8.962 47.161-35.891 13.93-55.013 45.12-34.339 13.93-54.969 43.567-33.185.444-.3106-6.832-8.9618-47.116 35.8472-13.931 54.9682-45.12 34.384zM267.523 546.493l13.931-54.969 43.567-33.141.443-.355-6.832-8.962-47.116 35.892-13.93 54.969-45.12 34.383-13.975 54.968-43.567 33.186-.444.31 6.833 8.962 47.16-35.892 13.931-54.968 45.119-34.383zM635.888 526.572l-54.969-13.93-34.25-44.987-.133-.133-54.969-13.975-33.185-43.567-.355-.443-8.962 6.832 35.803 46.983.089.177 55.013 13.931 34.25 44.986.089.133 55.013 13.931 33.141 43.567.31.444 8.962-6.833-35.714-46.983-.133-.133zM99.156 208.473l54.969 13.931 34.25 44.986.133.133 54.968 13.931 33.141 43.567.355.443 8.962-6.832-35.758-46.983-.134-.133-54.968-13.931-34.25-44.986-.089-.177-55.013-13.931-33.1852-43.567-.3106-.444-8.9618 6.833 35.7585 46.983.1331.177z"/>
</svg>