<svg xmlns="http://www.w3.org/2000/svg" fill="none" viewBox="0 0 66 120">
  <defs/>
  <path fill="#154754" d="M2.49609 26.6119l3.05668 8.7427-2.977 8.5253 1.7384.6085 3.17256-9.1049.01449-.0289-3.05667-8.7427 3.04218-8.7137.01449-.029-3.05667-8.73539 2.977-8.525372L5.6904 0 2.51058 9.09759l-.01449.03622 3.05668 8.73539-3.04219 8.7137-.01449.029zM7.50122 93.381l-3.05667-8.7355 2.977-8.5253-1.73115-.6085-3.17982 9.0976-.01449.0362 3.05668 8.7355-3.04219 8.714-.01449.029 3.05668 8.742-2.977 8.526 1.7384.608 3.17256-9.105.01449-.029-3.05667-8.742 3.04218-8.7141.01449-.0289zM55.9025 57.512l-.029-.0144-8.7426 3.0566-8.7137-3.0422-.029-.0144-8.7427 3.0566-8.4384-2.948-.0869-.029-.6085 1.7384 9.1049 3.1726.0289.0145 8.7427-3.0567 8.7137 3.0422.029.0145 8.7426-3.0567 8.4385 2.948.0797.029.6084-1.7384-9.0976-3.1726zM39.2055 22.2587l-4.0272 8.3443-8.3081 4.0056-.029.0144-4.0273 8.3443-8.0473 3.8824-.0869.0363.804 1.6587 8.6847-4.1867.0218-.0144 4.0272-8.3443 8.3154-4.0056.0289-.0145 4.0201-8.3442 8.0473-3.8752.0869-.0435-.804-1.6587-8.6775 4.1866-.029.0145zM34.4059 90.1792l-4.0128-8.3081-.0144-.0289-8.3443-4.0273-3.9187-8.1342-1.6587.804 4.1867 8.6847.0144.0217 8.3443 4.0273 4.0056 8.3153.0145.029 8.3442 4.02 3.9187 8.1273 1.6587-.797-4.2011-8.7065-8.3371-4.0273zM26.7779 106.042l-6.164-6.9101-.5216-9.2135-.0072-.0362-6.1641-6.9029-.5142-9.0179-1.8326.1087.5433 9.6191.0072.0362 6.1641 6.9029.5215 9.2135v.0362l6.1713 6.91.507 9.011 1.8398-.102-.5505-9.626v-.029zM51.0415 38.2229l-6.9101 6.164-9.2135.5215-.0289.0073-6.9102 6.164-8.9237.507-.0942.0073.1087 1.8325 9.6263-.5432h.029l6.9101-6.1713 9.2135-.5215h.029l6.9101-6.1713 8.9237-.4998.087-.0072-.1015-1.8398-9.6263.5505h-.029zM15.4704 28.1984l-.5288 9.2497-5.95397 6.6639-.05794.0724 1.36901 1.2241 6.4248-7.1926.0217-.0289.5215-9.2425 6.1424-6.8811.0217-.029.5287-9.2425 5.954-6.67105.058-.06519-1.3762-1.22412-6.4176 7.19256-.0217.0218-.5216 9.2424-6.1495 6.8884-.0145.0217zM-5.46432 91.8014l.52152-9.2497 5.95399-6.6638.05795-.0725-1.368988-1.2241-6.417562 7.1926-.02173.0217-.52876 9.2497-6.1423 6.8812-.0218.0289-.5287 9.2426-5.9468 6.671-.0652.065 1.3763 1.224 6.4175-7.192.0218-.022.5287-9.2497 6.14235-6.8812.02173-.0217zM52.9564 77.1555l-9.2425-.5215-6.8883-6.1496-.0218-.0145-9.2424-.5288-6.6711-5.954-.0724-.0579-1.2241 1.369 7.1925 6.4248.029.0145 9.2425.5287 6.8884 6.1424.0217.0217 9.2424.5287 6.6711 5.9468.0652.0652 1.2241-1.3762-7.1926-6.4176-.0217-.0217z"/>
  <path fill="#154754" d="M5.7343 43.6409l-.05071.0724 1.59353.9272 4.85298-8.3298.0145-.029-1.3327-9.1628 4.6429-7.9748.0145-.029-1.3328-9.1628 4.4981-7.72136.0435-.07968-1.5863-.92714-4.853 8.3298-.0145.02897 1.3328 9.16281-4.64299 7.9748-.01449.029 1.33278 9.1628-4.4981 7.7286zM4.27134 76.3657l.04346-.0797-1.59352-.9271-4.84578 8.3298-.02173.029 1.340015 9.1627-4.650205 7.9746-.01449.022 1.33278 9.17-4.4981 7.721-.04346.08 1.59353.927 4.84577-8.33.01449-.029-1.33277-9.162 4.6502-7.9752.01449-.029-1.332769-9.1627 4.498089-7.7214zM55.417 67.2248l-9.1628 1.3328-7.9749-4.643-.029-.0217-9.1627 1.34-7.7214-4.5054-.0797-.0434-.9271 1.5935 8.3298 4.853.0289.0145 9.1628-1.3328 7.9749 4.643.029.0145 9.1628-1.3328 7.7213 4.4981.0797.0435.9271-1.5863-8.3298-4.853-.0289-.0145zM45.7593 29.4587l-5.5412 7.4172-8.9165 2.3613-.0362.0072-5.5339 7.4244-8.6485 2.2817-.0869.0217.4708 1.7746 9.3221-2.4555.029-.0072 5.5411-7.4244 8.9238-2.3541.029-.0145 5.5339-7.4171 8.6412-2.2816.0869-.0218-.4708-1.7818-9.3149 2.4555-.0289.0144zM35.5492 100.761l-7.4244-5.5409-2.354-8.9238-.0145-.029-7.4172-5.5338-2.2816-8.6485-.029-.087-1.7746.4709 2.4627 9.3221.0073.029 7.4244 5.5411 2.354 8.9237.0073.029 7.4244 5.5342 2.2744 8.641.0217.087 1.7818-.471-2.4554-9.315-.0073-.029zM-4.12258 27.7851l4.737118 7.9604-1.20963 8.9455 1.818072.2462 1.30379-9.5829-4.74436-7.9531 1.245843-9.1773-4.737113-7.9604 1.20963-8.94545-1.82532-.24627-1.29654 9.58292 4.73711 7.9604-1.2386 9.17zM14.122 92.2074l-4.73711-7.9531 1.20961-8.9455-1.81805-.2463-1.30379 9.5829 4.74434 7.9531-1.2458 9.1775 4.7371 7.953-1.2096 8.953 1.8253.246 1.2965-9.583-4.7371-7.96 1.2386-9.1776zM46.3919 52.1155l-9.1773-1.2386-7.9603 4.7372-8.8586-1.2024-.0869-.0073-.2463 1.8181 9.5829 1.3038 7.9604-4.7444 9.17 1.2459 7.9604-4.7372 8.8513 1.2024.0942.0073.2462-1.8253-9.5828-1.2966-7.9532 4.7371zM21.3303 30.7697l-2.2817 8.9745-7.1129 5.4179-.0724.058 1.1155 1.4631 7.6996-5.8598 2.2744-8.9817 7.3664-5.6063 2.2744-8.9745 7.1129-5.4179.0725-.0508-1.1155-1.4631-7.6924 5.8526-2.2744 8.9744-7.3664 5.6136zM48.818 85.9706l-8.9745-2.2744-5.5918-7.3447-.0218-.0217-8.9744-2.2817-5.418-7.1129-.0579-.0724-1.4632 1.1155 5.8454 7.6706.0144.029 8.9817 2.2744 5.5919 7.3447.0145.0217 8.9817 2.2744 5.4107 7.1129.0507.0725 1.4632-1.1155-5.8309-7.6707-.0217-.0217z"/>
</svg>