<svg xmlns="http://www.w3.org/2000/svg" fill="none" viewBox="0 0 34 34">
  <defs/>
  <path fill="#BB5245" d="M0 0v34h34V0H0zm32 15.9333C24.5333 15.4667 18.5333 9.46667 18 2h14v13.9333zM27.2 17c-4.7333 1.6667-8.5333 5.4667-10.2 10.2-1.7333-4.7333-5.4667-8.5333-10.26667-10.2667C11.4667 15.2 15.2667 11.4667 17 6.66667 18.6667 11.4667 22.4667 15.2667 27.2 17zM15.9333 2C15.4667 9.46667 9.46667 15.4667 2 15.9333V2h13.9333zM2 18c7.46667.4667 13.4667 6.4667 13.9333 13.9333H2V18zm16 14c.5333-7.4667 6.5333-13.4667 14-14v14H18z"/>
</svg>