<svg width="64" height="64" viewBox="0 0 64 64" fill="none" xmlns="http://www.w3.org/2000/svg">
<path d="M0 0V64H64V0H0ZM9.55599 24.3451C13.4538 28.2353 18.3576 30.6196 22.5069 32C18.3576 33.3804 13.4538 35.6392 9.55599 39.6549C6.91552 42.2902 5.15521 45.1765 3.7721 48.0627V15.9373C5.15521 18.8235 7.04126 21.8353 9.55599 24.3451ZM4.14931 4.14118C8.04715 4.76863 16.0943 6.65098 21.7525 12.298C27.4106 17.9451 29.2967 25.9765 29.9253 29.8667C26.0275 29.2392 17.9804 27.3569 12.3222 21.7098C6.53831 16.0627 4.778 8.03137 4.14931 4.14118ZM29.9253 34.1333C29.2967 38.0235 27.5363 46.0549 21.7525 51.702C16.0943 57.349 8.04715 59.2314 4.14931 59.8588C4.778 55.9686 6.53831 47.9373 12.3222 42.2902C17.9804 36.5177 26.0275 34.6353 29.9253 34.1333ZM24.3929 54.3373C28.2908 50.4471 30.6798 45.5529 32.0629 41.4118C33.446 45.5529 35.7092 50.4471 39.7328 54.3373C42.3733 56.9726 45.2652 58.7294 48.1572 60.1098H15.9686C18.8605 58.8549 21.8782 56.9726 24.3929 54.3373ZM34.2004 29.8667C34.8291 25.9765 36.5894 17.9451 42.3733 12.298C48.0314 6.65098 56.0786 4.76863 59.9764 4.14118C59.3477 8.03137 57.5874 16.0627 51.8035 21.7098C46.1454 27.3569 38.0982 29.2392 34.2004 29.8667ZM34.2004 34.1333C38.0982 34.7608 46.1454 36.5177 51.8035 42.2902C57.4617 47.9373 59.3477 55.9686 59.9764 59.8588C56.0786 59.2314 48.0314 57.349 42.3733 51.702C36.5894 46.0549 34.7033 38.0235 34.2004 34.1333ZM54.444 39.5294C50.5462 35.6392 45.6424 33.2549 41.4931 31.8745C45.6424 30.4941 50.5462 28.2353 54.444 24.2196C57.0845 21.5843 58.8448 18.698 60.2279 15.8118V47.9373C58.9705 45.051 57.0845 42.1647 54.444 39.5294ZM39.6071 9.53726C35.7092 13.4275 33.3202 18.3216 31.9371 22.4627C30.554 18.3216 28.2908 13.4275 24.2672 9.53726C21.8782 7.02745 18.8605 5.1451 15.9686 3.76471H48.1572C45.2652 5.1451 42.2475 7.02745 39.6071 9.53726Z" fill="#154754"/>
</svg>
