<svg xmlns="http://www.w3.org/2000/svg" fill="none" viewBox="0 0 48 48">
  <defs/>
  <path fill="#154754" d="M0 0v48h48V0H0zm7.16699 18.2588C10.0904 21.1765 13.7682 22.9647 16.8802 24c-3.112 1.0353-6.7898 2.7294-9.71321 5.7412-1.98035 1.9764-3.30059 4.1412-4.33791 6.3059V11.9529c1.03732 2.1647 2.45186 4.4236 4.33791 6.3059zM3.11198 3.10588c2.92338.47059 8.95872 1.88236 13.20232 6.11765C20.558 13.4588 21.9725 19.4824 22.444 22.4c-2.9234-.4706-8.9587-1.8824-13.20235-6.1176C4.90373 12.0471 3.5835 6.02353 3.11198 3.10588zM22.444 25.6c-.4715 2.9176-1.7917 8.9412-6.1297 13.1765-4.2436 4.2353-10.27894 5.647-13.20232 6.1176.47152-2.9176 1.79175-8.9412 6.12967-13.1765C13.4853 27.3882 19.5206 25.9765 22.444 25.6zm-4.1493 15.1529c2.9234-2.9176 4.7151-6.5882 5.7524-9.6941 1.0374 3.1059 2.7348 6.7765 5.7525 9.6941 1.9804 1.9765 4.1493 3.2942 6.3183 4.3295H11.9764c2.169-.9412 4.4322-2.353 6.3183-4.3295zM25.6503 22.4c.4715-2.9176 1.7917-8.9412 6.1297-13.17647 4.2436-4.23529 10.2789-5.64706 13.2023-6.11765-.4715 2.91765-1.7917 8.94122-6.1296 13.17652-4.2437 4.2352-10.279 5.647-13.2024 6.1176zm0 3.2c2.9234.4706 8.9587 1.7882 13.2024 6.1176 4.2436 4.2353 5.6581 10.2589 6.1296 13.1765-2.9234-.4706-8.9587-1.8823-13.2023-6.1176-4.338-4.2353-5.7525-10.2589-6.1297-13.1765zm15.1827 4.0471c-2.9234-2.9177-6.6012-4.7059-9.7132-5.7412 3.112-1.0353 6.7898-2.7294 9.7132-5.7412 1.9804-1.9765 3.3006-4.1412 4.3379-6.3059v24.0941c-.943-2.1647-2.3575-4.3294-4.3379-6.3058zM29.7053 7.15294c-2.9234 2.91766-4.7151 6.58826-5.7525 9.69416-1.0373-3.1059-2.7347-6.7765-5.7524-9.69416-1.7918-1.88235-4.055-3.29412-6.224-4.32941h24.1415c-2.169 1.03529-4.4322 2.44706-6.4126 4.32941z"/>
</svg>