<svg xmlns="http://www.w3.org/2000/svg" fill="none" viewBox="0 0 48 48">
  <defs/>
  <path fill="#AC7D2C" d="M0 0v48h48V0H0zm39.06 45.1733c-3.3733 0-6.1133-2.7466-6.1133-6.1133s2.7466-6.1133 6.1133-6.1133c3.3733 0 6.1133 2.7466 6.1133 6.1133s-2.74 6.1133-6.1133 6.1133zM8.94 2.82667c3.3733 0 6.1133 2.74666 6.1133 6.11333 0 3.3733-2.7466 6.1133-6.1133 6.1133-3.37333 0-6.11333-2.7466-6.11333-6.1133 0-3.37333 2.74-6.11333 6.11333-6.11333zM45.1733 8.94c0 3.3733-2.7466 6.1133-6.1133 6.1133-3.3733 0-6.1133-2.7466-6.1133-6.1133 0-3.37333 2.7466-6.11333 6.1133-6.11333 3.3733 0 6.1133 2.74 6.1133 6.11333zM31.5267 19.1933c-.7-1.0933-1.6267-2.02-2.7267-2.7266 1.0933-.7 2.02-1.6267 2.7267-2.7267.7 1.0933 1.6266 2.02 2.7266 2.7267-1.0933.7066-2.0266 1.6333-2.7266 2.7266zm2.7266 12.3334c-1.0933.7-2.0266 1.6333-2.7266 2.7266-.7-1.0933-1.6334-2.02-2.7267-2.7266 1.0933-.7 2.0267-1.6334 2.7267-2.7267.7 1.1 1.6333 2.0267 2.7266 2.7267zM24 30.1133c-3.3733 0-6.1133-2.7466-6.1133-6.1133S20.6333 17.8867 24 17.8867 30.1133 20.6333 30.1133 24s-2.74 6.1133-6.1133 6.1133zm-7.5267 4.14c-.7-1.0933-1.6333-2.02-2.7266-2.7266 1.0933-.7 2.02-1.6334 2.7266-2.7267.7 1.0933 1.6334 2.02 2.7267 2.7267-1.1.7-2.0267 1.6333-2.7267 2.7266zm-2.7266-17.78c1.0933-.7 2.02-1.6266 2.7266-2.7266.7 1.0933 1.6334 2.02 2.7267 2.7266-1.0933.7-2.02 1.6334-2.7267 2.7267-.7-1.1-1.6333-2.0267-2.7266-2.7267zM31.5267 4.14c-.3-.46667-.64-.90667-1.02-1.31333h2.0466c-.38.40666-.7266.84-1.0266 1.31333zm-1.4134 4.8c0 3.3733-2.7466 6.1133-6.1133 6.1133s-6.1133-2.7466-6.1133-6.1133c0-3.37333 2.7466-6.11333 6.1133-6.11333s6.1133 2.74 6.1133 6.11333zm-13.64-4.8c-.3-.46667-.64-.90667-1.0266-1.31333h2.0466c-.38.40666-.72.84-1.02 1.31333zM4.14 16.4733c-.46667.3-.90667.64-1.31333 1.02v-2.0466c.40666.38.84.7266 1.31333 1.0266zm4.8 1.4134c3.3733 0 6.1133 2.7466 6.1133 6.1133s-2.7466 6.1133-6.1133 6.1133c-3.37333 0-6.11333-2.7466-6.11333-6.1133s2.74-6.1133 6.11333-6.1133zm-4.8 13.64c-.46667.3-.90667.64-1.31333 1.02V30.5c.40666.3867.84.7267 1.31333 1.0267zM2.82667 39.06c0-3.3733 2.74666-6.1133 6.11333-6.1133 3.3733 0 6.1133 2.7466 6.1133 6.1133s-2.7466 6.1133-6.1133 6.1133c-3.37333 0-6.11333-2.74-6.11333-6.1133zm13.64663 4.8c.3.4667.6467.9067 1.0267 1.3133h-2.0467c.3734-.4066.72-.84 1.02-1.3133zm1.4134-4.8c0-3.3733 2.7466-6.1133 6.1133-6.1133s6.1133 2.7466 6.1133 6.1133S27.3667 45.1733 24 45.1733s-6.1133-2.74-6.1133-6.1133zm13.64 4.8c.3.4667.64.9067 1.02 1.3133H30.5c.3867-.4066.7267-.84 1.0267-1.3133zM43.86 31.5267c.4667-.3.9067-.64 1.3133-1.02v2.0466c-.4066-.38-.84-.7266-1.3133-1.0266zm-4.8-1.4134c-3.3733 0-6.1133-2.7466-6.1133-6.1133s2.7466-6.1133 6.1133-6.1133c3.3733 0 6.1133 2.7466 6.1133 6.1133s-2.74 6.1133-6.1133 6.1133zm4.8-13.64c.4667-.3.9067-.64 1.3133-1.02V17.5c-.4066-.3867-.84-.7267-1.3133-1.0267z"/>
</svg>