<svg xmlns="http://www.w3.org/2000/svg" width="64" height="64" fill="none">
  <path fill="#18A0FB" d="M40.1511 0H0v64h64V0H40.1511zm20.08 3.76889V20.08H43.92V3.76889h16.3111zm-20.08 0V21.1822L32 29.3333l-8.1511-8.1511V3.76889h16.3022zm-36.38221 0H20.08V20.08H3.76889V3.76889zm0 20.08001H21.1822L29.3333 32l-8.1511 8.1511H3.76889V23.8489zm0 36.3822V43.92H20.08v16.3111H3.76889zm20.08001 0V42.8178L32 34.6667l8.1511 8.1511v17.4133H23.8489zm36.3822 0H43.92V43.92h16.3111v16.3111zm0-20.08H42.8178L34.6667 32l8.1511-8.1511h17.4133v16.3022z"/>
</svg>