<svg xmlns="http://www.w3.org/2000/svg" fill="none" viewBox="0 0 34 34">
  <defs/>
  <path fill="#ADC7CF" d="M21.3303 0H0v34h34V0H21.3303zm10.6675 2.00222v8.66528h-8.6653V2.00222h8.6653zm-10.6675 0v9.25088L17 15.5833l-4.3303-4.3302V2.00222h8.6606zm-19.32808 0h8.66528v8.66528H2.00222V2.00222zm0 10.66748h9.25088L15.5833 17l-4.3302 4.3303H2.00222v-8.6606zm0 19.3281v-8.6653h8.66528v8.6653H2.00222zm10.66748 0v-9.2509L17 18.4167l4.3303 4.3302v9.2509h-8.6606zm19.3281 0h-8.6653v-8.6653h8.6653v8.6653zm0-10.6675h-9.2509L18.4167 17l4.3302-4.3303h9.2509v8.6606z"/>
</svg>