<svg width="65" height="112" viewBox="0 0 65 112" fill="none" xmlns="http://www.w3.org/2000/svg">
<path d="M8.85134 32.9229L6.19627 40.5341L9.85436 41.7928L12.9618 32.9229L10.1494 24.8987L12.9618 16.8745L10.1494 8.86991L12.8044 1.27837L9.16601 0L6.05859 8.86991L8.85134 16.8745L6.05859 24.8987L8.85134 32.9229Z" fill="#AC7D2C"/>
<path d="M10.1494 78.0981L12.8044 70.4869L9.16601 69.2085L6.05859 78.0981L8.85134 86.1026L6.05859 94.1072L8.85134 102.131L6.19627 109.743L9.85436 111.001L12.9618 102.131L10.1494 94.1072L12.9618 86.1026L10.1494 78.0981Z" fill="#AC7D2C"/>
<path d="M56.2086 52.0787L56.13 52.0591L48.1254 54.8518L40.1995 52.0787L40.1208 52.0591L32.0966 54.8518L24.4854 52.1968L23.207 55.8549L32.0179 58.9229L32.0966 58.9623L40.1208 56.1499L48.0467 58.9229L48.1254 58.9623L56.13 56.1499L63.7412 58.8049L64.9999 55.1665L56.2086 52.0787Z" fill="#AC7D2C"/>
<path d="M28.7125 31.4279L25.015 39.0784L17.9742 42.4612L17.7578 42.5792L19.4295 46.0603L27.8274 42.0088L27.9061 41.9695L31.6035 34.319L39.1754 30.6609L39.2541 30.6412L42.9319 22.9906L49.9727 19.6079L50.1891 19.4899L48.4977 16.0088L40.1194 20.0602L40.0408 20.0996L36.3433 27.7304L28.7911 31.3885L28.7125 31.4279Z" fill="#AC7D2C"/>
<path d="M-9.69528 79.5738L-5.99784 71.9429L1.02336 68.5405L1.25937 68.4422L-0.432014 64.9414L-8.82992 68.9929L-8.90858 69.0322L-12.5864 76.6827L-20.1582 80.3212L-20.2369 80.3605L-23.9147 88.011L-30.9555 91.4135L-31.1719 91.5118L-29.5002 94.9929L-21.1023 90.9415L-21.0236 90.9021L-17.3262 83.2516L-9.75428 79.6131L-9.69528 79.5738Z" fill="#AC7D2C"/>
<path d="M37.2673 82.3462L33.6289 74.794L33.5896 74.7154L25.939 71.0179L22.4383 63.7607L18.9375 65.4325L23.0086 73.8304L23.0283 73.909L30.6788 77.6065L34.3369 85.1783L34.3763 85.257L42.0071 88.9348L45.5079 96.192L48.989 94.5006L44.9179 86.0437L37.2673 82.3462Z" fill="#AC7D2C"/>
<path d="M-25.9014 24.9774L-18.2509 28.6748L-14.5928 36.2467L-14.5534 36.3057L-6.92254 40.0031L-3.42178 47.2603L0.0593166 45.5689L-3.99213 37.171L-4.03146 37.0924L-11.6623 33.4146L-15.3204 25.8427L-15.3598 25.7641L-22.9907 22.0863L-26.5111 14.8291L-29.9922 16.5008L-25.9407 24.8987L-25.9014 24.9774Z" fill="#AC7D2C"/>
<path d="M-5.87918 20.081L-5.3875 28.5379L0.256989 34.8904L0.709334 42.9343L4.58377 42.7179L4.05276 33.317L-1.6114 26.9842L-2.08341 18.5076L-7.7279 12.1747L-8.19992 4.13086L-12.0547 4.3472L-11.5237 13.7481L-5.87918 20.081Z" fill="#AC7D2C"/>
<path d="M24.8847 90.9215L24.393 82.4449L18.7485 76.1121L18.2962 68.0879L14.4414 68.3042L14.9724 77.6855L20.6169 84.0183L21.0889 92.4949L26.7531 98.8277L27.2054 106.872L31.0799 106.655L30.5292 97.2544L24.8847 90.9215Z" fill="#AC7D2C"/>
<path d="M36.5454 40.5928L36.4667 40.6125L30.1339 46.257L22.0703 46.7093L22.3063 50.5838L31.6089 50.0528H31.7072L38.0401 44.3886L46.4183 43.9166H46.5167L52.8298 38.2721L60.8737 37.8001L60.6574 33.9453L51.3548 34.4763H51.2565L44.9433 40.1208L36.5454 40.5928Z" fill="#AC7D2C"/>
<path d="M15.0708 42.9729L21.2856 36.0107L21.3446 35.9517L21.8166 27.4751L27.4218 21.2013L27.4808 21.1423L27.9528 12.6854L33.322 6.66722L30.4309 4.09082L24.216 11.053L24.157 11.112L23.685 19.5689L18.0995 25.8427L18.0405 25.9017L17.5488 34.3783L12.1797 40.3965L15.0708 42.9729Z" fill="#AC7D2C"/>
<path d="M3.93073 68.0293L-2.26444 74.9915L-2.32345 75.0505L-2.81513 83.5074L-8.40061 89.7812L-8.45962 89.8402L-8.93163 98.3168L-14.3008 104.335L-11.4294 106.911L-5.21453 99.9688L-5.15552 99.8902L-4.66384 91.4136L0.921648 85.1398L0.980647 85.0808L1.45266 76.6239L6.82181 70.6057L3.93073 68.0293Z" fill="#AC7D2C"/>
<path d="M53.9079 70.1718L45.4314 69.6801L39.1575 64.0946L39.0985 64.0356L30.6219 63.544L24.6038 58.1748L22.0273 61.0659L28.9895 67.2807L29.0485 67.3397L37.5251 67.8117L43.799 73.4169L43.858 73.4759L52.3345 73.9479L58.156 79.1401L58.3331 79.3171L60.9095 76.426L53.9669 70.2308L53.9079 70.1718Z" fill="#AC7D2C"/>
</svg>
