<svg xmlns="http://www.w3.org/2000/svg" fill="none" viewBox="0 0 36 104">
  <defs/>
  <path fill="#154754" d="M0 0V36.0834l.0211358-.002H35.9789l.0211.002V0H0zm5.39539 13.7527c2.22118 2.2283 4.94771 3.5302 7.29381 4.2909-2.3442.7607-5.07071 2.0646-7.29381 4.2909-1.44876 1.454-2.50555 3.1218-3.27605 4.7588V8.99195c.7705 1.63895 1.82729 3.30675 3.27605 4.76075zM2.31533 2.32454c2.17698.33511 6.72118 1.39049 9.90887 4.58553 3.1876 3.19503 4.2406 7.74973 4.573 9.93183-2.177-.3351-6.7212-1.3905-9.90886-4.5856C3.7026 9.05936 2.64966 4.50657 2.31533 2.32454zM16.801 19.2473c-.3305 2.1782-1.3776 6.7252-4.5768 9.9318-3.18769 3.195-7.73381 4.2504-9.91079 4.5836.33048-2.1782 1.37767-6.7252 4.57493-9.9318 3.18956-3.1951 7.73566-4.2504 9.91266-4.5836zm-3.0839 11.4282c2.2231-2.2283 3.522-4.9611 4.281-7.3107.7609 2.3515 2.0598 5.0844 4.2829 7.3107 1.4487 1.4521 3.1127 2.5094 4.7459 3.2817H8.9731c1.6313-.7723 3.2953-1.8296 4.744-3.2817zm5.4819-13.8356c.3305-2.1781 1.3776-6.7252 4.5768-9.93175 3.1877-3.19505 7.7338-4.25043 9.9108-4.58553-.3305 2.17817-1.3777 6.72518-4.5769 9.93178-3.1895 3.197-7.7357 4.2524-9.9107 4.5855zm.0019 2.4055c2.1731.3312 6.7096 1.3808 9.9088 4.5855 3.1877 3.195 4.2406 7.7497 4.575 9.9318-2.177-.3351-6.7212-1.3905-9.9089-4.5836-3.1895-3.197-4.2425-7.7536-4.5749-9.9337zm11.4018 3.0891c-2.2212-2.2263-4.9477-3.5302-7.2919-4.2909 2.3442-.7626 5.0707-2.0645 7.2919-4.2909 1.4507-1.454 2.5055-3.1218 3.276-4.75882V27.0953c-.7705-1.639-1.8253-3.3087-3.276-4.7608zM22.281 5.41173c-2.2231 2.22825-3.522 4.96107-4.2829 7.31257-.759-2.3515-2.0598-5.08432-4.281-7.31257-1.4526-1.45596-3.1185-2.51327-4.75361-3.28748H27.0365c-1.6371.77421-3.3029 1.83152-4.7555 3.28748z"/>
  <path fill="#154754" d="M0 33.9567V70.04l.0211358-.0019H35.9789L36 70.04V33.9567H0zm5.39539 13.7527c2.22118 2.2283 4.94771 3.5302 7.29381 4.2909-2.3442.7607-5.07071 2.0645-7.29381 4.2908-1.44876 1.4541-2.50555 3.1219-3.27605 4.7589V42.9486c.7705 1.6389 1.82729 3.3068 3.27605 4.7608zM2.31533 36.2812c2.17698.3351 6.72118 1.3905 9.90887 4.5855 3.1876 3.1951 4.2406 7.7498 4.573 9.9318-2.177-.3351-6.7212-1.3905-9.90886-4.5855-3.18574-3.195-4.23868-7.7498-4.57301-9.9318zM16.801 53.204c-.3305 2.1781-1.3776 6.7251-4.5768 9.9317-3.18769 3.1951-7.73381 4.2505-9.91079 4.5836.33048-2.1781 1.37767-6.7251 4.57493-9.9317 3.18956-3.1951 7.73566-4.2505 9.91266-4.5836zm-3.0839 11.4282c2.2231-2.2283 3.522-4.9611 4.281-7.3107.7609 2.3515 2.0598 5.0843 4.2829 7.3107 1.4487 1.4521 3.1127 2.5094 4.7459 3.2836H8.9731c1.6313-.7742 3.2953-1.8315 4.744-3.2836zm5.4819-13.8356c.3305-2.1782 1.3776-6.7252 4.5768-9.9318 3.1877-3.195 7.7338-4.2504 9.9108-4.5855-.3305 2.1782-1.3777 6.7252-4.5769 9.9318-3.1895 3.1969-7.7357 4.2523-9.9107 4.5855zm.0019 2.4054c2.1731.3313 6.7096 1.3809 9.9088 4.5856 3.1877 3.195 4.2406 7.7497 4.575 9.9317-2.177-.3351-6.7212-1.3904-9.9089-4.5836-3.1895-3.1969-4.2425-7.7536-4.5749-9.9337zm11.4018 3.0891c-2.2212-2.2263-4.9477-3.5301-7.2919-4.2908 2.3442-.7627 5.0707-2.0646 7.2919-4.2909 1.4507-1.454 2.5055-3.1219 3.276-4.7589V61.05c-.7705-1.637-1.8253-3.3048-3.276-4.7589zM22.281 39.3684c-2.2231 2.2282-3.522 4.9611-4.2829 7.3126-.759-2.3515-2.0598-5.0844-4.281-7.3126-1.4526-1.456-3.1185-2.5133-4.75361-3.2875H27.0365c-1.6371.7742-3.3029 1.8335-4.7555 3.2875z"/>
  <path fill="#154754" d="M0 67.9166V104l.0211358-.002H35.9789L36 104V67.9166H0zm5.39539 13.7508c2.22118 2.2283 4.94771 3.5302 7.29381 4.2909-2.3442.7607-5.07071 2.0646-7.29381 4.2909-1.44876 1.454-2.50555 3.1218-3.27605 4.7588V76.9067c.7705 1.6389 1.82729 3.3086 3.27605 4.7607zM2.31533 70.2392c2.17698.3351 6.72118 1.3905 9.90887 4.5856 3.1876 3.195 4.2406 7.7497 4.573 9.9318-2.177-.3351-6.7212-1.3905-9.90886-4.5856-3.18574-3.195-4.23868-7.7497-4.57301-9.9318zM16.801 87.162c-.3305 2.1782-1.3776 6.7252-4.5768 9.9318-3.18769 3.1952-7.73381 4.2502-9.91079 4.5832.33048-2.1778 1.37767-6.7248 4.57493-9.9314 3.18956-3.1931 7.73566-4.2485 9.91266-4.5836zm-3.0839 11.4282c2.2231-2.2283 3.522-4.9611 4.281-7.3107.7609 2.3515 2.0598 5.0844 4.2829 7.3107 1.4487 1.4518 3.1127 2.5098 4.7459 3.2818H8.9731c1.6313-.77 3.2953-1.828 4.744-3.2818zm5.4819-13.8336c.3305-2.1782 1.3776-6.7252 4.5768-9.9318 3.1877-3.1951 7.7338-4.2505 9.9108-4.5856-.3305 2.1782-1.3777 6.7252-4.5769 9.9318-3.1895 3.1951-7.7357 4.2505-9.9107 4.5856zm.0019 2.4035c2.1731.3312 6.7096 1.3808 9.9088 4.5855 3.1877 3.195 4.2406 7.7498 4.575 9.9314-2.177-.335-6.7212-1.39-9.9089-4.5832-3.1895-3.1951-4.2425-7.7517-4.5749-9.9337zm11.4018 3.0891c-2.2212-2.2263-4.9477-3.5302-7.2919-4.2909 2.3442-.7626 5.0707-2.0645 7.2919-4.2909 1.4507-1.454 2.5055-3.1218 3.276-4.7588V95.01c-.7705-1.639-1.8253-3.3068-3.276-4.7608zM22.281 73.3264c-2.2231 2.2283-3.522 4.9611-4.2829 7.3126-.759-2.3515-2.0598-5.0843-4.281-7.3126-1.4526-1.4559-3.1185-2.5132-4.75361-3.2874H27.0365c-1.6371.7742-3.3029 1.8334-4.7555 3.2874z"/>
</svg>