<svg xmlns="http://www.w3.org/2000/svg" fill="none" viewBox="0 0 259 259">
  <defs/>
  <path fill="#154754" d="M0 0v89.8618l.0527583-.0048H89.809l.0528.0048V0H0zm13.4678 34.2498c5.5444 5.5492 12.3502 8.7914 18.2064 10.6859-5.8514 1.8945-12.6572 5.1416-18.2064 10.686-3.61638 3.6211-6.2543 7.7746-8.17758 11.8514V22.3935c1.92328 4.0816 4.5612 8.2351 8.17758 11.8563zM5.77943 5.78903C11.2135 6.62357 22.5566 9.25189 30.5135 17.2088c7.9569 7.9569 10.5852 19.3 11.415 24.7341-5.4341-.8346-16.7772-3.4629-24.7341-11.4198-7.9521-7.9617-10.58043-19.3-11.41497-24.73407zM41.9381 47.9333c-.825 5.4246-3.4389 16.7484-11.4246 24.7341-7.9569 7.9569-19.3048 10.5853-24.73886 11.415.82495-5.4245 3.43888-16.7484 11.41976-24.7341 7.9617-7.9569 19.3096-10.5852 24.7437-11.415zm-7.698 28.4608c5.5493-5.5493 8.7915-12.3551 10.686-18.2065 1.8993 5.8562 5.1415 12.662 10.6908 18.2065 3.6163 3.6163 7.7698 6.2494 11.8466 8.1727H22.3983c4.072-1.9233 8.2255-4.5564 11.8418-8.1727zm13.6836-34.456c.825-5.4245 3.4389-16.7484 11.4246-24.7341C67.3052 9.2471 78.6531 6.61877 84.0872 5.78423c-.825 5.42447-3.4389 16.74837-11.4246 24.73407-7.9617 7.9617-19.3096 10.59-24.7389 11.4198zm.0048 5.9905c5.4245.8249 16.7484 3.4388 24.7341 11.4197 7.9569 7.9569 10.5852 19.3 11.4198 24.7341-5.4341-.8345-16.7772-3.4629-24.7341-11.415-7.9617-7.9617-10.59-19.3095-11.4198-24.7388zm28.4607 7.6931c-5.5444-5.5444-12.3502-8.7915-18.2016-10.686 5.8514-1.8993 12.6572-5.1415 18.2016-10.6859 3.6212-3.6212 6.2543-7.7747 8.1776-11.8515v45.0796c-1.9233-4.0816-4.5564-8.2399-8.1776-11.8562zM55.6169 13.4774c-5.5493 5.5492-8.7915 12.355-10.6908 18.2112-1.8945-5.8562-5.1415-12.662-10.686-18.2112-3.6259-3.62598-7.7842-6.2591-11.8658-8.18718h45.1132c-4.0864 1.92808-8.2447 4.5612-11.8706 8.18718z"/>
  <path fill="#154754" d="M84.5674 0v89.8618l.0527-.0048h89.7559l.053.0048V0H84.5674zm13.4725 34.2498c5.5441 5.5492 12.3501 8.7914 18.2061 10.6859-5.851 1.8945-12.657 5.1416-18.2061 10.686-3.6163 3.6211-6.2542 7.7746-8.1775 11.8514V22.3935c1.9233 4.0816 4.5564 8.2351 8.1775 11.8563zM90.3516 5.78903c5.4341.83454 16.7774 3.46286 24.7344 11.41977 7.957 7.9569 10.585 19.3 11.415 24.7341-5.434-.8346-16.778-3.4629-24.734-11.4198-7.9573-7.9617-10.5856-19.3-11.4154-24.73407zM126.505 47.9333c-.825 5.4246-3.438 16.7484-11.424 24.7341-7.957 7.9569-19.3049 10.5853-24.739 11.415.825-5.4245 3.4389-16.7484 11.42-24.7341 7.961-7.9569 19.309-10.5852 24.743-11.415zm-7.693 28.4608c5.55-5.5493 8.792-12.3551 10.686-18.2065 1.9 5.8562 5.142 12.662 10.691 18.2065 3.616 3.6163 7.77 6.2494 11.847 8.1727H106.97c4.072-1.9233 8.221-4.5564 11.842-8.1727zm13.679-34.456c.825-5.4245 3.439-16.7484 11.425-24.7341 7.957-7.9569 19.304-10.58523 24.739-11.41977-.825 5.42447-3.439 16.74837-11.425 24.73407-7.957 7.9617-19.305 10.59-24.739 11.4198zm.005 5.9905c5.424.8249 16.748 3.4388 24.734 11.4197 7.957 7.9569 10.585 19.3 11.42 24.7341-5.434-.8345-16.777-3.4629-24.734-11.415-7.962-7.9617-10.586-19.3095-11.42-24.7388zm28.461 7.6931c-5.545-5.5444-12.351-8.7915-18.202-10.686 5.851-1.8993 12.657-5.1415 18.202-10.6859 3.621-3.6212 6.254-7.7747 8.177-11.8515v45.0796c-1.923-4.0816-4.556-8.2399-8.177-11.8562zm-20.773-42.1443c-5.544 5.5492-8.791 12.355-10.686 18.2064-1.894-5.8562-5.141-12.662-10.686-18.2112-3.626-3.62598-7.784-6.2591-11.866-8.18717h45.114c-4.087 1.93287-8.25 4.56599-11.876 8.19197z"/>
  <path fill="#154754" d="M169.139 0v89.8618l.052-.0048h89.757l.052.0048V0h-89.861zm13.467 34.2498c5.545 5.5492 12.351 8.7914 18.207 10.6859-5.852 1.8945-12.657 5.1416-18.207 10.686-3.616 3.6211-6.254 7.7746-8.177 11.8514V22.3935c1.923 4.0816 4.556 8.2351 8.177 11.8563zm-7.688-28.46077c5.434.83454 16.777 3.46286 24.734 11.41977 7.957 7.9569 10.585 19.3 11.415 24.7341-5.434-.8346-16.777-3.4629-24.734-11.4198-7.957-7.9617-10.58-19.3-11.415-24.73407zm36.154 42.14427c-.825 5.4246-3.439 16.7484-11.425 24.7341-7.957 7.9569-19.304 10.5853-24.738 11.415.824-5.4245 3.438-16.7484 11.419-24.7341 7.967-7.9569 19.315-10.5852 24.744-11.415zm-7.693 28.4608c5.549-5.5493 8.791-12.3551 10.686-18.2065 1.899 5.8562 5.141 12.662 10.69 18.2065 3.617 3.6163 7.77 6.2494 11.847 8.1727h-45.065c4.072-1.9233 8.225-4.5564 11.842-8.1727zm13.679-34.456c.825-5.4245 3.438-16.7484 11.424-24.7341 7.957-7.9569 19.305-10.58523 24.739-11.41977-.825 5.42447-3.439 16.74837-11.425 24.73407-7.956 7.9617-19.304 10.59-24.738 11.4198zm.004 5.9905c5.425.8249 16.749 3.4388 24.734 11.4197 7.957 7.9569 10.586 19.3 11.42 24.7341-5.434-.8345-16.777-3.4629-24.734-11.415-7.957-7.9617-10.585-19.3095-11.42-24.7388zm28.466 7.6931c-5.545-5.5444-12.35-8.7915-18.202-10.686 5.852-1.8993 12.657-5.1415 18.202-10.6859 3.621-3.6212 6.254-7.7747 8.177-11.8515v45.0796c-1.923-4.0816-4.561-8.2399-8.177-11.8562zm-20.773-42.1443c-5.549 5.5492-8.791 12.355-10.69 18.2112-1.895-5.8562-5.142-12.662-10.686-18.2112-3.626-3.62598-7.784-6.2591-11.866-8.18718h45.113c-4.086 1.92808-8.249 4.5612-11.871 8.18718zM0 84.5664v89.8616l.0527583-.005H89.809l.0528.005V84.5664H0zm13.4678 34.2496c5.5444 5.549 12.3502 8.792 18.2064 10.686-5.8514 1.895-12.6572 5.142-18.2064 10.686-3.61638 3.621-6.2543 7.775-8.17758 11.852v-45.08c1.92328 4.081 4.5612 8.235 8.17758 11.856zM5.77943 90.3554c5.43407.8346 16.77717 3.4629 24.73407 11.4196 7.9569 7.957 10.5852 19.3 11.415 24.734-5.4341-.834-16.7772-3.463-24.7341-11.419-7.9521-7.957-10.58043-19.3005-11.41497-24.7346zM41.9381 132.5c-.825 5.424-3.4389 16.748-11.4246 24.734-7.9569 7.957-19.3048 10.585-24.73886 11.415.82495-5.425 3.43888-16.749 11.41976-24.734 7.9617-7.957 19.3096-10.585 24.7437-11.415zm-7.698 28.46c5.5493-5.549 8.7915-12.355 10.686-18.206 1.8993 5.856 5.1415 12.662 10.6908 18.206 3.6163 3.617 7.7698 6.25 11.8466 8.178H22.3983c4.072-1.928 8.2255-4.561 11.8418-8.178zm13.6836-34.456c.825-5.424 3.4389-16.748 11.4246-24.734 7.9569-7.9565 19.3048-10.5848 24.7389-11.4194-.825 5.4246-3.4389 16.7484-11.4246 24.7344-7.9617 7.961-19.3096 10.59-24.7389 11.419zm.0048 5.991c5.4245.825 16.7484 3.439 24.7341 11.42 7.9569 7.957 10.5852 19.3 11.4198 24.734-5.4341-.835-16.7772-3.463-24.7341-11.415-7.9617-7.962-10.59-19.31-11.4198-24.739zm28.4607 7.693c-5.5444-5.544-12.3502-8.791-18.2016-10.686 5.8514-1.899 12.6572-5.141 18.2016-10.686 3.6212-3.621 6.2543-7.775 8.1776-11.851v45.075c-1.9233-4.077-4.5564-8.231-8.1776-11.852zM55.6169 98.0438c-5.5493 5.5492-8.7915 12.3552-10.6908 18.2112-1.8945-5.856-5.1415-12.662-10.686-18.2112-3.6259-3.626-7.7842-6.2591-11.8658-8.1872h45.1132c-4.0864 1.9281-8.2447 4.566-11.8706 8.1872z"/>
  <path fill="#154754" d="M169.139 84.5664v89.8616l.052-.005h89.757l.052.005V84.5664h-89.861zm13.467 34.2496c5.545 5.549 12.351 8.792 18.207 10.686-5.852 1.895-12.657 5.142-18.207 10.686-3.616 3.621-6.254 7.775-8.177 11.852v-45.08c1.923 4.081 4.556 8.235 8.177 11.856zm-7.688-28.4606c5.434.8346 16.777 3.4629 24.734 11.4196 7.957 7.957 10.585 19.3 11.415 24.734-5.434-.834-16.777-3.463-24.734-11.419-7.957-7.957-10.58-19.3005-11.415-24.7346zM211.072 132.5c-.825 5.424-3.439 16.748-11.425 24.734-7.957 7.957-19.304 10.585-24.738 11.415.824-5.425 3.438-16.749 11.419-24.734 7.967-7.957 19.315-10.585 24.744-11.415zm-7.693 28.46c5.549-5.549 8.791-12.355 10.686-18.206 1.899 5.856 5.141 12.662 10.69 18.206 3.617 3.617 7.77 6.25 11.847 8.178h-45.065c4.072-1.928 8.225-4.561 11.842-8.178zm13.679-34.456c.825-5.424 3.438-16.748 11.424-24.734 7.957-7.9565 19.305-10.5848 24.739-11.4194-.825 5.4246-3.439 16.7484-11.425 24.7344-7.956 7.961-19.304 10.59-24.738 11.419zm.004 5.991c5.425.825 16.749 3.439 24.734 11.42 7.957 7.957 10.586 19.3 11.42 24.734-5.434-.835-16.777-3.463-24.734-11.415-7.957-7.962-10.585-19.31-11.42-24.739zm28.466 7.693c-5.545-5.544-12.35-8.791-18.202-10.686 5.852-1.899 12.657-5.141 18.202-10.686 3.621-3.621 6.254-7.775 8.177-11.851v45.075c-1.923-4.077-4.561-8.231-8.177-11.852zm-20.773-42.1442c-5.549 5.5492-8.791 12.3552-10.69 18.2112-1.895-5.856-5.142-12.662-10.686-18.2112-3.626-3.626-7.784-6.2591-11.866-8.1872h45.113c-4.086 1.9281-8.249 4.566-11.871 8.1872zM0 169.139v89.862l.0527583-.005H89.809l.0528.005v-89.862H0zm13.4678 34.245c5.5444 5.549 12.3502 8.791 18.2064 10.686-5.8514 1.894-12.6572 5.141-18.2064 10.686-3.61638 3.621-6.2543 7.774-8.17758 11.851v-45.08c1.92328 4.082 4.5612 8.24 8.17758 11.857zm-7.68837-28.461c5.43407.834 16.77717 3.463 24.73407 11.42 7.9569 7.957 10.5852 19.3 11.415 24.734-5.4341-.835-16.7772-3.463-24.7341-11.42-7.9521-7.957-10.58043-19.3-11.41497-24.734zm36.15867 42.144c-.825 5.425-3.4389 16.749-11.4246 24.734-7.9569 7.957-19.3048 10.586-24.73886 11.415.82495-5.424 3.43888-16.748 11.41976-24.734 7.9617-7.952 19.3096-10.58 24.7437-11.415zm-7.698 28.461c5.5493-5.549 8.7915-12.355 10.686-18.206 1.8993 5.856 5.1415 12.662 10.6908 18.206 3.6163 3.616 7.7698 6.249 11.8466 8.173H22.3983c4.072-1.919 8.2255-4.552 11.8418-8.173zm13.6836-34.451c.825-5.425 3.4389-16.749 11.4246-24.734 7.9569-7.957 19.3048-10.586 24.7389-11.42-.825 5.424-3.4389 16.748-11.4246 24.734-7.9617 7.957-19.3096 10.585-24.7389 11.42zm.0048 5.985c5.4245.825 16.7484 3.439 24.7341 11.42 7.9569 7.957 10.5852 19.3 11.4198 24.734-5.4341-.834-16.7772-3.463-24.7341-11.415-7.9617-7.957-10.59-19.304-11.4198-24.739zm28.4607 7.694c-5.5444-5.545-12.3502-8.792-18.2016-10.686 5.8514-1.9 12.6572-5.142 18.2016-10.686 3.6212-3.622 6.2543-7.775 8.1776-11.852v45.08c-1.9233-4.082-4.5564-8.235-8.1776-11.856zm-20.7723-42.145c-5.5493 5.549-8.7915 12.355-10.6908 18.211-1.8945-5.856-5.1415-12.662-10.686-18.211-3.6259-3.626-7.7842-6.259-11.8658-8.187h45.1132c-4.0864 1.928-8.2447 4.566-11.8706 8.187z"/>
  <path fill="#154754" d="M84.5674 169.139v89.862l.0527-.005h89.7559l.053.005v-89.862H84.5674zm13.4725 34.245c5.5441 5.549 12.3501 8.791 18.2061 10.686-5.851 1.894-12.657 5.141-18.2061 10.686-3.6163 3.621-6.2542 7.774-8.1775 11.851v-45.08c1.9233 4.082 4.5564 8.24 8.1775 11.857zm-7.6883-28.461c5.4341.834 16.7774 3.463 24.7344 11.42 7.957 7.957 10.585 19.3 11.415 24.734-5.434-.835-16.778-3.463-24.734-11.42-7.9573-7.957-10.5856-19.3-11.4154-24.734zm36.1534 42.144c-.825 5.425-3.438 16.749-11.424 24.734-7.957 7.957-19.3049 10.586-24.739 11.415.825-5.424 3.4389-16.748 11.42-24.734 7.961-7.952 19.309-10.58 24.743-11.415zm-7.693 28.461c5.55-5.549 8.792-12.355 10.686-18.206 1.9 5.856 5.142 12.662 10.691 18.206 3.616 3.616 7.77 6.249 11.847 8.173H106.97c4.072-1.919 8.221-4.552 11.842-8.173zm13.679-34.451c.825-5.425 3.439-16.749 11.425-24.734 7.957-7.957 19.304-10.586 24.739-11.42-.825 5.424-3.439 16.748-11.425 24.734-7.957 7.957-19.305 10.585-24.739 11.42zm.005 5.985c5.424.825 16.748 3.439 24.734 11.42 7.957 7.957 10.585 19.3 11.42 24.734-5.434-.834-16.777-3.463-24.734-11.415-7.962-7.957-10.586-19.304-11.42-24.739zm28.461 7.694c-5.545-5.545-12.351-8.792-18.202-10.686 5.851-1.9 12.657-5.142 18.202-10.686 3.621-3.622 6.254-7.775 8.177-11.852v45.08c-1.923-4.082-4.556-8.235-8.177-11.856zm-20.773-42.145c-5.549 5.549-8.791 12.355-10.691 18.211-1.894-5.856-5.141-12.662-10.685-18.211-3.626-3.626-7.785-6.259-11.866-8.187h45.113c-4.082 1.928-8.245 4.566-11.871 8.187z"/>
  <path fill="#154754" d="M169.139 169.139v89.862l.052-.005h89.757l.052.005v-89.862h-89.861zm13.467 34.245c5.545 5.549 12.351 8.791 18.207 10.686-5.852 1.894-12.657 5.141-18.207 10.686-3.616 3.621-6.254 7.774-8.177 11.851v-45.08c1.923 4.082 4.556 8.24 8.177 11.857zm-7.688-28.461c5.434.834 16.777 3.463 24.734 11.42 7.957 7.957 10.585 19.3 11.415 24.734-5.434-.835-16.777-3.463-24.734-11.42-7.957-7.957-10.58-19.3-11.415-24.734zm36.154 42.144c-.825 5.425-3.439 16.749-11.425 24.734-7.957 7.957-19.304 10.586-24.738 11.415.824-5.424 3.438-16.748 11.419-24.734 7.967-7.952 19.315-10.58 24.744-11.415zm-7.693 28.461c5.549-5.549 8.791-12.355 10.686-18.206 1.899 5.856 5.141 12.662 10.69 18.206 3.617 3.616 7.77 6.249 11.847 8.173h-45.065c4.072-1.919 8.225-4.552 11.842-8.173zm13.679-34.451c.825-5.425 3.438-16.749 11.424-24.734 7.957-7.957 19.305-10.586 24.739-11.42-.825 5.424-3.439 16.748-11.425 24.734-7.956 7.957-19.304 10.585-24.738 11.42zm.004 5.985c5.425.825 16.749 3.439 24.734 11.42 7.957 7.957 10.586 19.3 11.42 24.734-5.434-.834-16.777-3.463-24.734-11.415-7.957-7.957-10.585-19.304-11.42-24.739zm28.466 7.694c-5.545-5.545-12.35-8.792-18.202-10.686 5.852-1.9 12.657-5.142 18.202-10.686 3.621-3.622 6.254-7.775 8.177-11.852v45.08c-1.923-4.082-4.561-8.235-8.177-11.856zm-20.773-42.145c-5.549 5.549-8.791 12.355-10.69 18.211-1.895-5.856-5.142-12.662-10.686-18.211-3.626-3.626-7.784-6.259-11.866-8.187h45.113c-4.086 1.928-8.249 4.566-11.871 8.187z"/>
</svg>