<svg width="150" height="150" viewBox="0 0 150 150" fill="none" xmlns="http://www.w3.org/2000/svg">
<path d="M74.1216 44.4896L70.5337 54.7748L75.477 56.4757L79.6761 44.4896L75.8756 33.6462L79.6761 22.8029L75.8756 11.9861L79.4635 1.72749L74.5468 0L70.3477 11.9861L74.1216 22.8029L70.3477 33.6462L74.1216 44.4896Z" fill="#5C7566"/>
<path d="M75.8756 105.536L79.4635 95.2509L74.5468 93.5234L70.3477 105.536L74.1216 116.353L70.3477 127.17L74.1216 138.013L70.5337 148.298L75.477 149.999L79.6761 138.013L75.8756 127.17L79.6761 116.353L75.8756 105.536Z" fill="#5C7566"/>
<path d="M138.119 70.3752L138.013 70.3486L127.196 74.1225L116.486 70.3752L116.379 70.3486L105.536 74.1225L95.2509 70.5347L93.5234 75.478L105.43 79.6239L105.536 79.6771L116.379 75.8766L127.09 79.6239L127.196 79.6771L138.013 75.8766L148.298 79.4645L149.999 74.5478L138.119 70.3752Z" fill="#5C7566"/>
<path d="M12.0127 79.6771L22.856 75.8766L33.5665 79.6239L33.6728 79.6771L44.4895 75.8766L54.7747 79.4645L56.5022 74.5478L44.5958 70.3752L44.4895 70.3486L33.6728 74.1225L22.9623 70.3752L22.856 70.3486L12.0127 74.1225L1.72749 70.5347L0 75.478L11.9064 79.6239L12.0127 79.6771Z" fill="#5C7566"/>
<path d="M100.965 42.4695L95.969 52.8079L86.4545 57.3791L86.1621 57.5386L88.4211 62.2426L99.7694 56.7678L99.8757 56.7147L104.872 46.3763L115.104 41.433L115.211 41.4064L120.18 31.0681L129.695 26.4969L129.987 26.3374L127.702 21.6333L116.38 27.1081L116.274 27.1613L111.277 37.4731L101.072 42.4164L100.965 42.4695Z" fill="#5C7566"/>
<path d="M49.0609 107.53L54.0574 97.2182L63.5453 92.6204L63.8642 92.4875L61.5786 87.7568L50.2303 93.2317L50.124 93.2848L45.1541 103.623L34.9221 108.54L34.8158 108.593L29.8459 118.931L20.3314 123.529L20.0391 123.662L22.2981 128.366L33.6464 122.891L33.7527 122.838L38.7491 112.5L48.9812 107.583L49.0609 107.53Z" fill="#5C7566"/>
<path d="M112.527 111.277L107.611 101.072L107.558 100.965L97.2192 95.969L92.4885 86.1621L87.7578 88.4211L93.2592 99.7694L93.2858 99.8757L103.624 104.872L108.567 115.104L108.621 115.211L118.932 120.18L123.663 129.987L128.367 127.702L122.866 116.274L112.527 111.277Z" fill="#5C7566"/>
<path d="M27.1608 33.7527L37.4991 38.7491L42.4424 48.9812L42.4956 49.0609L52.8074 54.0574L57.538 63.8642L62.2421 61.5786L56.7673 50.2303L56.7142 50.124L46.4024 45.1541L41.4591 34.9221L41.4059 34.8158L31.0941 29.8459L26.3369 20.0391L21.6328 22.2981L27.1076 33.6464L27.1608 33.7527Z" fill="#5C7566"/>
<path d="M54.2162 27.1348L54.8806 38.5629L62.5082 47.1472L63.1194 58.0171L68.355 57.7247L67.6375 45.021L59.9834 36.4633L59.3455 25.0087L51.718 16.451L51.0801 5.58105L45.8711 5.8734L46.5887 18.5771L54.2162 27.1348Z" fill="#5C7566"/>
<path d="M95.7842 122.864L95.1197 111.41L87.4922 102.852L86.8809 92.0088L81.6719 92.3011L82.3894 104.978L90.017 113.536L90.6548 124.991L98.309 133.548L98.9202 144.418L104.156 144.126L103.412 131.422L95.7842 122.864Z" fill="#5C7566"/>
<path d="M111.543 54.8545L111.437 54.8811L102.879 62.5087L91.9824 63.1199L92.3013 68.3556L104.872 67.638H105.005L113.563 59.9839L124.884 59.346H125.017L133.549 51.7185L144.418 51.0806L144.126 45.8716L131.555 46.5892H131.422L122.891 54.2167L111.543 54.8545Z" fill="#5C7566"/>
<path d="M38.4841 95.1448L38.5904 95.1183L47.1481 87.4907L58.018 86.8795L57.7257 81.6704L45.1549 82.3614L45.022 82.388L36.4908 90.0155L25.1425 90.6534H25.0362L16.4785 98.3075L5.92753 98.8922L5.58203 98.9187L5.90095 104.154L18.4718 103.437L18.5781 103.41L27.1624 95.7827L38.4841 95.1448Z" fill="#5C7566"/>
<path d="M82.522 58.0702L90.9203 48.662L91 48.5822L91.6379 37.1276L99.2122 28.6496L99.292 28.5699L99.9298 17.1419L107.185 9.00939L103.278 5.52783L94.8802 14.936L94.8005 15.0157L94.1627 26.4438L86.6148 34.9218L86.5351 35.0015L85.8707 46.4561L78.6152 54.5886L82.522 58.0702Z" fill="#5C7566"/>
<path d="M67.4785 91.9292L59.1068 101.337L59.0271 101.417L58.3626 112.845L50.8148 121.323L50.7351 121.403L50.0973 132.857L42.8418 140.99L46.722 144.472L55.1203 135.09L55.2 134.984L55.8644 123.529L63.4122 115.051L63.492 114.971L64.1298 103.543L71.3853 95.4108L67.4785 91.9292Z" fill="#5C7566"/>
<path d="M135.011 94.8261L123.556 94.1617L115.078 86.6139L114.998 86.5342L103.544 85.8697L95.4113 78.6143L91.9297 82.521L101.338 90.9193L101.418 90.9991L112.872 91.6369L121.35 99.2113L121.43 99.291L132.885 99.9289L140.751 106.945L140.99 107.184L144.472 103.278L135.09 94.9058L135.011 94.8261Z" fill="#5C7566"/>
<path d="M15.0153 55.2L26.4698 55.8644L35.0276 63.492L46.4822 64.1298L54.3489 71.1727L54.5881 71.3853L58.0696 67.4785L48.5817 59.0271L37.1537 58.3892L28.6757 50.8148L28.596 50.7351L17.1414 50.0973L9.0089 42.8418L5.52734 46.722L14.9355 55.1203L15.0153 55.2Z" fill="#5C7566"/>
</svg>
