<svg xmlns="http://www.w3.org/2000/svg" fill="none" viewBox="0 0 55 112">
  <defs/>
  <path fill="#5C7566" d="M54.8523 32.9229l-2.6551 7.6112 3.6581 1.2587 3.1075-8.8699-2.8125-8.0242 2.8125-8.0242-2.8125-8.00459 2.6551-7.59154L55.167 0l-3.1074 8.86991 2.7927 8.00459-2.7927 8.0242 2.7927 8.0242zM56.1503 78.0981l2.6551-7.6112-3.6384-1.2784-3.1074 8.8896 2.7927 8.0045-2.7927 8.0046 2.7927 8.0238-2.6551 7.612 3.6581 1.258 3.1075-8.87-2.8125-8.0238 2.8125-8.0046-2.8125-8.0045zM8.88958 58.9623l8.02422-2.8124 7.9259 2.773.0787.0394 8.0045-2.8124 7.6112 2.655 1.2784-3.6384-8.8109-3.0878-.0787-.0196-8.0045 2.7927-7.9259-2.7731-.0787-.0196-8.02422 2.7927-7.61121-2.655L0 55.8549l8.81091 3.068.07867.0394zM36.3067 79.5738l3.6974-7.6309 7.0212-3.4024.236-.0983-1.6914-3.5008-8.3979 4.0515-.0786.0393-3.6778 7.6505-7.5719 3.6385-.0786.0393-3.6778 7.6505-7.0409 3.4025-.2163.0983 1.6717 3.4811 8.3979-4.0514.0787-.0394 3.6974-7.6505 7.5719-3.6385.059-.0393zM20.0971 24.9774l7.6506 3.6974 3.6581 7.5719.0393.059 7.6309 3.6974 3.5008 7.2572 3.4811-1.6914-4.0515-8.3979-.0393-.0786-7.6309-3.6778-3.6581-7.5719-.0393-.0786-7.6309-3.6778-3.5205-7.2572-3.4811 1.6717 4.0515 8.3979.0393.0787zM40.1208 20.081l.4917 8.4569 5.6445 6.3525.4523 8.0439 3.8745-.2164-.531-9.4009-5.6642-6.3328-.472-8.4766-5.6445-6.3329-.472-8.04384-3.8548.21634.531 9.4009 5.6445 6.3329zM28.4764 70.4088l.0787-.0197 6.3328-5.6445 8.0439-.4523-.2163-3.8548-9.3026.5113-.0983.0197-6.3132 5.6445-8.3979.472h-.0787l-6.3328 5.6642-7.80791.4326-.25567.0197.236 3.8744 9.30258-.531.0787-.0196 6.3525-5.6445 8.3782-.472zM49.9302 68.0293l-6.1951 6.9622-.059.059-.4917 8.4569-5.5855 6.2738-.059.059-.472 8.4766-5.3692 6.0182 2.8714 2.576 6.2149-6.9422.059-.0786.4917-8.4766 5.5855-6.2738.059-.059.472-8.4569 5.3691-6.0182-2.8911-2.5764zM11.1127 40.8489l8.4766.4916 6.3329 5.6445 8.4765.472 5.8215 5.2118.177.1574 2.5764-2.8911-7.0212-6.2542-8.4569-.472-6.2738-5.6051-.059-.059-8.4766-.472-6.01814-5.3692-2.57641 2.8714 6.96215 6.2149.059.059z"/>
</svg>