<svg width="276" height="276" viewBox="0 0 276 276" fill="none" xmlns="http://www.w3.org/2000/svg">
<path d="M136.386 81.8612L129.784 100.786L138.88 103.916L146.607 81.8612L139.614 61.9093L146.607 41.9575L139.614 22.0546L146.215 3.1786L137.169 0L129.442 22.0546L136.386 41.9575L129.442 61.9093L136.386 81.8612Z" fill="#5C7566"/>
<path d="M139.614 194.188L146.215 175.263L137.169 172.084L129.442 194.188L136.386 214.091L129.442 233.994L136.386 253.946L129.784 272.871L138.88 276L146.607 253.946L139.614 233.994L146.607 214.091L139.614 194.188Z" fill="#5C7566"/>
<path d="M254.141 129.491L253.945 129.442L234.042 136.386L214.335 129.491L214.14 129.442L194.188 136.386L175.263 129.785L172.084 138.88L193.992 146.509L194.188 146.607L214.14 139.614L233.847 146.509L234.042 146.607L253.945 139.614L272.87 146.216L276 137.169L254.141 129.491Z" fill="#5C7566"/>
<path d="M22.1035 146.607L42.0553 139.614L61.7626 146.509L61.9582 146.607L81.8612 139.614L100.786 146.216L103.965 137.169L82.0568 129.491L81.8612 129.442L61.9582 136.386L42.2509 129.491L42.0553 129.442L22.1035 136.386L3.1786 129.785L0 138.88L21.9079 146.509L22.1035 146.607Z" fill="#5C7566"/>
<path d="M185.777 78.1445L176.584 97.1672L159.077 105.578L158.539 105.872L162.696 114.527L183.577 104.453L183.772 104.356L192.966 85.333L211.793 76.2373L211.988 76.1884L221.133 57.1657L238.64 48.7546L239.178 48.4612L234.972 39.8057L214.14 49.8794L213.944 49.9772L204.751 68.951L185.973 78.0467L185.777 78.1445Z" fill="#5C7566"/>
<path d="M90.2725 197.855L99.466 178.882L116.924 170.422L117.511 170.177L113.305 161.473L92.4242 171.546L92.2286 171.644L83.084 190.667L64.2569 199.714L64.0613 199.811L54.9167 218.834L37.41 227.294L36.8721 227.539L41.0287 236.194L61.9097 226.12L62.1053 226.023L71.2987 207L90.1258 197.953L90.2725 197.855Z" fill="#5C7566"/>
<path d="M207.049 204.751L198.002 185.972L197.905 185.777L178.882 176.583L170.177 158.539L161.473 162.695L171.596 183.576L171.644 183.772L190.667 192.965L199.763 211.792L199.861 211.988L218.834 221.133L227.539 239.177L236.194 234.972L226.072 213.944L207.049 204.751Z" fill="#5C7566"/>
<path d="M49.9774 62.1053L69.0001 71.2987L78.0958 90.1258L78.1936 90.2725L97.1674 99.466L105.872 117.511L114.527 113.305L104.454 92.4242L104.356 92.2286L85.3821 83.084L76.2864 64.2569L76.1886 64.0613L57.2148 54.9167L48.4615 36.8721L39.8059 41.0287L49.8796 61.9096L49.9774 62.1053Z" fill="#5C7566"/>
<path d="M99.7594 49.9287L100.982 70.9563L115.017 86.7515L116.141 106.752L125.775 106.214L124.455 82.8394L110.371 67.0931L109.197 46.0165L95.1626 30.2703L93.989 10.2695L84.4043 10.8074L85.7246 34.1824L99.7594 49.9287Z" fill="#5C7566"/>
<path d="M176.241 226.072L175.019 204.995L160.984 189.249L159.859 169.297L150.274 169.835L151.595 193.161L165.629 208.907L166.803 229.984L180.887 245.73L182.012 265.731L191.645 265.193L190.276 241.818L176.241 226.072Z" fill="#5C7566"/>
<path d="M205.24 100.933L205.044 100.982L189.298 115.017L169.248 116.141L169.835 125.775L192.965 124.455H193.21L208.956 110.371L229.788 109.197H230.033L245.73 95.1626L265.731 93.989L265.193 84.4043L242.062 85.7246H241.818L226.121 99.7594L205.24 100.933Z" fill="#5C7566"/>
<path d="M70.8094 175.067L71.005 175.019L86.7513 160.984L106.752 159.859L106.214 150.274L83.0837 151.546L82.8392 151.595L67.1418 165.629L46.2608 166.803H46.0652L30.3189 180.887L10.905 181.963L10.2693 182.011L10.8561 191.645L33.9865 190.325L34.1821 190.276L49.9773 176.241L70.8094 175.067Z" fill="#5C7566"/>
<path d="M151.839 106.85L167.292 89.5386L167.439 89.3919L168.612 68.3153L182.549 52.7157L182.696 52.569L183.87 31.5414L197.22 16.5775L190.031 10.1714L174.578 27.4825L174.432 27.6292L173.258 48.6569L159.37 64.2565L159.223 64.4032L158.001 85.4797L144.651 100.444L151.839 106.85Z" fill="#5C7566"/>
<path d="M124.161 169.15L108.757 186.462L108.61 186.608L107.388 207.636L93.4996 223.235L93.3529 223.382L92.1792 244.459L78.8291 259.423L85.9687 265.829L101.422 248.566L101.568 248.371L102.791 227.294L116.679 211.695L116.826 211.548L117.999 190.52L131.349 175.556L124.161 169.15Z" fill="#5C7566"/>
<path d="M248.42 174.48L227.343 173.258L211.744 159.37L211.597 159.223L190.52 158.001L175.557 144.65L169.15 151.839L186.462 167.292L186.608 167.439L207.685 168.612L223.284 182.549L223.431 182.696L244.508 183.869L258.983 196.779L259.423 197.22L265.829 190.031L248.567 174.627L248.42 174.48Z" fill="#5C7566"/>
<path d="M27.6292 101.568L48.7058 102.791L64.4521 116.826L85.5286 117.999L100.003 130.958L100.444 131.349L106.85 124.161L89.3919 108.61L68.3642 107.436L52.7646 93.4996L52.6179 93.3528L31.5414 92.1792L16.5775 78.8291L10.1714 85.9687L27.4825 101.422L27.6292 101.568Z" fill="#5C7566"/>
</svg>
