<svg xmlns="http://www.w3.org/2000/svg" fill="none" viewBox="0 0 95 190">
  <defs/>
  <path fill="#BB5245" d="M91.0391 42.1358l4.8397 13.8426-4.7136 13.4986 2.7525.9633 5.0233-14.416.0229-.0459-4.8398-13.8426L98.941 28.339l.0229-.0459-4.8398-13.8312L98.8377.963365 96.0967 0 91.062 14.4046l-.0229.0573 4.8397 13.8312-4.8168 13.7968-.0229.0459zM98.9639 147.854l-4.8398-13.832 4.7136-13.498-2.741-.963-5.0347 14.404-.0229.057 4.8397 13.832-4.8168 13.796-.0229.046 4.8397 13.843-4.7136 13.499 2.7525.963 5.0233-14.416.0229-.046-4.8398-13.843L98.941 147.9l.0229-.046zM14.4619 98.9629l13.8427-4.8398L42.1014 98.94l.0458.0229 13.8427-4.8398 13.3609 4.6678.1262.0458.9633-2.7524-14.4046-5.0233-.0458-.0229-13.8427 4.8397-13.7967-4.8168-.0459-.0229-13.8427 4.8397-13.36091-4.6677-.137625-.0459L0 93.9167 14.4161 98.94l.0458.0229zM40.8513 154.757l6.3651-13.212 13.166-6.353.0458-.012 6.3651-13.211 12.7531-6.148.1262-.057-1.2615-2.626-13.7509 6.629-.0459.022-6.3651 13.201-13.166 6.354-.0459.022-6.3651 13.201-12.7531 6.158-.1261.058 1.2615 2.626 13.7509-6.64.0459-.012zM35.257 40.8513l13.2004 6.3651 6.3537 13.166.0229.0458 13.2004 6.3651 6.2045 12.8793 2.6263-1.2615-6.6518-13.7968-13.2004-6.3651-6.3536-13.166-.0115-.0459-13.2118-6.3651-6.216-12.8792-2.6263 1.2615 6.6403 13.7509.0229.0459zM60.5201 22.1001l9.7598 10.9411.8257 14.5881.0115.0458 9.7598 10.9411.8143 14.2785 2.9015-.1606-.8601-15.2418v-.0573l-9.7713-10.9411-.8257-14.5881v-.0459l-9.7599-10.9411-.8142-14.26694-2.9131.16056.8717 15.24178v.0459zM22.1006 129.481l10.9411-9.76 14.5881-.826.0573-.011 10.9296-9.76 14.1294-.803.1491-.011-.1606-2.902-15.2418.86-.0573.012-10.9297 9.76-14.5881.825h-.0573l-10.9411 9.772-14.12933.802h-.13763l.16056 2.913 15.2418-.871h.0459zM78.4326 145.353l.8257-14.645 9.4273-10.551.0917-.115-2.1676-1.938-10.1612 11.388-.0344.035-.8372 14.645-9.7254 10.895-.0344.046-.8372 14.634-9.4157 10.563-.1033.103 2.1791 1.938 10.1612-11.388.0344-.034.8372-14.646 9.7254-10.895.0344-.035zM19.0712 67.8371l14.6454.8372 10.8952 9.7254.0344.0344 14.6455.8257 10.5511 9.4272.1147.0918 1.9382-2.1676L60.5074 76.45l-.0345-.0344-14.6454-.8372-10.8952-9.7254-.0344-.0344-14.6454-.8258-10.56265-9.4272-.10321-.1032-1.9382 2.179L19.0368 67.8026l.0344.0345z"/>
  <path fill="#BB5245" d="M93.8497 120.913l.0688-.126-2.5231-1.468-7.6725 13.189-.0344.046 2.1217 14.508-7.3629 12.627-.0229.034 2.1102 14.52-7.122 12.225-.0688.126 2.5231 1.468 7.6725-13.189.0229-.045-2.1102-14.508 7.3628-12.627.023-.046-2.1103-14.508 7.1221-12.226zM15.1723 83.5604l14.5193-2.1103 12.6155 7.3629.0459.0229 14.5078-2.1102 12.237 7.122.1147.0688 1.468-2.5231-13.189-7.6725-.0458-.0344-14.5078 2.1217-12.6155-7.3629-.0459-.0229-14.5193 2.1102-12.22556-7.122-.12616-.0688-1.46798 2.5116 13.2004 7.684.0344.023zM30.4694 143.358l8.7621-11.756 14.1293-3.727.0574-.011 8.762-11.756 13.6821-3.601.1376-.046-.7455-2.81-14.7486 3.888-.0574.012-8.762 11.755-14.1294 3.727-.0458.012-8.7735 11.755-13.6821 3.613-.1376.034.7454 2.821 14.7602-3.899.0458-.011zM46.6413 30.4724l11.7553 8.762 3.7273 14.1293.0115.0574 11.7553 8.762 3.6127 13.6821.0344.1376 2.8098-.7454-3.8879-14.7602-.0115-.0458-11.7553-8.7621L60.9656 37.56l-.0115-.0459-11.7553-8.7735-3.6126-13.6821-.0344-.1376-2.8213.7455 3.8993 14.7601.0115.0459zM80.555 43.9936l7.5005 12.604-1.9153 14.1638 2.8786.3899 2.0644-15.173-7.512-12.5926 1.9726-14.5307-7.5005-12.604 1.9153-14.1638-2.8901-.38993-2.0529 15.17303 7.5005 12.604-1.9611 14.5193zM29.4723 107.484l14.5308 1.961 12.5926-7.5 14.0261 1.904.1376.011.39-2.879-15.173-2.064-12.5926 7.512-14.5308-1.973-12.5925 7.501-14.02616-1.892-.14909-.023-.38994 2.89 15.18449 2.053 12.5925-7.501zM69.1557 141.271l3.6011-14.21 11.2622-8.567.1147-.092-1.7662-2.317-12.1797 9.279-3.6011 14.209-11.6636 8.888-3.6126 14.21-11.2622 8.579-.1147.08 1.7662 2.316 12.1911-9.278 3.6012-14.209 11.6636-8.888zM25.6336 53.8909l14.2096 3.6012 8.8538 11.6291.0344.0345 14.2097 3.6011 8.567 11.2622.0918.1147 2.3166-1.7662-9.2437-12.1453-.0344-.0344-14.2096-3.6011-8.8538-11.6292-.0229-.0459-14.2212-3.6011-8.5785-11.2622-.0803-.1147-2.3166 1.7662 9.2437 12.1452.0344.0459z"/>
</svg>