<svg xmlns="http://www.w3.org/2000/svg" fill="none" viewBox="0 0 399 399">
  <defs/>
  <path fill="#BB5245" d="M191.18 88.4847l10.163 29.0693-9.898 28.347 5.78 2.023 10.549-30.274.048-.096-10.164-29.0693 10.116-28.9731.048-.0963L197.658 30.37l9.899-28.34694L201.801 0l-10.573 30.2495-.048.1205 10.163 29.0453-10.115 28.9731-.048.0963zM207.822 310.491l-10.164-29.045 9.899-28.347-5.756-2.023-10.573 30.25-.048.12 10.163 29.045-10.115 28.974-.048.096 10.163 29.069-9.898 28.347 5.78 2.023 10.549-30.273.048-.097-10.164-29.069 10.116-28.973.048-.097zM368.749 191.227l-.097-.048-29.069 10.163-28.973-10.115-.096-.048-29.07 10.163-28.058-9.802-.289-.096-2.023 5.78 30.274 10.549.096.048 29.07-10.163 28.973 10.115.096.048 29.069-10.163 28.058 9.802.265.096 2.023-5.78-30.249-10.549zM30.37 207.821l29.0694-10.163 28.9731 10.115.0963.048 29.0692-10.163 28.058 9.802.265.096 2.023-5.78-30.249-10.549-.097-.048-29.0692 10.163-28.9731-10.115-.0963-.048L30.37 201.342 2.31207 191.54l-.28901-.096L0 197.224l30.2736 10.549.0964.048zM313.236 74.0107l-13.391 27.7453-27.624 13.318-.096.048-13.391 27.745-26.757 12.909-.289.12 2.673 5.516 28.877-13.921.072-.048 13.391-27.745 27.648-13.318.096-.049 13.367-27.7443 26.757-12.885.289-.1445-2.673-5.5152-28.853 13.9206-.096.0481zM85.7883 324.99l13.3667-27.745 27.648-13.343.097-.024 13.366-27.744 26.782-12.909.265-.121-2.649-5.515-28.877 13.92-.097.049-13.366 27.72-27.6486 13.343-.0964.048-13.3666 27.721-26.7815 12.933-.2649.12 2.6493 5.515 28.8767-13.944.0963-.024zM297.268 299.846l-13.342-27.624-.049-.097-27.744-13.39-13.03-27.047-5.515 2.674 13.92 28.876.049.073 27.744 13.39 13.319 27.649.048.096 27.745 13.367 13.029 27.022 5.515-2.649-13.968-28.949-27.721-13.391zM74.0338 85.7876l27.7212 13.3666 13.342 27.6488.048.096 27.721 13.367 13.029 27.046 5.516-2.649-13.969-28.973-27.721-13.367-13.342-27.6484-.024-.0963-27.7452-13.3666-13.0535-27.0464-5.5153 2.6492 13.9447 28.8768.0481.0963zM127.092 46.4102l20.496 22.9761 1.734 30.6347.024.097 20.495 22.976 1.71 29.984 6.093-.337-1.806-32.008v-.12l-20.519-22.9761-1.734-30.6349v-.0963l-20.496-22.9762-1.71-29.9605-6.117.3372 1.83 32.0076v.0964zM271.908 352.59l-20.496-22.976-1.734-30.635-.024-.12-20.495-22.952-1.71-29.985-6.094.361 1.807 31.984.024.12 20.495 22.952 1.734 30.635v.121l20.52 22.976 1.686 29.96 6.117-.337-1.83-32.007v-.097zM352.59 127.091l-22.976 20.496-30.635 1.734-.096.024-22.977 20.495-29.671 1.686-.313.024.361 6.094 32.008-1.807h.096l22.976-20.519 30.635-1.734h.097l22.976-20.52 29.671-1.662.289-.024-.337-6.117-32.008 1.83h-.096zM46.408 271.909l22.9761-20.495 30.6349-1.735.12-.024 22.953-20.495 29.671-1.686.313-.024-.337-6.093-32.008 1.806-.12.024-22.9522 20.496-30.6349 1.734h-.1204l-22.9762 20.519-29.6715 1.686h-.289l.3372 6.117 32.0076-1.83h.0964zM234.312 93.7593l-1.758 30.7557-19.797 22.157-.193.241 4.552 4.07 21.363-23.915.072-.097 1.734-30.731 20.423-22.8799.073-.0963 1.758-30.7312 19.797-22.1814.193-.2168-4.576-4.0702-21.339 23.9155-.072.0722-1.734 30.7312-20.448 22.904-.048.0722zM164.709 305.241l1.734-30.755 19.797-22.157.193-.241-4.552-4.07-21.338 23.915-.073.072-1.758 30.756-20.423 22.879-.072.097-1.759 30.731-19.772 22.181-.217.217 4.576 4.07 21.338-23.915.072-.072 1.759-30.756 20.423-22.88.072-.072zM358.949 256.543l-30.732-1.734-22.904-20.447-.072-.048-30.731-1.759-22.181-19.797-.241-.192-4.07 4.552 23.915 21.362.096.048 30.732 1.758 22.903 20.424.073.072 30.731 1.758 22.181 19.773.217.217 4.07-4.576-23.915-21.339-.072-.072zM40.0502 142.457l30.7553 1.758 22.8798 20.424.0723.072 30.7554 1.734 22.157 19.797.241.193 4.07-4.552-23.915-21.339-.072-.072-30.7558-1.758-22.8798-20.423-.0723-.072-30.7553-1.734-22.1813-19.798-.2168-.216-4.0702 4.576 23.9154 21.338.0723.072z"/>
  <path fill="#BB5245" d="M201.944 145.106l-.169.241 5.299 3.083 16.136-27.697.048-.096-4.431-30.4663 15.438-26.5165.048-.0964-4.432-30.4662 14.957-25.67361.144-.26492-5.274-3.08276-16.137 27.69659-.048.0964 4.432 30.4663-15.438 26.5165-.048.0963 4.431 30.4666-14.956 25.697zM197.08 253.918l.144-.265-5.298-3.083-16.112 27.697-.073.096 4.456 30.466-15.462 26.517-.048.072 4.431 30.49-14.956 25.674-.144.265 5.298 3.083 16.112-27.697.048-.096-4.431-30.467 15.462-26.516.048-.096-4.431-30.467 14.956-25.673zM367.137 223.524l-30.466 4.431-26.517-15.438-.096-.072-30.466 4.456-25.674-14.981-.265-.144-3.083 5.298 27.697 16.137.096.048 30.467-4.432 26.516 15.438.096.048 30.467-4.431 25.673 14.956.265.145 3.083-5.275-27.697-16.136-.096-.048zM31.8652 175.476l30.4904-4.432 26.4924 15.462.0964.049 30.4666-4.432 25.697 14.956.241.145 3.083-5.299-27.697-16.112-.096-.072-30.4663 4.455-26.4925-15.462-.0963-.048-30.4904 4.432-25.67356-14.956-.26492-.145-3.08275 5.274L31.793 175.428l.0722.048zM335.032 97.95l-18.424 24.662-29.648 7.851-.12.024-18.4 24.687-28.756 7.586-.289.072 1.565 5.901 30.996-8.165.096-.024 18.425-24.686 29.671-7.827.097-.048 18.4-24.662 28.732-7.5868.289-.0722-1.565-5.9247-30.972 8.1645-.097.0482zM63.9919 301.05l18.4002-24.686 29.6719-7.827.12-.024 18.4-24.686 28.732-7.563.289-.096-1.565-5.901-30.972 8.165-.12.024-18.401 24.686-29.6712 7.827-.0963.024-18.4243 24.687-28.7322 7.586-.289.072 1.5654 5.925 30.9962-8.189.0963-.024zM301.073 335.033l-24.686-18.424-7.828-29.672-.048-.096-24.662-18.4-7.586-28.757-.097-.289-5.9 1.566 8.188 30.996.024.096 24.686 18.424 7.828 29.672.024.096 24.686 18.401 7.562 28.732.073.289 5.924-1.566-8.164-30.972-.024-.096zM97.9509 63.9912l24.6861 18.4002 7.827 29.6716.024.12 24.687 18.401 7.586 28.732.072.289 5.901-1.566-8.165-30.996-.024-.096-24.686-18.4-7.827-29.6719-.024-.0963-24.686-18.4243-7.5868-28.7322-.0722-.289-5.9247 1.5654 8.1886 30.9962.024.0963zM169.166 92.3861l15.751 26.4679-4.022 29.744 6.045.819 4.335-31.863L175.5 91.1096l4.142-30.5144-15.751-26.4684 4.022-29.74373-6.069-.81886-4.311 31.86319 15.751 26.4683-4.118 30.4904zM229.836 306.59l-15.751-26.444 4.022-29.744-6.045-.819-4.335 31.863 15.775 26.444-4.143 30.515 15.751 26.444-4.022 29.768 6.069.819 4.311-31.863-15.751-26.469 4.119-30.514zM337.127 173.284l-30.514-4.118-26.468 15.751-29.455-3.998-.289-.024-.819 6.045 31.863 4.335 26.469-15.775 30.49 4.143 26.468-15.751 29.431 3.998.313.024.819-6.07-31.863-4.311-26.445 15.751zM61.896 225.715l30.5144 4.119 26.4446-15.751 29.454 3.998.289.024.819-6.045-31.863-4.335L91.1099 223.5l-30.5145-4.143-26.4442 15.751-29.4548-3.974-.31309-.048-.81886 6.069 31.88725 4.311 26.4443-15.751zM253.798 102.309l-7.586 29.84-23.651 18.015-.241.193 3.709 4.865 25.602-19.484 7.562-29.864 24.493-18.6412 7.563-29.8401 23.65-18.0149.241-.1686-3.709-4.865-25.577 19.4599-7.562 29.8401-24.494 18.6648zM145.227 296.667l7.563-29.84 23.65-17.991.241-.192-3.709-4.865-25.577 19.484-7.562 29.84-24.494 18.665-7.586 29.84-23.6508 18.015-.2409.169 3.709 4.864 25.6017-19.483 7.562-29.841 24.493-18.665zM345.195 285.853l-29.84-7.562-18.593-24.421-.072-.072-29.84-7.587-18.015-23.65-.193-.241-4.865 3.709 19.436 25.505.048.096 29.865 7.562 18.592 24.422.049.072 29.864 7.562 17.991 23.651.168.241 4.865-3.709-19.388-25.505-.072-.073zM53.8277 113.171l29.8401 7.562 18.5932 24.422.072.072 29.84 7.562 17.991 23.651.193.241 4.864-3.709-19.411-25.505-.073-.073-29.84-7.562-18.5925-24.421-.0481-.096-29.8642-7.563-18.0149-23.6503-.1686-.2409-4.8649 3.709 19.4117 25.5052.0722.096z"/>
</svg>