<svg xmlns="http://www.w3.org/2000/svg" fill="none" viewBox="0 0 172 172">
  <defs/>
  <path fill="#154754" d="M0 0v59.6766l.0350364-.0032H59.6415l.035.0032V0H0zm8.94384 22.745c3.68196 3.6852 8.20166 5.8383 12.09076 7.0965-3.8859 1.2581-8.4056 3.4144-12.09076 7.0964-2.40159 2.4048-4.15341 5.1631-5.43065 7.8705v-29.937c1.27724 2.7105 3.02906 5.4688 5.43065 7.8736zM3.83808 3.84445c3.60875.55421 11.14152 2.29966 16.42572 7.58375 5.2841 5.2842 7.0295 12.817 7.5806 16.4257-3.6088-.5542-11.1416-2.2996-16.4257-7.5837-5.28096-5.2874-7.02641-12.817-7.58062-16.42575zM27.8507 31.8322c-.5478 3.6024-2.2837 11.1224-7.5869 16.4257-5.2842 5.2841-12.82016 7.0295-16.42891 7.5806.54784-3.6024 2.28374-11.1225 7.58381-16.4257 5.2873-5.2842 12.8233-7.0296 16.432-7.5806zm-5.1121 18.9005c3.6852-3.6852 5.8384-8.2049 7.0965-12.0907 1.2613 3.889 3.4144 8.4087 7.0996 12.0907 2.4016 2.4016 5.1599 4.1502 7.8673 5.4275H14.8745c2.7042-1.2773 5.4625-3.0259 7.8641-5.4275zm9.0872-22.8819c.5478-3.6024 2.2837-11.1225 7.587-16.4257 5.2841-5.28417 12.8201-7.02962 16.4288-7.58384-.5478 3.60238-2.2837 11.12244-7.5869 16.42574-5.2873 5.2873-12.8234 7.0327-16.4289 7.5838zm.0032 3.9782c3.6023.5478 11.1224 2.2837 16.4257 7.5838 5.2841 5.2841 7.0295 12.8169 7.5838 16.4257-3.6088-.5542-11.1416-2.2997-16.4257-7.5806-5.2874-5.2873-7.0328-12.8234-7.5838-16.4289zm18.9005 5.1089c-3.682-3.682-8.2017-5.8383-12.0875-7.0964 3.8858-1.2613 8.4055-3.4145 12.0875-7.0965 2.4048-2.4048 4.1534-5.1631 5.4307-7.8705v29.9371c-1.2773-2.7106-3.0259-5.4721-5.4307-7.8737zM36.9347 8.95021c-3.6852 3.68519-5.8383 8.20489-7.0996 12.09389-1.2581-3.889-3.4145-8.4087-7.0965-12.09389-2.4079-2.40796-5.1694-4.15659-7.88-5.43701h29.9593c-2.7137 1.28042-5.4752 3.02905-7.8832 5.43701z"/>
  <path fill="#154754" d="M56.1602 0v59.6766l.035-.0032h59.6068l.035.0032V0H56.1602zm8.947 22.745c3.682 3.6852 8.2017 5.8383 12.0907 7.0965-3.8858 1.2581-8.4055 3.4144-12.0907 7.0964-2.4016 2.4048-4.1534 5.1631-5.4307 7.8705v-29.937c1.2773 2.7105 3.0259 5.4688 5.4307 7.8736zM60.0014 3.84445c3.6088.55421 11.1416 2.29966 16.4257 7.58375 5.2841 5.2842 7.0296 12.817 7.5806 16.4257-3.6087-.5542-11.1416-2.2996-16.4257-7.5837-5.2841-5.2874-7.0296-12.817-7.5806-16.42575zM84.0109 31.8322c-.5478 3.6024-2.2837 11.1224-7.587 16.4257-5.2841 5.2841-12.8201 7.0295-16.4289 7.5806.5479-3.6024 2.2838-11.1225 7.5838-16.4257 5.2873-5.2842 12.8233-7.0296 16.4321-7.5806zM78.902 50.7327c3.6851-3.6852 5.8383-8.2049 7.0964-12.0907 1.2613 3.889 3.4145 8.4087 7.0997 12.0907 2.4015 2.4016 5.1599 4.1502 7.8669 5.4275H71.0379c2.7041-1.2773 5.4593-3.0259 7.8641-5.4275zm9.0839-22.8819c.5479-3.6024 2.2838-11.1225 7.587-16.4257 5.2841-5.28417 12.8201-7.02962 16.4291-7.58384-.548 3.60238-2.284 11.12244-7.587 16.42574-5.2843 5.2873-12.8203 7.0327-16.4291 7.5838zm.0032 3.9782c3.6024.5478 11.1225 2.2837 16.4259 7.5838 5.284 5.2841 7.029 12.8169 7.584 16.4257-3.609-.5542-11.142-2.2997-16.4261-7.5806-5.2873-5.2873-7.0296-12.8234-7.5838-16.4289zm18.9009 5.1089c-3.682-3.682-8.202-5.8383-12.0879-7.0964 3.8859-1.2613 8.4059-3.4145 12.0879-7.0965 2.404-2.4048 4.153-5.1631 5.43-7.8705v29.9371c-1.277-2.7106-3.026-5.4721-5.43-7.8737zM93.0949 8.95021c-3.682 3.68519-5.8384 8.20489-7.0965 12.09079-1.2581-3.8891-3.4144-8.4088-7.0964-12.09398-2.408-2.40795-5.1695-4.15659-7.8801-5.43701h29.9591c-2.7135 1.28361-5.4782 3.03224-7.8861 5.4402z"/>
  <path fill="#154754" d="M112.324 0v59.6766l.035-.0032h59.607l.035.0032V0h-59.677zm8.944 22.745c3.682 3.6852 8.202 5.8383 12.091 7.0965-3.886 1.2581-8.406 3.4144-12.091 7.0964-2.402 2.4048-4.153 5.1631-5.431 7.8705v-29.937c1.278 2.7105 3.026 5.4688 5.431 7.8736zm-5.106-18.90055c3.609.55421 11.142 2.29966 16.426 7.58375 5.284 5.2842 7.03 12.817 7.581 16.4257-3.609-.5542-11.142-2.2996-16.426-7.5837-5.284-5.2874-7.026-12.817-7.581-16.42575zm24.01 27.98775c-.548 3.6024-2.284 11.1224-7.587 16.4257-5.284 5.2841-12.82 7.0295-16.429 7.5806.548-3.6024 2.284-11.1225 7.584-16.4257 5.29-5.2842 12.826-7.0296 16.432-7.5806zm-5.109 18.9005c3.685-3.6852 5.838-8.2049 7.096-12.0907 1.262 3.889 3.415 8.4087 7.1 12.0907 2.402 2.4016 5.16 4.1502 7.867 5.4275h-29.927c2.704-1.2773 5.462-3.0259 7.864-5.4275zm9.084-22.8819c.548-3.6024 2.284-11.1225 7.587-16.4257 5.284-5.28417 12.82-7.02962 16.429-7.58384-.548 3.60238-2.284 11.12244-7.587 16.42574-5.284 5.2873-12.82 7.0327-16.429 7.5838zm.003 3.9782c3.602.5478 11.122 2.2837 16.426 7.5838 5.284 5.2841 7.029 12.8169 7.583 16.4257-3.608-.5542-11.141-2.2997-16.425-7.5806-5.284-5.2873-7.03-12.8234-7.584-16.4289zm18.904 5.1089c-3.682-3.682-8.202-5.8383-12.088-7.0964 3.886-1.2613 8.406-3.4145 12.088-7.0965 2.404-2.4048 4.153-5.1631 5.43-7.8705v29.9371c-1.277-2.7106-3.029-5.4721-5.43-7.8737zM149.259 8.95021c-3.685 3.68519-5.838 8.20489-7.1 12.09389-1.258-3.889-3.414-8.4087-7.096-12.09389-2.408-2.40796-5.17-4.15659-7.88-5.43701h29.959c-2.714 1.28042-5.478 3.02905-7.883 5.43701zM0 56.1602v59.6768l.0350364-.003H59.6415l.035.003V56.1602H0zm8.94384 22.745c3.68196 3.6851 8.20166 5.8383 12.09076 7.0964-3.8859 1.2581-8.4056 3.4145-12.09076 7.0965-2.40159 2.4048-4.15341 5.1631-5.43065 7.8709V71.0315c1.27724 2.7106 3.02906 5.4689 5.43065 7.8737zM3.83808 60.0046c3.60875.5542 11.14152 2.2997 16.42572 7.5838 5.2841 5.2841 7.0295 12.8169 7.5806 16.4257-3.6088-.5542-11.1416-2.2997-16.4257-7.5838-5.28096-5.2841-7.02641-12.8169-7.58062-16.4257zM27.8507 87.9923c-.5478 3.6024-2.2837 11.1225-7.5869 16.4257-5.2842 5.284-12.82016 7.03-16.42891 7.581.54784-3.603 2.28374-11.123 7.58381-16.4261 5.2873-5.2841 12.8233-7.0295 16.432-7.5806zm-5.1121 18.9007c3.6852-3.685 5.8384-8.205 7.0965-12.0909 1.2613 3.8891 3.4144 8.4089 7.0996 12.0909 2.4016 2.401 5.1599 4.15 7.8673 5.431H14.8745c2.7042-1.281 5.4625-3.03 7.8641-5.431zm9.0872-22.8821c.5478-3.6024 2.2837-11.1225 7.587-16.4257 5.2841-5.2841 12.8201-7.0296 16.4288-7.5838-.5478 3.6024-2.2837 11.1225-7.5869 16.4257-5.2873 5.2873-12.8234 7.0328-16.4289 7.5838zm.0032 3.9782c3.6023.5479 11.1224 2.2838 16.4257 7.5838 5.2841 5.2841 7.0295 12.8171 7.5838 16.4261-3.6088-.555-11.1416-2.3-16.4257-7.581-5.2874-5.2873-7.0328-12.8233-7.5838-16.4289zm18.9005 5.109c-3.682-3.682-8.2017-5.8384-12.0875-7.0965 3.8858-1.2613 8.4055-3.4144 12.0875-7.0964 2.4048-2.4048 4.1534-5.1631 5.4307-7.8705v29.9343c-1.2773-2.7078-3.0259-5.4661-5.4307-7.8709zM36.9347 65.1104c-3.6852 3.6852-5.8383 8.2049-7.0996 12.0939-1.2581-3.889-3.4145-8.4087-7.0965-12.0939-2.4079-2.408-5.1694-4.1566-7.88-5.437h29.9593c-2.7137 1.2804-5.4752 3.0322-7.8832 5.437z"/>
  <path fill="#154754" d="M112.324 56.1602v59.6768l.035-.003h59.607l.035.003V56.1602h-59.677zm8.944 22.745c3.682 3.6851 8.202 5.8383 12.091 7.0964-3.886 1.2581-8.406 3.4145-12.091 7.0965-2.402 2.4048-4.153 5.1631-5.431 7.8709V71.0315c1.278 2.7106 3.026 5.4689 5.431 7.8737zm-5.106-18.9006c3.609.5542 11.142 2.2997 16.426 7.5838 5.284 5.2841 7.03 12.8169 7.581 16.4257-3.609-.5542-11.142-2.2997-16.426-7.5838-5.284-5.2841-7.026-12.8169-7.581-16.4257zm24.01 27.9877c-.548 3.6024-2.284 11.1225-7.587 16.4257-5.284 5.284-12.82 7.03-16.429 7.581.548-3.603 2.284-11.123 7.584-16.4261 5.29-5.2841 12.826-7.0295 16.432-7.5806zm-5.109 18.9007c3.685-3.685 5.838-8.205 7.096-12.0909 1.262 3.8891 3.415 8.4089 7.1 12.0909 2.402 2.401 5.16 4.15 7.867 5.431h-29.927c2.704-1.281 5.462-3.03 7.864-5.431zm9.084-22.8821c.548-3.6024 2.284-11.1225 7.587-16.4257 5.284-5.2841 12.82-7.0296 16.429-7.5838-.548 3.6024-2.284 11.1225-7.587 16.4257-5.284 5.2873-12.82 7.0328-16.429 7.5838zm.003 3.9782c3.602.5479 11.122 2.2838 16.426 7.5838 5.284 5.2841 7.029 12.8171 7.583 16.4261-3.608-.555-11.141-2.3-16.425-7.581-5.284-5.2873-7.03-12.8233-7.584-16.4289zm18.904 5.109c-3.682-3.682-8.202-5.8384-12.088-7.0965 3.886-1.2613 8.406-3.4144 12.088-7.0964 2.404-2.4048 4.153-5.1631 5.43-7.8705v29.9343c-1.277-2.7078-3.029-5.4661-5.43-7.8709zm-13.795-27.9877c-3.685 3.6852-5.838 8.2049-7.1 12.0939-1.258-3.889-3.414-8.4087-7.096-12.0939-2.408-2.408-5.17-4.1566-7.88-5.437h29.959c-2.714 1.2804-5.478 3.0322-7.883 5.437zM0 112.324V172l.0350364-.003H59.6415l.035.003v-59.676H0zm8.94384 22.742c3.68196 3.685 8.20166 5.838 12.09076 7.096-3.8859 1.258-8.4056 3.414-12.09076 7.096-2.40159 2.405-4.15341 5.164-5.43065 7.871v-29.937c1.27724 2.71 3.02906 5.472 5.43065 7.874zm-5.10576-18.901c3.60875.554 11.14152 2.3 16.42572 7.584 5.2841 5.284 7.0295 12.817 7.5806 16.425-3.6088-.554-11.1416-2.299-16.4257-7.583-5.28096-5.284-7.02641-12.817-7.58062-16.426zm24.01262 27.988c-.5478 3.602-2.2837 11.122-7.5869 16.425-5.2842 5.285-12.82016 7.03-16.42891 7.581.54784-3.602 2.28374-11.122 7.58381-16.426 5.2873-5.281 12.8233-7.026 16.432-7.58zm-5.1121 18.9c3.6852-3.685 5.8384-8.205 7.0965-12.09 1.2613 3.889 3.4144 8.408 7.0996 12.09 2.4016 2.402 5.1599 4.15 7.8673 5.428H14.8745c2.7042-1.274 5.4625-3.023 7.8641-5.428zm9.0872-22.879c.5478-3.602 2.2837-11.122 7.587-16.425 5.2841-5.284 12.8201-7.03 16.4288-7.584-.5478 3.602-2.2837 11.122-7.5869 16.426-5.2873 5.284-12.8234 7.029-16.4289 7.583zm.0032 3.976c3.6023.547 11.1224 2.283 16.4257 7.583 5.2841 5.284 7.0295 12.817 7.5838 16.426-3.6088-.554-11.1416-2.3-16.4257-7.581-5.2874-5.284-7.0328-12.82-7.5838-16.428zm18.9005 5.108c-3.682-3.682-8.2017-5.838-12.0875-7.096 3.8858-1.261 8.4055-3.414 12.0875-7.096 2.4048-2.405 4.1534-5.164 5.4307-7.871v29.937c-1.2773-2.71-3.0259-5.469-5.4307-7.874zm-13.7948-27.987c-3.6852 3.685-5.8383 8.205-7.0996 12.094-1.2581-3.889-3.4145-8.409-7.0965-12.094-2.4079-2.408-5.1694-4.157-7.88-5.437h29.9593c-2.7137 1.28-5.4752 3.032-7.8832 5.437z"/>
  <path fill="#154754" d="M56.1602 112.324V172l.035-.003h59.6068l.035.003v-59.676H56.1602zm8.947 22.742c3.682 3.685 8.2017 5.838 12.0907 7.096-3.8858 1.258-8.4055 3.414-12.0907 7.096-2.4016 2.405-4.1534 5.164-5.4307 7.871v-29.937c1.2773 2.71 3.0259 5.472 5.4307 7.874zm-5.1058-18.901c3.6088.554 11.1416 2.3 16.4257 7.584 5.2841 5.284 7.0296 12.817 7.5806 16.425-3.6087-.554-11.1416-2.299-16.4257-7.583-5.2841-5.284-7.0296-12.817-7.5806-16.426zm24.0095 27.988c-.5478 3.602-2.2837 11.122-7.587 16.425-5.2841 5.285-12.8201 7.03-16.4289 7.581.5479-3.602 2.2838-11.122 7.5838-16.426 5.2873-5.281 12.8233-7.026 16.4321-7.58zm-5.1089 18.9c3.6851-3.685 5.8383-8.205 7.0964-12.09 1.2613 3.889 3.4145 8.408 7.0997 12.09 2.4015 2.402 5.1599 4.15 7.8669 5.428H71.0379c2.7041-1.274 5.4593-3.023 7.8641-5.428zm9.0839-22.879c.5479-3.602 2.2838-11.122 7.587-16.425 5.2841-5.284 12.8201-7.03 16.4291-7.584-.548 3.602-2.284 11.122-7.587 16.426-5.2843 5.284-12.8203 7.029-16.4291 7.583zm.0032 3.976c3.6024.547 11.1225 2.283 16.4259 7.583 5.284 5.284 7.029 12.817 7.584 16.426-3.609-.554-11.142-2.3-16.4261-7.581-5.2873-5.284-7.0296-12.82-7.5838-16.428zm18.9009 5.108c-3.682-3.682-8.202-5.838-12.0879-7.096 3.8859-1.261 8.4059-3.414 12.0879-7.096 2.404-2.405 4.153-5.164 5.43-7.871v29.937c-1.277-2.71-3.026-5.469-5.43-7.874zm-13.7951-27.987c-3.6852 3.685-5.8384 8.205-7.0997 12.094-1.2581-3.889-3.4144-8.409-7.0964-12.094-2.408-2.408-5.1695-4.157-7.88-5.437h29.9592c-2.7105 1.28-5.4752 3.032-7.8831 5.437z"/>
  <path fill="#154754" d="M112.324 112.324V172l.035-.003h59.607l.035.003v-59.676h-59.677zm8.944 22.742c3.682 3.685 8.202 5.838 12.091 7.096-3.886 1.258-8.406 3.414-12.091 7.096-2.402 2.405-4.153 5.164-5.431 7.871v-29.937c1.278 2.71 3.026 5.472 5.431 7.874zm-5.106-18.901c3.609.554 11.142 2.3 16.426 7.584 5.284 5.284 7.03 12.817 7.581 16.425-3.609-.554-11.142-2.299-16.426-7.583-5.284-5.284-7.026-12.817-7.581-16.426zm24.01 27.988c-.548 3.602-2.284 11.122-7.587 16.425-5.284 5.285-12.82 7.03-16.429 7.581.548-3.602 2.284-11.122 7.584-16.426 5.29-5.281 12.826-7.026 16.432-7.58zm-5.109 18.9c3.685-3.685 5.838-8.205 7.096-12.09 1.262 3.889 3.415 8.408 7.1 12.09 2.402 2.402 5.16 4.15 7.867 5.428h-29.927c2.704-1.274 5.462-3.023 7.864-5.428zm9.084-22.879c.548-3.602 2.284-11.122 7.587-16.425 5.284-5.284 12.82-7.03 16.429-7.584-.548 3.602-2.284 11.122-7.587 16.426-5.284 5.284-12.82 7.029-16.429 7.583zm.003 3.976c3.602.547 11.122 2.283 16.426 7.583 5.284 5.284 7.029 12.817 7.583 16.426-3.608-.554-11.141-2.3-16.425-7.581-5.284-5.284-7.03-12.82-7.584-16.428zm18.904 5.108c-3.682-3.682-8.202-5.838-12.088-7.096 3.886-1.261 8.406-3.414 12.088-7.096 2.404-2.405 4.153-5.164 5.43-7.871v29.937c-1.277-2.71-3.029-5.469-5.43-7.874zm-13.795-27.987c-3.685 3.685-5.838 8.205-7.1 12.094-1.258-3.889-3.414-8.409-7.096-12.094-2.408-2.408-5.17-4.157-7.88-5.437h29.959c-2.714 1.28-5.478 3.032-7.883 5.437z"/>
</svg>