<svg xmlns="http://www.w3.org/2000/svg" fill="none" viewBox="0 0 527 527">
  <defs/>
  <path fill="#BB5245" d="M252.51 116.871l13.424 38.395-13.074 37.44 7.634 2.672 13.933-39.985.064-.127-13.424-38.395 13.36-38.2679.064-.1273-13.424-38.3631 13.074-37.44064L266.538 0l-13.965 39.9537-.063.159 13.424 38.3631-13.361 38.2682-.063.127zM274.491 410.098l-13.424-38.363 13.074-37.441-7.603-2.672-13.965 39.954-.063.159 13.424 38.363-13.361 38.268-.063.127 13.424 38.395-13.074 37.441 7.634 2.672 13.933-39.986.064-.127-13.424-38.395 13.36-38.268.064-.127zM487.046 252.573l-.127-.063-38.395 13.423-38.268-13.36-.127-.063-38.395 13.423-37.059-12.946-.382-.128-2.672 7.635 39.986 13.933.127.063 38.395-13.424 38.267 13.361.128.063 38.395-13.424 37.059 12.947.35.127 2.672-7.634-39.954-13.933zM40.1127 274.49l38.395-13.424 38.2673 13.361.128.063 38.395-13.424 37.058 12.947.35.127 2.672-7.634-39.953-13.933-.127-.063-38.395 13.423-38.2681-13.36-.1272-.063-38.395 13.423-37.05892-12.946-.38172-.128L0 260.494l39.9855 13.933.1272.063zM413.723 97.7534l-17.686 36.6456-36.487 17.591-.127.063-17.686 36.646-35.342 17.05-.381.159 3.531 7.285 38.14-18.387.096-.063 17.686-36.646 36.518-17.591.127-.063 17.655-36.646 35.341-17.0181.382-.1909-3.531-7.2845-38.109 18.3863-.127.0636zM113.308 429.247l17.655-36.645 36.518-17.623.127-.032 17.655-36.645 35.373-17.051.349-.159-3.499-7.284-38.14 18.386-.127.064-17.655 36.613-36.518 17.623-.127.064-17.655 36.613-35.3731 17.082-.3499.159 3.4991 7.285 38.1409-18.418.127-.032zM392.633 396.037l-17.623-36.486-.063-.127-36.646-17.687-17.209-35.723-7.284 3.531 18.386 38.141.064.095 36.645 17.687 17.591 36.518.064.127 36.645 17.655 17.209 35.691 7.285-3.499-18.45-38.236-36.614-17.687zM97.7845 113.309l36.6135 17.654 17.623 36.518.064.128 36.613 17.654 17.209 35.723 7.285-3.499-18.45-38.268-36.613-17.654-17.623-36.518-.032-.128-36.646-17.654-17.2407-35.7233-7.2846 3.4992 18.4182 38.1401.0636.128zM167.863 61.2986l27.07 30.3469 2.291 40.4625.032.127 27.07 30.347 2.259 39.604 8.048-.445-2.386-42.276v-.159l-27.103-30.347-2.29-40.4627v-.1272l-27.07-30.347-2.259-39.5719-8.08.4453 2.418 42.2758v.1273zM359.138 465.702l-27.071-30.347-2.29-40.463-.032-.159-27.07-30.315-2.259-39.604-8.048.478 2.386 42.244.032.159 27.07 30.315 2.291 40.462v.159l27.102 30.347 2.227 39.572 8.079-.445-2.417-42.276v-.127zM465.702 167.863l-30.347 27.07-40.463 2.29-.127.032-30.347 27.071-39.19 2.227-.414.031.478 8.048 42.275-2.385h.128l30.347-27.103 40.462-2.29h.127l30.347-27.102 39.191-2.195.381-.032-.445-8.08-42.276 2.418h-.127zM61.2976 359.138l30.347-27.07 40.4624-2.291.159-.032 30.315-27.07 39.191-2.227.413-.032-.445-8.048-42.276 2.386-.159.032-30.315 27.07-40.4628 2.291h-.1591l-30.347 27.102-39.1902 2.227h-.3817l.4454 8.08 42.2758-2.418h.1272zM309.481 123.837l-2.322 40.622-26.148 29.265-.254.319 6.012 5.375 28.216-31.587.095-.127 2.29-40.59 26.976-30.2199.095-.1272 2.322-40.5899 26.148-29.2972.255-.2863-6.044-5.376-28.184 31.5876-.096.0954-2.29 40.5899-27.007 30.2516-.064.095zM217.55 403.163l2.29-40.622 26.148-29.265.255-.318-6.012-5.376-28.184 31.588-.096.095-2.322 40.622-26.975 30.219-.095.128-2.323 40.589-26.116 29.298-.286.286 6.044 5.376 28.184-31.588.095-.095 2.322-40.622 26.975-30.219.096-.096zM474.099 338.843l-40.59-2.291-30.251-27.007-.096-.063-40.59-2.322-29.297-26.148-.318-.255-5.376 6.012 31.588 28.216.127.063 40.59 2.323 30.251 26.975.096.095 40.589 2.322 29.298 26.116.286.287 5.376-6.044-31.588-28.184-.095-.095zM52.9008 188.158l40.6216 2.322 30.2196 26.975.096.096 40.621 2.29 29.266 26.148.318.254 5.376-6.012-31.588-28.184-.095-.095-40.622-2.322-30.2197-26.975-.0954-.096-40.6217-2.29L26.88 154.121l-.2863-.286-5.3759 6.044 31.5875 28.184.0955.095z"/>
  <path fill="#BB5245" d="M266.73 191.657l-.223.318 6.998 4.072 21.313-36.582.064-.127-5.854-40.24 20.391-35.0233.063-.1272-5.853-40.24 19.755-33.90966.19-.34991-6.966-4.07171L295.295 41.958l-.064.1272 5.854 40.24-20.391 35.0228-.063.127 5.853 40.24-19.754 33.942zM260.303 335.375l.191-.35-6.998-4.072-21.281 36.582-.095.127 5.884 40.24-20.422 35.023-.063.096 5.853 40.272-19.754 33.909-.191.35 6.998 4.072 21.281-36.582.064-.127-5.853-40.24 20.422-35.023.063-.127-5.853-40.24 19.754-33.91zM484.914 295.231l-40.24 5.853-35.023-20.391-.128-.095-40.24 5.885-33.909-19.786-.35-.191-4.072 6.998 36.582 21.313.127.064 40.24-5.853 35.023 20.39.127.064 40.24-5.853 33.91 19.754.35.191 4.072-6.967-36.582-21.313-.127-.063zM42.085 231.769l40.2717-5.853 34.9913 20.422.127.064 40.24-5.853 33.942 19.754.318.191 4.071-6.999-36.581-21.281-.128-.095-40.239 5.885-34.9917-20.422-.1273-.064-40.2717 5.853-33.9097-19.754-.34991-.191-4.07171 6.966 36.61362 21.313.0954.064zM442.511 129.372l-24.335 32.574-39.158 10.37-.159.032-24.303 32.606-37.982 10.02-.382.095 2.068 7.794 40.94-10.784.127-.032 24.335-32.605 39.19-10.339.127-.063 24.303-32.574 37.95-10.02.382-.096-2.068-7.825-40.908 10.784-.127.063zM84.5194 397.628l24.3026-32.606 39.191-10.338.159-.032 24.303-32.605 37.949-9.989.382-.127-2.068-7.793-40.908 10.783-.159.032-24.303 32.606-39.19 10.338-.127.032-24.3349 32.605-37.9496 10.02-.3817.096 2.0676 7.825 40.9398-10.815.1272-.032zM397.66 442.512l-32.606-24.335-10.338-39.19-.064-.127-32.573-24.303-10.021-37.981-.127-.382-7.793 2.068 10.815 40.939.032.127 32.605 24.335 10.339 39.19.032.128 32.605 24.303 9.988 37.949.096.382 7.825-2.068-10.783-40.908-.032-.127zM129.373 84.5197l32.605 24.3033 10.338 39.19.032.159 32.606 24.303 10.02 37.95.095.381 7.794-2.067-10.784-40.94-.032-.127-32.605-24.303-10.338-39.191-.032-.127-32.606-24.3347-10.02-37.9496-.095-.3817-7.826 2.0677 10.816 40.9397.032.1273zM223.436 122.024l20.804 34.959-5.313 39.286 7.985 1.082 5.725-42.085-20.835-34.928 5.471-40.3036-20.804-34.9595 5.312-39.28559-8.016-1.08155-5.694 42.08494 20.804 34.9594-5.439 40.2719zM303.564 404.944l-20.804-34.927 5.313-39.286-7.985-1.081-5.726 42.085 20.836 34.927-5.471 40.304 20.804 34.927-5.313 39.318 8.016 1.081 5.694-42.084-20.803-34.96 5.439-40.304zM445.279 228.874l-40.304-5.439-34.959 20.804-38.904-5.281-.382-.032-1.082 7.985 42.085 5.726 34.96-20.836 40.272 5.471 34.959-20.804 38.872 5.281.414.032 1.081-8.016-42.085-5.694-34.927 20.803zM81.7534 298.125l40.3036 5.44 34.928-20.804 38.903 5.28.382.032 1.082-7.984-42.085-5.726-34.928 20.836-40.3034-5.472-34.9276 20.804-38.90393-5.248-.41354-.064-1.08155 8.016 42.11672 5.694 34.9277-20.804zM335.216 135.13l-10.021 39.413-31.237 23.794-.318.255 4.898 6.425 33.815-25.734 9.988-39.445 32.351-24.621 9.989-39.4128 31.237-23.794.318-.2227-4.899-6.4257-33.782 25.7027-9.988 39.4125-32.351 24.653zM191.816 391.839l9.989-39.413 31.237-23.762.318-.255-4.898-6.426-33.783 25.735-9.988 39.413-32.351 24.653-10.021 39.412-31.237 23.795-.318.222 4.898 6.426 33.815-25.735 9.988-39.412 32.351-24.653zM455.935 377.556l-39.413-9.989-24.557-32.255-.095-.096-39.413-10.02-23.794-31.237-.255-.319-6.426 4.899 25.671 33.687.064.127 39.445 9.989 24.557 32.255.064.096 39.444 9.988 23.763 31.238.222.318 6.426-4.899-25.607-33.687-.096-.095zM71.0958 149.476l39.4132 9.989 24.557 32.255.096.096 39.412 9.988 23.763 31.238.254.318 6.426-4.899-25.639-33.687-.096-.095-39.412-9.989-24.558-32.255-.064-.127-39.4443-9.989-23.794-31.237-.2227-.319-6.4257 4.899 25.6391 33.687.0954.127z"/>
</svg>